G04 DesignSpark PCB Gerber Version 10.0 Build 5299*
%FSLAX35Y35*%
%MOMM*%
%ADD95O,1.52400X2.79400*%
%ADD99R,1.52400X1.52400*%
%ADD92R,2.03200X2.03200*%
%ADD10C,0.12700*%
%ADD104C,0.25400*%
%ADD82C,0.38100*%
%ADD83C,1.21920*%
%ADD80C,1.27000*%
%ADD103C,1.39700*%
%ADD101C,1.40000*%
%ADD93C,1.41600*%
%ADD84C,1.42240*%
%ADD87C,1.52400*%
%ADD97C,1.77800*%
%ADD88C,1.90000*%
%ADD90C,2.00000*%
%ADD86C,2.03200*%
%ADD94C,2.10000*%
%ADD91C,2.20000*%
%ADD100C,2.50000*%
%ADD98C,3.04800*%
%ADD96C,4.11480*%
%ADD85C,6.35000*%
%ADD89C,7.00000*%
%ADD102O,2.79400X1.52400*%
X0Y0D02*
D02*
D10*
X82670Y4915300D02*
Y564500D01*
X12919330D01*
Y4937500D01*
X12486350D01*
G75*
G02*
X12204020Y6201440I0J663500D01*
G01*
G75*
G02*
X12492670Y6269040I288640J-582430D01*
G01*
X12916790D01*
Y10635380D01*
X10941940D01*
G75*
G02*
X10920350Y10268350I-21590J-182880D01*
G01*
G75*
G02*
X10898760Y10635380I0J184150D01*
G01*
X8909940D01*
G75*
G02*
X8888350Y10268350I-21590J-182880D01*
G01*
G75*
G02*
X8866760Y10635380I0J184150D01*
G01*
X4048950D01*
X82670Y10630320D01*
Y6274200D01*
X286350D01*
G75*
G02*
X468170Y6248800I-10J-663510D01*
G01*
X493650D01*
X505480Y6236970D01*
G75*
G02*
X949850Y5610700I-219140J-626280D01*
G01*
Y5578800D01*
G75*
G02*
X286350Y4915300I-663500J0D01*
G01*
X82670D01*
X11537100Y9901000D02*
G75*
G02*
X12235600I349250J0D01*
G01*
G75*
G02*
X11537100I-349250J0D01*
G01*
X11690300Y4610500D02*
G75*
G02*
X11953800I131750J0D01*
G01*
G75*
G02*
X11690300I-131750J0D01*
G01*
Y4953400D02*
G75*
G02*
X11953800I131750J0D01*
G01*
G75*
G02*
X11690300I-131750J0D01*
G01*
X10799700Y8674500D02*
G75*
G02*
X11041000I120650J0D01*
G01*
G75*
G02*
X10799700I-120650J0D01*
G01*
X11857930Y4074960D02*
G75*
G02*
X11872850Y4039000I-35880J-35960D01*
G01*
Y3696100D01*
G75*
G02*
X11857930Y3660140I-50800J0D01*
G01*
X11705610Y3507820D01*
G75*
G02*
X11669650Y3492900I-35960J35880D01*
G01*
X10996550D01*
G75*
G02*
X10960590Y3507820I0J50800D01*
G01*
X10779400Y3689010D01*
G75*
G02*
X10704100Y3791900I32650J102890D01*
G01*
Y3918900D01*
G75*
G02*
X10755250Y4010700I107950J0D01*
G01*
Y4488940D01*
G75*
G02*
X10806050Y4742250I50800J121560D01*
G01*
G75*
G02*
X10856850Y4488940I0J-131750D01*
G01*
Y4017110D01*
G75*
G02*
X10920000Y3918900I-44800J-98210D01*
G01*
Y3791900D01*
G75*
G02*
X10892340Y3719750I-107950J10D01*
G01*
X11017590Y3594500D01*
X11648610D01*
X11771250Y3717140D01*
Y4017960D01*
X11163870Y4625340D01*
G75*
G02*
X11148950Y4661300I35880J35960D01*
G01*
Y5300660D01*
X11132100Y5317510D01*
G75*
G02*
X10952100Y5397900I-72050J80390D01*
G01*
Y5524900D01*
G75*
G02*
X11009250Y5620150I107950J0D01*
G01*
Y6032900D01*
G75*
G02*
X11024170Y6068860I50800J0D01*
G01*
X11479150Y6523840D01*
Y7408860D01*
X11318410Y7569600D01*
X11195390D01*
X11110850Y7485060D01*
Y7444150D01*
G75*
G02*
X11168000Y7348900I-50800J-95250D01*
G01*
Y7221900D01*
G75*
G02*
X10952100I-107950J0D01*
G01*
Y7348900D01*
G75*
G02*
X11009250Y7444150I107950J0D01*
G01*
Y7506100D01*
G75*
G02*
X11024170Y7542060I50800J0D01*
G01*
X11138390Y7656280D01*
G75*
G02*
X11174350Y7671200I35960J-35880D01*
G01*
X11339450D01*
G75*
G02*
X11375410Y7656280I0J-50800D01*
G01*
X11565830Y7465860D01*
G75*
G02*
X11580750Y7429900I-35880J-35960D01*
G01*
Y6502800D01*
G75*
G02*
X11565830Y6466840I-50800J0D01*
G01*
X11110850Y6011860D01*
Y5620150D01*
G75*
G02*
X11168000Y5524900I-50800J-95250D01*
G01*
Y5425290D01*
X11206690Y5386600D01*
G75*
G02*
X11206100Y5397900I107350J11270D01*
G01*
Y5524900D01*
G75*
G02*
X11422000I107950J0D01*
G01*
Y5397900D01*
G75*
G02*
X11250550Y5310600I-107950J0D01*
G01*
Y4682340D01*
X11857930Y4074960D01*
X11860150Y2933560D02*
G75*
G02*
X12128900Y2870600I127000J-62960D01*
G01*
G75*
G02*
X11860150Y2807640I-141750J0D01*
G01*
G75*
G02*
X11606150I-127000J62960D01*
G01*
G75*
G02*
X11337400Y2870600I-127000J62960D01*
G01*
G75*
G02*
X11606150Y2933560I141750J0D01*
G01*
G75*
G02*
X11860150I127000J-62960D01*
G01*
X12042100Y1753000D02*
G75*
G02*
X12805600I381750J0D01*
G01*
G75*
G02*
X12042100I-381750J0D01*
G01*
X10964800Y2565800D02*
G75*
G02*
X11180700I107950J0D01*
G01*
G75*
G02*
X10964800I-107950J0D01*
G01*
Y2870600D02*
G75*
G02*
X11180700I107950J0D01*
G01*
G75*
G02*
X10964800I-107950J0D01*
G01*
X11072750Y3283350D02*
G75*
G02*
Y3067450I0J-107950D01*
G01*
G75*
G02*
Y3283350I0J107950D01*
G01*
X11212100Y3918900D02*
G75*
G02*
X11428000I107950J0D01*
G01*
Y3791900D01*
G75*
G02*
X11212100I-107950J0D01*
G01*
Y3918900D01*
X11466100D02*
G75*
G02*
X11682000I107950J0D01*
G01*
Y3791900D01*
G75*
G02*
X11466100I-107950J0D01*
G01*
Y3918900D01*
X11206100Y7348900D02*
G75*
G02*
X11422000I107950J0D01*
G01*
Y7221900D01*
G75*
G02*
X11364850Y7126650I-107950J0D01*
G01*
Y6515500D01*
G75*
G02*
X11349930Y6479540I-50800J0D01*
G01*
X10856850Y5986460D01*
Y5620150D01*
G75*
G02*
X10914000Y5524900I-50800J-95250D01*
G01*
Y5397900D01*
G75*
G02*
X10856850Y5302650I-107950J0D01*
G01*
Y5074960D01*
G75*
G02*
X10937800Y4953400I-50800J-121560D01*
G01*
G75*
G02*
X10937500Y4944590I-131720J80D01*
G01*
X11108630Y4773460D01*
G75*
G02*
X11123550Y4737500I-35880J-35960D01*
G01*
Y4010260D01*
G75*
G02*
X11174000Y3918900I-57500J-91360D01*
G01*
Y3791900D01*
G75*
G02*
X10958100I-107950J0D01*
G01*
Y3918900D01*
G75*
G02*
X11021950Y4017430I107950J0D01*
G01*
Y4716460D01*
X10888090Y4850310D01*
G75*
G02*
X10674300Y4953400I-82040J103090D01*
G01*
G75*
G02*
X10755250Y5074960I131750J0D01*
G01*
Y5302650D01*
G75*
G02*
X10698100Y5397900I50800J95250D01*
G01*
Y5524900D01*
G75*
G02*
X10755250Y5620150I107950J0D01*
G01*
Y6007500D01*
G75*
G02*
X10770170Y6043460I50800J0D01*
G01*
X11263250Y6536540D01*
Y7126650D01*
G75*
G02*
X11206100Y7221900I50800J95250D01*
G01*
Y7348900D01*
X9275700Y8674500D02*
G75*
G02*
X9517000I120650J0D01*
G01*
G75*
G02*
X9275700I-120650J0D01*
G01*
X9529700D02*
G75*
G02*
X9771000I120650J0D01*
G01*
G75*
G02*
X9529700I-120650J0D01*
G01*
X9783700D02*
G75*
G02*
X10025000I120650J0D01*
G01*
G75*
G02*
X9783700I-120650J0D01*
G01*
X10037700D02*
G75*
G02*
X10279000I120650J0D01*
G01*
G75*
G02*
X10037700I-120650J0D01*
G01*
X10190100Y5524900D02*
G75*
G02*
X10406000I107950J0D01*
G01*
Y5397900D01*
G75*
G02*
X10190100I-107950J0D01*
G01*
Y5524900D01*
X10196100Y3918900D02*
G75*
G02*
X10412000I107950J0D01*
G01*
Y3791900D01*
G75*
G02*
X10196100I-107950J0D01*
G01*
Y3918900D01*
X10291700Y8674500D02*
G75*
G02*
X10533000I120650J0D01*
G01*
G75*
G02*
X10291700I-120650J0D01*
G01*
X10444100Y5524900D02*
G75*
G02*
X10660000I107950J0D01*
G01*
Y5397900D01*
G75*
G02*
X10444100I-107950J0D01*
G01*
Y5524900D01*
X10450100Y3918900D02*
G75*
G02*
X10666000I107950J0D01*
G01*
Y3791900D01*
G75*
G02*
X10450100I-107950J0D01*
G01*
Y3918900D01*
X11490850Y1553360D02*
G75*
G02*
X11732100Y1499000I114500J-54360D01*
G01*
G75*
G02*
X11490850Y1444640I-126750J0D01*
G01*
G75*
G02*
X11261850I-114500J54360D01*
G01*
G75*
G02*
X11122000Y1374810I-114510J54370D01*
G01*
X10638810Y891620D01*
G75*
G02*
X10602850Y876700I-35960J35880D01*
G01*
X8512960D01*
G75*
G02*
X8443850Y697630I-69110J-76200D01*
G01*
G75*
G02*
X8374740Y876700I0J102870D01*
G01*
X7187900D01*
G75*
G02*
X7032800I-77550J50800D01*
G01*
X6983350D01*
G75*
G02*
X6947390Y891620I0J50800D01*
G01*
X6767260Y1071740D01*
G75*
G02*
X6627000Y959250I-101410J-17250D01*
G01*
X6083000D01*
X5806160Y682400D01*
G75*
G02*
X5738750Y654450I-67410J67310D01*
G01*
X4722750D01*
G75*
G02*
X4655350Y682400I0J95250D01*
G01*
X4516450Y821300D01*
G75*
G02*
X4488500Y888700I67300J67400D01*
G01*
Y1360960D01*
G75*
G02*
X4482150Y1396320I95260J35360D01*
G01*
G75*
G02*
X4685350I101600J0D01*
G01*
G75*
G02*
X4679000Y1360960I-101610J0D01*
G01*
Y928150D01*
X4762200Y844950D01*
X4852310D01*
G75*
G02*
X4736720Y1015860I68560J170910D01*
G01*
G75*
G02*
X5105020I184150J0D01*
G01*
G75*
G02*
X4989430Y844950I-184150J0D01*
G01*
X5699300D01*
X5976150Y1121800D01*
G75*
G02*
X6043550Y1149750I67400J-67300D01*
G01*
X6460660D01*
X5804470Y1805940D01*
G75*
G02*
X5789550Y1841900I35880J35960D01*
G01*
Y2341560D01*
X5036710Y3094400D01*
G75*
G02*
X5035130Y2998360I-123470J-46000D01*
G01*
X5294630Y2738860D01*
G75*
G02*
X5309550Y2702900I-35880J-35960D01*
G01*
Y1734310D01*
G75*
G02*
X5360350Y1646320I-50800J-87990D01*
G01*
G75*
G02*
X5157150I-101600J0D01*
G01*
G75*
G02*
X5207950Y1734310I101600J0D01*
G01*
Y2681860D01*
X4963290Y2926520D01*
G75*
G02*
X4791370Y3098440I-50040J121880D01*
G01*
X4714410Y3175400D01*
X3932310D01*
G75*
G02*
X3897250Y2916650I-35060J-127000D01*
G01*
G75*
G02*
X3862190Y3175400I0J131750D01*
G01*
X3753190D01*
X3594120Y3016330D01*
G75*
G02*
X3395600Y2934100I-103270J-31430D01*
G01*
G75*
G02*
X3351150Y2889650I-95250J50800D01*
G01*
G75*
G02*
X3408300Y2794400I-50800J-95250D01*
G01*
G75*
G02*
X3192400I-107950J0D01*
G01*
G75*
G02*
X3249550Y2889650I107950J0D01*
G01*
G75*
G02*
X3205100Y2934100I50800J95250D01*
G01*
G75*
G02*
X3001900Y2984900I-95250J50800D01*
G01*
G75*
G02*
X3205100Y3035700I107950J0D01*
G01*
G75*
G02*
X3395600I95250J-50800D01*
G01*
G75*
G02*
X3522280Y3088170I95250J-50800D01*
G01*
X3696190Y3262080D01*
G75*
G02*
X3732150Y3277000I35960J-35880D01*
G01*
X4735450D01*
G75*
G02*
X4771410Y3262080I0J-50800D01*
G01*
X4863210Y3170280D01*
G75*
G02*
X4959250Y3171860I50040J-121890D01*
G01*
X4841410Y3289700D01*
X1408050D01*
G75*
G02*
X1372090Y3304620I0J50800D01*
G01*
X1249300Y3427410D01*
Y3062450D01*
X1850960Y2460800D01*
G75*
G02*
X1839850Y2187750I-11110J-136300D01*
G01*
G75*
G02*
X1703100Y2324500I0J136750D01*
G01*
G75*
G02*
X1703820Y2338530I136810J10D01*
G01*
X1086750Y2955600D01*
G75*
G02*
X1058800Y3023000I67300J67400D01*
G01*
Y5065710D01*
X874650Y4881560D01*
Y4654950D01*
X887350D01*
G75*
G02*
Y4439050I0J-107950D01*
G01*
X760350D01*
G75*
G02*
Y4654950I0J107950D01*
G01*
X773050D01*
Y4902600D01*
G75*
G02*
X787970Y4938560I50800J0D01*
G01*
X988950Y5139540D01*
Y8534800D01*
G75*
G02*
X1003870Y8570760I50800J0D01*
G01*
X2159490Y9726380D01*
G75*
G02*
X2165240Y9731340I35970J-35880D01*
G01*
G75*
G02*
X2220850Y9920050I55610J86160D01*
G01*
G75*
G02*
X2289480Y9741300I0J-102550D01*
G01*
X2406220D01*
G75*
G02*
X2474850Y9920050I68630J76200D01*
G01*
G75*
G02*
X2543480Y9741300I0J-102550D01*
G01*
X2660220D01*
G75*
G02*
X2728850Y9920050I68630J76200D01*
G01*
G75*
G02*
X2797480Y9741300I0J-102550D01*
G01*
X2914220D01*
G75*
G02*
X2982850Y9920050I68630J76200D01*
G01*
G75*
G02*
X3051480Y9741300I0J-102550D01*
G01*
X3168220D01*
G75*
G02*
X3236850Y9920050I68630J76200D01*
G01*
G75*
G02*
X3305480Y9741300I0J-102550D01*
G01*
X3422220D01*
G75*
G02*
X3490850Y9920050I68630J76200D01*
G01*
G75*
G02*
X3559480Y9741300I0J-102550D01*
G01*
X3676220D01*
G75*
G02*
X3744850Y9920050I68630J76200D01*
G01*
G75*
G02*
X3813480Y9741300I0J-102550D01*
G01*
X3930220D01*
G75*
G02*
X4025920Y9916410I68630J76200D01*
G01*
X4075050Y9965540D01*
Y10002870D01*
G75*
G02*
X3903600Y10109500I-76200J68630D01*
G01*
Y10287400D01*
G75*
G02*
X3931550Y10354810I95260J0D01*
G01*
X4096550Y10519800D01*
G75*
G02*
X4163950Y10547750I67400J-67300D01*
G01*
X7110350D01*
G75*
G02*
X7177760Y10519800I0J-95260D01*
G01*
X7427850Y10269700D01*
X7614450Y10456300D01*
G75*
G02*
X7681850Y10484250I67400J-67300D01*
G01*
X7844830D01*
G75*
G02*
X8062850Y10424060I91020J-95250D01*
G01*
G75*
G02*
X8311410Y10439800I127000J-35060D01*
G01*
X8336650D01*
G75*
G02*
X8335900Y10452500I107210J12700D01*
G01*
G75*
G02*
X8551800I107950J0D01*
G01*
G75*
G02*
X8412080Y10349330I-107950J0D01*
G01*
G75*
G02*
X8380350Y10338200I-31730J39670D01*
G01*
X8311410D01*
G75*
G02*
X8062850Y10353940I-121560J50800D01*
G01*
G75*
G02*
X7844830Y10293750I-127000J35060D01*
G01*
X7721300D01*
X7562550Y10135000D01*
X8612750Y9084810D01*
G75*
G02*
X8640700Y9017400I-67310J-67410D01*
G01*
Y7499750D01*
X8861600D01*
X9341650Y7979800D01*
G75*
G02*
X9409050Y8007750I67400J-67300D01*
G01*
X9841520D01*
G75*
G02*
X10048800Y7899800I75530J-107950D01*
G01*
G75*
G02*
X9814370Y7817250I-131750J0D01*
G01*
X9448500D01*
X8968460Y7337200D01*
G75*
G02*
X8901050Y7309250I-67410J67310D01*
G01*
X8635700D01*
X8635000Y7308550D01*
G75*
G02*
X8612750Y7273600I-89550J32450D01*
G01*
X7548500Y6209350D01*
Y2118100D01*
G75*
G02*
X7624570Y2135860I57150J-73000D01*
G01*
X8202550Y2713840D01*
Y3594500D01*
G75*
G02*
X8217470Y3630460I50800J0D01*
G01*
X8344390Y3757380D01*
G75*
G02*
X8375050Y3772020I35960J-35880D01*
G01*
G75*
G02*
X8443850Y3951370I68800J76480D01*
G01*
G75*
G02*
X8512960Y3772300I0J-102870D01*
G01*
X8730350D01*
G75*
G02*
X8837550Y3892950I107200J12700D01*
G01*
G75*
G02*
X8914010Y3708800I0J-107950D01*
G01*
X9777090D01*
G75*
G02*
X9853550Y3892950I76460J76200D01*
G01*
G75*
G02*
X9930010Y3708800I0J-107950D01*
G01*
X10005950D01*
G75*
G02*
X10041910Y3693880I0J-50800D01*
G01*
X10130730Y3605060D01*
G75*
G02*
X10145650Y3569100I-35880J-35960D01*
G01*
Y3236640D01*
G75*
G02*
X10089110Y3072410I-88900J-61240D01*
G01*
X10003810Y2987120D01*
G75*
G02*
X9967850Y2972200I-35960J35880D01*
G01*
X9890030D01*
G75*
G02*
X9955150Y2907080I-36480J-101600D01*
G01*
G75*
G02*
X10164700Y2870600I101600J-36480D01*
G01*
G75*
G02*
X9955150Y2834120I-107950J0D01*
G01*
G75*
G02*
X9745600Y2870600I-101600J36480D01*
G01*
G75*
G02*
X9817070Y2972200I107950J0D01*
G01*
X9671390D01*
X9447150Y2747960D01*
Y2356250D01*
G75*
G02*
X9504300Y2261000I-50800J-95250D01*
G01*
Y2134000D01*
G75*
G02*
X9318810Y2058900I-107950J0D01*
G01*
G75*
G02*
X9305230Y2034540I-49460J11610D01*
G01*
X9051310Y1780620D01*
G75*
G02*
X9015350Y1765700I-35960J35880D01*
G01*
X8718890D01*
X8606810Y1653620D01*
G75*
G02*
X8570850Y1638700I-35960J35880D01*
G01*
X8512960D01*
G75*
G02*
X8443850Y1459630I-69110J-76200D01*
G01*
G75*
G02*
X8374740Y1638700I0J102870D01*
G01*
X8337890D01*
X8162310Y1463120D01*
G75*
G02*
X8126350Y1448200I-35960J35880D01*
G01*
X6877390D01*
X6828810Y1399620D01*
G75*
G02*
X6792850Y1384700I-35960J35880D01*
G01*
X6734960D01*
G75*
G02*
X6734650Y1232020I-69120J-76200D01*
G01*
G75*
G02*
X6765310Y1217380I-5300J-50520D01*
G01*
X7004390Y978300D01*
X7032800D01*
G75*
G02*
X7187900I77550J-50800D01*
G01*
X8374740D01*
G75*
G02*
Y1130700I69110J76200D01*
G01*
X8020390D01*
X7984510Y1094820D01*
G75*
G02*
X7948550Y1079900I-35960J35880D01*
G01*
X7060900D01*
G75*
G02*
X6890640Y1130700I-77550J50800D01*
G01*
G75*
G02*
X7060900Y1181500I92710J0D01*
G01*
X7927510D01*
X7963390Y1217380D01*
G75*
G02*
X7999350Y1232300I35960J-35880D01*
G01*
X8374740D01*
G75*
G02*
X8443850Y1411370I69110J76200D01*
G01*
G75*
G02*
X8512960Y1232300I0J-102870D01*
G01*
X8748650D01*
G75*
G02*
X8784610Y1217380I0J-50800D01*
G01*
X8960190Y1041800D01*
X10391310D01*
X10727700Y1378190D01*
G75*
G02*
X10562600Y1499000I-38350J120810D01*
G01*
G75*
G02*
X10803850Y1553360I126750J0D01*
G01*
G75*
G02*
X11032850I114500J-54360D01*
G01*
G75*
G02*
X11261850I114500J-54360D01*
G01*
G75*
G02*
X11490850I114500J-54360D01*
G01*
X6665850Y903370D02*
G75*
G02*
X6768720Y800500I0J-102870D01*
G01*
G75*
G02*
X6665850Y697630I-102870J0D01*
G01*
G75*
G02*
X6562980Y800500I0J102870D01*
G01*
G75*
G02*
X6665850Y903370I102870J0D01*
G01*
X5412360Y1097140D02*
G75*
G02*
X5780660I184150J0D01*
G01*
G75*
G02*
X5412360I-184150J0D01*
G01*
X5157150Y1396320D02*
G75*
G02*
X5360350I101600J0D01*
G01*
G75*
G02*
X5157150I-101600J0D01*
G01*
X3765500Y2743600D02*
G75*
G02*
X4029000I131750J0D01*
G01*
G75*
G02*
X3765500I-131750J0D01*
G01*
X1733500Y2832500D02*
G75*
G02*
X1997000I131750J0D01*
G01*
G75*
G02*
X1733500I-131750J0D01*
G01*
Y3137300D02*
G75*
G02*
X1997000I131750J0D01*
G01*
G75*
G02*
X1733500I-131750J0D01*
G01*
X5101210Y1484310D02*
G75*
G02*
X5152010Y1396320I-50800J-87990D01*
G01*
G75*
G02*
X4948810I-101600J0D01*
G01*
G75*
G02*
X4999610Y1484310I101600J0D01*
G01*
Y2585400D01*
X4963290Y2621720D01*
G75*
G02*
X4791690Y2692800I-50040J121880D01*
G01*
X4731090D01*
X4504710Y2466420D01*
G75*
G02*
X4468750Y2451500I-35960J35880D01*
G01*
X3668650D01*
G75*
G02*
X3632690Y2466420I0J50800D01*
G01*
X3546010Y2553100D01*
X2817750D01*
G75*
G02*
X2781790Y2568020I0J50800D01*
G01*
X2489770Y2860040D01*
G75*
G02*
X2475280Y2889420I35870J35960D01*
G01*
G75*
G02*
X2430400Y2934100I50380J95480D01*
G01*
G75*
G02*
X2385950Y2889650I-95250J50800D01*
G01*
G75*
G02*
X2443100Y2794400I-50800J-95250D01*
G01*
G75*
G02*
X2227200I-107950J0D01*
G01*
G75*
G02*
X2284350Y2889650I107950J0D01*
G01*
G75*
G02*
X2239900Y2934100I50800J95250D01*
G01*
G75*
G02*
X2036700Y2984900I-95250J50800D01*
G01*
G75*
G02*
X2239900Y3035700I107950J0D01*
G01*
G75*
G02*
X2430400I95250J-50800D01*
G01*
G75*
G02*
X2633600Y2984900I95250J-50800D01*
G01*
G75*
G02*
X2592980Y2900520I-107940J0D01*
G01*
X2838790Y2654700D01*
X3567050D01*
G75*
G02*
X3603010Y2639780I0J-50800D01*
G01*
X3689690Y2553100D01*
X4447710D01*
X4674090Y2779480D01*
G75*
G02*
X4710050Y2794400I35960J-35880D01*
G01*
X4791690D01*
G75*
G02*
X5035130Y2693560I121560J-50810D01*
G01*
X5086290Y2642400D01*
G75*
G02*
X5101210Y2606440I-35880J-35960D01*
G01*
Y1484310D01*
X4689730Y1396320D02*
G75*
G02*
X4892930I101600J0D01*
G01*
G75*
G02*
X4689730I-101600J0D01*
G01*
X4482150Y1646320D02*
G75*
G02*
X4685350I101600J0D01*
G01*
G75*
G02*
X4482150I-101600J0D01*
G01*
X4061080Y1097140D02*
G75*
G02*
X4429380I184150J0D01*
G01*
G75*
G02*
X4061080I-184150J0D01*
G01*
X3194000Y2311800D02*
G75*
G02*
X3457500I131750J0D01*
G01*
G75*
G02*
X3360810Y2184800I-131750J0D01*
G01*
G75*
G02*
X3325750Y1926050I-35060J-127000D01*
G01*
G75*
G02*
X3290690Y2184800I0J131750D01*
G01*
G75*
G02*
X3194000Y2311800I35060J127000D01*
G01*
X3287100Y1401000D02*
G75*
G02*
X3985600I349250J0D01*
G01*
G75*
G02*
X3287100I-349250J0D01*
G01*
X2570100Y1603730D02*
G75*
G02*
X2570050Y1394230I-82550J-104730D01*
G01*
G75*
G02*
X2542150Y1330000I-95190J3170D01*
G01*
X2351760Y1139600D01*
G75*
G02*
X2284350Y1111650I-67410J67310D01*
G01*
X1827150D01*
G75*
G02*
X1759750Y1139600I0J95250D01*
G01*
X1455050Y1444300D01*
G75*
G02*
X1427100Y1511700I67300J67400D01*
G01*
Y2119950D01*
X846260Y2700780D01*
G75*
G02*
X849250Y2964250I2990J131720D01*
G01*
G75*
G02*
X980970Y2835490I0J-131750D01*
G01*
X1589650Y2226810D01*
G75*
G02*
X1617600Y2159400I-67310J-67410D01*
G01*
Y1551150D01*
X1866600Y1302150D01*
X2244900D01*
X2373180Y1430430D01*
G75*
G02*
X2360550Y1458340I114390J68580D01*
G01*
G75*
G02*
X2112900Y1442200I-127000J40660D01*
G01*
Y1365650D01*
X1846200D01*
Y1632350D01*
X2112900D01*
Y1555800D01*
G75*
G02*
X2187090Y1623990I120640J-56800D01*
G01*
G75*
G02*
X2087500Y1753000I33760J129010D01*
G01*
G75*
G02*
X2354200I133350J0D01*
G01*
G75*
G02*
X2267310Y1628010I-133350J0D01*
G01*
G75*
G02*
X2360550Y1539660I-33770J-129010D01*
G01*
G75*
G02*
X2379600Y1577290I127010J-40660D01*
G01*
Y2079820D01*
G75*
G02*
X2347850Y2121840I95260J104980D01*
G01*
G75*
G02*
X2079100Y2184800I-127000J62960D01*
G01*
G75*
G02*
X2347850Y2247760I141750J0D01*
G01*
G75*
G02*
X2616600Y2184800I127000J-62960D01*
G01*
G75*
G02*
X2570100Y2079820I-141750J0D01*
G01*
Y1603730D01*
X8335900Y9436500D02*
G75*
G02*
X8551800I107950J0D01*
G01*
G75*
G02*
X8335900I-107950J0D01*
G01*
X9859900Y4991500D02*
G75*
G02*
X10075800I107950J0D01*
G01*
G75*
G02*
X9859900I-107950J0D01*
G01*
Y6007500D02*
G75*
G02*
X10075800I107950J0D01*
G01*
G75*
G02*
X9859900I-107950J0D01*
G01*
Y6325000D02*
G75*
G02*
X10075800I107950J0D01*
G01*
G75*
G02*
X9859900I-107950J0D01*
G01*
Y6642500D02*
G75*
G02*
X10075800I107950J0D01*
G01*
G75*
G02*
X9859900I-107950J0D01*
G01*
X9605900Y7341000D02*
G75*
G02*
X9821800I107950J0D01*
G01*
Y7214000D01*
G75*
G02*
X9605900I-107950J0D01*
G01*
Y7341000D01*
X9840850Y4527950D02*
G75*
G02*
Y4312050I0J-107950D01*
G01*
G75*
G02*
Y4527950I0J107950D01*
G01*
X9848800Y4089800D02*
G75*
G02*
X10064700I107950J0D01*
G01*
G75*
G02*
X9848800I-107950J0D01*
G01*
X9840850Y4845450D02*
G75*
G02*
Y4629550I0J-107950D01*
G01*
G75*
G02*
Y4845450I0J107950D01*
G01*
X9097900Y7341000D02*
G75*
G02*
X9313800I107950J0D01*
G01*
Y7214000D01*
G75*
G02*
X9097900I-107950J0D01*
G01*
Y7341000D01*
X9351900D02*
G75*
G02*
X9567800I107950J0D01*
G01*
Y7214000D01*
G75*
G02*
X9351900I-107950J0D01*
G01*
Y7341000D01*
X9586850Y5450750D02*
G75*
G02*
X9728600Y5309000I0J-141750D01*
G01*
G75*
G02*
X9586850Y5167250I-141750J0D01*
G01*
G75*
G02*
X9445100Y5309000I0J141750D01*
G01*
G75*
G02*
X9586850Y5450750I141750J0D01*
G01*
Y5958750D02*
G75*
G02*
X9728600Y5817000I0J-141750D01*
G01*
G75*
G02*
X9586850Y5675250I-141750J0D01*
G01*
G75*
G02*
X9445100Y5817000I0J141750D01*
G01*
G75*
G02*
X9586850Y5958750I141750J0D01*
G01*
X8653400Y4991500D02*
G75*
G02*
X8869300I107950J0D01*
G01*
G75*
G02*
X8653400I-107950J0D01*
G01*
X8678800Y4197750D02*
X8894700D01*
Y3981850D01*
X8678800D01*
Y4197750D01*
X8716900Y4420000D02*
G75*
G02*
X8932800I107950J0D01*
G01*
G75*
G02*
X8716900I-107950J0D01*
G01*
Y4737500D02*
G75*
G02*
X8932800I107950J0D01*
G01*
G75*
G02*
X8716900I-107950J0D01*
G01*
X8653400Y6007500D02*
G75*
G02*
X8869300I107950J0D01*
G01*
G75*
G02*
X8653400I-107950J0D01*
G01*
X8843900Y6325000D02*
G75*
G02*
X9059800I107950J0D01*
G01*
G75*
G02*
X8843900I-107950J0D01*
G01*
X9142350Y5450750D02*
G75*
G02*
X9284100Y5309000I0J-141750D01*
G01*
G75*
G02*
X9142350Y5167250I-141750J0D01*
G01*
G75*
G02*
X9000600Y5309000I0J141750D01*
G01*
G75*
G02*
X9142350Y5450750I141750J0D01*
G01*
Y5958750D02*
G75*
G02*
X9284100Y5817000I0J-141750D01*
G01*
G75*
G02*
X9142350Y5675250I-141750J0D01*
G01*
G75*
G02*
X9000600Y5817000I0J141750D01*
G01*
G75*
G02*
X9142350Y5958750I141750J0D01*
G01*
X8843900Y6642500D02*
G75*
G02*
X9059800I107950J0D01*
G01*
G75*
G02*
X8843900I-107950J0D01*
G01*
X8443850Y4205370D02*
G75*
G02*
X8546720Y4102500I0J-102870D01*
G01*
G75*
G02*
X8443850Y3999630I-102870J0D01*
G01*
G75*
G02*
X8340980Y4102500I0J102870D01*
G01*
G75*
G02*
X8443850Y4205370I102870J0D01*
G01*
Y4459370D02*
G75*
G02*
X8546720Y4356500I0J-102870D01*
G01*
G75*
G02*
X8443850Y4253630I-102870J0D01*
G01*
G75*
G02*
X8340980Y4356500I0J102870D01*
G01*
G75*
G02*
X8443850Y4459370I102870J0D01*
G01*
Y4713370D02*
G75*
G02*
X8546720Y4610500I0J-102870D01*
G01*
G75*
G02*
X8443850Y4507630I-102870J0D01*
G01*
G75*
G02*
X8340980Y4610500I0J102870D01*
G01*
G75*
G02*
X8443850Y4713370I102870J0D01*
G01*
Y4967370D02*
G75*
G02*
X8546720Y4864500I0J-102870D01*
G01*
G75*
G02*
X8443850Y4761630I-102870J0D01*
G01*
G75*
G02*
X8340980Y4864500I0J102870D01*
G01*
G75*
G02*
X8443850Y4967370I102870J0D01*
G01*
Y5221370D02*
G75*
G02*
X8546720Y5118500I0J-102870D01*
G01*
G75*
G02*
X8443850Y5015630I-102870J0D01*
G01*
G75*
G02*
X8340980Y5118500I0J102870D01*
G01*
G75*
G02*
X8443850Y5221370I102870J0D01*
G01*
Y5475370D02*
G75*
G02*
X8546720Y5372500I0J-102870D01*
G01*
G75*
G02*
X8443850Y5269630I-102870J0D01*
G01*
G75*
G02*
X8340980Y5372500I0J102870D01*
G01*
G75*
G02*
X8443850Y5475370I102870J0D01*
G01*
Y5729370D02*
G75*
G02*
X8546720Y5626500I0J-102870D01*
G01*
G75*
G02*
X8443850Y5523630I-102870J0D01*
G01*
G75*
G02*
X8340980Y5626500I0J102870D01*
G01*
G75*
G02*
X8443850Y5729370I102870J0D01*
G01*
X9955150Y2602280D02*
G75*
G02*
X10164700Y2565800I101600J-36480D01*
G01*
G75*
G02*
X9955150Y2529320I-107950J0D01*
G01*
G75*
G02*
X9745600Y2565800I-101600J36480D01*
G01*
G75*
G02*
X9955150Y2602280I107950J0D01*
G01*
X9543100Y1753000D02*
G75*
G02*
X10306600I381750J0D01*
G01*
G75*
G02*
X9543100I-381750J0D01*
G01*
X8787100Y1401000D02*
G75*
G02*
X9485600I349250J0D01*
G01*
G75*
G02*
X8787100I-349250J0D01*
G01*
X11490850Y2061360D02*
G75*
G02*
X11732100Y2007000I114500J-54360D01*
G01*
G75*
G02*
X11490850Y1952640I-126750J0D01*
G01*
G75*
G02*
X11261850I-114500J54360D01*
G01*
G75*
G02*
X11032850I-114500J54360D01*
G01*
G75*
G02*
X10803850I-114500J54360D01*
G01*
G75*
G02*
X10562600Y2007000I-114500J54360D01*
G01*
G75*
G02*
X10803850Y2061360I126750J0D01*
G01*
G75*
G02*
X11032850I114500J-54360D01*
G01*
G75*
G02*
X11261850I114500J-54360D01*
G01*
G75*
G02*
X11490850I114500J-54360D01*
G01*
X11605350Y1807360D02*
G75*
G02*
X11846600Y1753000I114500J-54360D01*
G01*
G75*
G02*
X11605350Y1698640I-126750J0D01*
G01*
G75*
G02*
X11376350I-114500J54360D01*
G01*
G75*
G02*
X11147350I-114500J54360D01*
G01*
G75*
G02*
X10918350I-114500J54360D01*
G01*
G75*
G02*
X10677100Y1753000I-114500J54360D01*
G01*
G75*
G02*
X10918350Y1807360I126750J0D01*
G01*
G75*
G02*
X11147350I114500J-54360D01*
G01*
G75*
G02*
X11376350I114500J-54360D01*
G01*
G75*
G02*
X11605350I114500J-54360D01*
G01*
X10444100Y7348900D02*
G75*
G02*
X10660000I107950J0D01*
G01*
Y7221900D01*
G75*
G02*
X10444100I-107950J0D01*
G01*
Y7348900D01*
X10545700Y8674500D02*
G75*
G02*
X10787000I120650J0D01*
G01*
G75*
G02*
X10545700I-120650J0D01*
G01*
X10698100Y7348900D02*
G75*
G02*
X10914000I107950J0D01*
G01*
Y7221900D01*
G75*
G02*
X10698100I-107950J0D01*
G01*
Y7348900D01*
X9021700Y8674500D02*
G75*
G02*
X9263000I120650J0D01*
G01*
G75*
G02*
X9021700I-120650J0D01*
G01*
X8767700D02*
G75*
G02*
X9009000I120650J0D01*
G01*
G75*
G02*
X8767700I-120650J0D01*
G01*
X8769300Y7899800D02*
G75*
G02*
X9032800I131750J0D01*
G01*
G75*
G02*
X8769300I-131750J0D01*
G01*
X459600Y9079750D02*
G75*
G02*
X616350Y8923000I0J-156750D01*
G01*
G75*
G02*
X459600Y8766250I-156750J0D01*
G01*
G75*
G02*
X302850Y8923000I0J156750D01*
G01*
G75*
G02*
X459600Y9079750I156750J0D01*
G01*
X3209780Y10170410D02*
G75*
G02*
X3339400Y10071500I27070J-98910D01*
G01*
G75*
G02*
X3134300I-102550J0D01*
G01*
G75*
G02*
X3137940Y10098570I102560J-10D01*
G01*
X3057060Y10179450D01*
X2051390D01*
X1265050Y9393110D01*
G75*
G02*
X1266350Y9373000I-155450J-20150D01*
G01*
G75*
G02*
X961310Y9322200I-156750J0D01*
G01*
X607890D01*
G75*
G02*
X302850Y9373000I-148290J50800D01*
G01*
G75*
G02*
X607890Y9423800I156750J0D01*
G01*
X961310D01*
G75*
G02*
X1216190Y9487930I148290J-50800D01*
G01*
X1994390Y10266130D01*
G75*
G02*
X2030350Y10281050I35960J-35880D01*
G01*
X3078100D01*
G75*
G02*
X3114060Y10266130I0J-50800D01*
G01*
X3209780Y10170410D01*
X2118300Y10071500D02*
G75*
G02*
X2323400I102550J0D01*
G01*
G75*
G02*
X2118300I-102550J0D01*
G01*
X2372300D02*
G75*
G02*
X2577400I102550J0D01*
G01*
G75*
G02*
X2372300I-102550J0D01*
G01*
X2626300D02*
G75*
G02*
X2831400I102550J0D01*
G01*
G75*
G02*
X2626300I-102550J0D01*
G01*
X2880300D02*
G75*
G02*
X3085400I102550J0D01*
G01*
G75*
G02*
X2880300I-102550J0D01*
G01*
X1109600Y9079750D02*
G75*
G02*
X1266350Y8923000I0J-156750D01*
G01*
G75*
G02*
X1109600Y8766250I-156750J0D01*
G01*
G75*
G02*
X952850Y8923000I0J156750D01*
G01*
G75*
G02*
X1109600Y9079750I156750J0D01*
G01*
X537100Y9901000D02*
G75*
G02*
X1235600I349250J0D01*
G01*
G75*
G02*
X537100I-349250J0D01*
G01*
X3388300Y10071500D02*
G75*
G02*
X3593400I102550J0D01*
G01*
G75*
G02*
X3388300I-102550J0D01*
G01*
X3642300D02*
G75*
G02*
X3847400I102550J0D01*
G01*
G75*
G02*
X3642300I-102550J0D01*
G01*
X919100Y2047420D02*
G75*
G02*
X997840Y1870780I-158760J-176640D01*
G01*
G75*
G02*
X522860I-237490J0D01*
G01*
G75*
G02*
X728600Y2106140I237490J0D01*
G01*
Y2219520D01*
G75*
G02*
X823850Y2466250I95250J104980D01*
G01*
G75*
G02*
X919100Y2219520I0J-141750D01*
G01*
Y2047420D01*
X525400Y1138700D02*
G75*
G02*
X1000380I237490J0D01*
G01*
G75*
G02*
X525400I-237490J0D01*
G01*
X899020Y1553000D02*
G75*
G02*
X1374000I237490J0D01*
G01*
G75*
G02*
X899020I-237490J0D01*
G01*
X887350Y4400950D02*
G75*
G02*
Y4185050I0J-107950D01*
G01*
X760350D01*
G75*
G02*
Y4400950I0J107950D01*
G01*
X887350D01*
X717500Y3137300D02*
G75*
G02*
X981000I131750J0D01*
G01*
G75*
G02*
X717500I-131750J0D01*
G01*
X89020Y800500D02*
G36*
X89020Y800500D02*
Y570850D01*
X12912980D01*
Y800500D01*
X8546720D01*
G75*
G02*
X8443850Y697630I-102870J0D01*
G01*
G75*
G02*
X8340980Y800500I0J102870D01*
G01*
X6768720D01*
G75*
G02*
X6665850Y697630I-102870J0D01*
G01*
G75*
G02*
X6562980Y800500I0J102870D01*
G01*
X5924260D01*
X5806160Y682400D01*
G75*
G02*
X5738750Y654450I-67380J67250D01*
G01*
X4722750D01*
G75*
G02*
X4655350Y682400I-20J95200D01*
G01*
X4537250Y800500D01*
X89020D01*
G37*
Y1097140D02*
G36*
X89020Y1097140D02*
Y800500D01*
X4537250D01*
X4516450Y821300D01*
G75*
G02*
X4488500Y888680I67250J67380D01*
G01*
G75*
G02*
Y888700I127320J10D01*
G01*
Y1097140D01*
X4429380D01*
G75*
G02*
X4061080I-184150J0D01*
G01*
X3808530D01*
G75*
G02*
X3464170I-172180J303870D01*
G01*
X996720D01*
G75*
G02*
X529060I-233830J41560D01*
G01*
X89020D01*
G37*
X4679000D02*
G36*
X4679000Y1097140D02*
Y928150D01*
X4762200Y844950D01*
X4852310D01*
G75*
G02*
X4736720Y1015860I68570J170920D01*
G01*
G75*
G02*
X4755630Y1097140I184160J0D01*
G01*
X4679000D01*
G37*
X5105020Y1015860D02*
G36*
X5105020Y1015860D02*
G75*
G02*
X4989430Y844950I-184160J10D01*
G01*
X5699300D01*
X5951490Y1097140D01*
X5780660D01*
G75*
G02*
X5412360I-184150J0D01*
G01*
X5086110D01*
G75*
G02*
X5105020Y1015860I-165250J-81280D01*
G01*
G37*
X6083000Y959250D02*
G36*
X6083000Y959250D02*
X5924260Y800500D01*
X6562980D01*
G75*
G02*
X6665850Y903370I102870J0D01*
G01*
G75*
G02*
X6768720Y800500I0J-102870D01*
G01*
X8340980D01*
G75*
G02*
X8374740Y876700I102870J0D01*
G01*
X7187900D01*
G75*
G02*
X7032800I-77550J50790D01*
G01*
X6983350D01*
G75*
G02*
X6947390Y891620I0J50800D01*
G01*
X6767260Y1071740D01*
G75*
G02*
X6768720Y1054490I-101430J-17270D01*
G01*
G75*
G02*
X6627000Y959250I-102860J0D01*
G01*
X6083000D01*
G37*
X6896930Y1097140D02*
G36*
X6896930Y1097140D02*
X6885550D01*
X7004390Y978300D01*
X7032800D01*
G75*
G02*
X7187900I77550J-50790D01*
G01*
X8374740D01*
G75*
G02*
X8340980Y1054500I69120J76200D01*
G01*
G75*
G02*
X8350230Y1097140I102880J10D01*
G01*
X7986830D01*
X7984510Y1094820D01*
G75*
G02*
X7948550Y1079900I-35960J35880D01*
G01*
X7060900D01*
G75*
G02*
X6896930Y1097140I-77550J50800D01*
G01*
G37*
X8546720Y800500D02*
G36*
X8546720Y800500D02*
X12912980D01*
Y1097140D01*
X10844330D01*
X10638810Y891620D01*
G75*
G02*
X10602850Y876700I-35960J35880D01*
G01*
X8512960D01*
G75*
G02*
X8546720Y800500I-69110J-76200D01*
G01*
G37*
X8904850Y1097140D02*
G36*
X8904850Y1097140D02*
X8960190Y1041800D01*
X10391310D01*
X10446650Y1097140D01*
X9308530D01*
G75*
G02*
X8964170I-172180J303870D01*
G01*
X8904850D01*
G37*
X89020Y1396320D02*
G36*
X89020Y1396320D02*
Y1097140D01*
X529060D01*
G75*
G02*
X525400Y1138700I233840J41530D01*
G01*
G75*
G02*
X1000380I237490J0D01*
G01*
G75*
G02*
X996720Y1097140I-237500J-30D01*
G01*
X3464170D01*
G75*
G02*
X3287130Y1396320I172180J303860D01*
G01*
X2572640D01*
G75*
G02*
X2570050Y1394230I-85150J102870D01*
G01*
G75*
G02*
X2542150Y1330000I-95170J3170D01*
G01*
X2351760Y1139600D01*
G75*
G02*
X2284350Y1111650I-67380J67250D01*
G01*
X1827150D01*
G75*
G02*
X1759750Y1139600I-20J95200D01*
G01*
X1503030Y1396320D01*
X1314980D01*
G75*
G02*
X958040I-178470J156680D01*
G01*
X89020D01*
G37*
X1846200Y1365650D02*
G36*
X1846200Y1365650D02*
Y1396320D01*
X1772430D01*
X1866600Y1302150D01*
X2244900D01*
X2339070Y1396320D01*
X2318630D01*
G75*
G02*
X2148460I-85080J102680D01*
G01*
X2112900D01*
Y1365650D01*
X1846200D01*
G37*
X3985570Y1396320D02*
G36*
X3985570Y1396320D02*
G75*
G02*
X3808530Y1097140I-349220J4680D01*
G01*
X4061080D01*
G75*
G02*
X4429380I184150J0D01*
G01*
X4488500D01*
Y1360960D01*
G75*
G02*
X4482150Y1396320I95300J35360D01*
G01*
X3985570D01*
G37*
X4679000Y1360960D02*
G36*
X4679000Y1360960D02*
Y1097140D01*
X4755630D01*
G75*
G02*
X5086110I165240J-81280D01*
G01*
X5412360D01*
G75*
G02*
X5780660I184150J0D01*
G01*
X5951490D01*
X5976150Y1121800D01*
G75*
G02*
X6043550Y1149750I67380J-67250D01*
G01*
X6460660D01*
X6214090Y1396320D01*
X5360350D01*
G75*
G02*
X5157150I-101600J0D01*
G01*
X5152010D01*
G75*
G02*
X4948810I-101600J0D01*
G01*
X4892930D01*
G75*
G02*
X4689730I-101600J0D01*
G01*
X4685350D01*
G75*
G02*
X4679000Y1360960I-101650J0D01*
G01*
G37*
X6734650Y1232020D02*
G36*
X6734650Y1232020D02*
G75*
G02*
X6765310Y1217380I-5290J-50510D01*
G01*
X6885550Y1097140D01*
X6896930D01*
G75*
G02*
X6890640Y1130700I86430J33570D01*
G01*
G75*
G02*
X7060900Y1181500I92710J0D01*
G01*
X7927510D01*
X7963390Y1217380D01*
G75*
G02*
X7999350Y1232300I35960J-35880D01*
G01*
X8374740D01*
G75*
G02*
X8340980Y1308500I69110J76200D01*
G01*
G75*
G02*
X8390280Y1396320I102870J0D01*
G01*
X6825180D01*
G75*
G02*
X6792850Y1384700I-32330J39170D01*
G01*
X6734960D01*
G75*
G02*
X6768720Y1308500I-69120J-76200D01*
G01*
G75*
G02*
X6734650Y1232020I-102880J0D01*
G01*
G37*
X8020390Y1130700D02*
G36*
X8020390Y1130700D02*
X7986830Y1097140D01*
X8350230D01*
G75*
G02*
X8374740Y1130700I93630J-42650D01*
G01*
X8020390D01*
G37*
X8546720Y1308500D02*
G36*
X8546720Y1308500D02*
G75*
G02*
X8512960Y1232300I-102870J0D01*
G01*
X8748650D01*
G75*
G02*
X8784610Y1217380I0J-50800D01*
G01*
X8904850Y1097140D01*
X8964170D01*
G75*
G02*
X8787130Y1396320I172180J303860D01*
G01*
X8497420D01*
G75*
G02*
X8546720Y1308500I-53570J-87820D01*
G01*
G37*
X9485570Y1396320D02*
G36*
X9485570Y1396320D02*
G75*
G02*
X9308530Y1097140I-349220J4680D01*
G01*
X10446650D01*
X10727700Y1378190D01*
G75*
G02*
X10615040Y1396320I-38350J120810D01*
G01*
X10060910D01*
G75*
G02*
X9788790I-136060J356680D01*
G01*
X9485570D01*
G37*
X11122000Y1374810D02*
G36*
X11122000Y1374810D02*
X10844330Y1097140D01*
X12912980D01*
Y1396320D01*
X12559910D01*
G75*
G02*
X12287790I-136060J356680D01*
G01*
X11679660D01*
G75*
G02*
X11531040I-74310J102680D01*
G01*
X11450660D01*
G75*
G02*
X11302040I-74310J102680D01*
G01*
X11221660D01*
G75*
G02*
X11122000Y1374810I-74310J102680D01*
G01*
G37*
X89020Y1646320D02*
G36*
X89020Y1646320D02*
Y1396320D01*
X958040D01*
G75*
G02*
X899020Y1553000I178470J156690D01*
G01*
G75*
G02*
X918120Y1646320I237500J10D01*
G01*
X837930D01*
G75*
G02*
X682770I-77580J224460D01*
G01*
X89020D01*
G37*
X1374000Y1553000D02*
G36*
X1374000Y1553000D02*
G75*
G02*
X1314980Y1396320I-237490J10D01*
G01*
X1503030D01*
X1455050Y1444300D01*
G75*
G02*
X1427100Y1511680I67250J67380D01*
G01*
G75*
G02*
Y1511700I127320J10D01*
G01*
Y1646320D01*
X1354900D01*
G75*
G02*
X1374000Y1553000I-218400J-93310D01*
G01*
G37*
X1617600Y1646320D02*
G36*
X1617600Y1646320D02*
Y1551150D01*
X1772430Y1396320D01*
X1846200D01*
Y1632350D01*
X2112900D01*
Y1555800D01*
G75*
G02*
X2187090Y1623990I120690J-56850D01*
G01*
G75*
G02*
X2140830Y1646320I33750J129010D01*
G01*
X1617600D01*
G37*
X2112900Y1442200D02*
G36*
X2112900Y1442200D02*
Y1396320D01*
X2148460D01*
G75*
G02*
X2112900Y1442200I85090J102670D01*
G01*
G37*
X2300850Y1646320D02*
G36*
X2300850Y1646320D02*
G75*
G02*
X2267310Y1628010I-80020J106700D01*
G01*
G75*
G02*
X2360550Y1539660I-33760J-129010D01*
G01*
G75*
G02*
X2379600Y1577290I127230J-40770D01*
G01*
Y1646320D01*
X2300850D01*
G37*
X2318630Y1396320D02*
G36*
X2318630Y1396320D02*
X2339070D01*
X2373180Y1430430D01*
G75*
G02*
X2360550Y1458340I114200J68490D01*
G01*
G75*
G02*
X2318630Y1396320I-127010J40670D01*
G01*
G37*
X2570100Y1646320D02*
G36*
X2570100Y1646320D02*
Y1603730D01*
G75*
G02*
X2620900Y1499000I-82560J-104730D01*
G01*
G75*
G02*
X2572640Y1396320I-133360J0D01*
G01*
X3287130D01*
G75*
G02*
X3287100Y1401000I349580J4580D01*
G01*
G75*
G02*
X3387770Y1646320I349250J-10D01*
G01*
X2570100D01*
G37*
X3985600Y1401000D02*
G36*
X3985600Y1401000D02*
G75*
G02*
X3985570Y1396320I-349610J-100D01*
G01*
X4482150D01*
G75*
G02*
X4685350I101600J0D01*
G01*
X4689730D01*
G75*
G02*
X4892930I101600J0D01*
G01*
X4948810D01*
G75*
G02*
X4999610Y1484310I101600J0D01*
G01*
Y1646320D01*
X4685350D01*
G75*
G02*
X4482150I-101600J0D01*
G01*
X3884930D01*
G75*
G02*
X3985600Y1401000I-248580J-245330D01*
G01*
G37*
X5101210Y1646320D02*
G36*
X5101210Y1646320D02*
Y1484310D01*
G75*
G02*
X5152010Y1396320I-50800J-87990D01*
G01*
X5157150D01*
G75*
G02*
X5360350I101600J0D01*
G01*
X6214090D01*
X5964090Y1646320D01*
X5360350D01*
G75*
G02*
X5157150I-101600J0D01*
G01*
X5101210D01*
G37*
X6828810Y1399620D02*
G36*
X6828810Y1399620D02*
G75*
G02*
X6825180Y1396320I-35970J35920D01*
G01*
X8390280D01*
G75*
G02*
X8443850Y1411370I53570J-87820D01*
G01*
G75*
G02*
X8497420Y1396320I0J-102870D01*
G01*
X8787130D01*
G75*
G02*
X8787100Y1401000I349580J4580D01*
G01*
G75*
G02*
X8887770Y1646320I349250J-10D01*
G01*
X8597610D01*
G75*
G02*
X8570850Y1638700I-26760J43180D01*
G01*
X8512960D01*
G75*
G02*
X8546720Y1562500I-69110J-76200D01*
G01*
G75*
G02*
X8443850Y1459630I-102870J0D01*
G01*
G75*
G02*
X8340980Y1562500I0J102870D01*
G01*
G75*
G02*
X8374740Y1638700I102870J0D01*
G01*
X8337890D01*
X8162310Y1463120D01*
G75*
G02*
X8126350Y1448200I-35960J35880D01*
G01*
X6877390D01*
X6828810Y1399620D01*
G37*
X9485600Y1401000D02*
G36*
X9485600Y1401000D02*
G75*
G02*
X9485570Y1396320I-349610J-100D01*
G01*
X9788790D01*
G75*
G02*
X9558310Y1646320I136060J356680D01*
G01*
X9384930D01*
G75*
G02*
X9485600Y1401000I-248580J-245330D01*
G01*
G37*
X10291390Y1646320D02*
G36*
X10291390Y1646320D02*
G75*
G02*
X10060910Y1396320I-366540J106680D01*
G01*
X10615040D01*
G75*
G02*
X10562600Y1499000I74310J102680D01*
G01*
G75*
G02*
X10803850Y1553360I126750J0D01*
G01*
G75*
G02*
X11032850I114500J-54360D01*
G01*
G75*
G02*
X11261850I114500J-54360D01*
G01*
G75*
G02*
X11490850I114500J-54360D01*
G01*
G75*
G02*
X11732100Y1499000I114500J-54360D01*
G01*
G75*
G02*
X11679660Y1396320I-126750J0D01*
G01*
X12287790D01*
G75*
G02*
X12057310Y1646320I136060J356680D01*
G01*
X11788300D01*
G75*
G02*
X11651400I-68450J106690D01*
G01*
X11559300D01*
G75*
G02*
X11422400I-68450J106690D01*
G01*
X11330300D01*
G75*
G02*
X11193400I-68450J106690D01*
G01*
X11101300D01*
G75*
G02*
X10964400I-68450J106690D01*
G01*
X10872300D01*
G75*
G02*
X10735400I-68450J106690D01*
G01*
X10291390D01*
G37*
X11261850Y1444640D02*
G36*
X11261850Y1444640D02*
G75*
G02*
X11221660Y1396320I-114500J54360D01*
G01*
X11302040D01*
G75*
G02*
X11261850Y1444640I74310J102680D01*
G01*
G37*
X11490850D02*
G36*
X11490850Y1444640D02*
G75*
G02*
X11450660Y1396320I-114500J54360D01*
G01*
X11531040D01*
G75*
G02*
X11490850Y1444640I74310J102680D01*
G01*
G37*
X12790390Y1646320D02*
G36*
X12790390Y1646320D02*
G75*
G02*
X12559910Y1396320I-366540J106680D01*
G01*
X12912980D01*
Y1646320D01*
X12790390D01*
G37*
X89020Y1753000D02*
G36*
X89020Y1753000D02*
Y1646320D01*
X682770D01*
G75*
G02*
X554120Y1753000I77580J224470D01*
G01*
X89020D01*
G37*
X837930Y1646320D02*
G36*
X837930Y1646320D02*
X918120D01*
G75*
G02*
X1008440Y1753000I218390J-93320D01*
G01*
X966580D01*
G75*
G02*
X837930Y1646320I-206230J117790D01*
G01*
G37*
X1264580Y1753000D02*
G36*
X1264580Y1753000D02*
G75*
G02*
X1354900Y1646320I-128070J-200000D01*
G01*
X1427100D01*
Y1753000D01*
X1264580D01*
G37*
X1617600D02*
G36*
X1617600Y1753000D02*
Y1646320D01*
X2140830D01*
G75*
G02*
X2087500Y1752990I80010J106670D01*
G01*
G75*
G02*
Y1753000I143240J10D01*
G01*
X1617600D01*
G37*
X2354200D02*
G36*
X2354200Y1753000D02*
G75*
G02*
X2300850Y1646320I-133360J10D01*
G01*
X2379600D01*
Y1753000D01*
X2354200D01*
G37*
X2570100D02*
G36*
X2570100Y1753000D02*
Y1646320D01*
X3387770D01*
G75*
G02*
X3884930I248580J-245320D01*
G01*
X4482150D01*
G75*
G02*
X4685350I101600J0D01*
G01*
X4999610D01*
Y1753000D01*
X2570100D01*
G37*
X5101210D02*
G36*
X5101210Y1753000D02*
Y1646320D01*
X5157150D01*
G75*
G02*
X5207950Y1734310I101600J0D01*
G01*
Y1753000D01*
X5101210D01*
G37*
X5309550D02*
G36*
X5309550Y1753000D02*
Y1734310D01*
G75*
G02*
X5360350Y1646320I-50800J-87990D01*
G01*
X5964090D01*
X5857410Y1753000D01*
X5309550D01*
G37*
X8606810Y1653620D02*
G36*
X8606810Y1653620D02*
G75*
G02*
X8597610Y1646320I-35960J35870D01*
G01*
X8887770D01*
G75*
G02*
X9384930I248580J-245320D01*
G01*
X9558310D01*
G75*
G02*
X9543100Y1753000I366550J106690D01*
G01*
X8706190D01*
X8606810Y1653620D01*
G37*
X10306600Y1753000D02*
G36*
X10306600Y1753000D02*
G75*
G02*
X10291390Y1646320I-381760J10D01*
G01*
X10735400D01*
G75*
G02*
X10677100Y1753000I68450J106680D01*
G01*
X10306600D01*
G37*
X10918350Y1698640D02*
G36*
X10918350Y1698640D02*
G75*
G02*
X10872300Y1646320I-114500J54350D01*
G01*
X10964400D01*
G75*
G02*
X10918350Y1698640I68450J106670D01*
G01*
G37*
X11147350D02*
G36*
X11147350Y1698640D02*
G75*
G02*
X11101300Y1646320I-114500J54350D01*
G01*
X11193400D01*
G75*
G02*
X11147350Y1698640I68450J106670D01*
G01*
G37*
X11376350D02*
G36*
X11376350Y1698640D02*
G75*
G02*
X11330300Y1646320I-114500J54350D01*
G01*
X11422400D01*
G75*
G02*
X11376350Y1698640I68450J106670D01*
G01*
G37*
X11605350D02*
G36*
X11605350Y1698640D02*
G75*
G02*
X11559300Y1646320I-114500J54350D01*
G01*
X11651400D01*
G75*
G02*
X11605350Y1698640I68450J106670D01*
G01*
G37*
X11846600Y1753000D02*
G36*
X11846600Y1753000D02*
G75*
G02*
X11788300Y1646320I-126750J0D01*
G01*
X12057310D01*
G75*
G02*
X12042100Y1753000I366550J106690D01*
G01*
X11846600D01*
G37*
X12805600D02*
G36*
X12805600Y1753000D02*
G75*
G02*
X12790390Y1646320I-381760J10D01*
G01*
X12912980D01*
Y1753000D01*
X12805600D01*
G37*
X89020Y2007000D02*
G36*
X89020Y2007000D02*
Y1753000D01*
X554120D01*
G75*
G02*
X522860Y1870780I206230J117770D01*
G01*
G75*
G02*
Y1870790I572960J10D01*
G01*
G75*
G02*
X565810Y2007000I237480J-10D01*
G01*
X89020D01*
G37*
X997840Y1870780D02*
G36*
X997840Y1870780D02*
G75*
G02*
X966580Y1753000I-237490J-10D01*
G01*
X1008440D01*
G75*
G02*
X1264580I128070J-200000D01*
G01*
X1427100D01*
Y2007000D01*
X954890D01*
G75*
G02*
X997840Y1870780I-194580J-136230D01*
G01*
G37*
X1617600Y2007000D02*
G36*
X1617600Y2007000D02*
Y1753000D01*
X2087500D01*
G75*
G02*
X2354200I133350J0D01*
G01*
X2379600D01*
Y2007000D01*
X1617600D01*
G37*
X2570100D02*
G36*
X2570100Y2007000D02*
Y1753000D01*
X4999610D01*
Y2007000D01*
X3447320D01*
G75*
G02*
X3325750Y1926050I-121570J50800D01*
G01*
G75*
G02*
X3204180Y2007000I0J131750D01*
G01*
X2570100D01*
G37*
X5101210D02*
G36*
X5101210Y2007000D02*
Y1753000D01*
X5207950D01*
Y2007000D01*
X5101210D01*
G37*
X5309550D02*
G36*
X5309550Y2007000D02*
Y1753000D01*
X5857410D01*
X5804470Y1805940D01*
G75*
G02*
X5789550Y1841900I35880J35960D01*
G01*
Y2007000D01*
X5309550D01*
G37*
X8718890Y1765700D02*
G36*
X8718890Y1765700D02*
X8706190Y1753000D01*
X9543100D01*
G75*
G02*
X9639860Y2007000I381750J0D01*
G01*
X9277690D01*
X9051310Y1780620D01*
G75*
G02*
X9015350Y1765700I-35960J35880D01*
G01*
X8718890D01*
G37*
X10209840Y2007000D02*
G36*
X10209840Y2007000D02*
G75*
G02*
X10306600Y1753000I-284990J-254000D01*
G01*
X10677100D01*
G75*
G02*
X10918350Y1807360I126750J0D01*
G01*
G75*
G02*
X11147350I114500J-54360D01*
G01*
G75*
G02*
X11376350I114500J-54360D01*
G01*
G75*
G02*
X11605350I114500J-54360D01*
G01*
G75*
G02*
X11846600Y1753000I114500J-54360D01*
G01*
X12042100D01*
G75*
G02*
X12138860Y2007000I381750J0D01*
G01*
X11732100D01*
G75*
G02*
X11490850Y1952640I-126750J0D01*
G01*
G75*
G02*
X11261850I-114500J54360D01*
G01*
G75*
G02*
X11032850I-114500J54360D01*
G01*
G75*
G02*
X10803850I-114500J54360D01*
G01*
G75*
G02*
X10562600Y2007000I-114500J54360D01*
G01*
X10209840D01*
G37*
X12708840D02*
G36*
X12708840Y2007000D02*
G75*
G02*
X12805600Y1753000I-284990J-254000D01*
G01*
X12912980D01*
Y2007000D01*
X12708840D01*
G37*
X89020Y2184800D02*
G36*
X89020Y2184800D02*
Y2007000D01*
X565810D01*
G75*
G02*
X728600Y2106140I194540J-136210D01*
G01*
Y2184800D01*
X89020D01*
G37*
X919100D02*
G36*
X919100Y2184800D02*
Y2047420D01*
G75*
G02*
X954890Y2007000I-158790J-176650D01*
G01*
X1427100D01*
Y2119950D01*
X1362250Y2184800D01*
X919100D01*
G37*
X1617600Y2159400D02*
G36*
X1617600Y2159400D02*
Y2007000D01*
X2379600D01*
Y2079820D01*
G75*
G02*
X2347850Y2121840I95320J105030D01*
G01*
G75*
G02*
X2079100Y2184800I-127000J62970D01*
G01*
X1614160D01*
G75*
G02*
X1617600Y2159430I-91750J-25360D01*
G01*
G75*
G02*
Y2159400I-114590J-10D01*
G01*
G37*
X2570100Y2079820D02*
G36*
X2570100Y2079820D02*
Y2007000D01*
X3204180D01*
G75*
G02*
X3194000Y2057800I121570J50780D01*
G01*
G75*
G02*
X3290690Y2184800I131750J0D01*
G01*
X2616600D01*
G75*
G02*
Y2184770I-171890J-10D01*
G01*
G75*
G02*
X2570100Y2079820I-141690J0D01*
G01*
G37*
X3457500Y2057800D02*
G36*
X3457500Y2057800D02*
G75*
G02*
X3447320Y2007000I-131750J-20D01*
G01*
X4999610D01*
Y2184800D01*
X3360810D01*
G75*
G02*
X3457500Y2057800I-35060J-127000D01*
G01*
G37*
X5101210Y2184800D02*
G36*
X5101210Y2184800D02*
Y2007000D01*
X5207950D01*
Y2184800D01*
X5101210D01*
G37*
X5309550D02*
G36*
X5309550Y2184800D02*
Y2007000D01*
X5789550D01*
Y2184800D01*
X5309550D01*
G37*
X7548500D02*
G36*
X7548500Y2184800D02*
Y2118100D01*
G75*
G02*
X7624570Y2135860I57160J-73020D01*
G01*
X7673510Y2184800D01*
X7548500D01*
G37*
X9305230Y2034540D02*
G36*
X9305230Y2034540D02*
X9277690Y2007000D01*
X9639860D01*
G75*
G02*
X10209840I284990J-254010D01*
G01*
X10562600D01*
G75*
G02*
X10803850Y2061360I126750J0D01*
G01*
G75*
G02*
X11032850I114500J-54360D01*
G01*
G75*
G02*
X11261850I114500J-54360D01*
G01*
G75*
G02*
X11490850I114500J-54360D01*
G01*
G75*
G02*
X11732100Y2007000I114500J-54360D01*
G01*
X12138860D01*
G75*
G02*
X12708840I284990J-254010D01*
G01*
X12912980D01*
Y2184800D01*
X9504300D01*
Y2134000D01*
G75*
G02*
X9318810Y2058900I-107950J0D01*
G01*
G75*
G02*
X9305230Y2034540I-49550J11660D01*
G01*
G37*
X89020Y2565800D02*
G36*
X89020Y2565800D02*
Y2184800D01*
X728600D01*
Y2219520D01*
G75*
G02*
X682100Y2324500I95250J104980D01*
G01*
G75*
G02*
X823850Y2466250I141750J0D01*
G01*
G75*
G02*
X965600Y2324500I0J-141750D01*
G01*
G75*
G02*
X919100Y2219520I-141750J0D01*
G01*
Y2184800D01*
X1362250D01*
X981240Y2565800D01*
X89020D01*
G37*
X1476550D02*
G36*
X1476550Y2565800D02*
X1250660D01*
X1589650Y2226810D01*
G75*
G02*
X1614160Y2184800I-67250J-67390D01*
G01*
X2079100D01*
G75*
G02*
X2347850Y2247760I141750J-10D01*
G01*
G75*
G02*
X2616600Y2184800I127000J-62970D01*
G01*
X3290690D01*
G75*
G02*
X3194000Y2311790I35050J126990D01*
G01*
G75*
G02*
Y2311800I143240J10D01*
G01*
G75*
G02*
X3457500I131750J0D01*
G01*
G75*
G02*
Y2311790I-143240J0D01*
G01*
G75*
G02*
X3360810Y2184800I-131740J0D01*
G01*
X4999610D01*
Y2565800D01*
X4604090D01*
X4504710Y2466420D01*
G75*
G02*
X4468750Y2451500I-35960J35880D01*
G01*
X3668650D01*
G75*
G02*
X3632690Y2466420I0J50800D01*
G01*
X3546010Y2553100D01*
X2817750D01*
G75*
G02*
X2784150Y2565800I0J50800D01*
G01*
X1745960D01*
X1850960Y2460800D01*
G75*
G02*
X1976600Y2324500I-11110J-136300D01*
G01*
G75*
G02*
X1839850Y2187750I-136750J0D01*
G01*
G75*
G02*
X1703100Y2324490I0J136740D01*
G01*
G75*
G02*
Y2324500I143240J10D01*
G01*
G75*
G02*
X1703820Y2338530I137140J0D01*
G01*
X1476550Y2565800D01*
G37*
X3676990D02*
G36*
X3676990Y2565800D02*
X3689690Y2553100D01*
X4447710D01*
X4460410Y2565800D01*
X3676990D01*
G37*
X5101210D02*
G36*
X5101210Y2565800D02*
Y2184800D01*
X5207950D01*
Y2565800D01*
X5101210D01*
G37*
X5309550D02*
G36*
X5309550Y2565800D02*
Y2184800D01*
X5789550D01*
Y2341560D01*
X5565310Y2565800D01*
X5309550D01*
G37*
X7548500D02*
G36*
X7548500Y2565800D02*
Y2184800D01*
X7673510D01*
X8054510Y2565800D01*
X7548500D01*
G37*
X9447150D02*
G36*
X9447150Y2565800D02*
Y2356250D01*
G75*
G02*
X9504300Y2261010I-50780J-95240D01*
G01*
G75*
G02*
Y2261000I-95490J0D01*
G01*
Y2184800D01*
X12912980D01*
Y2565800D01*
X11180700D01*
G75*
G02*
X10964800I-107950J0D01*
G01*
X10164700D01*
G75*
G02*
X9955150Y2529320I-107950J0D01*
G01*
G75*
G02*
X9745600Y2565800I-101600J36480D01*
G01*
X9447150D01*
G37*
X89020Y2743600D02*
G36*
X89020Y2743600D02*
Y2565800D01*
X981240D01*
X846260Y2700780D01*
G75*
G02*
X752010Y2743600I2990J131720D01*
G01*
X89020D01*
G37*
X1072860D02*
G36*
X1072860Y2743600D02*
X1250660Y2565800D01*
X1476550D01*
X1298750Y2743600D01*
X1072860D01*
G37*
X1568160D02*
G36*
X1568160Y2743600D02*
X1745960Y2565800D01*
X2784150D01*
G75*
G02*
X2781790Y2568020I33610J38090D01*
G01*
X2606210Y2743600D01*
X2430400D01*
G75*
G02*
X2239900I-95250J50800D01*
G01*
X1962490D01*
G75*
G02*
X1768010I-97240J88900D01*
G01*
X1568160D01*
G37*
X2749890D02*
G36*
X2749890Y2743600D02*
X2838790Y2654700D01*
X3567050D01*
G75*
G02*
X3603010Y2639780I0J-50800D01*
G01*
X3676990Y2565800D01*
X4460410D01*
X4638210Y2743600D01*
X4029000D01*
G75*
G02*
X3765500I-131750J0D01*
G01*
X3395600D01*
G75*
G02*
X3205100I-95250J50800D01*
G01*
X2749890D01*
G37*
X4731090Y2692800D02*
G36*
X4731090Y2692800D02*
X4604090Y2565800D01*
X4999610D01*
Y2585400D01*
X4963290Y2621720D01*
G75*
G02*
X4791690Y2692800I-50030J121890D01*
G01*
X4731090D01*
G37*
X5045000Y2743600D02*
G36*
X5045000Y2743600D02*
G75*
G02*
X5035130Y2693560I-131750J-10D01*
G01*
X5086290Y2642400D01*
G75*
G02*
X5101210Y2606440I-35880J-35960D01*
G01*
Y2565800D01*
X5207950D01*
Y2681860D01*
X5146210Y2743600D01*
X5045000D01*
G37*
X5289890D02*
G36*
X5289890Y2743600D02*
X5294630Y2738860D01*
G75*
G02*
X5309550Y2702900I-35880J-35960D01*
G01*
Y2565800D01*
X5565310D01*
X5387510Y2743600D01*
X5289890D01*
G37*
X7548500D02*
G36*
X7548500Y2743600D02*
Y2565800D01*
X8054510D01*
X8202550Y2713840D01*
Y2743600D01*
X7548500D01*
G37*
X9447150D02*
G36*
X9447150Y2743600D02*
Y2565800D01*
X9745600D01*
G75*
G02*
X9955150Y2602280I107950J0D01*
G01*
G75*
G02*
X10164700Y2565800I101600J-36480D01*
G01*
X10964800D01*
G75*
G02*
X11180700I107950J0D01*
G01*
X12912980D01*
Y2743600D01*
X12050100D01*
G75*
G02*
X11924200I-62950J127000D01*
G01*
X11796110D01*
G75*
G02*
X11670190I-62960J127000D01*
G01*
X11542100D01*
G75*
G02*
X11416200I-62950J127000D01*
G01*
X9447150D01*
G37*
X89020Y2870600D02*
G36*
X89020Y2870600D02*
Y2743600D01*
X752010D01*
G75*
G02*
X717500Y2832500I97250J88900D01*
G01*
G75*
G02*
X723130Y2870600I131750J0D01*
G01*
X89020D01*
G37*
X975370D02*
G36*
X975370Y2870600D02*
G75*
G02*
X980970Y2835490I-126130J-38120D01*
G01*
X1072860Y2743600D01*
X1298750D01*
X1171750Y2870600D01*
X975370D01*
G37*
X1441150D02*
G36*
X1441150Y2870600D02*
X1568160Y2743600D01*
X1768010D01*
G75*
G02*
X1733500Y2832500I97240J88900D01*
G01*
G75*
G02*
X1739130Y2870600I131750J0D01*
G01*
X1441150D01*
G37*
X1997000Y2832500D02*
G36*
X1997000Y2832500D02*
G75*
G02*
X1962490Y2743600I-131750J0D01*
G01*
X2239900D01*
G75*
G02*
X2227200Y2794400I95250J50800D01*
G01*
G75*
G02*
Y2794410I95490J10D01*
G01*
G75*
G02*
X2258680Y2870600I107930J0D01*
G01*
X1991370D01*
G75*
G02*
X1997000Y2832500I-126120J-38100D01*
G01*
G37*
X2443100Y2794400D02*
G36*
X2443100Y2794400D02*
G75*
G02*
X2430400Y2743600I-107950J0D01*
G01*
X2606210D01*
X2489770Y2860040D01*
G75*
G02*
X2481660Y2870600I35860J35930D01*
G01*
X2411620D01*
G75*
G02*
X2443100Y2794410I-76450J-76190D01*
G01*
G75*
G02*
Y2794400I-95490J0D01*
G01*
G37*
X2622900Y2870600D02*
G36*
X2622900Y2870600D02*
X2749890Y2743600D01*
X3205100D01*
G75*
G02*
X3192400Y2794400I95250J50800D01*
G01*
G75*
G02*
Y2794410I95490J10D01*
G01*
G75*
G02*
X3223880Y2870600I107930J0D01*
G01*
X2622900D01*
G37*
X3408300Y2794400D02*
G36*
X3408300Y2794400D02*
G75*
G02*
X3395600Y2743600I-107950J0D01*
G01*
X3765500D01*
G75*
G02*
X3862190Y2870600I131750J0D01*
G01*
X3376820D01*
G75*
G02*
X3408300Y2794410I-76450J-76190D01*
G01*
G75*
G02*
Y2794400I-95490J0D01*
G01*
G37*
X3932310Y2870600D02*
G36*
X3932310Y2870600D02*
G75*
G02*
X4029000Y2743600I-35060J-127000D01*
G01*
X4638210D01*
X4674090Y2779480D01*
G75*
G02*
X4710050Y2794400I35960J-35880D01*
G01*
X4791690D01*
G75*
G02*
X4878200Y2870600I121560J-50800D01*
G01*
X3932310D01*
G37*
X5019210D02*
G36*
X5019210Y2870600D02*
X4948310D01*
G75*
G02*
X5045000Y2743600I-35060J-127000D01*
G01*
X5146210D01*
X5019210Y2870600D01*
G37*
X5260510D02*
G36*
X5260510Y2870600D02*
X5162890D01*
X5289890Y2743600D01*
X5387510D01*
X5260510Y2870600D01*
G37*
X7548500D02*
G36*
X7548500Y2870600D02*
Y2743600D01*
X8202550D01*
Y2870600D01*
X7548500D01*
G37*
X9447150Y2747960D02*
G36*
X9447150Y2747960D02*
Y2743600D01*
X11416200D01*
G75*
G02*
X11337400Y2870600I62950J127010D01*
G01*
X11180700D01*
G75*
G02*
X10964800I-107950J0D01*
G01*
X10164700D01*
G75*
G02*
X9955150Y2834120I-107950J0D01*
G01*
G75*
G02*
X9745600Y2870600I-101600J36480D01*
G01*
X9569790D01*
X9447150Y2747960D01*
G37*
X11606150Y2807640D02*
G36*
X11606150Y2807640D02*
G75*
G02*
X11542100Y2743600I-127000J62970D01*
G01*
X11670190D01*
G75*
G02*
X11606150Y2807640I62960J127000D01*
G01*
G37*
X11860150D02*
G36*
X11860150Y2807640D02*
G75*
G02*
X11796110Y2743600I-127000J62960D01*
G01*
X11924200D01*
G75*
G02*
X11860150Y2807640I62950J127010D01*
G01*
G37*
X12128900Y2870600D02*
G36*
X12128900Y2870600D02*
G75*
G02*
X12050100Y2743600I-141750J10D01*
G01*
X12912980D01*
Y2870600D01*
X12128900D01*
G37*
X89020Y3175400D02*
G36*
X89020Y3175400D02*
Y2870600D01*
X723130D01*
G75*
G02*
X849250Y2964250I126120J-38100D01*
G01*
G75*
G02*
X975370Y2870600I-10J-131760D01*
G01*
X1171750D01*
X1086750Y2955600D01*
G75*
G02*
X1058800Y3022980I67250J67380D01*
G01*
G75*
G02*
Y3023000I127320J10D01*
G01*
Y3175400D01*
X975370D01*
G75*
G02*
X981000Y3137300I-126120J-38100D01*
G01*
G75*
G02*
X717500I-131750J0D01*
G01*
G75*
G02*
X723130Y3175400I131750J0D01*
G01*
X89020D01*
G37*
X1249300D02*
G36*
X1249300Y3175400D02*
Y3062450D01*
X1441150Y2870600D01*
X1739130D01*
G75*
G02*
X1991370I126120J-38100D01*
G01*
X2258680D01*
G75*
G02*
X2284350Y2889650I76450J-76200D01*
G01*
G75*
G02*
X2239900Y2934100I50850J95300D01*
G01*
G75*
G02*
X2036700Y2984900I-95250J50800D01*
G01*
G75*
G02*
X2239900Y3035700I107950J0D01*
G01*
G75*
G02*
X2430400I95250J-50800D01*
G01*
G75*
G02*
X2633600Y2984900I95250J-50800D01*
G01*
G75*
G02*
Y2984890I-190990J0D01*
G01*
G75*
G02*
X2592980Y2900520I-107930J0D01*
G01*
X2622900Y2870600D01*
X3223880D01*
G75*
G02*
X3249550Y2889650I76450J-76200D01*
G01*
G75*
G02*
X3205100Y2934100I50850J95300D01*
G01*
G75*
G02*
X3001900Y2984900I-95250J50800D01*
G01*
G75*
G02*
X3205100Y3035700I107950J0D01*
G01*
G75*
G02*
X3395600I95250J-50800D01*
G01*
G75*
G02*
X3522280Y3088170I95250J-50810D01*
G01*
X3609510Y3175400D01*
X1991370D01*
G75*
G02*
X1997000Y3137300I-126120J-38100D01*
G01*
G75*
G02*
X1733500I-131750J0D01*
G01*
G75*
G02*
X1739130Y3175400I131750J0D01*
G01*
X1249300D01*
G37*
X2385950Y2889650D02*
G36*
X2385950Y2889650D02*
G75*
G02*
X2411620Y2870600I-50780J-95250D01*
G01*
X2481660D01*
G75*
G02*
X2475280Y2889420I43970J25400D01*
G01*
G75*
G02*
X2430400Y2934100I50320J95420D01*
G01*
G75*
G02*
X2385950Y2889650I-95300J50850D01*
G01*
G37*
X3351150D02*
G36*
X3351150Y2889650D02*
G75*
G02*
X3376820Y2870600I-50780J-95250D01*
G01*
X3862190D01*
G75*
G02*
X3932310I35060J-127010D01*
G01*
X4878200D01*
G75*
G02*
X4948310I35060J-127010D01*
G01*
X5019210D01*
X4963290Y2926520D01*
G75*
G02*
X4781500Y3048410I-50030J121890D01*
G01*
G75*
G02*
X4791370Y3098440I131750J0D01*
G01*
X4714410Y3175400D01*
X3932310D01*
G75*
G02*
X4029000Y3048400I-35060J-127000D01*
G01*
G75*
G02*
X3897250Y2916650I-131750J0D01*
G01*
G75*
G02*
X3765500Y3048400I0J131750D01*
G01*
G75*
G02*
X3862190Y3175400I131750J0D01*
G01*
X3753190D01*
X3594120Y3016330D01*
G75*
G02*
X3598800Y2984900I-103280J-31440D01*
G01*
G75*
G02*
X3395600Y2934100I-107950J0D01*
G01*
G75*
G02*
X3351150Y2889650I-95300J50850D01*
G01*
G37*
X4858090Y3175400D02*
G36*
X4858090Y3175400D02*
X4863210Y3170280D01*
G75*
G02*
X4878190Y3175400I50040J-121930D01*
G01*
X4858090D01*
G37*
X4955710D02*
G36*
X4955710Y3175400D02*
X4948310D01*
G75*
G02*
X4959250Y3171860I-35060J-127030D01*
G01*
X4955710Y3175400D01*
G37*
X5045000Y3048400D02*
G36*
X5045000Y3048400D02*
G75*
G02*
X5035130Y2998360I-131810J10D01*
G01*
X5162890Y2870600D01*
X5260510D01*
X5036710Y3094400D01*
G75*
G02*
X5045000Y3048400I-123520J-46010D01*
G01*
G37*
X7548500Y3175400D02*
G36*
X7548500Y3175400D02*
Y2870600D01*
X8202550D01*
Y3175400D01*
X7548500D01*
G37*
X9671390Y2972200D02*
G36*
X9671390Y2972200D02*
X9569790Y2870600D01*
X9745600D01*
G75*
G02*
X9817070Y2972200I107960J-10D01*
G01*
X9671390D01*
G37*
X9890030D02*
G36*
X9890030Y2972200D02*
G75*
G02*
X9955150Y2907080I-36510J-101630D01*
G01*
G75*
G02*
X10164700Y2870600I101600J-36480D01*
G01*
X10964800D01*
G75*
G02*
X11180700I107950J0D01*
G01*
X11337400D01*
G75*
G02*
X11606150Y2933560I141750J-10D01*
G01*
G75*
G02*
X11860150I127000J-62960D01*
G01*
G75*
G02*
X12128900Y2870600I127000J-62970D01*
G01*
X12912980D01*
Y3175400D01*
X11180700D01*
G75*
G02*
X11072750Y3067450I-107950J0D01*
G01*
G75*
G02*
X10964800Y3175400I0J107950D01*
G01*
X10164700D01*
G75*
G02*
X10089110Y3072410I-107960J0D01*
G01*
X10003810Y2987120D01*
G75*
G02*
X9967850Y2972200I-35960J35880D01*
G01*
X9890030D01*
G37*
X89020Y3855400D02*
G36*
X89020Y3855400D02*
Y3175400D01*
X723130D01*
G75*
G02*
X975370I126120J-38100D01*
G01*
X1058800D01*
Y3855400D01*
X89020D01*
G37*
X1249300Y3427410D02*
G36*
X1249300Y3427410D02*
Y3175400D01*
X1739130D01*
G75*
G02*
X1991370I126120J-38100D01*
G01*
X3609510D01*
X3696190Y3262080D01*
G75*
G02*
X3732150Y3277000I35960J-35880D01*
G01*
X4735450D01*
G75*
G02*
X4771410Y3262080I0J-50800D01*
G01*
X4858090Y3175400D01*
X4878190D01*
G75*
G02*
X4948310I35060J-127070D01*
G01*
X4955710D01*
X4841410Y3289700D01*
X1408050D01*
G75*
G02*
X1372090Y3304620I0J50800D01*
G01*
X1249300Y3427410D01*
G37*
X7548500Y3855400D02*
G36*
X7548500Y3855400D02*
Y3175400D01*
X8202550D01*
Y3594500D01*
G75*
G02*
X8217470Y3630460I50800J0D01*
G01*
X8344390Y3757380D01*
G75*
G02*
X8375050Y3772020I35950J-35870D01*
G01*
G75*
G02*
X8340980Y3848500I68800J76480D01*
G01*
G75*
G02*
X8341210Y3855400I102900J20D01*
G01*
X7548500D01*
G37*
X8546720Y3848500D02*
G36*
X8546720Y3848500D02*
G75*
G02*
X8512960Y3772300I-102870J0D01*
G01*
X8730350D01*
G75*
G02*
X8729600Y3785000I107190J12700D01*
G01*
G75*
G02*
X8755710Y3855400I107950J10D01*
G01*
X8546490D01*
G75*
G02*
X8546720Y3848500I-102640J-6880D01*
G01*
G37*
X8945500Y3785000D02*
G36*
X8945500Y3785000D02*
G75*
G02*
X8914010Y3708800I-107940J0D01*
G01*
X9777090D01*
G75*
G02*
X9745600Y3785000I76450J76200D01*
G01*
G75*
G02*
X9771710Y3855400I107950J10D01*
G01*
X8919390D01*
G75*
G02*
X8945500Y3785000I-81840J-70390D01*
G01*
G37*
X9961500D02*
G36*
X9961500Y3785000D02*
G75*
G02*
X9930010Y3708800I-107940J0D01*
G01*
X10005950D01*
G75*
G02*
X10041910Y3693880I0J-50800D01*
G01*
X10130730Y3605060D01*
G75*
G02*
X10145650Y3569100I-35880J-35960D01*
G01*
Y3236640D01*
G75*
G02*
X10164700Y3175400I-88910J-61240D01*
G01*
X10964800D01*
G75*
G02*
X11072750Y3283350I107950J0D01*
G01*
G75*
G02*
X11180700Y3175400I0J-107950D01*
G01*
X12912980D01*
Y3855400D01*
X11872850D01*
Y3696100D01*
G75*
G02*
X11857930Y3660140I-50800J0D01*
G01*
X11705610Y3507820D01*
G75*
G02*
X11669650Y3492900I-35960J35880D01*
G01*
X10996550D01*
G75*
G02*
X10960590Y3507820I0J50800D01*
G01*
X10779400Y3689010D01*
G75*
G02*
X10704100Y3791900I32660J102900D01*
G01*
Y3855400D01*
X10666000D01*
Y3791900D01*
G75*
G02*
X10450100I-107950J0D01*
G01*
Y3855400D01*
X10412000D01*
Y3791900D01*
G75*
G02*
X10196100I-107950J0D01*
G01*
Y3855400D01*
X9935390D01*
G75*
G02*
X9961500Y3785000I-81840J-70390D01*
G01*
G37*
X10920000Y3791900D02*
G36*
X10920000Y3791900D02*
G75*
G02*
X10892340Y3719750I-107930J0D01*
G01*
X11017590Y3594500D01*
X11648610D01*
X11771250Y3717140D01*
Y3855400D01*
X11682000D01*
Y3791900D01*
G75*
G02*
X11466100I-107950J0D01*
G01*
Y3855400D01*
X11428000D01*
Y3791900D01*
G75*
G02*
X11212100I-107950J0D01*
G01*
Y3855400D01*
X11174000D01*
Y3791900D01*
G75*
G02*
X10958100I-107950J0D01*
G01*
Y3855400D01*
X10920000D01*
Y3791900D01*
G37*
X89020Y4089800D02*
G36*
X89020Y4089800D02*
Y3855400D01*
X1058800D01*
Y4089800D01*
X89020D01*
G37*
X7548500D02*
G36*
X7548500Y4089800D02*
Y3855400D01*
X8341210D01*
G75*
G02*
X8443850Y3951370I102640J-6900D01*
G01*
G75*
G02*
X8546490Y3855400I0J-102870D01*
G01*
X8755710D01*
G75*
G02*
X8837550Y3892950I81840J-70400D01*
G01*
G75*
G02*
X8919390Y3855400I10J-107950D01*
G01*
X9771710D01*
G75*
G02*
X9853550Y3892950I81830J-70400D01*
G01*
G75*
G02*
X9935390Y3855400I10J-107950D01*
G01*
X10196100D01*
Y3918900D01*
G75*
G02*
X10412000I107950J0D01*
G01*
Y3855400D01*
X10450100D01*
Y3918900D01*
G75*
G02*
X10666000I107950J0D01*
G01*
Y3855400D01*
X10704100D01*
Y3918900D01*
G75*
G02*
X10755250Y4010700I107960J-10D01*
G01*
Y4089800D01*
X10064700D01*
G75*
G02*
X9848800I-107950J0D01*
G01*
X8894700D01*
Y3981850D01*
X8678800D01*
Y4089800D01*
X8545930D01*
G75*
G02*
X8443850Y3999630I-102080J12700D01*
G01*
G75*
G02*
X8341770Y4089800I0J102870D01*
G01*
X7548500D01*
G37*
X10856850D02*
G36*
X10856850Y4089800D02*
Y4017110D01*
G75*
G02*
X10920000Y3918900I-44800J-98210D01*
G01*
Y3855400D01*
X10958100D01*
Y3918900D01*
G75*
G02*
X11021950Y4017430I107970J-10D01*
G01*
Y4089800D01*
X10856850D01*
G37*
X11123550D02*
G36*
X11123550Y4089800D02*
Y4010260D01*
G75*
G02*
X11174000Y3918900I-57500J-91360D01*
G01*
Y3855400D01*
X11212100D01*
Y3918900D01*
G75*
G02*
X11428000I107950J0D01*
G01*
Y3855400D01*
X11466100D01*
Y3918900D01*
G75*
G02*
X11682000I107950J0D01*
G01*
Y3855400D01*
X11771250D01*
Y4017960D01*
X11699410Y4089800D01*
X11123550D01*
G37*
X11843090D02*
G36*
X11843090Y4089800D02*
X11857930Y4074960D01*
G75*
G02*
X11872850Y4039000I-35880J-35960D01*
G01*
Y3855400D01*
X12912980D01*
Y4089800D01*
X11843090D01*
G37*
X89020Y4293000D02*
G36*
X89020Y4293000D02*
Y4089800D01*
X1058800D01*
Y4293000D01*
X995300D01*
G75*
G02*
X887350Y4185050I-107950J0D01*
G01*
X760350D01*
G75*
G02*
X652400Y4293000I0J107950D01*
G01*
X89020D01*
G37*
X7548500D02*
G36*
X7548500Y4293000D02*
Y4089800D01*
X8341770D01*
G75*
G02*
X8340980Y4102500I102090J12730D01*
G01*
G75*
G02*
X8443850Y4205370I102870J0D01*
G01*
G75*
G02*
X8546720Y4102500I0J-102870D01*
G01*
G75*
G02*
X8545930Y4089800I-102880J30D01*
G01*
X8678800D01*
Y4197750D01*
X8894700D01*
Y4089800D01*
X9848800D01*
G75*
G02*
X10064700I107950J0D01*
G01*
X10755250D01*
Y4293000D01*
X8524780D01*
G75*
G02*
X8443850Y4253630I-80930J63500D01*
G01*
G75*
G02*
X8362920Y4293000I0J102870D01*
G01*
X7548500D01*
G37*
X10856850D02*
G36*
X10856850Y4293000D02*
Y4089800D01*
X11021950D01*
Y4293000D01*
X10856850D01*
G37*
X11123550D02*
G36*
X11123550Y4293000D02*
Y4089800D01*
X11699410D01*
X11496210Y4293000D01*
X11123550D01*
G37*
X11639890D02*
G36*
X11639890Y4293000D02*
X11843090Y4089800D01*
X12912980D01*
Y4293000D01*
X11639890D01*
G37*
X89020Y4420000D02*
G36*
X89020Y4420000D02*
Y4293000D01*
X652400D01*
G75*
G02*
X760350Y4400950I107950J0D01*
G01*
X887350D01*
G75*
G02*
X995300Y4293000I0J-107950D01*
G01*
X1058800D01*
Y4420000D01*
X89020D01*
G37*
X7548500D02*
G36*
X7548500Y4420000D02*
Y4293000D01*
X8362920D01*
G75*
G02*
X8340980Y4356500I80930J63500D01*
G01*
G75*
G02*
X8362920Y4420000I102870J0D01*
G01*
X7548500D01*
G37*
X8546720Y4356500D02*
G36*
X8546720Y4356500D02*
G75*
G02*
X8524780Y4293000I-102870J0D01*
G01*
X10755250D01*
Y4420000D01*
X9948800D01*
G75*
G02*
X9840850Y4312050I-107950J0D01*
G01*
G75*
G02*
X9732900Y4420000I0J107950D01*
G01*
X8932800D01*
G75*
G02*
X8716900I-107950J0D01*
G01*
X8524780D01*
G75*
G02*
X8546720Y4356500I-80930J-63500D01*
G01*
G37*
X10856850Y4420000D02*
G36*
X10856850Y4420000D02*
Y4293000D01*
X11021950D01*
Y4420000D01*
X10856850D01*
G37*
X11123550D02*
G36*
X11123550Y4420000D02*
Y4293000D01*
X11496210D01*
X11369210Y4420000D01*
X11123550D01*
G37*
X11512890D02*
G36*
X11512890Y4420000D02*
X11639890Y4293000D01*
X12912980D01*
Y4420000D01*
X11512890D01*
G37*
X89020Y4610500D02*
G36*
X89020Y4610500D02*
Y4420000D01*
X1058800D01*
Y4610500D01*
X974650D01*
G75*
G02*
X995300Y4547000I-87300J-63500D01*
G01*
G75*
G02*
X887350Y4439050I-107950J0D01*
G01*
X760350D01*
G75*
G02*
X652400Y4547000I0J107950D01*
G01*
G75*
G02*
X673050Y4610500I107950J0D01*
G01*
X89020D01*
G37*
X7548500D02*
G36*
X7548500Y4610500D02*
Y4420000D01*
X8362920D01*
G75*
G02*
X8443850Y4459370I80930J-63500D01*
G01*
G75*
G02*
X8524780Y4420000I0J-102870D01*
G01*
X8716900D01*
G75*
G02*
X8932800I107950J0D01*
G01*
X9732900D01*
G75*
G02*
X9840850Y4527950I107950J0D01*
G01*
G75*
G02*
X9948800Y4420000I0J-107950D01*
G01*
X10755250D01*
Y4488940D01*
G75*
G02*
X10674300Y4610500I50800J121560D01*
G01*
X8546720D01*
G75*
G02*
X8443850Y4507630I-102870J0D01*
G01*
G75*
G02*
X8340980Y4610500I0J102870D01*
G01*
X7548500D01*
G37*
X10856850Y4488940D02*
G36*
X10856850Y4488940D02*
Y4420000D01*
X11021950D01*
Y4610500D01*
X10937800D01*
G75*
G02*
X10856850Y4488940I-131750J0D01*
G01*
G37*
X11123550Y4610500D02*
G36*
X11123550Y4610500D02*
Y4420000D01*
X11369210D01*
X11178710Y4610500D01*
X11123550D01*
G37*
X11322390D02*
G36*
X11322390Y4610500D02*
X11512890Y4420000D01*
X12912980D01*
Y4610500D01*
X11953800D01*
G75*
G02*
X11690300I-131750J0D01*
G01*
X11322390D01*
G37*
X89020Y4737500D02*
G36*
X89020Y4737500D02*
Y4610500D01*
X673050D01*
G75*
G02*
X760350Y4654950I87300J-63500D01*
G01*
X773050D01*
Y4737500D01*
X89020D01*
G37*
X874650D02*
G36*
X874650Y4737500D02*
Y4654950D01*
X887350D01*
G75*
G02*
X974650Y4610500I0J-107950D01*
G01*
X1058800D01*
Y4737500D01*
X874650D01*
G37*
X7548500D02*
G36*
X7548500Y4737500D02*
Y4610500D01*
X8340980D01*
G75*
G02*
X8443850Y4713370I102870J0D01*
G01*
G75*
G02*
X8546720Y4610500I0J-102870D01*
G01*
X10674300D01*
G75*
G02*
X10770990Y4737500I131750J0D01*
G01*
X9948800D01*
G75*
G02*
X9840850Y4629550I-107950J0D01*
G01*
G75*
G02*
X9732900Y4737500I0J107950D01*
G01*
X8932800D01*
G75*
G02*
X8716900I-107950J0D01*
G01*
X7548500D01*
G37*
X10937800Y4610500D02*
G36*
X10937800Y4610500D02*
X11021950D01*
Y4716460D01*
X11000910Y4737500D01*
X10841110D01*
G75*
G02*
X10937800Y4610500I-35060J-127000D01*
G01*
G37*
X11123550Y4737500D02*
G36*
X11123550Y4737500D02*
Y4610500D01*
X11178710D01*
X11163870Y4625340D01*
G75*
G02*
X11148950Y4661300I35880J35960D01*
G01*
Y4737500D01*
X11123550D01*
G37*
X11250550D02*
G36*
X11250550Y4737500D02*
Y4682340D01*
X11322390Y4610500D01*
X11690300D01*
G75*
G02*
X11786990Y4737500I131750J0D01*
G01*
X11250550D01*
G37*
X11857110D02*
G36*
X11857110Y4737500D02*
G75*
G02*
X11953800Y4610500I-35060J-127000D01*
G01*
X12912980D01*
Y4737500D01*
X11857110D01*
G37*
X89020Y4915300D02*
G36*
X89020Y4915300D02*
Y4737500D01*
X773050D01*
Y4902600D01*
G75*
G02*
X787970Y4938560I50800J0D01*
G01*
X802810Y4953400D01*
X507950D01*
G75*
G02*
X286350Y4915300I-221610J625430D01*
G01*
X89020D01*
G37*
X874650Y4881560D02*
G36*
X874650Y4881560D02*
Y4737500D01*
X1058800D01*
Y4953400D01*
X946490D01*
X874650Y4881560D01*
G37*
X7548500Y4953400D02*
G36*
X7548500Y4953400D02*
Y4737500D01*
X8716900D01*
G75*
G02*
X8932800I107950J0D01*
G01*
X9732900D01*
G75*
G02*
X9840850Y4845450I107950J0D01*
G01*
G75*
G02*
X9948800Y4737500I0J-107950D01*
G01*
X10770990D01*
G75*
G02*
X10806050Y4742250I35060J-126990D01*
G01*
G75*
G02*
X10841110Y4737500I0J-131740D01*
G01*
X11000910D01*
X10888090Y4850310D01*
G75*
G02*
X10674300Y4953400I-82040J103100D01*
G01*
X10068850D01*
G75*
G02*
X9866850I-101000J38100D01*
G01*
X8862350D01*
G75*
G02*
X8660350I-101000J38100D01*
G01*
X8495610D01*
G75*
G02*
X8546720Y4864500I-51760J-88900D01*
G01*
G75*
G02*
X8443850Y4761630I-102870J0D01*
G01*
G75*
G02*
X8340980Y4864500I0J102870D01*
G01*
G75*
G02*
X8392090Y4953400I102870J0D01*
G01*
X7548500D01*
G37*
X10937800D02*
G36*
X10937800Y4953400D02*
G75*
G02*
X10937500Y4944590I-138550J310D01*
G01*
X11108630Y4773460D01*
G75*
G02*
X11123550Y4737500I-35880J-35960D01*
G01*
X11148950D01*
Y4953400D01*
X10937800D01*
G37*
X11250550D02*
G36*
X11250550Y4953400D02*
Y4737500D01*
X11786990D01*
G75*
G02*
X11857110I35060J-127010D01*
G01*
X12912980D01*
Y4937500D01*
X12486350D01*
G75*
G02*
X12341970Y4953400I10J663520D01*
G01*
X11953800D01*
G75*
G02*
X11690300I-131750J0D01*
G01*
X11250550D01*
G37*
X764220Y5118500D02*
G36*
X764220Y5118500D02*
G75*
G02*
X507950Y4953400I-477880J460320D01*
G01*
X802810D01*
X967910Y5118500D01*
X764220D01*
G37*
X946490Y4953400D02*
G36*
X946490Y4953400D02*
X1058800D01*
Y5065710D01*
X946490Y4953400D01*
G37*
X7548500Y5118500D02*
G36*
X7548500Y5118500D02*
Y4953400D01*
X8392090D01*
G75*
G02*
X8443850Y4967370I51760J-88900D01*
G01*
G75*
G02*
X8495610Y4953400I0J-102870D01*
G01*
X8660350D01*
G75*
G02*
X8653400Y4991500I101000J38110D01*
G01*
G75*
G02*
X8869300I107950J0D01*
G01*
G75*
G02*
X8862350Y4953400I-107950J10D01*
G01*
X9866850D01*
G75*
G02*
X9859900Y4991500I101000J38110D01*
G01*
G75*
G02*
X10075800I107950J0D01*
G01*
G75*
G02*
X10068850Y4953400I-107950J10D01*
G01*
X10674300D01*
G75*
G02*
X10755250Y5074960I131760J-10D01*
G01*
Y5118500D01*
X8546720D01*
G75*
G02*
X8443850Y5015630I-102870J0D01*
G01*
G75*
G02*
X8340980Y5118500I0J102870D01*
G01*
X7548500D01*
G37*
X10856850D02*
G36*
X10856850Y5118500D02*
Y5074960D01*
G75*
G02*
X10937800Y4953400I-50810J-121570D01*
G01*
X11148950D01*
Y5118500D01*
X10856850D01*
G37*
X11250550D02*
G36*
X11250550Y5118500D02*
Y4953400D01*
X11690300D01*
G75*
G02*
X11953800I131750J0D01*
G01*
X12341970D01*
G75*
G02*
X12030910Y5118500I144390J647620D01*
G01*
X11250550D01*
G37*
X892520Y5309000D02*
G36*
X892520Y5309000D02*
G75*
G02*
X764220Y5118500I-606190J269810D01*
G01*
X967910D01*
X988950Y5139540D01*
Y5309000D01*
X892520D01*
G37*
X7548500D02*
G36*
X7548500Y5309000D02*
Y5118500D01*
X8340980D01*
G75*
G02*
X8443850Y5221370I102870J0D01*
G01*
G75*
G02*
X8546720Y5118500I0J-102870D01*
G01*
X10755250D01*
Y5302650D01*
G75*
G02*
X10744810Y5309000I50790J95260D01*
G01*
X10613290D01*
G75*
G02*
X10490810I-61240J88910D01*
G01*
X10359290D01*
G75*
G02*
X10236810I-61240J88910D01*
G01*
X9728600D01*
G75*
G02*
X9586850Y5167250I-141750J0D01*
G01*
G75*
G02*
X9445100Y5309000I0J141750D01*
G01*
X9284100D01*
G75*
G02*
X9142350Y5167250I-141750J0D01*
G01*
G75*
G02*
X9000600Y5309000I0J141750D01*
G01*
X8524780D01*
G75*
G02*
X8443850Y5269630I-80930J63500D01*
G01*
G75*
G02*
X8362920Y5309000I0J102870D01*
G01*
X7548500D01*
G37*
X10856850Y5302650D02*
G36*
X10856850Y5302650D02*
Y5118500D01*
X11148950D01*
Y5300660D01*
X11140610Y5309000D01*
X11121290D01*
G75*
G02*
X10998810I-61240J88900D01*
G01*
X10867290D01*
G75*
G02*
X10856850Y5302650I-61230J88910D01*
G01*
G37*
X11250550Y5309000D02*
G36*
X11250550Y5309000D02*
Y5118500D01*
X12030910D01*
G75*
G02*
X11890560Y5309000I455460J482510D01*
G01*
X11375290D01*
G75*
G02*
X11252810I-61240J88900D01*
G01*
X11250550D01*
G37*
X939380Y5461400D02*
G36*
X939380Y5461400D02*
G75*
G02*
X892520Y5309000I-653070J117400D01*
G01*
X988950D01*
Y5461400D01*
X939380D01*
G37*
X7548500D02*
G36*
X7548500Y5461400D02*
Y5309000D01*
X8362920D01*
G75*
G02*
X8340980Y5372500I80930J63500D01*
G01*
G75*
G02*
X8392090Y5461400I102870J0D01*
G01*
X7548500D01*
G37*
X8546720Y5372500D02*
G36*
X8546720Y5372500D02*
G75*
G02*
X8524780Y5309000I-102870J0D01*
G01*
X9000600D01*
G75*
G02*
X9142350Y5450750I141750J0D01*
G01*
G75*
G02*
X9284100Y5309000I0J-141750D01*
G01*
X9445100D01*
G75*
G02*
X9586850Y5450750I141750J0D01*
G01*
G75*
G02*
X9728600Y5309000I0J-141750D01*
G01*
X10236810D01*
G75*
G02*
X10190100Y5397900I61240J88900D01*
G01*
Y5461400D01*
X8495610D01*
G75*
G02*
X8546720Y5372500I-51760J-88900D01*
G01*
G37*
X10406000Y5397900D02*
G36*
X10406000Y5397900D02*
G75*
G02*
X10359290Y5309000I-107950J0D01*
G01*
X10490810D01*
G75*
G02*
X10444100Y5397900I61240J88900D01*
G01*
Y5461400D01*
X10406000D01*
Y5397900D01*
G37*
X10660000D02*
G36*
X10660000Y5397900D02*
G75*
G02*
X10613290Y5309000I-107950J0D01*
G01*
X10744810D01*
G75*
G02*
X10698100Y5397890I61220J88890D01*
G01*
G75*
G02*
Y5397900I95490J10D01*
G01*
Y5461400D01*
X10660000D01*
Y5397900D01*
G37*
X10914000Y5461400D02*
G36*
X10914000Y5461400D02*
Y5397900D01*
G75*
G02*
Y5397890I-95490J0D01*
G01*
G75*
G02*
X10867290Y5309000I-107930J0D01*
G01*
X10998810D01*
G75*
G02*
X10952100Y5397900I61250J88900D01*
G01*
Y5461400D01*
X10914000D01*
G37*
X11132100Y5317510D02*
G36*
X11132100Y5317510D02*
G75*
G02*
X11121290Y5309000I-72050J80410D01*
G01*
X11140610D01*
X11132100Y5317510D01*
G37*
X11168000Y5461400D02*
G36*
X11168000Y5461400D02*
Y5425290D01*
X11206690Y5386600D01*
G75*
G02*
X11206100Y5397900I109620J11390D01*
G01*
Y5461400D01*
X11168000D01*
G37*
X11250550Y5310600D02*
G36*
X11250550Y5310600D02*
Y5309000D01*
X11252810D01*
G75*
G02*
X11250550Y5310600I61270J88940D01*
G01*
G37*
X11422000Y5461400D02*
G36*
X11422000Y5461400D02*
Y5397900D01*
G75*
G02*
X11375290Y5309000I-107950J0D01*
G01*
X11890560D01*
G75*
G02*
X11837700Y5461400I595830J292030D01*
G01*
X11422000D01*
G37*
X949850Y5578800D02*
G36*
X949850Y5578800D02*
G75*
G02*
X939380Y5461400I-663540J10D01*
G01*
X988950D01*
Y5626500D01*
X949660D01*
G75*
G02*
X949850Y5610700I-663560J-15880D01*
G01*
Y5578800D01*
G37*
X7548500Y5626500D02*
G36*
X7548500Y5626500D02*
Y5461400D01*
X8392090D01*
G75*
G02*
X8443850Y5475370I51760J-88900D01*
G01*
G75*
G02*
X8495610Y5461400I0J-102870D01*
G01*
X10190100D01*
Y5524900D01*
G75*
G02*
X10261570Y5626500I107950J0D01*
G01*
X8546720D01*
G75*
G02*
X8443850Y5523630I-102870J0D01*
G01*
G75*
G02*
X8340980Y5626500I0J102870D01*
G01*
X7548500D01*
G37*
X10406000Y5524900D02*
G36*
X10406000Y5524900D02*
Y5461400D01*
X10444100D01*
Y5524900D01*
G75*
G02*
X10515570Y5626500I107950J0D01*
G01*
X10334530D01*
G75*
G02*
X10406000Y5524900I-36480J-101600D01*
G01*
G37*
X10660000D02*
G36*
X10660000Y5524900D02*
Y5461400D01*
X10698100D01*
Y5524900D01*
G75*
G02*
Y5524910I95490J10D01*
G01*
G75*
G02*
X10755250Y5620150I107930J0D01*
G01*
Y5626500D01*
X10588530D01*
G75*
G02*
X10660000Y5524900I-36480J-101600D01*
G01*
G37*
X10856850Y5626500D02*
G36*
X10856850Y5626500D02*
Y5620150D01*
G75*
G02*
X10914000Y5524910I-50780J-95240D01*
G01*
G75*
G02*
Y5524900I-95490J0D01*
G01*
Y5461400D01*
X10952100D01*
Y5524900D01*
G75*
G02*
Y5524910I95490J10D01*
G01*
G75*
G02*
X11009250Y5620150I107930J0D01*
G01*
Y5626500D01*
X10856850D01*
G37*
X11110850D02*
G36*
X11110850Y5626500D02*
Y5620150D01*
G75*
G02*
X11168000Y5524910I-50780J-95240D01*
G01*
G75*
G02*
Y5524900I-95490J0D01*
G01*
Y5461400D01*
X11206100D01*
Y5524900D01*
G75*
G02*
X11277570Y5626500I107950J0D01*
G01*
X11110850D01*
G37*
X11422000Y5524900D02*
G36*
X11422000Y5524900D02*
Y5461400D01*
X11837700D01*
G75*
G02*
X11822850Y5601000I648690J139590D01*
G01*
G75*
G02*
X11823340Y5626500I663670J0D01*
G01*
X11350530D01*
G75*
G02*
X11422000Y5524900I-36480J-101600D01*
G01*
G37*
X916960Y5817000D02*
G36*
X916960Y5817000D02*
G75*
G02*
X949660Y5626500I-630640J-206310D01*
G01*
X988950D01*
Y5817000D01*
X916960D01*
G37*
X7548500D02*
G36*
X7548500Y5817000D02*
Y5626500D01*
X8340980D01*
G75*
G02*
X8443850Y5729370I102870J0D01*
G01*
G75*
G02*
X8546720Y5626500I0J-102870D01*
G01*
X10261570D01*
G75*
G02*
X10334530I36480J-101610D01*
G01*
X10515570D01*
G75*
G02*
X10588530I36480J-101610D01*
G01*
X10755250D01*
Y5817000D01*
X9728600D01*
G75*
G02*
X9586850Y5675250I-141750J0D01*
G01*
G75*
G02*
X9445100Y5817000I0J141750D01*
G01*
X9284100D01*
G75*
G02*
X9142350Y5675250I-141750J0D01*
G01*
G75*
G02*
X9000600Y5817000I0J141750D01*
G01*
X7548500D01*
G37*
X10856850D02*
G36*
X10856850Y5817000D02*
Y5626500D01*
X11009250D01*
Y5817000D01*
X10856850D01*
G37*
X11110850D02*
G36*
X11110850Y5817000D02*
Y5626500D01*
X11277570D01*
G75*
G02*
X11350530I36480J-101610D01*
G01*
X11823340D01*
G75*
G02*
X11858990Y5817000I663010J-25490D01*
G01*
X11110850D01*
G37*
X818120Y6007500D02*
G36*
X818120Y6007500D02*
G75*
G02*
X916960Y5817000I-531790J-396810D01*
G01*
X988950D01*
Y6007500D01*
X818120D01*
G37*
X7548500D02*
G36*
X7548500Y6007500D02*
Y5817000D01*
X9000600D01*
G75*
G02*
X9142350Y5958750I141750J0D01*
G01*
G75*
G02*
X9284100Y5817000I0J-141750D01*
G01*
X9445100D01*
G75*
G02*
X9586850Y5958750I141750J0D01*
G01*
G75*
G02*
X9728600Y5817000I0J-141750D01*
G01*
X10755250D01*
Y6007500D01*
X10075800D01*
G75*
G02*
X9859900I-107950J0D01*
G01*
X8869300D01*
G75*
G02*
X8653400I-107950J0D01*
G01*
X7548500D01*
G37*
X10856850Y5986460D02*
G36*
X10856850Y5986460D02*
Y5817000D01*
X11009250D01*
Y6007500D01*
X10877890D01*
X10856850Y5986460D01*
G37*
X11110850Y6007500D02*
G36*
X11110850Y6007500D02*
Y5817000D01*
X11858990D01*
G75*
G02*
X11961950Y6007500I627370J-216000D01*
G01*
X11110850D01*
G37*
X89020Y6325000D02*
G36*
X89020Y6325000D02*
Y6274200D01*
X286350D01*
G75*
G02*
X468170Y6248800I0J-663430D01*
G01*
X493650D01*
X505480Y6236970D01*
G75*
G02*
X818120Y6007500I-219150J-626290D01*
G01*
X988950D01*
Y6325000D01*
X89020D01*
G37*
X7548500Y6209350D02*
G36*
X7548500Y6209350D02*
Y6007500D01*
X8653400D01*
G75*
G02*
X8869300I107950J0D01*
G01*
X9859900D01*
G75*
G02*
X10075800I107950J0D01*
G01*
X10755250D01*
G75*
G02*
X10770170Y6043460I50800J0D01*
G01*
X11051710Y6325000D01*
X10075800D01*
G75*
G02*
X9859900I-107950J0D01*
G01*
X9059800D01*
G75*
G02*
X8843900I-107950J0D01*
G01*
X7664150D01*
X7548500Y6209350D01*
G37*
X10877890Y6007500D02*
G36*
X10877890Y6007500D02*
X11009250D01*
Y6032900D01*
G75*
G02*
X11024170Y6068860I50800J0D01*
G01*
X11280310Y6325000D01*
X11195390D01*
X10877890Y6007500D01*
G37*
X11110850Y6011860D02*
G36*
X11110850Y6011860D02*
Y6007500D01*
X11961950D01*
G75*
G02*
X12204020Y6201440I524420J-406520D01*
G01*
G75*
G02*
X12492670Y6269040I288670J-582550D01*
G01*
X12912980D01*
Y6325000D01*
X11423990D01*
X11110850Y6011860D01*
G37*
X89020Y6642500D02*
G36*
X89020Y6642500D02*
Y6325000D01*
X988950D01*
Y6642500D01*
X89020D01*
G37*
X7981650D02*
G36*
X7981650Y6642500D02*
X7664150Y6325000D01*
X8843900D01*
G75*
G02*
X9059800I107950J0D01*
G01*
X9859900D01*
G75*
G02*
X10075800I107950J0D01*
G01*
X11051710D01*
X11263250Y6536540D01*
Y6642500D01*
X10075800D01*
G75*
G02*
X9859900I-107950J0D01*
G01*
X9059800D01*
G75*
G02*
X8843900I-107950J0D01*
G01*
X7981650D01*
G37*
X11195390Y6325000D02*
G36*
X11195390Y6325000D02*
X11280310D01*
X11479150Y6523840D01*
Y6642500D01*
X11364850D01*
Y6515500D01*
G75*
G02*
X11349930Y6479540I-50800J0D01*
G01*
X11195390Y6325000D01*
G37*
X11565830Y6466840D02*
G36*
X11565830Y6466840D02*
X11423990Y6325000D01*
X12912980D01*
Y6642500D01*
X11580750D01*
Y6502800D01*
G75*
G02*
X11565830Y6466840I-50800J0D01*
G01*
G37*
X89020Y7277500D02*
G36*
X89020Y7277500D02*
Y6642500D01*
X988950D01*
Y7277500D01*
X89020D01*
G37*
X8612750Y7273600D02*
G36*
X8612750Y7273600D02*
X7981650Y6642500D01*
X8843900D01*
G75*
G02*
X9059800I107950J0D01*
G01*
X9859900D01*
G75*
G02*
X10075800I107950J0D01*
G01*
X11263250D01*
Y7126650D01*
G75*
G02*
X11206100Y7221890I50780J95240D01*
G01*
G75*
G02*
Y7221900I95490J10D01*
G01*
Y7277500D01*
X11168000D01*
Y7221900D01*
G75*
G02*
X10952100I-107950J0D01*
G01*
Y7277500D01*
X10914000D01*
Y7221900D01*
G75*
G02*
X10698100I-107950J0D01*
G01*
Y7277500D01*
X10660000D01*
Y7221900D01*
G75*
G02*
X10444100I-107950J0D01*
G01*
Y7277500D01*
X9821800D01*
Y7214000D01*
G75*
G02*
X9605900I-107950J0D01*
G01*
Y7277500D01*
X9567800D01*
Y7214000D01*
G75*
G02*
X9351900I-107950J0D01*
G01*
Y7277500D01*
X9313800D01*
Y7214000D01*
G75*
G02*
X9097900I-107950J0D01*
G01*
Y7277500D01*
X8616440D01*
G75*
G02*
X8612750Y7273600I-70940J63430D01*
G01*
G37*
X11364850Y7126650D02*
G36*
X11364850Y7126650D02*
Y6642500D01*
X11479150D01*
Y7277500D01*
X11422000D01*
Y7221900D01*
G75*
G02*
Y7221890I-95490J0D01*
G01*
G75*
G02*
X11364850Y7126650I-107930J0D01*
G01*
G37*
X11580750Y7277500D02*
G36*
X11580750Y7277500D02*
Y6642500D01*
X12912980D01*
Y7277500D01*
X11580750D01*
G37*
X89020Y7899800D02*
G36*
X89020Y7899800D02*
Y7277500D01*
X988950D01*
Y7899800D01*
X89020D01*
G37*
X8635000Y7308550D02*
G36*
X8635000Y7308550D02*
G75*
G02*
X8616440Y7277500I-89490J32420D01*
G01*
X9097900D01*
Y7341000D01*
G75*
G02*
X9313800I107950J0D01*
G01*
Y7277500D01*
X9351900D01*
Y7341000D01*
G75*
G02*
X9567800I107950J0D01*
G01*
Y7277500D01*
X9605900D01*
Y7341000D01*
G75*
G02*
X9821800I107950J0D01*
G01*
Y7277500D01*
X10444100D01*
Y7348900D01*
G75*
G02*
X10660000I107950J0D01*
G01*
Y7277500D01*
X10698100D01*
Y7348900D01*
G75*
G02*
X10914000I107950J0D01*
G01*
Y7277500D01*
X10952100D01*
Y7348900D01*
G75*
G02*
Y7348910I95490J10D01*
G01*
G75*
G02*
X11009250Y7444150I107930J0D01*
G01*
Y7506100D01*
G75*
G02*
X11024170Y7542060I50800J0D01*
G01*
X11138390Y7656280D01*
G75*
G02*
X11174350Y7671200I35960J-35880D01*
G01*
X11339450D01*
G75*
G02*
X11375410Y7656280I0J-50800D01*
G01*
X11565830Y7465860D01*
G75*
G02*
X11580750Y7429900I-35880J-35960D01*
G01*
Y7277500D01*
X12912980D01*
Y7899800D01*
X10048800D01*
G75*
G02*
X9814370Y7817250I-131750J0D01*
G01*
X9448500D01*
X8968460Y7337200D01*
G75*
G02*
X8901050Y7309250I-67380J67250D01*
G01*
X8635700D01*
X8635000Y7308550D01*
G37*
X8640700Y7899800D02*
G36*
X8640700Y7899800D02*
Y7499750D01*
X8861600D01*
X9261650Y7899800D01*
X9032800D01*
G75*
G02*
X8769300I-131750J0D01*
G01*
X8640700D01*
G37*
X11110850Y7485060D02*
G36*
X11110850Y7485060D02*
Y7444150D01*
G75*
G02*
X11168000Y7348910I-50780J-95240D01*
G01*
G75*
G02*
Y7348900I-95490J0D01*
G01*
Y7277500D01*
X11206100D01*
Y7348900D01*
G75*
G02*
X11422000I107950J0D01*
G01*
Y7277500D01*
X11479150D01*
Y7408860D01*
X11318410Y7569600D01*
X11195390D01*
X11110850Y7485060D01*
G37*
X89020Y8674500D02*
G36*
X89020Y8674500D02*
Y7899800D01*
X988950D01*
Y8534800D01*
G75*
G02*
X1003870Y8570760I50800J0D01*
G01*
X1107610Y8674500D01*
X89020D01*
G37*
X8640700D02*
G36*
X8640700Y8674500D02*
Y7899800D01*
X8769300D01*
G75*
G02*
X9032800I131750J0D01*
G01*
X9261650D01*
X9341650Y7979800D01*
G75*
G02*
X9409050Y8007750I67380J-67250D01*
G01*
X9841520D01*
G75*
G02*
X10048800Y7899800I75530J-107950D01*
G01*
X12912980D01*
Y8674500D01*
X11041000D01*
G75*
G02*
X10799700I-120650J0D01*
G01*
X10787000D01*
G75*
G02*
X10545700I-120650J0D01*
G01*
X10533000D01*
G75*
G02*
X10291700I-120650J0D01*
G01*
X10279000D01*
G75*
G02*
X10037700I-120650J0D01*
G01*
X10025000D01*
G75*
G02*
X9783700I-120650J0D01*
G01*
X9771000D01*
G75*
G02*
X9529700I-120650J0D01*
G01*
X9517000D01*
G75*
G02*
X9275700I-120650J0D01*
G01*
X9263000D01*
G75*
G02*
X9021700I-120650J0D01*
G01*
X9009000D01*
G75*
G02*
X8767700I-120650J0D01*
G01*
X8640700D01*
G37*
X89020Y8923000D02*
G36*
X89020Y8923000D02*
Y8674500D01*
X1107610D01*
X1356110Y8923000D01*
X1266350D01*
G75*
G02*
X1109600Y8766250I-156750J0D01*
G01*
G75*
G02*
X952850Y8923000I0J156750D01*
G01*
X616350D01*
G75*
G02*
X459600Y8766250I-156750J0D01*
G01*
G75*
G02*
X302850Y8923000I0J156750D01*
G01*
X89020D01*
G37*
X8640700D02*
G36*
X8640700Y8923000D02*
Y8674500D01*
X8767700D01*
G75*
G02*
X9009000I120650J0D01*
G01*
X9021700D01*
G75*
G02*
X9263000I120650J0D01*
G01*
X9275700D01*
G75*
G02*
X9517000I120650J0D01*
G01*
X9529700D01*
G75*
G02*
X9771000I120650J0D01*
G01*
X9783700D01*
G75*
G02*
X10025000I120650J0D01*
G01*
X10037700D01*
G75*
G02*
X10279000I120650J0D01*
G01*
X10291700D01*
G75*
G02*
X10533000I120650J0D01*
G01*
X10545700D01*
G75*
G02*
X10787000I120650J0D01*
G01*
X10799700D01*
G75*
G02*
X11041000I120650J0D01*
G01*
X12912980D01*
Y8923000D01*
X8640700D01*
G37*
X89020Y9436500D02*
G36*
X89020Y9436500D02*
Y8923000D01*
X302850D01*
G75*
G02*
X459600Y9079750I156750J0D01*
G01*
G75*
G02*
X616350Y8923000I0J-156750D01*
G01*
X952850D01*
G75*
G02*
X1109600Y9079750I156750J0D01*
G01*
G75*
G02*
X1266350Y8923000I0J-156750D01*
G01*
X1356110D01*
X1869610Y9436500D01*
X1308440D01*
X1265050Y9393110D01*
G75*
G02*
X1266350Y9373000I-157040J-20250D01*
G01*
G75*
G02*
X961310Y9322200I-156750J0D01*
G01*
X607890D01*
G75*
G02*
X302850Y9373000I-148290J50800D01*
G01*
G75*
G02*
X316290Y9436500I156760J-10D01*
G01*
X89020D01*
G37*
X602910D02*
G36*
X602910Y9436500D02*
G75*
G02*
X607890Y9423800I-143330J-63530D01*
G01*
X961310D01*
G75*
G02*
X966290Y9436500I148310J-50830D01*
G01*
X602910D01*
G37*
X8335900D02*
G36*
X8335900Y9436500D02*
X8261060D01*
X8612750Y9084810D01*
G75*
G02*
X8640700Y9017430I-67250J-67380D01*
G01*
G75*
G02*
Y9017400I-114590J-10D01*
G01*
Y8923000D01*
X12912980D01*
Y9436500D01*
X8551800D01*
G75*
G02*
X8335900I-107950J0D01*
G01*
G37*
X89020Y9901000D02*
G36*
X89020Y9901000D02*
Y9436500D01*
X316290D01*
G75*
G02*
X602910I143310J-63500D01*
G01*
X966290D01*
G75*
G02*
X1216190Y9487930I143310J-63500D01*
G01*
X1629260Y9901000D01*
X1235600D01*
G75*
G02*
X537100I-349250J0D01*
G01*
X89020D01*
G37*
X1772940D02*
G36*
X1772940Y9901000D02*
X1308440Y9436500D01*
X1869610D01*
X2159490Y9726380D01*
G75*
G02*
X2165240Y9731340I35220J-35020D01*
G01*
G75*
G02*
X2118300Y9817500I55610J86160D01*
G01*
G75*
G02*
X2161310Y9901000I102550J10D01*
G01*
X1772940D01*
G37*
X2323400Y9817500D02*
G36*
X2323400Y9817500D02*
G75*
G02*
X2289480Y9741300I-102540J0D01*
G01*
X2406220D01*
G75*
G02*
X2372300Y9817500I68620J76200D01*
G01*
G75*
G02*
X2415310Y9901000I102550J10D01*
G01*
X2280390D01*
G75*
G02*
X2323400Y9817500I-59540J-83490D01*
G01*
G37*
X2577400D02*
G36*
X2577400Y9817500D02*
G75*
G02*
X2543480Y9741300I-102540J0D01*
G01*
X2660220D01*
G75*
G02*
X2626300Y9817500I68620J76200D01*
G01*
G75*
G02*
X2669310Y9901000I102550J10D01*
G01*
X2534390D01*
G75*
G02*
X2577400Y9817500I-59540J-83490D01*
G01*
G37*
X2831400D02*
G36*
X2831400Y9817500D02*
G75*
G02*
X2797480Y9741300I-102540J0D01*
G01*
X2914220D01*
G75*
G02*
X2880300Y9817500I68620J76200D01*
G01*
G75*
G02*
X2923310Y9901000I102550J10D01*
G01*
X2788390D01*
G75*
G02*
X2831400Y9817500I-59540J-83490D01*
G01*
G37*
X3085400D02*
G36*
X3085400Y9817500D02*
G75*
G02*
X3051480Y9741300I-102540J0D01*
G01*
X3168220D01*
G75*
G02*
X3134300Y9817500I68620J76200D01*
G01*
G75*
G02*
X3177310Y9901000I102550J10D01*
G01*
X3042390D01*
G75*
G02*
X3085400Y9817500I-59540J-83490D01*
G01*
G37*
X3339400D02*
G36*
X3339400Y9817500D02*
G75*
G02*
X3305480Y9741300I-102540J0D01*
G01*
X3422220D01*
G75*
G02*
X3388300Y9817500I68620J76200D01*
G01*
G75*
G02*
X3431310Y9901000I102550J10D01*
G01*
X3296390D01*
G75*
G02*
X3339400Y9817500I-59540J-83490D01*
G01*
G37*
X3593400D02*
G36*
X3593400Y9817500D02*
G75*
G02*
X3559480Y9741300I-102540J0D01*
G01*
X3676220D01*
G75*
G02*
X3642300Y9817500I68620J76200D01*
G01*
G75*
G02*
X3685310Y9901000I102550J10D01*
G01*
X3550390D01*
G75*
G02*
X3593400Y9817500I-59540J-83490D01*
G01*
G37*
X3847400D02*
G36*
X3847400Y9817500D02*
G75*
G02*
X3813480Y9741300I-102540J0D01*
G01*
X3930220D01*
G75*
G02*
X3896300Y9817500I68630J76200D01*
G01*
G75*
G02*
X3939310Y9901000I102550J10D01*
G01*
X3804390D01*
G75*
G02*
X3847400Y9817500I-59540J-83490D01*
G01*
G37*
X7796550Y9901000D02*
G36*
X7796550Y9901000D02*
X8261060Y9436500D01*
X8335900D01*
G75*
G02*
X8551800I107950J0D01*
G01*
X12912980D01*
Y9901000D01*
X12235600D01*
G75*
G02*
X11537100I-349250J0D01*
G01*
X7796550D01*
G37*
X89020Y10071500D02*
G36*
X89020Y10071500D02*
Y9901000D01*
X537100D01*
G75*
G02*
X581550Y10071500I349260J-10D01*
G01*
X89020D01*
G37*
X1191150D02*
G36*
X1191150Y10071500D02*
G75*
G02*
X1235600Y9901000I-304810J-170510D01*
G01*
X1629260D01*
X1799760Y10071500D01*
X1191150D01*
G37*
X1943440D02*
G36*
X1943440Y10071500D02*
X1772940Y9901000D01*
X2161310D01*
G75*
G02*
X2220850Y9920050I59530J-83500D01*
G01*
G75*
G02*
X2280390Y9901000I10J-102550D01*
G01*
X2415310D01*
G75*
G02*
X2474850Y9920050I59530J-83500D01*
G01*
G75*
G02*
X2534390Y9901000I10J-102550D01*
G01*
X2669310D01*
G75*
G02*
X2728850Y9920050I59530J-83500D01*
G01*
G75*
G02*
X2788390Y9901000I10J-102550D01*
G01*
X2923310D01*
G75*
G02*
X2982850Y9920050I59530J-83500D01*
G01*
G75*
G02*
X3042390Y9901000I10J-102550D01*
G01*
X3177310D01*
G75*
G02*
X3236850Y9920050I59530J-83500D01*
G01*
G75*
G02*
X3296390Y9901000I10J-102550D01*
G01*
X3431310D01*
G75*
G02*
X3490850Y9920050I59530J-83500D01*
G01*
G75*
G02*
X3550390Y9901000I10J-102550D01*
G01*
X3685310D01*
G75*
G02*
X3744850Y9920050I59530J-83500D01*
G01*
G75*
G02*
X3804390Y9901000I10J-102550D01*
G01*
X3939310D01*
G75*
G02*
X4025920Y9916410I59530J-83510D01*
G01*
X4075050Y9965540D01*
Y10002870D01*
G75*
G02*
X3896300Y10071500I-76200J68630D01*
G01*
X3847400D01*
G75*
G02*
X3642300I-102550J0D01*
G01*
X3593400D01*
G75*
G02*
X3388300I-102550J0D01*
G01*
X3339400D01*
G75*
G02*
X3134300I-102550J0D01*
G01*
X3085400D01*
G75*
G02*
X2880300I-102550J0D01*
G01*
X2831400D01*
G75*
G02*
X2626300I-102550J0D01*
G01*
X2577400D01*
G75*
G02*
X2372300I-102550J0D01*
G01*
X2323400D01*
G75*
G02*
X2118300I-102550J0D01*
G01*
X1943440D01*
G37*
X7626050D02*
G36*
X7626050Y10071500D02*
X7796550Y9901000D01*
X11537100D01*
G75*
G02*
X11581550Y10071500I349260J-10D01*
G01*
X7626050D01*
G37*
X12191150D02*
G36*
X12191150Y10071500D02*
G75*
G02*
X12235600Y9901000I-304810J-170510D01*
G01*
X12912980D01*
Y10071500D01*
X12191150D01*
G37*
X89020Y10629030D02*
G36*
X89020Y10629030D02*
Y10071500D01*
X581550D01*
G75*
G02*
X1191150I304800J-170500D01*
G01*
X1799760D01*
X1994390Y10266130D01*
G75*
G02*
X2030350Y10281050I35960J-35880D01*
G01*
X3078100D01*
G75*
G02*
X3114060Y10266130I0J-50800D01*
G01*
X3209780Y10170410D01*
G75*
G02*
X3339400Y10071500I27070J-98920D01*
G01*
X3388300D01*
G75*
G02*
X3593400I102550J0D01*
G01*
X3642300D01*
G75*
G02*
X3847400I102550J0D01*
G01*
X3896300D01*
G75*
G02*
X3903600Y10109500I102560J0D01*
G01*
Y10287400D01*
G75*
G02*
Y10287430I114590J20D01*
G01*
G75*
G02*
X3931550Y10354810I95200J0D01*
G01*
X4096550Y10519800D01*
G75*
G02*
X4163950Y10547750I67380J-67250D01*
G01*
X7110350D01*
G75*
G02*
X7177760Y10519800I30J-95200D01*
G01*
X7427850Y10269700D01*
X7614450Y10456300D01*
G75*
G02*
X7681850Y10484250I67380J-67250D01*
G01*
X7844830D01*
G75*
G02*
X8062850Y10424060I91020J-95250D01*
G01*
G75*
G02*
X8311410Y10439800I127000J-35050D01*
G01*
X8336650D01*
G75*
G02*
X8335900Y10452500I108550J12780D01*
G01*
G75*
G02*
X8551800I107950J0D01*
G01*
G75*
G02*
X8412080Y10349330I-107960J10D01*
G01*
G75*
G02*
X8380350Y10338200I-31720J39630D01*
G01*
X8311410D01*
G75*
G02*
X8062850Y10353940I-121560J50790D01*
G01*
G75*
G02*
X7844830Y10293750I-127000J35060D01*
G01*
X7721300D01*
X7562550Y10135000D01*
X7626050Y10071500D01*
X11581550D01*
G75*
G02*
X12191150I304800J-170500D01*
G01*
X12912980D01*
Y10629030D01*
X10972770D01*
G75*
G02*
X11104500Y10452500I-52420J-176530D01*
G01*
G75*
G02*
X10920350Y10268350I-184150J0D01*
G01*
G75*
G02*
X10736200Y10452500I0J184150D01*
G01*
G75*
G02*
X10867930Y10629030I184150J0D01*
G01*
X8940770D01*
G75*
G02*
X9072500Y10452500I-52420J-176530D01*
G01*
G75*
G02*
X8888350Y10268350I-184150J0D01*
G01*
G75*
G02*
X8704200Y10452500I0J184150D01*
G01*
G75*
G02*
X8835930Y10629030I184150J0D01*
G01*
X89020D01*
G37*
X2051390Y10179450D02*
G36*
X2051390Y10179450D02*
X1943440Y10071500D01*
X2118300D01*
G75*
G02*
X2323400I102550J0D01*
G01*
X2372300D01*
G75*
G02*
X2577400I102550J0D01*
G01*
X2626300D01*
G75*
G02*
X2831400I102550J0D01*
G01*
X2880300D01*
G75*
G02*
X3085400I102550J0D01*
G01*
X3134300D01*
G75*
G02*
Y10071570I108400J40D01*
G01*
G75*
G02*
X3137940Y10098570I101970J0D01*
G01*
X3057060Y10179450D01*
X2051390D01*
G37*
X1446150Y5493890D02*
Y5378110D01*
G75*
G02*
X1611800Y5359800I76200J-69110D01*
G01*
X2411350D01*
G75*
G02*
X2447310Y5344880I0J-50800D01*
G01*
X2559390Y5232800D01*
X3231240D01*
G75*
G02*
X3327680Y5408170I69100J76200D01*
G01*
X3391390Y5471880D01*
G75*
G02*
X3427350Y5486800I35960J-35880D01*
G01*
X3993240D01*
G75*
G02*
Y5639200I69110J76200D01*
G01*
X3427350D01*
G75*
G02*
X3391390Y5654120I0J50800D01*
G01*
X3327680Y5717830D01*
G75*
G02*
X3231240Y5893200I-27330J99170D01*
G01*
X2622890D01*
X2510810Y5781120D01*
G75*
G02*
X2474850Y5766200I-35960J35880D01*
G01*
X1611800D01*
G75*
G02*
X1446150Y5747890I-89450J50800D01*
G01*
Y5632110D01*
G75*
G02*
X1625220Y5563000I76200J-69110D01*
G01*
G75*
G02*
X1446150Y5493890I-102870J0D01*
G01*
X3300350Y5665870D02*
G75*
G02*
X3403220Y5563000I0J-102870D01*
G01*
G75*
G02*
X3300350Y5460130I-102870J0D01*
G01*
G75*
G02*
X3197480Y5563000I0J102870D01*
G01*
G75*
G02*
X3300350Y5665870I102870J0D01*
G01*
X1452500Y5487480D02*
G36*
X1452500Y5487480D02*
Y5384520D01*
G75*
G02*
X1611800Y5359800I69850J-75520D01*
G01*
X2411350D01*
G75*
G02*
X2447310Y5344880I0J-50800D01*
G01*
X2553040Y5239150D01*
X3224830D01*
G75*
G02*
X3197470Y5309000I75500J69860D01*
G01*
G75*
G02*
X3327680Y5408170I102870J0D01*
G01*
X3391390Y5471880D01*
G75*
G02*
X3427350Y5486800I35960J-35880D01*
G01*
X3986890D01*
Y5493080D01*
G75*
G02*
X3959480Y5563000I75470J69920D01*
G01*
X3403220D01*
G75*
G02*
X3300350Y5460130I-102870J0D01*
G01*
G75*
G02*
X3197480Y5563000I0J102870D01*
G01*
X1625220D01*
G75*
G02*
X1452500Y5487480I-102870J0D01*
G01*
G37*
Y5741480D02*
G36*
X1452500Y5741480D02*
Y5638520D01*
G75*
G02*
X1625220Y5563000I69850J-75520D01*
G01*
X3197480D01*
G75*
G02*
X3300350Y5665870I102870J0D01*
G01*
G75*
G02*
X3403220Y5563000I0J-102870D01*
G01*
X3959480D01*
G75*
G02*
X3986890Y5632920I102880J0D01*
G01*
Y5639200D01*
X3427350D01*
G75*
G02*
X3391390Y5654120I0J50800D01*
G01*
X3327680Y5717830D01*
G75*
G02*
X3197480Y5817000I-27330J99170D01*
G01*
G75*
G02*
X3224830Y5886850I102870J0D01*
G01*
X2616540D01*
X2510810Y5781120D01*
G75*
G02*
X2474850Y5766200I-35960J35880D01*
G01*
X1611800D01*
G75*
G02*
X1452500Y5741480I-89450J50800D01*
G01*
G37*
X4131460Y5639200D02*
G75*
G02*
Y5486800I-69110J-76200D01*
G01*
X4316350D01*
G75*
G02*
X4352310Y5471880I0J-50800D01*
G01*
X4464390Y5359800D01*
X5750900D01*
G75*
G02*
X5916550Y5378110I89450J-50800D01*
G01*
Y5493890D01*
G75*
G02*
X5737480Y5563000I-76200J69110D01*
G01*
G75*
G02*
X5916550Y5632110I102870J0D01*
G01*
Y5747890D01*
G75*
G02*
X5750900Y5766200I-76200J69110D01*
G01*
X5670890D01*
X5558810Y5654120D01*
G75*
G02*
X5522850Y5639200I-35960J35880D01*
G01*
X4131460D01*
G36*
X4131460Y5639200D02*
G75*
G02*
Y5486800I-69110J-76200D01*
G01*
X4316350D01*
G75*
G02*
X4352310Y5471880I0J-50800D01*
G01*
X4464390Y5359800D01*
X5750900D01*
G75*
G02*
X5916550Y5378110I89450J-50800D01*
G01*
Y5493890D01*
G75*
G02*
X5737480Y5563000I-76200J69110D01*
G01*
G75*
G02*
X5916550Y5632110I102870J0D01*
G01*
Y5747890D01*
G75*
G02*
X5750900Y5766200I-76200J69110D01*
G01*
X5670890D01*
X5558810Y5654120D01*
G75*
G02*
X5522850Y5639200I-35960J35880D01*
G01*
X4131460D01*
G37*
X4231810Y4623200D02*
X4131460D01*
G75*
G02*
X4035020Y4447830I-69100J-76200D01*
G01*
X3971310Y4384120D01*
G75*
G02*
X3935350Y4369200I-35960J35880D01*
G01*
X3369460D01*
G75*
G02*
X3300350Y4190130I-69110J-76200D01*
G01*
G75*
G02*
X3231240Y4369200I0J102870D01*
G01*
X1903350D01*
G75*
G02*
X1867390Y4384120I0J50800D01*
G01*
X1755310Y4496200D01*
X1611800D01*
G75*
G02*
X1446150Y4477890I-89450J50800D01*
G01*
Y4362110D01*
G75*
G02*
X1625220Y4293000I76200J-69110D01*
G01*
G75*
G02*
X1446150Y4223890I-102870J0D01*
G01*
Y4108110D01*
G75*
G02*
X1625220Y4039000I76200J-69110D01*
G01*
G75*
G02*
X1446150Y3969890I-102870J0D01*
G01*
Y3854110D01*
G75*
G02*
X1621380Y3757170I76200J-69100D01*
G01*
X1688800Y3689750D01*
X3261500D01*
G75*
G02*
X3327680Y3884170I38840J95250D01*
G01*
X3391390Y3947880D01*
G75*
G02*
X3427350Y3962800I35960J-35880D01*
G01*
X3993240D01*
G75*
G02*
Y4115200I69110J76200D01*
G01*
X3448390D01*
X3399520Y4066330D01*
G75*
G02*
X3300350Y3936130I-99170J-27330D01*
G01*
G75*
G02*
X3197480Y4039000I0J102870D01*
G01*
G75*
G02*
X3327680Y4138170I102860J0D01*
G01*
X3391390Y4201880D01*
G75*
G02*
X3427350Y4216800I35960J-35880D01*
G01*
X3993240D01*
G75*
G02*
X4062350Y4395870I69110J76200D01*
G01*
G75*
G02*
X4131460Y4216800I0J-102870D01*
G01*
X4189350D01*
G75*
G02*
X4225310Y4201880I0J-50800D01*
G01*
X4337390Y4089800D01*
X5750900D01*
G75*
G02*
X5840350Y4141870I89450J-50800D01*
G01*
G75*
G02*
X5857280Y4140470I10J-102900D01*
G01*
X6018150Y4301340D01*
Y4648600D01*
G75*
G02*
X6018360Y4653160I50770J-50D01*
G01*
X5939520Y4574330D01*
G75*
G02*
X5750900Y4496200I-99170J-27330D01*
G01*
X4379850D01*
G75*
G02*
X4343890Y4511120I0J50800D01*
G01*
X4231810Y4623200D01*
X5840350Y4395870D02*
G75*
G02*
X5943220Y4293000I0J-102870D01*
G01*
G75*
G02*
X5840350Y4190130I-102870J0D01*
G01*
G75*
G02*
X5737480Y4293000I0J102870D01*
G01*
G75*
G02*
X5840350Y4395870I102870J0D01*
G01*
X1452500Y3963480D02*
G36*
X1452500Y3963480D02*
Y3860520D01*
G75*
G02*
X1625220Y3785010I69850J-75510D01*
G01*
G75*
G02*
X1621380Y3757170I-102870J0D01*
G01*
X1682450Y3696100D01*
X3248590D01*
G75*
G02*
X3197470Y3785000I51750J88900D01*
G01*
G75*
G02*
X3327680Y3884170I102870J0D01*
G01*
X3391390Y3947880D01*
G75*
G02*
X3427350Y3962800I35960J-35880D01*
G01*
X3993240D01*
G75*
G02*
X3959480Y4039000I69120J76200D01*
G01*
G75*
G02*
X3993240Y4115200I102880J0D01*
G01*
X3448390D01*
X3399520Y4066330D01*
G75*
G02*
X3403220Y4039000I-99190J-27340D01*
G01*
G75*
G02*
X3300350Y3936130I-102870J0D01*
G01*
G75*
G02*
X3197480Y4039000I0J102870D01*
G01*
G75*
G02*
X3327680Y4138170I102870J-10D01*
G01*
X3391390Y4201880D01*
G75*
G02*
X3427350Y4216800I35960J-35880D01*
G01*
X3993240D01*
G75*
G02*
X3959480Y4293000I69110J76200D01*
G01*
X3403220D01*
G75*
G02*
X3300350Y4190130I-102870J0D01*
G01*
G75*
G02*
X3197480Y4293000I0J102870D01*
G01*
X1625220D01*
G75*
G02*
X1452500Y4217480I-102870J0D01*
G01*
Y4114520D01*
G75*
G02*
X1625220Y4039000I69850J-75520D01*
G01*
G75*
G02*
X1452500Y3963480I-102870J0D01*
G01*
G37*
X4165220Y4293000D02*
G36*
X4165220Y4293000D02*
G75*
G02*
X4131460Y4216800I-102870J0D01*
G01*
X4189350D01*
G75*
G02*
X4225310Y4201880I0J-50800D01*
G01*
X4337390Y4089800D01*
X5750900D01*
G75*
G02*
X5840350Y4141870I89470J-50830D01*
G01*
G75*
G02*
X5857280Y4140470I10J-102990D01*
G01*
X6009810Y4293000D01*
X5943220D01*
G75*
G02*
X5840350Y4190130I-102870J0D01*
G01*
G75*
G02*
X5737480Y4293000I0J102870D01*
G01*
X4165220D01*
G37*
X1452500Y4471480D02*
G36*
X1452500Y4471480D02*
Y4368520D01*
G75*
G02*
X1625220Y4293000I69850J-75520D01*
G01*
X3197480D01*
G75*
G02*
X3231240Y4369200I102870J0D01*
G01*
X1903350D01*
G75*
G02*
X1867390Y4384120I0J50800D01*
G01*
X1755310Y4496200D01*
X1611800D01*
G75*
G02*
X1452500Y4471480I-89450J50800D01*
G01*
G37*
X3403220Y4293000D02*
G36*
X3403220Y4293000D02*
X3959480D01*
G75*
G02*
X4062350Y4395870I102870J0D01*
G01*
G75*
G02*
X4165220Y4293000I0J-102870D01*
G01*
X5737480D01*
G75*
G02*
X5840350Y4395870I102870J0D01*
G01*
G75*
G02*
X5943220Y4293000I0J-102870D01*
G01*
X6009810D01*
X6012010Y4295200D01*
Y4646810D01*
X5939520Y4574330D01*
G75*
G02*
X5943220Y4547000I-99150J-27340D01*
G01*
G75*
G02*
X5750900Y4496200I-102870J0D01*
G01*
X4379850D01*
G75*
G02*
X4343890Y4511120I0J50800D01*
G01*
X4231810Y4623200D01*
X4131460D01*
G75*
G02*
X4165230Y4547000I-69090J-76200D01*
G01*
G75*
G02*
X4035020Y4447830I-102870J0D01*
G01*
X3971310Y4384120D01*
G75*
G02*
X3935350Y4369200I-35960J35880D01*
G01*
X3369460D01*
G75*
G02*
X3403220Y4293000I-69110J-76200D01*
G01*
G37*
X4938650Y9748870D02*
Y9330540D01*
X5813020Y8456170D01*
G75*
G02*
X5916550Y8426110I27330J-99170D01*
G01*
Y8541890D01*
G75*
G02*
X5737480Y8611000I-76200J69110D01*
G01*
G75*
G02*
X5916550Y8680110I102870J0D01*
G01*
Y8716960D01*
X5105970Y9527540D01*
G75*
G02*
X5091050Y9563500I35880J35960D01*
G01*
Y9748870D01*
G75*
G02*
X4938650I-76200J68630D01*
G01*
G36*
X4938650Y9748870D02*
Y9330540D01*
X5813020Y8456170D01*
G75*
G02*
X5916550Y8426110I27330J-99170D01*
G01*
Y8541890D01*
G75*
G02*
X5737480Y8611000I-76200J69110D01*
G01*
G75*
G02*
X5916550Y8680110I102870J0D01*
G01*
Y8716960D01*
X5105970Y9527540D01*
G75*
G02*
X5091050Y9563500I35880J35960D01*
G01*
Y9748870D01*
G75*
G02*
X4938650I-76200J68630D01*
G01*
G37*
X5776850Y3353200D02*
X4921590D01*
X5876230Y2398560D01*
G75*
G02*
X5891150Y2362600I-35880J-35960D01*
G01*
Y1862940D01*
X6521790Y1232300D01*
X6596740D01*
G75*
G02*
Y1384700I69110J76200D01*
G01*
X6551550D01*
G75*
G02*
X6515590Y1399620I0J50800D01*
G01*
X6248970Y1666240D01*
G75*
G02*
X6234050Y1702200I35880J35960D01*
G01*
Y3643950D01*
G75*
G02*
X6197630Y3752940I50790J77550D01*
G01*
X5812810Y3368120D01*
G75*
G02*
X5776850Y3353200I-35960J35880D01*
G01*
G36*
X5776850Y3353200D02*
X4921590D01*
X5876230Y2398560D01*
G75*
G02*
X5891150Y2362600I-35880J-35960D01*
G01*
Y1862940D01*
X6521790Y1232300D01*
X6596740D01*
G75*
G02*
Y1384700I69110J76200D01*
G01*
X6551550D01*
G75*
G02*
X6515590Y1399620I0J50800D01*
G01*
X6248970Y1666240D01*
G75*
G02*
X6234050Y1702200I35880J35960D01*
G01*
Y3643950D01*
G75*
G02*
X6197630Y3752940I50790J77550D01*
G01*
X5812810Y3368120D01*
G75*
G02*
X5776850Y3353200I-35960J35880D01*
G01*
G37*
X6208650Y9748870D02*
Y9457540D01*
X6361260Y9304940D01*
G75*
G02*
X6361050Y9309500I50560J4610D01*
G01*
Y9748870D01*
G75*
G02*
X6208650I-76200J68630D01*
G01*
G36*
X6208650Y9748870D02*
Y9457540D01*
X6361260Y9304940D01*
G75*
G02*
X6361050Y9309500I50560J4610D01*
G01*
Y9748870D01*
G75*
G02*
X6208650I-76200J68630D01*
G01*
G37*
X8450200Y8977950D02*
X7726380Y9701770D01*
G75*
G02*
X7726650Y9696500I-50530J-5230D01*
G01*
Y8889660D01*
G75*
G02*
X7675850Y8699750I-50800J-88160D01*
G01*
G75*
G02*
X7625050Y8889660I0J101750D01*
G01*
Y9675460D01*
X7025810Y10274700D01*
X4273890D01*
X4176650Y10177460D01*
Y10140130D01*
G75*
G02*
X4355400Y10071500I76200J-68630D01*
G01*
G75*
G02*
X4176650Y10002870I-102550J0D01*
G01*
Y9944500D01*
G75*
G02*
X4161730Y9908540I-50800J0D01*
G01*
X4097760Y9844570D01*
G75*
G02*
X4067480Y9741300I-98910J-27070D01*
G01*
X4104810D01*
X4153940Y9790430D01*
G75*
G02*
X4252850Y9920050I98910J27070D01*
G01*
G75*
G02*
Y9714950I0J-102550D01*
G01*
G75*
G02*
X4225780Y9718590I10J102560D01*
G01*
X4165940Y9658750D01*
X4276900D01*
X4408080Y9789930D01*
G75*
G02*
X4506850Y9920050I98770J27570D01*
G01*
G75*
G02*
X4602100Y9779500I0J-102550D01*
G01*
Y9754000D01*
G75*
G02*
X4574150Y9686600I-95250J0D01*
G01*
X4383760Y9496200D01*
G75*
G02*
X4316350Y9468250I-67410J67310D01*
G01*
X2285700D01*
X1931440Y9113980D01*
G75*
G02*
X2056300Y9068200I35410J-96580D01*
G01*
X3871850D01*
G75*
G02*
X3907810Y9053280I0J-50800D01*
G01*
X4098230Y8862860D01*
G75*
G02*
X4113150Y8826900I-35880J-35960D01*
G01*
Y8700450D01*
G75*
G02*
X4062350Y8508130I-50800J-89450D01*
G01*
G75*
G02*
X4011550Y8700450I0J102870D01*
G01*
Y8805860D01*
X3850810Y8966600D01*
X2056300D01*
G75*
G02*
X1912960Y8929770I-89450J50800D01*
G01*
X1621520Y8638330D01*
G75*
G02*
X1476640Y8518840I-99170J-27330D01*
G01*
X1319150Y8361360D01*
Y8225640D01*
X1423180Y8329670D01*
G75*
G02*
X1611800Y8407800I99170J27330D01*
G01*
X1691810D01*
X1803890Y8519880D01*
G75*
G02*
X1839850Y8534800I35960J-35880D01*
G01*
X3231240D01*
G75*
G02*
X3300350Y8713870I69110J76200D01*
G01*
G75*
G02*
X3369460Y8534800I0J-102870D01*
G01*
X3871850D01*
G75*
G02*
X3907810Y8519880I0J-50800D01*
G01*
X3993900Y8433790D01*
G75*
G02*
X4165220Y8357000I68450J-76790D01*
G01*
G75*
G02*
X3967600Y8316950I-102870J0D01*
G01*
G75*
G02*
X3962890Y8321120I31270J40070D01*
G01*
X3850810Y8433200D01*
X3369460D01*
G75*
G02*
X3300350Y8254130I-69110J-76200D01*
G01*
G75*
G02*
X3231240Y8433200I0J102870D01*
G01*
X1860890D01*
X1748810Y8321120D01*
G75*
G02*
X1712850Y8306200I-35960J35880D01*
G01*
X1611800D01*
G75*
G02*
X1495020Y8257830I-89450J50800D01*
G01*
X1382650Y8145460D01*
Y7781140D01*
X1423180Y7821670D01*
G75*
G02*
X1611800Y7899800I99170J27330D01*
G01*
X1945810D01*
X2057890Y8011880D01*
G75*
G02*
X2093850Y8026800I35960J-35880D01*
G01*
X3231240D01*
G75*
G02*
X3300350Y8205870I69110J76200D01*
G01*
G75*
G02*
X3369460Y8026800I0J-102870D01*
G01*
X3935350D01*
G75*
G02*
X3971310Y8011880I0J-50800D01*
G01*
X4035020Y7948170D01*
G75*
G02*
X4165220Y7849000I27330J-99170D01*
G01*
G75*
G02*
X4062350Y7746130I-102870J0D01*
G01*
G75*
G02*
X3963180Y7876330I0J102860D01*
G01*
X3914310Y7925200D01*
X3369460D01*
G75*
G02*
Y7772800I-69110J-76200D01*
G01*
X3935350D01*
G75*
G02*
X3971310Y7757880I0J-50800D01*
G01*
X4035020Y7694170D01*
G75*
G02*
X4165220Y7595000I27330J-99170D01*
G01*
G75*
G02*
X4062350Y7492130I-102870J0D01*
G01*
G75*
G02*
X3963180Y7622330I0J102860D01*
G01*
X3914310Y7671200D01*
X3369460D01*
G75*
G02*
Y7518800I-69110J-76200D01*
G01*
X3935350D01*
G75*
G02*
X3971310Y7503880I0J-50800D01*
G01*
X4035020Y7440170D01*
G75*
G02*
X4165220Y7341000I27330J-99170D01*
G01*
G75*
G02*
X4062350Y7238130I-102870J0D01*
G01*
G75*
G02*
X3963180Y7368330I0J102860D01*
G01*
X3914310Y7417200D01*
X3369460D01*
G75*
G02*
Y7264800I-69110J-76200D01*
G01*
X3935350D01*
G75*
G02*
X3971310Y7249880I0J-50800D01*
G01*
X4035020Y7186170D01*
G75*
G02*
X4165220Y7087000I27330J-99170D01*
G01*
G75*
G02*
X4062350Y6984130I-102870J0D01*
G01*
G75*
G02*
X3963180Y7114330I0J102860D01*
G01*
X3914310Y7163200D01*
X3369460D01*
G75*
G02*
X3300350Y6984130I-69110J-76200D01*
G01*
G75*
G02*
X3231240Y7163200I0J102870D01*
G01*
X2559390D01*
X2447310Y7051120D01*
G75*
G02*
X2411350Y7036200I-35960J35880D01*
G01*
X1611800D01*
G75*
G02*
X1446150Y7017890I-89450J50800D01*
G01*
Y6902110D01*
G75*
G02*
X1625220Y6833000I76200J-69110D01*
G01*
G75*
G02*
X1446150Y6763890I-102870J0D01*
G01*
Y6648110D01*
G75*
G02*
X1611800Y6629800I76200J-69110D01*
G01*
X2263310D01*
X2375390Y6741880D01*
G75*
G02*
X2411350Y6756800I35960J-35880D01*
G01*
X3231240D01*
G75*
G02*
X3300350Y6935870I69110J76200D01*
G01*
G75*
G02*
X3369460Y6756800I0J-102870D01*
G01*
X3935350D01*
G75*
G02*
X3971310Y6741880I0J-50800D01*
G01*
X4035020Y6678170D01*
G75*
G02*
X4165220Y6579000I27330J-99170D01*
G01*
G75*
G02*
X4062350Y6476130I-102870J0D01*
G01*
G75*
G02*
X3963180Y6606330I0J102860D01*
G01*
X3914310Y6655200D01*
X3369460D01*
G75*
G02*
Y6502800I-69110J-76200D01*
G01*
X3935350D01*
G75*
G02*
X3971310Y6487880I0J-50800D01*
G01*
X4035020Y6424170D01*
G75*
G02*
X4165220Y6325000I27330J-99170D01*
G01*
G75*
G02*
X4062350Y6222130I-102870J0D01*
G01*
G75*
G02*
X3963180Y6352330I0J102860D01*
G01*
X3914310Y6401200D01*
X3369460D01*
G75*
G02*
Y6248800I-69110J-76200D01*
G01*
X3935350D01*
G75*
G02*
X3971310Y6233880I0J-50800D01*
G01*
X4035020Y6170170D01*
G75*
G02*
X4165220Y6071000I27330J-99170D01*
G01*
G75*
G02*
X4062350Y5968130I-102870J0D01*
G01*
G75*
G02*
X3963180Y6098330I0J102860D01*
G01*
X3914310Y6147200D01*
X3369460D01*
G75*
G02*
Y5994800I-69110J-76200D01*
G01*
X3935350D01*
G75*
G02*
X3971310Y5979880I0J-50800D01*
G01*
X4035020Y5916170D01*
G75*
G02*
X4131460Y5740800I27330J-99170D01*
G01*
X5501810D01*
X5613890Y5852880D01*
G75*
G02*
X5649850Y5867800I35960J-35880D01*
G01*
X5750900D01*
G75*
G02*
X5800300Y5911750I89440J-50800D01*
G01*
G75*
G02*
X5804470Y5916460I40070J-31270D01*
G01*
X5857590Y5969590D01*
G75*
G02*
X5840350Y5968130I-17270J101400D01*
G01*
G75*
G02*
X5737480Y6071000I0J102870D01*
G01*
G75*
G02*
X5867680Y6170170I102860J0D01*
G01*
X6297550Y6600040D01*
Y6710360D01*
X5939520Y6352330D01*
G75*
G02*
X5840350Y6222130I-99170J-27330D01*
G01*
G75*
G02*
X5737480Y6325000I0J102870D01*
G01*
G75*
G02*
X5867680Y6424170I102860J0D01*
G01*
X6234050Y6790540D01*
Y6900860D01*
X5939520Y6606330D01*
G75*
G02*
X5840350Y6476130I-99170J-27330D01*
G01*
G75*
G02*
X5737480Y6579000I0J102870D01*
G01*
G75*
G02*
X5867680Y6678170I102860J0D01*
G01*
X6170550Y6981040D01*
Y7345360D01*
X5939520Y7114330D01*
G75*
G02*
X5840350Y6984130I-99170J-27330D01*
G01*
G75*
G02*
X5737480Y7087000I0J102870D01*
G01*
G75*
G02*
X5867680Y7186170I102860J0D01*
G01*
X6107050Y7425540D01*
Y7535860D01*
X5939520Y7368330D01*
G75*
G02*
X5840350Y7238130I-99170J-27330D01*
G01*
G75*
G02*
X5737480Y7341000I0J102870D01*
G01*
G75*
G02*
X5867680Y7440170I102860J0D01*
G01*
X6043550Y7616040D01*
Y7726360D01*
X5939520Y7622330D01*
G75*
G02*
X5840350Y7492130I-99170J-27330D01*
G01*
G75*
G02*
X5737480Y7595000I0J102870D01*
G01*
G75*
G02*
X5867680Y7694170I102860J0D01*
G01*
X5980050Y7806540D01*
Y7916860D01*
X5939520Y7876330D01*
G75*
G02*
X5840350Y7746130I-99170J-27330D01*
G01*
G75*
G02*
X5737480Y7849000I0J102870D01*
G01*
G75*
G02*
X5867680Y7948170I102860J0D01*
G01*
X5916550Y7997040D01*
Y8033890D01*
G75*
G02*
X5737480Y8103000I-76200J69110D01*
G01*
G75*
G02*
X5916550Y8172110I102870J0D01*
G01*
Y8287890D01*
G75*
G02*
X5741180Y8384330I-76200J69100D01*
G01*
X4851970Y9273540D01*
G75*
G02*
X4837050Y9309500I35880J35960D01*
G01*
Y9748870D01*
G75*
G02*
X4658300Y9817500I-76200J68630D01*
G01*
G75*
G02*
X4837050Y9886130I102550J0D01*
G01*
Y9923460D01*
X4787920Y9972590D01*
G75*
G02*
X4658300Y10071500I-27070J98910D01*
G01*
G75*
G02*
X4863400I102550J0D01*
G01*
G75*
G02*
X4859760Y10044430I-102560J10D01*
G01*
X4923730Y9980460D01*
G75*
G02*
X4938650Y9944500I-35880J-35960D01*
G01*
Y9886130D01*
G75*
G02*
X5091050I76200J-68630D01*
G01*
Y9923460D01*
X5041920Y9972590D01*
G75*
G02*
X4912300Y10071500I-27070J98910D01*
G01*
G75*
G02*
X5117400I102550J0D01*
G01*
G75*
G02*
X5113760Y10044430I-102560J10D01*
G01*
X5177730Y9980460D01*
G75*
G02*
X5192650Y9944500I-35880J-35960D01*
G01*
Y9886130D01*
G75*
G02*
X5345050I76200J-68630D01*
G01*
Y9923460D01*
X5295920Y9972590D01*
G75*
G02*
X5166300Y10071500I-27070J98910D01*
G01*
G75*
G02*
X5371400I102550J0D01*
G01*
G75*
G02*
X5367760Y10044430I-102560J10D01*
G01*
X5431730Y9980460D01*
G75*
G02*
X5446650Y9944500I-35880J-35960D01*
G01*
Y9886130D01*
G75*
G02*
X5625400Y9817500I76200J-68630D01*
G01*
G75*
G02*
X5573650Y9728420I-102550J0D01*
G01*
Y9584540D01*
X5726260Y9431940D01*
G75*
G02*
X5726050Y9436500I50560J4610D01*
G01*
Y9728420D01*
G75*
G02*
X5776850Y9920050I50800J89080D01*
G01*
G75*
G02*
X5853050Y9886130I0J-102550D01*
G01*
Y9923460D01*
X5803920Y9972590D01*
G75*
G02*
X5674300Y10071500I-27070J98910D01*
G01*
G75*
G02*
X5879400I102550J0D01*
G01*
G75*
G02*
X5875760Y10044430I-102560J10D01*
G01*
X5939730Y9980460D01*
G75*
G02*
X5954650Y9944500I-35880J-35960D01*
G01*
Y9886130D01*
G75*
G02*
X6107050I76200J-68630D01*
G01*
Y9923460D01*
X6057920Y9972590D01*
G75*
G02*
X5928300Y10071500I-27070J98910D01*
G01*
G75*
G02*
X6133400I102550J0D01*
G01*
G75*
G02*
X6129760Y10044430I-102560J10D01*
G01*
X6193730Y9980460D01*
G75*
G02*
X6208650Y9944500I-35880J-35960D01*
G01*
Y9886130D01*
G75*
G02*
X6361050I76200J-68630D01*
G01*
Y9923460D01*
X6311920Y9972590D01*
G75*
G02*
X6182300Y10071500I-27070J98910D01*
G01*
G75*
G02*
X6387400I102550J0D01*
G01*
G75*
G02*
X6383760Y10044430I-102560J10D01*
G01*
X6447730Y9980460D01*
G75*
G02*
X6462650Y9944500I-35880J-35960D01*
G01*
Y9886130D01*
G75*
G02*
X6615050I76200J-68630D01*
G01*
Y9923460D01*
X6565920Y9972590D01*
G75*
G02*
X6436300Y10071500I-27070J98910D01*
G01*
G75*
G02*
X6641400I102550J0D01*
G01*
G75*
G02*
X6637760Y10044430I-102560J10D01*
G01*
X6701730Y9980460D01*
G75*
G02*
X6716650Y9944500I-35880J-35960D01*
G01*
Y9886130D01*
G75*
G02*
X6895400Y9817500I76200J-68630D01*
G01*
G75*
G02*
X6843650Y9728420I-102550J0D01*
G01*
Y6325000D01*
G75*
G02*
X6843440Y6320440I-50770J50D01*
G01*
X6996050Y6473040D01*
Y9728420D01*
G75*
G02*
X7046850Y9920050I50800J89080D01*
G01*
G75*
G02*
X7064490Y9918520I-10J-102580D01*
G01*
X7010970Y9972040D01*
G75*
G02*
X7006400Y9977260I35840J35990D01*
G01*
G75*
G02*
X7046850Y10174050I40450J94240D01*
G01*
G75*
G02*
X7123410Y10003280I0J-102550D01*
G01*
X7209730Y9916960D01*
G75*
G02*
X7224650Y9881000I-35880J-35960D01*
G01*
Y6439300D01*
G75*
G02*
X7209730Y6403340I-50800J0D01*
G01*
X6348350Y5541960D01*
Y4762900D01*
G75*
G02*
X6343270Y4740770I-50800J10D01*
G01*
X6502890Y4900380D01*
G75*
G02*
X6538850Y4915300I35960J-35880D01*
G01*
X6576400D01*
G75*
G02*
X6625800Y4959250I89440J-50800D01*
G01*
G75*
G02*
X6629970Y4963960I40070J-31270D01*
G01*
X6683090Y5017090D01*
G75*
G02*
X6665850Y5015630I-17270J101400D01*
G01*
G75*
G02*
X6597050Y5194980I10J102870D01*
G01*
G75*
G02*
X6566390Y5209620I5300J50520D01*
G01*
X6502970Y5273040D01*
G75*
G02*
X6488050Y5309000I35880J35960D01*
G01*
Y5436000D01*
G75*
G02*
X6502970Y5471960I50800J0D01*
G01*
X6566390Y5535380D01*
G75*
G02*
X6597050Y5550020I35960J-35880D01*
G01*
G75*
G02*
X6665850Y5729370I68800J76480D01*
G01*
G75*
G02*
X6734650Y5550020I-10J-102870D01*
G01*
G75*
G02*
X6765310Y5535380I-5300J-50520D01*
G01*
X7082730Y5217960D01*
G75*
G02*
X7097650Y5182000I-35880J-35960D01*
G01*
Y4039000D01*
G75*
G02*
X7082730Y4003040I-50800J0D01*
G01*
X7019310Y3939620D01*
G75*
G02*
X6983350Y3924700I-35960J35880D01*
G01*
X6734960D01*
G75*
G02*
X6665850Y3745630I-69110J-76200D01*
G01*
G75*
G02*
X6596740Y3924700I0J102870D01*
G01*
X6496390D01*
X6462650Y3890960D01*
Y2345540D01*
X6559890Y2248300D01*
X6596740D01*
G75*
G02*
X6665850Y2427370I69110J76200D01*
G01*
G75*
G02*
X6734960Y2248300I0J-102870D01*
G01*
X7223300D01*
G75*
G02*
X7358000Y2270500I77550J-50800D01*
G01*
Y6261500D01*
G75*
G02*
X7385950Y6328910I95260J0D01*
G01*
X8330510Y7273460D01*
G75*
G02*
X8189850Y7369440I-13660J131040D01*
G01*
G75*
G02*
X7931100Y7404500I-127000J35060D01*
G01*
G75*
G02*
X8189850Y7439560I131750J0D01*
G01*
G75*
G02*
X8448600Y7404500I127000J-35060D01*
G01*
G75*
G02*
X8447890Y7390840I-131800J0D01*
G01*
X8450200Y7393150D01*
Y7851730D01*
G75*
G02*
X8189850Y7836840I-133350J48070D01*
G01*
G75*
G02*
X7921100Y7899800I-127000J62960D01*
G01*
G75*
G02*
X8189850Y7962760I141750J0D01*
G01*
G75*
G02*
X8450200Y7947870I127000J-62960D01*
G01*
Y8977950D01*
X7834100Y8801500D02*
G75*
G02*
X8037600I101750J0D01*
G01*
G75*
G02*
X7834100I-101750J0D01*
G01*
X7314100D02*
G75*
G02*
X7517600I101750J0D01*
G01*
G75*
G02*
X7314100I-101750J0D01*
G01*
X4404300Y10071500D02*
G75*
G02*
X4609400I102550J0D01*
G01*
G75*
G02*
X4404300I-102550J0D01*
G01*
X5420300D02*
G75*
G02*
X5625400I102550J0D01*
G01*
G75*
G02*
X5420300I-102550J0D01*
G01*
X6690300D02*
G75*
G02*
X6895400I102550J0D01*
G01*
G75*
G02*
X6690300I-102550J0D01*
G01*
X4062350Y8205870D02*
G75*
G02*
X4165220Y8103000I0J-102870D01*
G01*
G75*
G02*
X4062350Y8000130I-102870J0D01*
G01*
G75*
G02*
X3959480Y8103000I0J102870D01*
G01*
G75*
G02*
X4062350Y8205870I102870J0D01*
G01*
X1522350D02*
G75*
G02*
X1625220Y8103000I0J-102870D01*
G01*
G75*
G02*
X1522350Y8000130I-102870J0D01*
G01*
G75*
G02*
X1419480Y8103000I0J102870D01*
G01*
G75*
G02*
X1522350Y8205870I102870J0D01*
G01*
X4062350Y6935870D02*
G75*
G02*
X4165220Y6833000I0J-102870D01*
G01*
G75*
G02*
X4062350Y6730130I-102870J0D01*
G01*
G75*
G02*
X3959480Y6833000I0J102870D01*
G01*
G75*
G02*
X4062350Y6935870I102870J0D01*
G01*
X5840350D02*
G75*
G02*
X5943220Y6833000I0J-102870D01*
G01*
G75*
G02*
X5840350Y6730130I-102870J0D01*
G01*
G75*
G02*
X5737480Y6833000I0J102870D01*
G01*
G75*
G02*
X5840350Y6935870I102870J0D01*
G01*
X6665850Y2681370D02*
G75*
G02*
X6768720Y2578500I0J-102870D01*
G01*
G75*
G02*
X6665850Y2475630I-102870J0D01*
G01*
G75*
G02*
X6562980Y2578500I0J102870D01*
G01*
G75*
G02*
X6665850Y2681370I102870J0D01*
G01*
Y2935370D02*
G75*
G02*
X6768720Y2832500I0J-102870D01*
G01*
G75*
G02*
X6665850Y2729630I-102870J0D01*
G01*
G75*
G02*
X6562980Y2832500I0J102870D01*
G01*
G75*
G02*
X6665850Y2935370I102870J0D01*
G01*
Y3189370D02*
G75*
G02*
X6768720Y3086500I0J-102870D01*
G01*
G75*
G02*
X6665850Y2983630I-102870J0D01*
G01*
G75*
G02*
X6562980Y3086500I0J102870D01*
G01*
G75*
G02*
X6665850Y3189370I102870J0D01*
G01*
Y3443370D02*
G75*
G02*
X6768720Y3340500I0J-102870D01*
G01*
G75*
G02*
X6665850Y3237630I-102870J0D01*
G01*
G75*
G02*
X6562980Y3340500I0J102870D01*
G01*
G75*
G02*
X6665850Y3443370I102870J0D01*
G01*
Y3697370D02*
G75*
G02*
X6768720Y3594500I0J-102870D01*
G01*
G75*
G02*
X6665850Y3491630I-102870J0D01*
G01*
G75*
G02*
X6562980Y3594500I0J102870D01*
G01*
G75*
G02*
X6665850Y3697370I102870J0D01*
G01*
X6462650Y2578500D02*
G36*
X6462650Y2578500D02*
Y2345540D01*
X6553540Y2254650D01*
X6590330D01*
G75*
G02*
X6562980Y2324500I75530J69850D01*
G01*
G75*
G02*
X6665850Y2427370I102870J0D01*
G01*
G75*
G02*
X6768720Y2324500I0J-102870D01*
G01*
G75*
G02*
X6741370Y2254650I-102880J0D01*
G01*
X7227850D01*
G75*
G02*
X7358000Y2270500I73000J-57140D01*
G01*
Y2578500D01*
X6768720D01*
G75*
G02*
X6665850Y2475630I-102870J0D01*
G01*
G75*
G02*
X6562980Y2578500I0J102870D01*
G01*
X6462650D01*
G37*
Y2832500D02*
G36*
X6462650Y2832500D02*
Y2578500D01*
X6562980D01*
G75*
G02*
X6665850Y2681370I102870J0D01*
G01*
G75*
G02*
X6768720Y2578500I0J-102870D01*
G01*
X7358000D01*
Y2832500D01*
X6768720D01*
G75*
G02*
X6665850Y2729630I-102870J0D01*
G01*
G75*
G02*
X6562980Y2832500I0J102870D01*
G01*
X6462650D01*
G37*
Y3086500D02*
G36*
X6462650Y3086500D02*
Y2832500D01*
X6562980D01*
G75*
G02*
X6665850Y2935370I102870J0D01*
G01*
G75*
G02*
X6768720Y2832500I0J-102870D01*
G01*
X7358000D01*
Y3086500D01*
X6768720D01*
G75*
G02*
X6665850Y2983630I-102870J0D01*
G01*
G75*
G02*
X6562980Y3086500I0J102870D01*
G01*
X6462650D01*
G37*
Y3340500D02*
G36*
X6462650Y3340500D02*
Y3086500D01*
X6562980D01*
G75*
G02*
X6665850Y3189370I102870J0D01*
G01*
G75*
G02*
X6768720Y3086500I0J-102870D01*
G01*
X7358000D01*
Y3340500D01*
X6768720D01*
G75*
G02*
X6665850Y3237630I-102870J0D01*
G01*
G75*
G02*
X6562980Y3340500I0J102870D01*
G01*
X6462650D01*
G37*
Y3594500D02*
G36*
X6462650Y3594500D02*
Y3340500D01*
X6562980D01*
G75*
G02*
X6665850Y3443370I102870J0D01*
G01*
G75*
G02*
X6768720Y3340500I0J-102870D01*
G01*
X7358000D01*
Y3594500D01*
X6768720D01*
G75*
G02*
X6665850Y3491630I-102870J0D01*
G01*
G75*
G02*
X6562980Y3594500I0J102870D01*
G01*
X6462650D01*
G37*
X1446150Y6763890D02*
G36*
X1446150Y6763890D02*
Y6648110D01*
G75*
G02*
X1611800Y6629800I76200J-69100D01*
G01*
X2263310D01*
X2375390Y6741880D01*
G75*
G02*
X2411350Y6756800I35960J-35880D01*
G01*
X3231240D01*
G75*
G02*
X3197480Y6833000I69110J76200D01*
G01*
X1625220D01*
G75*
G02*
X1446150Y6763890I-102870J0D01*
G01*
G37*
X3403220Y6071000D02*
G36*
X3403220Y6071000D02*
G75*
G02*
X3369460Y5994800I-102880J0D01*
G01*
X3935350D01*
G75*
G02*
X3971310Y5979880I0J-50800D01*
G01*
X4035020Y5916170D01*
G75*
G02*
X4165220Y5817000I27330J-99170D01*
G01*
G75*
G02*
X4131460Y5740800I-102870J0D01*
G01*
X5501810D01*
X5613890Y5852880D01*
G75*
G02*
X5649850Y5867800I35960J-35880D01*
G01*
X5750900D01*
G75*
G02*
X5800300Y5911750I89450J-50800D01*
G01*
G75*
G02*
X5804470Y5916460I39370J-30660D01*
G01*
X5857590Y5969590D01*
G75*
G02*
X5840350Y5968130I-17350J102310D01*
G01*
G75*
G02*
X5737480Y6071000I0J102870D01*
G01*
G75*
G02*
X5867680Y6170170I102870J-10D01*
G01*
X6297550Y6600040D01*
Y6710360D01*
X5939520Y6352330D01*
G75*
G02*
X5943220Y6325000I-99190J-27340D01*
G01*
G75*
G02*
X5840350Y6222130I-102870J0D01*
G01*
G75*
G02*
X5737480Y6325000I0J102870D01*
G01*
G75*
G02*
X5867680Y6424170I102870J-10D01*
G01*
X6234050Y6790540D01*
Y6833000D01*
X6166190D01*
X5939520Y6606330D01*
G75*
G02*
X5943220Y6579000I-99190J-27340D01*
G01*
G75*
G02*
X5840350Y6476130I-102870J0D01*
G01*
G75*
G02*
X5737480Y6579000I0J102870D01*
G01*
G75*
G02*
X5867680Y6678170I102870J-10D01*
G01*
X6022510Y6833000D01*
X5943220D01*
G75*
G02*
X5840350Y6730130I-102870J0D01*
G01*
G75*
G02*
X5737480Y6833000I0J102870D01*
G01*
X4165220D01*
G75*
G02*
X4062350Y6730130I-102870J0D01*
G01*
G75*
G02*
X3959480Y6833000I0J102870D01*
G01*
X3403220D01*
G75*
G02*
X3369460Y6756800I-102870J0D01*
G01*
X3935350D01*
G75*
G02*
X3971310Y6741880I0J-50800D01*
G01*
X4035020Y6678170D01*
G75*
G02*
X4165220Y6579000I27330J-99180D01*
G01*
G75*
G02*
X4062350Y6476130I-102870J0D01*
G01*
G75*
G02*
X3959480Y6579000I0J102870D01*
G01*
G75*
G02*
X3963180Y6606330I102890J-10D01*
G01*
X3914310Y6655200D01*
X3369460D01*
G75*
G02*
X3403220Y6579000I-69120J-76200D01*
G01*
G75*
G02*
X3369460Y6502800I-102880J0D01*
G01*
X3935350D01*
G75*
G02*
X3971310Y6487880I0J-50800D01*
G01*
X4035020Y6424170D01*
G75*
G02*
X4165220Y6325000I27330J-99180D01*
G01*
G75*
G02*
X4062350Y6222130I-102870J0D01*
G01*
G75*
G02*
X3959480Y6325000I0J102870D01*
G01*
G75*
G02*
X3963180Y6352330I102890J-10D01*
G01*
X3914310Y6401200D01*
X3369460D01*
G75*
G02*
X3403220Y6325000I-69120J-76200D01*
G01*
G75*
G02*
X3369460Y6248800I-102880J0D01*
G01*
X3935350D01*
G75*
G02*
X3971310Y6233880I0J-50800D01*
G01*
X4035020Y6170170D01*
G75*
G02*
X4165220Y6071000I27330J-99180D01*
G01*
G75*
G02*
X4062350Y5968130I-102870J0D01*
G01*
G75*
G02*
X3959480Y6071000I0J102870D01*
G01*
G75*
G02*
X3963180Y6098330I102890J-10D01*
G01*
X3914310Y6147200D01*
X3369460D01*
G75*
G02*
X3403220Y6071000I-69120J-76200D01*
G01*
G37*
X6348350Y4762900D02*
G36*
X6348350Y4762900D02*
G75*
G02*
X6343270Y4740770I-50910J40D01*
G01*
X6502890Y4900380D01*
G75*
G02*
X6538850Y4915300I35960J-35880D01*
G01*
X6576400D01*
G75*
G02*
X6625800Y4959250I89450J-50800D01*
G01*
G75*
G02*
X6629970Y4963960I39370J-30660D01*
G01*
X6683090Y5017090D01*
G75*
G02*
X6665850Y5015630I-17350J102310D01*
G01*
G75*
G02*
X6562990Y5118510I0J102880D01*
G01*
G75*
G02*
X6597050Y5194980I102870J0D01*
G01*
G75*
G02*
X6566390Y5209620I5290J50510D01*
G01*
X6502970Y5273040D01*
G75*
G02*
X6488050Y5309000I35880J35960D01*
G01*
Y5436000D01*
G75*
G02*
X6502970Y5471960I50800J0D01*
G01*
X6566390Y5535380D01*
G75*
G02*
X6597050Y5550020I35950J-35870D01*
G01*
G75*
G02*
X6562980Y5626500I68800J76480D01*
G01*
G75*
G02*
X6665850Y5729370I102870J0D01*
G01*
G75*
G02*
X6768710Y5626490I0J-102880D01*
G01*
G75*
G02*
X6734650Y5550020I-102870J0D01*
G01*
G75*
G02*
X6765310Y5535380I-5290J-50510D01*
G01*
X7082730Y5217960D01*
G75*
G02*
X7097650Y5182000I-35880J-35960D01*
G01*
Y4039000D01*
G75*
G02*
X7082730Y4003040I-50800J0D01*
G01*
X7019310Y3939620D01*
G75*
G02*
X6983350Y3924700I-35960J35880D01*
G01*
X6734960D01*
G75*
G02*
X6768720Y3848500I-69110J-76200D01*
G01*
G75*
G02*
X6665850Y3745630I-102870J0D01*
G01*
G75*
G02*
X6562980Y3848500I0J102870D01*
G01*
G75*
G02*
X6596740Y3924700I102870J0D01*
G01*
X6496390D01*
X6462650Y3890960D01*
Y3594500D01*
X6562980D01*
G75*
G02*
X6665850Y3697370I102870J0D01*
G01*
G75*
G02*
X6768720Y3594500I0J-102870D01*
G01*
X7358000D01*
Y6261500D01*
G75*
G02*
Y6261530I114590J20D01*
G01*
G75*
G02*
X7385950Y6328910I95200J0D01*
G01*
X7890050Y6833000D01*
X7224650D01*
Y6439300D01*
G75*
G02*
X7209730Y6403340I-50800J0D01*
G01*
X6348350Y5541960D01*
Y4762900D01*
G37*
X6843650Y6833000D02*
G36*
X6843650Y6833000D02*
Y6325000D01*
G75*
G02*
Y6324900I-47350J-50D01*
G01*
G75*
G02*
X6843440Y6320440I-47440J0D01*
G01*
X6996050Y6473040D01*
Y6833000D01*
X6843650D01*
G37*
X1382650Y8103000D02*
G36*
X1382650Y8103000D02*
Y7781140D01*
X1423180Y7821670D01*
G75*
G02*
X1419480Y7849000I99150J27340D01*
G01*
G75*
G02*
X1611800Y7899800I102870J0D01*
G01*
X1945810D01*
X2057890Y8011880D01*
G75*
G02*
X2093850Y8026800I35960J-35880D01*
G01*
X3231240D01*
G75*
G02*
X3197480Y8103000I69110J76200D01*
G01*
X1625220D01*
G75*
G02*
X1522350Y8000130I-102870J0D01*
G01*
G75*
G02*
X1419480Y8103000I0J102870D01*
G01*
X1382650D01*
G37*
X1446150Y7017890D02*
G36*
X1446150Y7017890D02*
Y6902110D01*
G75*
G02*
X1625220Y6833000I76200J-69110D01*
G01*
X3197480D01*
G75*
G02*
X3300350Y6935870I102870J0D01*
G01*
G75*
G02*
X3403220Y6833000I0J-102870D01*
G01*
X3959480D01*
G75*
G02*
X4062350Y6935870I102870J0D01*
G01*
G75*
G02*
X4165220Y6833000I0J-102870D01*
G01*
X5737480D01*
G75*
G02*
X5840350Y6935870I102870J0D01*
G01*
G75*
G02*
X5943220Y6833000I0J-102870D01*
G01*
X6022510D01*
X6170550Y6981040D01*
Y7345360D01*
X5939520Y7114330D01*
G75*
G02*
X5943220Y7087000I-99190J-27340D01*
G01*
G75*
G02*
X5840350Y6984130I-102870J0D01*
G01*
G75*
G02*
X5737480Y7087000I0J102870D01*
G01*
G75*
G02*
X5867680Y7186170I102870J-10D01*
G01*
X6107050Y7425540D01*
Y7535860D01*
X5939520Y7368330D01*
G75*
G02*
X5943220Y7341000I-99190J-27340D01*
G01*
G75*
G02*
X5840350Y7238130I-102870J0D01*
G01*
G75*
G02*
X5737480Y7341000I0J102870D01*
G01*
G75*
G02*
X5867680Y7440170I102870J-10D01*
G01*
X6043550Y7616040D01*
Y7726360D01*
X5939520Y7622330D01*
G75*
G02*
X5943220Y7595000I-99190J-27340D01*
G01*
G75*
G02*
X5840350Y7492130I-102870J0D01*
G01*
G75*
G02*
X5737480Y7595000I0J102870D01*
G01*
G75*
G02*
X5867680Y7694170I102870J-10D01*
G01*
X5980050Y7806540D01*
Y7916860D01*
X5939520Y7876330D01*
G75*
G02*
X5943220Y7849000I-99190J-27340D01*
G01*
G75*
G02*
X5840350Y7746130I-102870J0D01*
G01*
G75*
G02*
X5737480Y7849000I0J102870D01*
G01*
G75*
G02*
X5867680Y7948170I102870J-10D01*
G01*
X5916550Y7997040D01*
Y8033890D01*
G75*
G02*
X5737480Y8103000I-76200J69110D01*
G01*
X4165220D01*
G75*
G02*
X4062350Y8000130I-102870J0D01*
G01*
G75*
G02*
X3959480Y8103000I0J102870D01*
G01*
X3403220D01*
G75*
G02*
X3369460Y8026800I-102870J0D01*
G01*
X3935350D01*
G75*
G02*
X3971310Y8011880I0J-50800D01*
G01*
X4035020Y7948170D01*
G75*
G02*
X4165220Y7849000I27330J-99180D01*
G01*
G75*
G02*
X4062350Y7746130I-102870J0D01*
G01*
G75*
G02*
X3959480Y7849000I0J102870D01*
G01*
G75*
G02*
X3963180Y7876330I102890J-10D01*
G01*
X3914310Y7925200D01*
X3369460D01*
G75*
G02*
X3403220Y7849000I-69120J-76200D01*
G01*
G75*
G02*
X3369460Y7772800I-102880J0D01*
G01*
X3935350D01*
G75*
G02*
X3971310Y7757880I0J-50800D01*
G01*
X4035020Y7694170D01*
G75*
G02*
X4165220Y7595000I27330J-99180D01*
G01*
G75*
G02*
X4062350Y7492130I-102870J0D01*
G01*
G75*
G02*
X3959480Y7595000I0J102870D01*
G01*
G75*
G02*
X3963180Y7622330I102890J-10D01*
G01*
X3914310Y7671200D01*
X3369460D01*
G75*
G02*
X3403220Y7595000I-69120J-76200D01*
G01*
G75*
G02*
X3369460Y7518800I-102880J0D01*
G01*
X3935350D01*
G75*
G02*
X3971310Y7503880I0J-50800D01*
G01*
X4035020Y7440170D01*
G75*
G02*
X4165220Y7341000I27330J-99180D01*
G01*
G75*
G02*
X4062350Y7238130I-102870J0D01*
G01*
G75*
G02*
X3959480Y7341000I0J102870D01*
G01*
G75*
G02*
X3963180Y7368330I102890J-10D01*
G01*
X3914310Y7417200D01*
X3369460D01*
G75*
G02*
X3403220Y7341000I-69120J-76200D01*
G01*
G75*
G02*
X3369460Y7264800I-102880J0D01*
G01*
X3935350D01*
G75*
G02*
X3971310Y7249880I0J-50800D01*
G01*
X4035020Y7186170D01*
G75*
G02*
X4165220Y7087000I27330J-99180D01*
G01*
G75*
G02*
X4062350Y6984130I-102870J0D01*
G01*
G75*
G02*
X3959480Y7087000I0J102870D01*
G01*
G75*
G02*
X3963180Y7114330I102890J-10D01*
G01*
X3914310Y7163200D01*
X3369460D01*
G75*
G02*
X3403220Y7087000I-69110J-76200D01*
G01*
G75*
G02*
X3300350Y6984130I-102870J0D01*
G01*
G75*
G02*
X3197480Y7087000I0J102870D01*
G01*
G75*
G02*
X3231240Y7163200I102870J0D01*
G01*
X2559390D01*
X2447310Y7051120D01*
G75*
G02*
X2411350Y7036200I-35960J35880D01*
G01*
X1611800D01*
G75*
G02*
X1446150Y7017890I-89450J50790D01*
G01*
G37*
X6166190Y6833000D02*
G36*
X6166190Y6833000D02*
X6234050D01*
Y6900860D01*
X6166190Y6833000D01*
G37*
X6843650Y8103000D02*
G36*
X6843650Y8103000D02*
Y6833000D01*
X6996050D01*
Y8103000D01*
X6843650D01*
G37*
X7224650D02*
G36*
X7224650Y8103000D02*
Y6833000D01*
X7890050D01*
X8330510Y7273460D01*
G75*
G02*
X8189850Y7369440I-13660J131040D01*
G01*
G75*
G02*
X7931100Y7404500I-127000J35060D01*
G01*
G75*
G02*
X8189850Y7439560I131750J0D01*
G01*
G75*
G02*
X8443850I127000J-35060D01*
G01*
Y7836840D01*
G75*
G02*
X8189850I-127000J62960D01*
G01*
G75*
G02*
X7921100Y7899800I-127000J62970D01*
G01*
G75*
G02*
X8189850Y7962760I141750J-10D01*
G01*
G75*
G02*
X8443850I127000J-62960D01*
G01*
Y8103000D01*
X7224650D01*
G37*
X1325500Y8367710D02*
G36*
X1325500Y8367710D02*
Y8231990D01*
X1423180Y8329670D01*
G75*
G02*
X1419480Y8357000I99150J27340D01*
G01*
G75*
G02*
X1611800Y8407800I102870J0D01*
G01*
X1691810D01*
X1803890Y8519880D01*
G75*
G02*
X1839850Y8534800I35960J-35880D01*
G01*
X3231240D01*
G75*
G02*
X3197480Y8611000I69110J76200D01*
G01*
G75*
G02*
X3300350Y8713870I102870J0D01*
G01*
G75*
G02*
X3403220Y8611000I0J-102870D01*
G01*
G75*
G02*
X3369460Y8534800I-102870J0D01*
G01*
X3871850D01*
G75*
G02*
X3907810Y8519880I0J-50800D01*
G01*
X3993900Y8433790D01*
G75*
G02*
X4165220Y8357000I68450J-76800D01*
G01*
G75*
G02*
X3967600Y8316950I-102870J0D01*
G01*
G75*
G02*
X3962890Y8321120I30660J39370D01*
G01*
X3850810Y8433200D01*
X3369460D01*
G75*
G02*
X3403220Y8357000I-69110J-76200D01*
G01*
G75*
G02*
X3300350Y8254130I-102870J0D01*
G01*
G75*
G02*
X3197480Y8357000I0J102870D01*
G01*
G75*
G02*
X3231240Y8433200I102870J0D01*
G01*
X1860890D01*
X1748810Y8321120D01*
G75*
G02*
X1712850Y8306200I-35960J35880D01*
G01*
X1611800D01*
G75*
G02*
X1495020Y8257830I-89440J50780D01*
G01*
X1382650Y8145460D01*
Y8103000D01*
X1419480D01*
G75*
G02*
X1522350Y8205870I102870J0D01*
G01*
G75*
G02*
X1625220Y8103000I0J-102870D01*
G01*
X3197480D01*
G75*
G02*
X3300350Y8205870I102870J0D01*
G01*
G75*
G02*
X3403220Y8103000I0J-102870D01*
G01*
X3959480D01*
G75*
G02*
X4062350Y8205870I102870J0D01*
G01*
G75*
G02*
X4165220Y8103000I0J-102870D01*
G01*
X5737480D01*
G75*
G02*
X5916550Y8172110I102870J0D01*
G01*
Y8287890D01*
G75*
G02*
X5737480Y8356990I-76200J69100D01*
G01*
G75*
G02*
X5741180Y8384330I102860J0D01*
G01*
X5324010Y8801500D01*
X4113150D01*
Y8700450D01*
G75*
G02*
X4165220Y8611000I-50800J-89450D01*
G01*
G75*
G02*
X4062350Y8508130I-102870J0D01*
G01*
G75*
G02*
X3959480Y8611000I0J102870D01*
G01*
G75*
G02*
X4011550Y8700450I102870J0D01*
G01*
Y8801500D01*
X1784690D01*
X1621520Y8638330D01*
G75*
G02*
X1625220Y8611000I-99180J-27340D01*
G01*
G75*
G02*
X1476640Y8518840I-102870J0D01*
G01*
X1325500Y8367710D01*
G37*
X6843650Y8801500D02*
G36*
X6843650Y8801500D02*
Y8103000D01*
X6996050D01*
Y8801500D01*
X6843650D01*
G37*
X7224650D02*
G36*
X7224650Y8801500D02*
Y8103000D01*
X8443850D01*
Y8801500D01*
X8037600D01*
G75*
G02*
X7834100I-101750J0D01*
G01*
X7777600D01*
G75*
G02*
X7675850Y8699750I-101750J0D01*
G01*
G75*
G02*
X7574100Y8801500I0J101750D01*
G01*
X7517600D01*
G75*
G02*
X7314100I-101750J0D01*
G01*
X7224650D01*
G37*
X1912960Y8929770D02*
G36*
X1912960Y8929770D02*
X1784690Y8801500D01*
X4011550D01*
Y8805860D01*
X3850810Y8966600D01*
X2056300D01*
G75*
G02*
X1912960Y8929770I-89450J50790D01*
G01*
G37*
X1931440Y9113980D02*
G36*
X1931440Y9113980D02*
G75*
G02*
X2056300Y9068200I35410J-96580D01*
G01*
X3871850D01*
G75*
G02*
X3907810Y9053280I0J-50800D01*
G01*
X4098230Y8862860D01*
G75*
G02*
X4113150Y8826900I-35880J-35960D01*
G01*
Y8801500D01*
X5324010D01*
X4851970Y9273540D01*
G75*
G02*
X4837050Y9309500I35880J35960D01*
G01*
Y9748870D01*
G75*
G02*
X4658300Y9817490I-76200J68620D01*
G01*
G75*
G02*
Y9817500I190990J10D01*
G01*
G75*
G02*
Y9817510I190990J10D01*
G01*
G75*
G02*
X4837050Y9886130I102550J0D01*
G01*
Y9923460D01*
X4787920Y9972590D01*
G75*
G02*
X4658300Y10071500I-27070J98920D01*
G01*
X4609400D01*
G75*
G02*
X4404300I-102550J0D01*
G01*
X4355400D01*
G75*
G02*
Y10071490I-190990J0D01*
G01*
G75*
G02*
X4176650Y10002870I-102550J0D01*
G01*
Y9944500D01*
G75*
G02*
X4161730Y9908540I-50800J0D01*
G01*
X4097760Y9844570D01*
G75*
G02*
X4101400Y9817490I-98870J-27070D01*
G01*
G75*
G02*
X4067480Y9741300I-102520J0D01*
G01*
X4104810D01*
X4153940Y9790430D01*
G75*
G02*
X4150300Y9817500I98930J27080D01*
G01*
G75*
G02*
X4252850Y9920050I102550J0D01*
G01*
G75*
G02*
X4355400Y9817500I0J-102550D01*
G01*
G75*
G02*
X4252850Y9714950I-102550J0D01*
G01*
G75*
G02*
X4225780Y9718590I-70J101990D01*
G01*
X4165940Y9658750D01*
X4276900D01*
X4408080Y9789930D01*
G75*
G02*
X4404300Y9817500I98780J27590D01*
G01*
G75*
G02*
X4506850Y9920050I102550J0D01*
G01*
G75*
G02*
X4609400Y9817500I0J-102550D01*
G01*
G75*
G02*
X4602100Y9779500I-102570J0D01*
G01*
Y9754000D01*
G75*
G02*
Y9753980I-127320J-10D01*
G01*
G75*
G02*
X4574150Y9686600I-95200J0D01*
G01*
X4383760Y9496200D01*
G75*
G02*
X4316350Y9468250I-67380J67250D01*
G01*
X2285700D01*
X1931440Y9113980D01*
G37*
X4863400Y10071430D02*
G36*
X4863400Y10071430D02*
G75*
G02*
X4859760Y10044430I-101970J0D01*
G01*
X4923730Y9980460D01*
G75*
G02*
X4938650Y9944500I-35880J-35960D01*
G01*
Y9886130D01*
G75*
G02*
X5091050I76200J-68630D01*
G01*
Y9923460D01*
X5041920Y9972590D01*
G75*
G02*
X4912300Y10071500I-27070J98920D01*
G01*
X4863400D01*
G75*
G02*
Y10071430I-108400J-30D01*
G01*
G37*
X5117400D02*
G36*
X5117400Y10071430D02*
G75*
G02*
X5113760Y10044430I-101970J0D01*
G01*
X5177730Y9980460D01*
G75*
G02*
X5192650Y9944500I-35880J-35960D01*
G01*
Y9886130D01*
G75*
G02*
X5345050I76200J-68630D01*
G01*
Y9923460D01*
X5295920Y9972590D01*
G75*
G02*
X5166300Y10071500I-27070J98920D01*
G01*
X5117400D01*
G75*
G02*
Y10071430I-108400J-30D01*
G01*
G37*
X5371400D02*
G36*
X5371400Y10071430D02*
G75*
G02*
X5367760Y10044430I-101970J0D01*
G01*
X5431730Y9980460D01*
G75*
G02*
X5446650Y9944500I-35880J-35960D01*
G01*
Y9886130D01*
G75*
G02*
X5625400Y9817510I76200J-68620D01*
G01*
G75*
G02*
Y9817500I-190990J0D01*
G01*
G75*
G02*
X5573650Y9728420I-102570J10D01*
G01*
Y9584540D01*
X5726260Y9431940D01*
G75*
G02*
X5726050Y9436400I47230J4460D01*
G01*
G75*
G02*
Y9436500I47350J50D01*
G01*
Y9728420D01*
G75*
G02*
X5674310Y9817500I50810J89080D01*
G01*
G75*
G02*
X5776850Y9920050I102540J0D01*
G01*
G75*
G02*
X5853050Y9886130I0J-102540D01*
G01*
Y9923460D01*
X5803920Y9972590D01*
G75*
G02*
X5674300Y10071500I-27070J98920D01*
G01*
X5625400D01*
G75*
G02*
X5420300I-102550J0D01*
G01*
X5371400D01*
G75*
G02*
Y10071430I-108400J-30D01*
G01*
G37*
X5879400D02*
G36*
X5879400Y10071430D02*
G75*
G02*
X5875760Y10044430I-101970J0D01*
G01*
X5939730Y9980460D01*
G75*
G02*
X5954650Y9944500I-35880J-35960D01*
G01*
Y9886130D01*
G75*
G02*
X6107050I76200J-68630D01*
G01*
Y9923460D01*
X6057920Y9972590D01*
G75*
G02*
X5928300Y10071500I-27070J98920D01*
G01*
X5879400D01*
G75*
G02*
Y10071430I-108400J-30D01*
G01*
G37*
X6133400D02*
G36*
X6133400Y10071430D02*
G75*
G02*
X6129760Y10044430I-101970J0D01*
G01*
X6193730Y9980460D01*
G75*
G02*
X6208650Y9944500I-35880J-35960D01*
G01*
Y9886130D01*
G75*
G02*
X6361050I76200J-68630D01*
G01*
Y9923460D01*
X6311920Y9972590D01*
G75*
G02*
X6182300Y10071500I-27070J98920D01*
G01*
X6133400D01*
G75*
G02*
Y10071430I-108400J-30D01*
G01*
G37*
X6387400D02*
G36*
X6387400Y10071430D02*
G75*
G02*
X6383760Y10044430I-101970J0D01*
G01*
X6447730Y9980460D01*
G75*
G02*
X6462650Y9944500I-35880J-35960D01*
G01*
Y9886130D01*
G75*
G02*
X6615050I76200J-68630D01*
G01*
Y9923460D01*
X6565920Y9972590D01*
G75*
G02*
X6436300Y10071500I-27070J98920D01*
G01*
X6387400D01*
G75*
G02*
Y10071430I-108400J-30D01*
G01*
G37*
X6641400D02*
G36*
X6641400Y10071430D02*
G75*
G02*
X6637760Y10044430I-101970J0D01*
G01*
X6701730Y9980460D01*
G75*
G02*
X6716650Y9944500I-35880J-35960D01*
G01*
Y9886130D01*
G75*
G02*
X6895400Y9817510I76200J-68620D01*
G01*
G75*
G02*
Y9817500I-190990J0D01*
G01*
G75*
G02*
X6843650Y9728420I-102570J10D01*
G01*
Y8801500D01*
X6996050D01*
Y9728420D01*
G75*
G02*
X6944310Y9817500I50810J89080D01*
G01*
G75*
G02*
X7046850Y9920050I102540J0D01*
G01*
G75*
G02*
X7064490Y9918520I70J-101680D01*
G01*
X7010970Y9972040D01*
G75*
G02*
X7006400Y9977260I36480J36550D01*
G01*
G75*
G02*
X6944300Y10071500I40450J94240D01*
G01*
X6895400D01*
G75*
G02*
X6690300I-102550J0D01*
G01*
X6641400D01*
G75*
G02*
Y10071430I-108400J-30D01*
G01*
G37*
X7149400Y10071500D02*
G36*
X7149400Y10071500D02*
G75*
G02*
X7123410Y10003280I-102550J10D01*
G01*
X7209730Y9916960D01*
G75*
G02*
X7224650Y9881000I-35880J-35960D01*
G01*
Y8801500D01*
X7314100D01*
G75*
G02*
X7517600I101750J0D01*
G01*
X7574100D01*
G75*
G02*
X7625050Y8889660I101750J0D01*
G01*
Y9675460D01*
X7229010Y10071500D01*
X7149400D01*
G37*
X7726650Y9696500D02*
G36*
X7726650Y9696500D02*
Y8889660D01*
G75*
G02*
X7777600Y8801500I-50800J-88160D01*
G01*
X7834100D01*
G75*
G02*
X8037600I101750J0D01*
G01*
X8443850D01*
Y8984300D01*
X7726380Y9701770D01*
G75*
G02*
X7726650Y9696500I-53180J-5370D01*
G01*
G37*
X4176650Y10177460D02*
G36*
X4176650Y10177460D02*
Y10140130D01*
G75*
G02*
X4355400Y10071510I76200J-68620D01*
G01*
G75*
G02*
Y10071500I-190990J0D01*
G01*
X4404300D01*
G75*
G02*
X4609400I102550J0D01*
G01*
X4658300D01*
G75*
G02*
X4863400I102550J0D01*
G01*
X4912300D01*
G75*
G02*
X5117400I102550J0D01*
G01*
X5166300D01*
G75*
G02*
X5371400I102550J0D01*
G01*
X5420300D01*
G75*
G02*
X5625400I102550J0D01*
G01*
X5674300D01*
G75*
G02*
X5879400I102550J0D01*
G01*
X5928300D01*
G75*
G02*
X6133400I102550J0D01*
G01*
X6182300D01*
G75*
G02*
X6387400I102550J0D01*
G01*
X6436300D01*
G75*
G02*
X6641400I102550J0D01*
G01*
X6690300D01*
G75*
G02*
X6895400I102550J0D01*
G01*
X6944300D01*
G75*
G02*
X7046850Y10174050I102550J0D01*
G01*
G75*
G02*
X7149400Y10071500I0J-102550D01*
G01*
X7229010D01*
X7032160Y10268350D01*
X4267540D01*
X4176650Y10177460D01*
G37*
X8718890Y3607200D02*
X8699840Y3588150D01*
X8894700D01*
Y3372250D01*
X8685150D01*
Y2794400D01*
G75*
G02*
X8670230Y2758440I-50800J0D01*
G01*
X8581410Y2669620D01*
G75*
G02*
X8545450Y2654700I-35960J35880D01*
G01*
X8512960D01*
G75*
G02*
X8443850Y2475630I-69110J-76200D01*
G01*
G75*
G02*
X8340980Y2578500I0J102870D01*
G01*
G75*
G02*
X8342440Y2595740I102860J-30D01*
G01*
X7770750Y2024060D01*
Y1918100D01*
G75*
G02*
X7755830Y1882140I-50800J0D01*
G01*
X7654310Y1780620D01*
G75*
G02*
X7652150Y1778570I-36030J35800D01*
G01*
G75*
G02*
X7620360Y1740300I-84590J37930D01*
G01*
X7762410D01*
X8255490Y2233380D01*
G75*
G02*
X8291450Y2248300I35960J-35880D01*
G01*
X8374740D01*
G75*
G02*
X8443850Y2427370I69110J76200D01*
G01*
G75*
G02*
X8512960Y2248300I0J-102870D01*
G01*
X8780400D01*
Y2261000D01*
G75*
G02*
X8996300I107950J0D01*
G01*
Y2134000D01*
G75*
G02*
X8780400I-107950J0D01*
G01*
Y2146700D01*
X8512960D01*
G75*
G02*
X8443850Y1967630I-69110J-76200D01*
G01*
G75*
G02*
X8374740Y2146700I0J102870D01*
G01*
X8312490D01*
X7819410Y1653620D01*
G75*
G02*
X7783450Y1638700I-35960J35880D01*
G01*
X6734960D01*
G75*
G02*
Y1486300I-69110J-76200D01*
G01*
X6771810D01*
X6820390Y1534880D01*
G75*
G02*
X6856350Y1549800I35960J-35880D01*
G01*
X8105310D01*
X8280890Y1725380D01*
G75*
G02*
X8316850Y1740300I35960J-35880D01*
G01*
X8374740D01*
G75*
G02*
X8443850Y1919370I69110J76200D01*
G01*
G75*
G02*
X8512960Y1740300I0J-102870D01*
G01*
X8549810D01*
X8661890Y1852380D01*
G75*
G02*
X8697850Y1867300I35960J-35880D01*
G01*
X8994310D01*
X9153650Y2026640D01*
G75*
G02*
X9034400Y2134000I-11300J107360D01*
G01*
Y2261000D01*
G75*
G02*
X9039080Y2292430I107950J-10D01*
G01*
X8868980Y2462530D01*
G75*
G02*
X8729600Y2565800I-31430J103270D01*
G01*
G75*
G02*
X8945500I107950J0D01*
G01*
G75*
G02*
X8940820Y2534370I-107950J10D01*
G01*
X9110920Y2364270D01*
G75*
G02*
X9218550Y2337460I31430J-103270D01*
G01*
Y3040060D01*
X9134010Y3124600D01*
X8932800D01*
G75*
G02*
X8729600Y3175400I-95250J50800D01*
G01*
G75*
G02*
X8932800Y3226200I107950J0D01*
G01*
X9155050D01*
G75*
G02*
X9191010Y3211280I0J-50800D01*
G01*
X9305230Y3097060D01*
G75*
G02*
X9320150Y3061100I-35880J-35960D01*
G01*
Y2337460D01*
G75*
G02*
X9345550Y2356250I76220J-76460D01*
G01*
Y2769000D01*
G75*
G02*
X9360470Y2804960I50800J0D01*
G01*
X9614390Y3058880D01*
G75*
G02*
X9650350Y3073800I35960J-35880D01*
G01*
X9817070D01*
G75*
G02*
X9853550Y3283350I36480J101600D01*
G01*
G75*
G02*
X9955150Y3211880I0J-107950D01*
G01*
G75*
G02*
X10044050Y3282600I101600J-36480D01*
G01*
Y3416700D01*
G75*
G02*
X9848800Y3480200I-87300J63500D01*
G01*
G75*
G02*
X10044050Y3543700I107950J0D01*
G01*
Y3548060D01*
X9984910Y3607200D01*
X8718890D01*
X8729600Y2870600D02*
G75*
G02*
X8945500I107950J0D01*
G01*
G75*
G02*
X8729600I-107950J0D01*
G01*
X6741310Y1638700D02*
G36*
X6741310Y1638700D02*
Y1632420D01*
G75*
G02*
X6768720Y1562500I-75470J-69920D01*
G01*
G75*
G02*
X6741370Y1492650I-102880J0D01*
G01*
X6778160D01*
X6820390Y1534880D01*
G75*
G02*
X6856350Y1549800I35960J-35880D01*
G01*
X8105310D01*
X8280890Y1725380D01*
G75*
G02*
X8316850Y1740300I35960J-35880D01*
G01*
X8374740D01*
G75*
G02*
X8340980Y1816500I69110J76200D01*
G01*
G75*
G02*
X8443850Y1919370I102870J0D01*
G01*
G75*
G02*
X8546720Y1816500I0J-102870D01*
G01*
G75*
G02*
X8512960Y1740300I-102870J0D01*
G01*
X8549810D01*
X8661890Y1852380D01*
G75*
G02*
X8697850Y1867300I35960J-35880D01*
G01*
X8994310D01*
X9153650Y2026640D01*
G75*
G02*
X9034400Y2133990I-11300J107350D01*
G01*
G75*
G02*
Y2134000I190990J10D01*
G01*
Y2261000D01*
G75*
G02*
X9039080Y2292430I108180J-40D01*
G01*
X8868980Y2462530D01*
G75*
G02*
X8729600Y2565800I-31430J103270D01*
G01*
G75*
G02*
X8945500I107950J0D01*
G01*
G75*
G02*
X8940820Y2534370I-108180J40D01*
G01*
X9110920Y2364270D01*
G75*
G02*
X9218550Y2337460I31440J-103250D01*
G01*
Y2870600D01*
X8945500D01*
G75*
G02*
X8729600I-107950J0D01*
G01*
X8685150D01*
Y2794400D01*
G75*
G02*
X8670230Y2758440I-50800J0D01*
G01*
X8581410Y2669620D01*
G75*
G02*
X8545450Y2654700I-35960J35880D01*
G01*
X8512960D01*
G75*
G02*
X8546720Y2578500I-69110J-76200D01*
G01*
G75*
G02*
X8443850Y2475630I-102870J0D01*
G01*
G75*
G02*
X8340980Y2578500I0J102870D01*
G01*
G75*
G02*
X8342440Y2595740I103770J-110D01*
G01*
X7770750Y2024060D01*
Y1918100D01*
G75*
G02*
X7755830Y1882140I-50800J0D01*
G01*
X7654310Y1780620D01*
G75*
G02*
X7652150Y1778570I-32040J31590D01*
G01*
G75*
G02*
X7620360Y1740300I-84560J37900D01*
G01*
X7762410D01*
X8255490Y2233380D01*
G75*
G02*
X8291450Y2248300I35960J-35880D01*
G01*
X8374740D01*
G75*
G02*
X8340980Y2324500I69110J76200D01*
G01*
G75*
G02*
X8443850Y2427370I102870J0D01*
G01*
G75*
G02*
X8546720Y2324500I0J-102870D01*
G01*
G75*
G02*
X8512960Y2248300I-102870J0D01*
G01*
X8780400D01*
Y2261000D01*
G75*
G02*
X8996300I107950J0D01*
G01*
Y2134000D01*
G75*
G02*
X8780400I-107950J0D01*
G01*
Y2146700D01*
X8512960D01*
G75*
G02*
X8546720Y2070500I-69110J-76200D01*
G01*
G75*
G02*
X8443850Y1967630I-102870J0D01*
G01*
G75*
G02*
X8340980Y2070500I0J102870D01*
G01*
G75*
G02*
X8374740Y2146700I102870J0D01*
G01*
X8312490D01*
X7819410Y1653620D01*
G75*
G02*
X7783450Y1638700I-35960J35880D01*
G01*
X6741310D01*
G37*
X9320150Y2870600D02*
G36*
X9320150Y2870600D02*
Y2337460D01*
G75*
G02*
X9345550Y2356250I76220J-76460D01*
G01*
Y2769000D01*
G75*
G02*
X9360470Y2804960I50800J0D01*
G01*
X9426110Y2870600D01*
X9320150D01*
G37*
X8685150Y3372250D02*
G36*
X8685150Y3372250D02*
Y2870600D01*
X8729600D01*
G75*
G02*
X8945500I107950J0D01*
G01*
X9218550D01*
Y3040060D01*
X9134010Y3124600D01*
X8932800D01*
G75*
G02*
X8729600Y3175400I-95250J50800D01*
G01*
G75*
G02*
X8932800Y3226200I107950J0D01*
G01*
X9155050D01*
G75*
G02*
X9191010Y3211280I0J-50800D01*
G01*
X9305230Y3097060D01*
G75*
G02*
X9320150Y3061100I-35880J-35960D01*
G01*
Y2870600D01*
X9426110D01*
X9614390Y3058880D01*
G75*
G02*
X9650350Y3073800I35960J-35880D01*
G01*
X9817070D01*
G75*
G02*
X9745600Y3175400I36480J101600D01*
G01*
G75*
G02*
X9853550Y3283350I107950J0D01*
G01*
G75*
G02*
X9955150Y3211880I-10J-107960D01*
G01*
G75*
G02*
X10037700Y3281660I101590J-36460D01*
G01*
Y3408780D01*
G75*
G02*
X9848800Y3480200I-80950J71420D01*
G01*
G75*
G02*
X10037700Y3551620I107950J0D01*
G01*
Y3554410D01*
X9991260Y3600850D01*
X8712540D01*
X8699840Y3588150D01*
X8894700D01*
Y3372250D01*
X8685150D01*
G37*
D02*
D80*
X823850Y2324500D02*
Y1934280D01*
X760350Y1870780D01*
X849250Y2832500D02*
X1522350Y2159400D01*
Y1511700D01*
X1827150Y1206900D01*
X2284350D01*
X2474850Y1397400D01*
Y1486300D01*
X2487550Y1499000D01*
X1522350Y3785000D02*
Y3721500D01*
X1649350Y3594500D01*
X3935350D01*
X4062350Y3721500D01*
Y3785000D01*
X1522350Y4293000D02*
X3300350D01*
X1522350Y5563000D02*
X3300350D01*
X1522350Y6833000D02*
X3300350D01*
X1522350Y8103000D02*
X3300350D01*
X2220850Y2184800D02*
Y1511700D01*
X2233550Y1499000D01*
X2474850Y2184800D02*
Y1511700D01*
X2487550Y1499000D01*
X3300350Y4293000D02*
X4062350D01*
X3300350Y5563000D02*
X4062350D01*
X3300350Y6833000D02*
X4062350D01*
X3300350Y8103000D02*
X4062350D01*
X3998850Y10071500D02*
Y10287400D01*
X4163950Y10452500D01*
X7110350D01*
X7427850Y10135000D01*
X4062350Y4293000D02*
X5840350D01*
X4062350Y5563000D02*
X5840350D01*
X4062350Y6833000D02*
X5840350D01*
X4062350Y8103000D02*
X5840350D01*
X4506850Y9817500D02*
Y9754000D01*
X4316350Y9563500D01*
X2246250D01*
X1154050Y8471300D01*
Y3023000D01*
X1839850Y2337200D01*
Y2324500D01*
X4583750Y1396320D02*
Y888700D01*
X4722750Y749700D01*
X5738750D01*
X6043550Y1054500D01*
X6665850D01*
Y1308500D02*
X8443850D01*
X7427850Y10135000D02*
X8545450Y9017400D01*
Y7341000D01*
X7453250Y6248800D01*
Y1968900D01*
X7300850Y1816500D01*
X6665850D01*
X7935850Y10389000D02*
X7681850D01*
X7427850Y10135000D01*
X9917050Y7899800D02*
Y7912500D01*
X9409050D01*
X8901050Y7404500D01*
X8596250D01*
X7453250Y6261500D01*
Y6248800D01*
D02*
D82*
X459600Y9373000D02*
X1109600D01*
X823850Y4547000D02*
Y4902600D01*
X1039750Y5118500D01*
Y8534800D01*
X2195450Y9690500D01*
X4125850D01*
X4252850Y9817500D01*
X1109600Y9373000D02*
X1173100D01*
X2030350Y10230250D01*
X3078100D01*
X3236850Y10071500D01*
X1522350Y4547000D02*
X1776350D01*
X1903350Y4420000D01*
X3935350D01*
X4062350Y4547000D01*
X1522350Y5055000D02*
X2538350D01*
X2665350Y4928000D01*
X3617850D01*
X3744850Y5055000D01*
X4062350D01*
X1522350Y5309000D02*
X2411350D01*
X2538350Y5182000D01*
X3363850D01*
X3490850Y5309000D01*
X4062350D01*
X1522350Y5817000D02*
X2474850D01*
X2601850Y5944000D01*
X3935350D01*
X4062350Y5817000D01*
X1522350Y6071000D02*
X2411350D01*
X2538350Y6198000D01*
X3935350D01*
X4062350Y6071000D01*
X1522350Y6325000D02*
X2347850D01*
X2474850Y6452000D01*
X3935350D01*
X4062350Y6325000D01*
X1522350Y6579000D02*
X2284350D01*
X2411350Y6706000D01*
X3935350D01*
X4062350Y6579000D01*
X1522350Y7087000D02*
X2411350D01*
X2538350Y7214000D01*
X3935350D01*
X4062350Y7087000D01*
X1522350Y7341000D02*
X2284350D01*
X2411350Y7468000D01*
X3935350D01*
X4062350Y7341000D01*
X1522350Y7595000D02*
X2157350D01*
X2284350Y7722000D01*
X3935350D01*
X4062350Y7595000D01*
X1522350Y7849000D02*
X1966850D01*
X2093850Y7976000D01*
X3935350D01*
X4062350Y7849000D01*
X1522350Y8357000D02*
X1712850D01*
X1839850Y8484000D01*
X3871850D01*
X3998850Y8357000D01*
X4062350D01*
X1522350Y8611000D02*
X1928750Y9017400D01*
X1966850D01*
X3871850D01*
X4062350Y8826900D01*
Y8611000D01*
X4760850Y10071500D02*
X4887850Y9944500D01*
Y9309500D01*
X5840350Y8357000D01*
X4913250Y2743600D02*
X4710050D01*
X4468750Y2502300D01*
X3668650D01*
X3567050Y2603900D01*
X2817750D01*
X2525650Y2896000D01*
Y2984900D01*
X4913250Y3048400D02*
X4735450Y3226200D01*
X3732150D01*
X3490850Y2984900D01*
X5014850Y10071500D02*
X5141850Y9944500D01*
Y9563500D01*
X5967350Y8738000D01*
Y7976000D01*
X5840350Y7849000D01*
X5050410Y1396320D02*
Y2606440D01*
X4913250Y2743600D01*
X5258750Y1646320D02*
Y2702900D01*
X4913250Y3048400D01*
X5268850Y9817500D02*
Y9563500D01*
X6030850Y8801500D01*
Y7785500D01*
X5840350Y7595000D01*
X5268850Y10071500D02*
X5395850Y9944500D01*
Y9563500D01*
X6094350Y8865000D01*
Y7595000D01*
X5840350Y7341000D01*
X5522850Y9817500D02*
Y9563500D01*
X6157850Y8928500D01*
Y7404500D01*
X5840350Y7087000D01*
X5776850Y9817500D02*
Y9436500D01*
X6221350Y8992000D01*
Y6960000D01*
X5840350Y6579000D01*
X5776850Y10071500D02*
X5903850Y9944500D01*
Y9436500D01*
X6284850Y9055500D01*
Y6769500D01*
X5840350Y6325000D01*
Y3785000D02*
X6170550Y4115200D01*
Y4635900D01*
X6297550Y4762900D01*
Y5563000D01*
X7173850Y6439300D01*
Y9881000D01*
X7046850Y10008000D01*
Y10071500D01*
X5840350Y3785000D02*
X4379850D01*
X4252850Y3912000D01*
X3427350D01*
X3300350Y3785000D01*
X5840350Y4039000D02*
Y4051700D01*
X6068950Y4280300D01*
Y4648600D01*
X6221350Y4801000D01*
Y5626500D01*
X7046850Y6452000D01*
Y9817500D01*
X5840350Y4039000D02*
X4316350D01*
X4189350Y4166000D01*
X3427350D01*
X3300350Y4039000D01*
X5840350Y4547000D02*
X4379850D01*
X4252850Y4674000D01*
X3427350D01*
X3300350Y4547000D01*
X5840350Y4801000D02*
X4316350D01*
X4189350Y4928000D01*
X3744850D01*
X3617850Y4801000D01*
X3300350D01*
X5840350Y5055000D02*
X4379850D01*
X4252850Y5182000D01*
X3617850D01*
X3490850Y5055000D01*
X3300350D01*
X5840350D02*
X6030850Y5245500D01*
Y5817000D01*
X6538850Y6325000D01*
Y9817500D01*
X5840350Y5309000D02*
X4443350D01*
X4316350Y5436000D01*
X3427350D01*
X3300350Y5309000D01*
X5840350Y5817000D02*
X5649850D01*
X5522850Y5690000D01*
X3427350D01*
X3300350Y5817000D01*
X6030850Y9817500D02*
Y9436500D01*
X6348350Y9119000D01*
Y6579000D01*
X5840350Y6071000D01*
X6030850Y10071500D02*
X6157850Y9944500D01*
Y9436500D01*
X6411850Y9182500D01*
Y6452000D01*
X5840350Y5880500D01*
Y5817000D01*
X6284850Y10071500D02*
X6411850Y9944500D01*
Y9309500D01*
X6475350Y9246000D01*
Y6388500D01*
X5967350Y5880500D01*
Y5309000D01*
X5840350D01*
X6475350Y1689500D02*
X7783450D01*
X8291450Y2197500D01*
X8888350D01*
X6538850Y10071500D02*
X6665850Y9944500D01*
Y6325000D01*
X6094350Y5753500D01*
Y5055000D01*
X5840350Y4801000D01*
X6665850Y4356500D02*
X6919850D01*
X6665850Y4864500D02*
Y4928000D01*
X6792850Y5055000D01*
Y5182000D01*
X6729350Y5245500D01*
X6602350D01*
X6538850Y5309000D01*
Y5436000D01*
X6602350Y5499500D01*
X6729350D01*
X7046850Y5182000D01*
Y4039000D01*
X6983350Y3975500D01*
X6475350D01*
X6411850Y3912000D01*
Y2324500D01*
X6538850Y2197500D01*
X7300850D01*
X6665850Y4864500D02*
X6538850D01*
X6259450Y4585100D01*
Y4026300D01*
X5700650Y3467500D01*
X1585850D01*
X1395350Y3658000D01*
Y7722000D01*
X1522350Y7849000D01*
X6665850Y5372500D02*
X6729350D01*
X6919850Y5182000D01*
Y4928000D01*
X6729350Y4737500D01*
X6551550D01*
X6348350Y4534300D01*
Y3975500D01*
X5776850Y3404000D01*
X1522350D01*
X1331850Y3594500D01*
Y8166500D01*
X1522350Y8357000D01*
X6792850Y9817500D02*
Y6325000D01*
X6157850Y5690000D01*
Y4864500D01*
X5840350Y4547000D01*
X7110350Y927500D02*
X6983350D01*
X6729350Y1181500D01*
X6500750D01*
X5840350Y1841900D01*
Y2362600D01*
X4862450Y3340500D01*
X1408050D01*
X1268350Y3480200D01*
Y8382400D01*
X1496950Y8611000D01*
X1522350D01*
X7288150Y2032400D02*
X7084950D01*
Y2057800D01*
X6970650D01*
X7605650Y2045100D02*
X8253350Y2692800D01*
Y3594500D01*
X8380350Y3721500D01*
X8774050D01*
X8837550Y3785000D01*
X7675850Y8801500D02*
Y9696500D01*
X7046850Y10325500D01*
X4252850D01*
X4125850Y10198500D01*
Y9944500D01*
X3998850Y9817500D01*
X8189850Y10389000D02*
X8380350D01*
X8443850Y10452500D01*
X8837550Y3175400D02*
X9155050D01*
X9269350Y3061100D01*
Y2070500D01*
X9015350Y1816500D01*
X8697850D01*
X8570850Y1689500D01*
X8316850D01*
X8126350Y1499000D01*
X6856350D01*
X6792850Y1435500D01*
X6551550D01*
X6284850Y1702200D01*
Y3721500D01*
X9142350Y2197500D02*
Y2261000D01*
X8837550Y2565800D01*
X10056750Y3175400D02*
Y3111900D01*
X9967850Y3023000D01*
X9650350D01*
X9396350Y2769000D01*
Y2197500D01*
X10056750Y3175400D02*
X10094850Y3213500D01*
Y3569100D01*
X10005950Y3658000D01*
X8697850D01*
X8634350Y3594500D01*
Y2794400D01*
X8545450Y2705500D01*
X8380350D01*
X7719950Y2045100D01*
Y1918100D01*
X7618350Y1816500D01*
X7567550D01*
X10806050Y4610500D02*
Y3861400D01*
X10812050Y3855400D01*
X10806050Y4953400D02*
X10856850D01*
X11072750Y4737500D01*
Y3862100D01*
X11066050Y3855400D01*
X10806050Y5461400D02*
Y4953400D01*
X10812050Y3855400D02*
Y3728200D01*
X10996550Y3543700D01*
X11669650D01*
X11822050Y3696100D01*
Y4039000D01*
X11199750Y4661300D01*
Y5321700D01*
X11060050Y5461400D01*
X10918350Y1499000D02*
X10920350D01*
X10412350Y991000D01*
X8939150D01*
X8748650Y1181500D01*
X7999350D01*
X7948550Y1130700D01*
X6983350D01*
X11060050Y5461400D02*
Y6032900D01*
X11529950Y6502800D01*
Y7429900D01*
X11339450Y7620400D01*
X11174350D01*
X11060050Y7506100D01*
Y7285400D01*
X11147350Y1499000D02*
X11174350D01*
X10602850Y927500D01*
X7110350D01*
X11314050Y7285400D02*
Y6515500D01*
X10806050Y6007500D01*
Y5461400D01*
D02*
D83*
X6284850Y3721500D03*
X6475350Y1689500D03*
X6919850Y4356500D03*
X6970650Y2057800D03*
X6983350Y1130700D03*
X7110350Y927500D03*
X7288150Y2032400D03*
X7300850Y2197500D03*
X7567550Y1816500D03*
X7605650Y2045100D03*
D02*
D84*
X1522350Y3785000D03*
Y4039000D03*
Y4293000D03*
Y4547000D03*
Y4801000D03*
Y5055000D03*
Y5309000D03*
Y5563000D03*
Y5817000D03*
Y6071000D03*
Y6325000D03*
Y6579000D03*
Y6833000D03*
Y7087000D03*
Y7341000D03*
Y7595000D03*
Y7849000D03*
Y8103000D03*
Y8357000D03*
Y8611000D03*
X1966850Y9017400D03*
X3300350Y3785000D03*
Y4039000D03*
Y4293000D03*
Y4547000D03*
Y4801000D03*
Y5055000D03*
Y5309000D03*
Y5563000D03*
Y5817000D03*
Y6071000D03*
Y6325000D03*
Y6579000D03*
Y6833000D03*
Y7087000D03*
Y7341000D03*
Y7595000D03*
Y7849000D03*
Y8103000D03*
Y8357000D03*
Y8611000D03*
X4062350Y3785000D03*
Y4039000D03*
Y4293000D03*
Y4547000D03*
Y4801000D03*
Y5055000D03*
Y5309000D03*
Y5563000D03*
Y5817000D03*
Y6071000D03*
Y6325000D03*
Y6579000D03*
Y6833000D03*
Y7087000D03*
Y7341000D03*
Y7595000D03*
Y7849000D03*
Y8103000D03*
Y8357000D03*
Y8611000D03*
X5840350Y3785000D03*
Y4039000D03*
Y4293000D03*
Y4547000D03*
Y4801000D03*
Y5055000D03*
Y5309000D03*
Y5563000D03*
Y5817000D03*
Y6071000D03*
Y6325000D03*
Y6579000D03*
Y6833000D03*
Y7087000D03*
Y7341000D03*
Y7595000D03*
Y7849000D03*
Y8103000D03*
Y8357000D03*
Y8611000D03*
X6665850Y800500D03*
Y1054500D03*
Y1308500D03*
Y1562500D03*
Y1816500D03*
Y2070500D03*
Y2324500D03*
Y2578500D03*
Y2832500D03*
Y3086500D03*
Y3340500D03*
Y3594500D03*
Y3848500D03*
Y4102500D03*
Y4356500D03*
Y4610500D03*
Y4864500D03*
Y5118500D03*
Y5372500D03*
Y5626500D03*
X8443850Y800500D03*
Y1054500D03*
Y1308500D03*
Y1562500D03*
Y1816500D03*
Y2070500D03*
Y2324500D03*
Y2578500D03*
Y2832500D03*
Y3086500D03*
Y3340500D03*
Y3594500D03*
Y3848500D03*
Y4102500D03*
Y4356500D03*
Y4610500D03*
Y4864500D03*
Y5118500D03*
Y5372500D03*
Y5626500D03*
D02*
D85*
X886350Y9901000D03*
X3636350Y1401000D03*
X9136350D03*
X11886350Y9901000D03*
D02*
D86*
X2220850Y1753000D03*
X2233550Y1499000D03*
X2487550D03*
D02*
D87*
X2144650Y2984900D03*
X2335150Y2794400D03*
Y2984900D03*
X2525650D03*
X3109850D03*
X3300350Y2794400D03*
Y2984900D03*
X3490850D03*
X8443850Y9436500D03*
Y10452500D03*
X8761350Y4991500D03*
Y6007500D03*
X8824850Y4420000D03*
Y4737500D03*
X8837550Y2565800D03*
Y2870600D03*
Y3175400D03*
Y3785000D03*
X8951850Y6325000D03*
Y6642500D03*
X9840850Y4420000D03*
Y4737500D03*
X9853550Y2565800D03*
Y2870600D03*
Y3175400D03*
Y3785000D03*
X9956750Y3480200D03*
Y4089800D03*
X9967850Y4991500D03*
Y6007500D03*
Y6325000D03*
Y6642500D03*
X10056750Y2565800D03*
Y2870600D03*
Y3175400D03*
X11072750Y2565800D03*
Y2870600D03*
Y3175400D03*
D02*
D88*
X10689350Y1499000D03*
Y2007000D03*
X10803850Y1753000D03*
X10918350Y1499000D03*
Y2007000D03*
X11032850Y1753000D03*
X11147350Y1499000D03*
Y2007000D03*
X11261850Y1753000D03*
X11376350Y1499000D03*
Y2007000D03*
X11490850Y1753000D03*
X11605350Y1499000D03*
Y2007000D03*
X11719850Y1753000D03*
D02*
D89*
X9924850D03*
X12423850D03*
D02*
D90*
X849250Y2832500D03*
Y3137300D03*
X1865250Y2832500D03*
Y3137300D03*
X3325750Y2057800D03*
Y2311800D03*
X3897250Y2743600D03*
Y3048400D03*
X4913250Y2743600D03*
Y3048400D03*
X7935850Y10389000D03*
X8062850Y7404500D03*
X8189850Y10389000D03*
X8316850Y7404500D03*
X8901050Y7899800D03*
X9917050D03*
X10806050Y4610500D03*
Y4953400D03*
X11822050Y4610500D03*
Y4953400D03*
D02*
D91*
X823850Y2324500D03*
X2220850Y2184800D03*
X2474850D03*
X8062850Y7899800D03*
X8316850D03*
X9142350Y5309000D03*
Y5817000D03*
X9586850Y5309000D03*
Y5817000D03*
X11479150Y2870600D03*
X11733150D03*
X11987150D03*
D02*
D92*
X1979550Y1499000D03*
D02*
D93*
X2220850Y9817500D03*
Y10071500D03*
X2474850Y9817500D03*
Y10071500D03*
X2728850Y9817500D03*
Y10071500D03*
X2982850Y9817500D03*
Y10071500D03*
X3236850Y9817500D03*
Y10071500D03*
X3490850Y9817500D03*
Y10071500D03*
X3744850Y9817500D03*
Y10071500D03*
X3998850Y9817500D03*
Y10071500D03*
X4252850Y9817500D03*
Y10071500D03*
X4506850Y9817500D03*
Y10071500D03*
X4760850Y9817500D03*
Y10071500D03*
X5014850Y9817500D03*
Y10071500D03*
X5268850Y9817500D03*
Y10071500D03*
X5522850Y9817500D03*
Y10071500D03*
X5776850Y9817500D03*
Y10071500D03*
X6030850Y9817500D03*
Y10071500D03*
X6284850Y9817500D03*
Y10071500D03*
X6538850Y9817500D03*
Y10071500D03*
X6792850Y9817500D03*
Y10071500D03*
X7046850Y9817500D03*
Y10071500D03*
D02*
D94*
X1839850Y2324500D03*
D02*
D95*
X8888350Y2197500D03*
X9142350D03*
X9205850Y7277500D03*
X9396350Y2197500D03*
X9459850Y7277500D03*
X9713850D03*
X10298050Y5461400D03*
X10304050Y3855400D03*
X10552050Y5461400D03*
Y7285400D03*
X10558050Y3855400D03*
X10806050Y5461400D03*
Y7285400D03*
X10812050Y3855400D03*
X11060050Y5461400D03*
Y7285400D03*
X11066050Y3855400D03*
X11314050Y5461400D03*
Y7285400D03*
X11320050Y3855400D03*
X11574050D03*
D02*
D96*
X760350Y1870780D03*
X762890Y1138700D03*
X1136510Y1553000D03*
D02*
D97*
X8888350Y8674500D03*
X9142350D03*
X9396350D03*
X9650350D03*
X9904350D03*
X10158350D03*
X10412350D03*
X10666350D03*
X10920350D03*
D02*
D98*
X4245230Y1097140D03*
X4920870Y1015860D03*
X5596510Y1097140D03*
X8888350Y10452500D03*
X10920350D03*
D02*
D99*
X8786750Y3480200D03*
Y4089800D03*
D02*
D100*
X459600Y8923000D03*
Y9373000D03*
X1109600Y8923000D03*
Y9373000D03*
D02*
D101*
X7415850Y8801500D03*
X7675850D03*
X7935850D03*
D02*
D102*
X823850Y4293000D03*
Y4547000D03*
D02*
D103*
X4583750Y1396320D03*
Y1646320D03*
X4791330Y1396320D03*
X5050410D03*
X5258750D03*
Y1646320D03*
D02*
D104*
X347300Y8923000D02*
X296500D01*
X459600Y8810700D02*
Y8759900D01*
Y9035300D02*
Y9086100D01*
X569850Y1138700D02*
X519050D01*
X571900Y8923000D02*
X622700D01*
X696850Y4293000D02*
X646050D01*
X762890Y945660D02*
Y894860D01*
Y1331740D02*
Y1382540D01*
X823850Y4229500D02*
Y4178700D01*
Y4356500D02*
Y4407300D01*
X950850Y4293000D02*
X1001650D01*
X955930Y1138700D02*
X1006730D01*
X997300Y8923000D02*
X946500D01*
X1109600Y8810700D02*
Y8759900D01*
Y9035300D02*
Y9086100D01*
X1221900Y8923000D02*
X1272700D01*
X1463930Y8103000D02*
X1413130D01*
X1522350Y4234580D02*
Y4183780D01*
Y4351420D02*
Y4402220D01*
Y5504580D02*
Y5453780D01*
Y5621420D02*
Y5672220D01*
Y6774580D02*
Y6723780D01*
Y6891420D02*
Y6942220D01*
Y8044580D02*
Y7993780D01*
Y8161420D02*
Y8212220D01*
X1580770Y4293000D02*
X1631570D01*
X1580770Y5563000D02*
X1631570D01*
X1580770Y6833000D02*
X1631570D01*
X1580770Y8103000D02*
X1631570D01*
X2152050Y2116000D02*
X2116130Y2080080D01*
X2152050Y2253600D02*
X2116130Y2289520D01*
X2157990Y1690140D02*
X2122070Y1654220D01*
X2157990Y1815860D02*
X2122070Y1851780D01*
X2170690Y1436140D02*
X2134770Y1400220D01*
X2170690Y1561860D02*
X2134770Y1597780D01*
X2283710Y1690140D02*
X2319630Y1654220D01*
X2283710Y1815860D02*
X2319630Y1851780D01*
X2289650Y2116000D02*
X2325570Y2080080D01*
X2289650Y2253600D02*
X2325570Y2289520D01*
X2296410Y1436140D02*
X2332330Y1400220D01*
X2296410Y1561860D02*
X2332330Y1597780D01*
X2416750Y9817500D02*
X2365950D01*
X2474850Y9875600D02*
Y9926400D01*
X2532950Y9817500D02*
X2583750D01*
X2941770Y10030420D02*
X2905850Y9994500D01*
X2941770Y10112580D02*
X2905850Y10148500D01*
X3023930Y10030420D02*
X3059850Y9994500D01*
X3023930Y10112580D02*
X3059850Y10148500D01*
X3241930Y4293000D02*
X3191130D01*
X3241930Y5563000D02*
X3191130D01*
X3241930Y6833000D02*
X3191130D01*
X3241930Y8103000D02*
X3191130D01*
X3264020Y2250070D02*
X3228100Y2214150D01*
X3264020Y2373530D02*
X3228100Y2409450D01*
X3300350Y4234580D02*
Y4183780D01*
Y5504580D02*
Y5453780D01*
Y5621420D02*
Y5672220D01*
Y6891420D02*
Y6942220D01*
Y8161420D02*
Y8212220D01*
X3358770Y4293000D02*
X3409570D01*
X3358770Y5563000D02*
X3409570D01*
X3358770Y6833000D02*
X3409570D01*
X3358770Y8103000D02*
X3409570D01*
X3387480Y2250070D02*
X3423400Y2214150D01*
X3387480Y2373530D02*
X3423400Y2409450D01*
X3686750Y9817500D02*
X3635950D01*
X3744850Y9875600D02*
Y9926400D01*
X3802950Y9817500D02*
X3853750D01*
X4003930Y4293000D02*
X3953130D01*
X4003930Y5563000D02*
X3953130D01*
X4003930Y6833000D02*
X3953130D01*
X4003930Y8103000D02*
X3953130D01*
X4062350Y4351420D02*
Y4402220D01*
Y6774580D02*
Y6723780D01*
Y6891420D02*
Y6942220D01*
Y8044580D02*
Y7993780D01*
Y8161420D02*
Y8212220D01*
X4120770Y4293000D02*
X4171570D01*
X4120770Y5563000D02*
X4171570D01*
X4120770Y6833000D02*
X4171570D01*
X4120770Y8103000D02*
X4171570D01*
X4252850Y10013400D02*
Y9962600D01*
Y10129600D02*
Y10180400D01*
X4310950Y10071500D02*
X4361750D01*
X5014850Y9759400D02*
Y9708600D01*
Y9875600D02*
Y9926400D01*
X5218340Y1355910D02*
X5182420Y1319990D01*
X5218340Y1436730D02*
X5182420Y1472650D01*
X5299160Y1355910D02*
X5335080Y1319990D01*
X5299160Y1436730D02*
X5335080Y1472650D01*
X5464750Y10071500D02*
X5413950D01*
X5522850Y10013400D02*
Y9962600D01*
Y10129600D02*
Y10180400D01*
X5580950Y10071500D02*
X5631750D01*
X5781930Y4293000D02*
X5731130D01*
X5781930Y5563000D02*
X5731130D01*
X5781930Y6833000D02*
X5731130D01*
X5781930Y8103000D02*
X5731130D01*
X5840350Y4234580D02*
Y4183780D01*
Y4351420D02*
Y4402220D01*
Y5504580D02*
Y5453780D01*
Y5621420D02*
Y5672220D01*
Y6774580D02*
Y6723780D01*
Y6891420D02*
Y6942220D01*
Y8044580D02*
Y7993780D01*
Y8161420D02*
Y8212220D01*
X5898770Y4293000D02*
X5949570D01*
X5898770Y6833000D02*
X5949570D01*
X6284850Y9759400D02*
Y9708600D01*
Y9875600D02*
Y9926400D01*
X6607430Y1308500D02*
X6556630D01*
X6607430Y2578500D02*
X6556630D01*
X6607430Y3848500D02*
X6556630D01*
X6607430Y5118500D02*
X6556630D01*
X6665850Y2520080D02*
Y2469280D01*
Y2636920D02*
Y2687720D01*
Y3790080D02*
Y3739280D01*
Y5060080D02*
Y5009280D01*
X6724270Y1308500D02*
X6775070D01*
X6724270Y2578500D02*
X6775070D01*
X6724270Y3848500D02*
X6775070D01*
X6734750Y10071500D02*
X6683950D01*
X6792850Y10013400D02*
Y9962600D01*
Y10129600D02*
Y10180400D01*
X6850950Y10071500D02*
X6901750D01*
X7358550Y8801500D02*
X7307750D01*
X7415850Y8744200D02*
Y8693400D01*
Y8858800D02*
Y8909600D01*
X7473150Y8801500D02*
X7523950D01*
X7994050Y7831000D02*
X7958130Y7795080D01*
X7994050Y7968600D02*
X7958130Y8004520D01*
X8001120Y7342770D02*
X7965200Y7306850D01*
X8001120Y7466230D02*
X7965200Y7502150D01*
X8124580Y7342770D02*
X8160500Y7306850D01*
X8124580Y7466230D02*
X8160500Y7502150D01*
X8131650Y7831000D02*
X8167570Y7795080D01*
X8131650Y7968600D02*
X8167570Y8004520D01*
X8380350Y9436500D02*
X8329550D01*
X8385430Y1308500D02*
X8334630D01*
X8385430Y2578500D02*
X8334630D01*
X8385430Y3848500D02*
X8334630D01*
X8385430Y5118500D02*
X8334630D01*
X8443850Y1366920D02*
Y1417720D01*
Y2520080D02*
Y2469280D01*
Y3906920D02*
Y3957720D01*
Y5060080D02*
Y5009280D01*
Y5176920D02*
Y5227720D01*
Y9373000D02*
Y9322200D01*
Y9500000D02*
Y9550800D01*
X8502270Y1308500D02*
X8553070D01*
X8502270Y2578500D02*
X8553070D01*
X8502270Y3848500D02*
X8553070D01*
X8502270Y5118500D02*
X8553070D01*
X8507350Y9436500D02*
X8558150D01*
X8723250Y4089800D02*
X8672450D01*
X8774050Y2870600D02*
X8723250D01*
X8786750Y3416700D02*
Y3365900D01*
Y3543700D02*
Y3594500D01*
Y4026300D02*
Y3975500D01*
Y4153300D02*
Y4204100D01*
X8837550Y2807100D02*
Y2756300D01*
Y2934100D02*
Y2984900D01*
X8850250Y3480200D02*
X8901050D01*
X8850250Y4089800D02*
X8901050D01*
X8888350Y6325000D02*
X8837550D01*
X8901050Y2870600D02*
X8951850D01*
Y6261500D02*
Y6210700D01*
Y6388500D02*
Y6439300D01*
X9015350Y6325000D02*
X9066150D01*
X9045050Y5817000D02*
X8994250D01*
X9066150Y8674500D02*
X9015350D01*
X9142350Y5719700D02*
Y5668900D01*
Y5914300D02*
Y5965100D01*
Y8598300D02*
Y8547500D01*
Y8750700D02*
Y8801500D01*
X9218550Y8674500D02*
X9269350D01*
X9239650Y5817000D02*
X9290450D01*
X9396350Y7277500D02*
X9345550D01*
X9459850Y7150500D02*
Y7099700D01*
Y7404500D02*
Y7455300D01*
X9489550Y5817000D02*
X9438750D01*
X9523350Y7277500D02*
X9574150D01*
X9586850Y5719700D02*
Y5668900D01*
Y5914300D02*
Y5965100D01*
X9684150Y5817000D02*
X9734950D01*
X9904350Y6642500D02*
X9853550D01*
X9967850Y6579000D02*
Y6528200D01*
Y6706000D02*
Y6756800D01*
X10031350Y6642500D02*
X10082150D01*
X10234550Y5461400D02*
X10183750D01*
X10240550Y3855400D02*
X10189750D01*
X10298050Y5334400D02*
Y5283600D01*
Y5588400D02*
Y5639200D01*
X10304050Y3728400D02*
Y3677600D01*
Y3982400D02*
Y4033200D01*
X10361550Y5461400D02*
X10412350D01*
X10367550Y3855400D02*
X10418350D01*
X10488550Y7285400D02*
X10437750D01*
X10552050Y7158400D02*
Y7107600D01*
Y7412400D02*
Y7463200D01*
X10615550Y7285400D02*
X10666350D01*
X10631150Y1948800D02*
X10595230Y1912880D01*
X10631150Y2065200D02*
X10595230Y2101120D01*
X10745650Y1694800D02*
X10709730Y1658880D01*
X10745650Y1811200D02*
X10709730Y1847120D01*
X10747550Y1948800D02*
X10783470Y1912880D01*
X10747550Y2065200D02*
X10783470Y2101120D01*
X10862050Y1694800D02*
X10897970Y1658880D01*
X10862050Y1811200D02*
X10897970Y1847120D01*
X11203650Y1694800D02*
X11167730Y1658880D01*
X11203650Y1811200D02*
X11167730Y1847120D01*
X11320050Y1694800D02*
X11355970Y1658880D01*
X11320050Y1811200D02*
X11355970Y1847120D01*
X11432650Y1694800D02*
X11396730Y1658880D01*
X11432650Y1811200D02*
X11396730Y1847120D01*
X11549050Y1694800D02*
X11584970Y1658880D01*
X11549050Y1811200D02*
X11584970Y1847120D01*
X11661650Y1694800D02*
X11625730Y1658880D01*
X11661650Y1811200D02*
X11625730Y1847120D01*
X11664350Y2801800D02*
X11628430Y2765880D01*
X11664350Y2939400D02*
X11628430Y2975320D01*
X11778050Y1694800D02*
X11813970Y1658880D01*
X11778050Y1811200D02*
X11813970Y1847120D01*
X11801950Y2801800D02*
X11837870Y2765880D01*
X11801950Y2939400D02*
X11837870Y2975320D01*
X0Y0D02*
M02*
