G04 DesignSpark PCB Gerber Version 10.0 Build 5299*
%FSLAX35Y35*%
%MOMM*%
%ADD95O,1.52400X2.79400*%
%ADD99R,1.52400X1.52400*%
%ADD92R,2.03200X2.03200*%
%ADD82C,0.38100*%
%ADD81C,0.50800*%
%ADD83C,1.21920*%
%ADD80C,1.27000*%
%ADD103C,1.39700*%
%ADD101C,1.40000*%
%ADD93C,1.41600*%
%ADD84C,1.42240*%
%ADD87C,1.52400*%
%ADD97C,1.77800*%
%ADD88C,1.90000*%
%ADD90C,2.00000*%
%ADD86C,2.03200*%
%ADD94C,2.10000*%
%ADD91C,2.20000*%
%ADD100C,2.50000*%
%ADD98C,3.04800*%
%ADD96C,4.11480*%
%ADD85C,6.35000*%
%ADD89C,7.00000*%
%ADD102O,2.79400X1.52400*%
X0Y0D02*
D02*
D80*
X762890Y1138700D02*
X1585850D01*
X2114550D01*
X2220850Y1245000D01*
Y1486300D01*
X2233550Y1499000D01*
X849250Y3137300D02*
Y2832500D01*
X1154050Y4801000D02*
X569850D01*
X506350Y4737500D01*
Y3454800D01*
X823850Y3137300D01*
X849250D01*
X1522350Y4039000D02*
X1458850D01*
X1204850Y3785000D01*
Y2959500D01*
X1839850Y2324500D01*
X1522350Y4293000D02*
X823850D01*
X1522350Y4801000D02*
X1154050D01*
X1979550Y1499000D02*
Y1943500D01*
Y2184800D01*
X1839850Y2324500D01*
X2335150Y2794400D02*
Y2984900D01*
X2474850Y2184800D02*
Y2654700D01*
X2335150Y2794400D01*
X2474850Y2184800D02*
X3084450D01*
X3211450Y2057800D01*
X3325750D01*
X3300350Y2794400D02*
Y2984900D01*
Y2794400D02*
X2335150D01*
X3300350D02*
X3630550D01*
X3706750Y2870600D01*
Y4610500D01*
X3897250Y4801000D01*
X4062350D01*
X3300350Y5563000D02*
X3490850Y5372500D01*
Y4483500D01*
X3300350Y4293000D01*
X3897250Y1968900D02*
Y1943500D01*
X3567050D01*
X3452750Y1829200D01*
X2830450D01*
X2716150Y1943500D01*
X1979550D01*
X3897250Y2743600D02*
Y1968900D01*
Y3048400D02*
Y2743600D01*
X3998850Y10071500D02*
Y10147700D01*
X3821050Y10325500D01*
X1966850D01*
X1458850Y9817500D01*
Y8852300D01*
X1154050Y8547500D01*
Y4801000D01*
X4062350Y3785000D02*
X4468750D01*
X6221350Y2032400D01*
Y1016400D01*
X6437250Y800500D01*
X6665850D01*
X4062350Y4039000D02*
X3998850D01*
X3871850Y3912000D01*
Y3073800D01*
X3897250Y3048400D01*
X4379850Y9690500D02*
X3935350Y9246000D01*
X3554350D01*
X3046350Y8738000D01*
Y6337700D01*
X1776350Y5067700D01*
Y4013600D01*
X1547750Y3785000D01*
X1522350D01*
X4583750Y1396320D02*
X4469830D01*
X3897250Y1968900D01*
X5840350Y5563000D02*
X5713350D01*
X5586350Y5436000D01*
Y4547000D01*
X5840350Y4293000D01*
X8062850Y7404500D02*
Y7899800D01*
X8316850Y7404500D02*
Y7899800D01*
X8901050D01*
X8443850Y2578500D02*
X8532750D01*
X8659750Y2451500D01*
Y1524400D01*
X8443850Y1308500D01*
X8901050Y7899800D02*
Y8661800D01*
X8888350Y8674500D01*
X9142350D02*
Y8725300D01*
X8850250Y9017400D01*
X7542850D01*
X7415850Y8890400D01*
Y8801500D01*
X9917050Y7899800D02*
X10463150D01*
X10793350Y7569600D01*
Y7298100D01*
X10806050Y7285400D01*
X11314050Y5461400D02*
X11326750D01*
X11834750Y4953400D01*
X11314050Y5499500D01*
X11301350Y5512200D01*
Y6172600D01*
X10806050Y6667900D01*
Y7285400D01*
X11822050Y4610500D02*
X11402950D01*
X11009250Y4216800D01*
X10691750D01*
X10552050Y4077100D01*
Y3861400D01*
X10558050Y3855400D01*
X11822050Y4953400D02*
Y4610500D01*
D02*
D81*
X4506850Y10071500D02*
X4379850Y9944500D01*
Y9690500D01*
D02*
D82*
X823850Y4547000D02*
X1522350D01*
Y7087000D02*
X2538350Y8103000D01*
Y9309500D01*
X2982850Y9754000D01*
Y9817500D01*
X1865250Y2832500D02*
X1712850Y2984900D01*
Y3340500D01*
X2347850Y3975500D01*
Y5436000D01*
X3173350Y6261500D01*
Y6515500D01*
X3236850Y6579000D01*
X3300350D01*
X1865250Y3137300D02*
X3109850D01*
X2144650Y2984900D02*
X2131950D01*
X2030350Y2883300D01*
X1916050D01*
X1865250Y2832500D01*
X2220850Y9817500D02*
X1966850Y9563500D01*
Y9017400D01*
X2220850Y10071500D02*
X2030350D01*
X1712850Y9754000D01*
Y8547500D01*
X1522350Y8357000D01*
X2474850Y10071500D02*
X2347850Y9944500D01*
Y8674500D01*
X1522350Y7849000D01*
X2728850Y9817500D02*
X2411350Y9500000D01*
Y8484000D01*
X1522350Y7595000D01*
X2728850Y10071500D02*
X2855850Y9944500D01*
Y9754000D01*
X2474850Y9373000D01*
Y8230000D01*
X1585850Y7341000D01*
X1522350D01*
X3109850Y3137300D02*
Y2984900D01*
X3236850Y9817500D02*
X2601850Y9182500D01*
Y7658500D01*
X1522350Y6579000D01*
X3236850Y10071500D02*
X3300350D01*
X3363850Y10008000D01*
Y9754000D01*
X2665350Y9055500D01*
Y7468000D01*
X1522350Y6325000D01*
X3300350D02*
Y6261500D01*
X3109850Y6071000D01*
Y3137300D01*
X3300350Y8357000D02*
X3427350Y8484000D01*
Y8801500D01*
X3617850Y8992000D01*
X4887850D01*
X5522850Y8357000D01*
X5840350D01*
X3490850Y9817500D02*
Y9754000D01*
X2728850Y8992000D01*
Y7277500D01*
X1522350Y6071000D01*
X3490850Y10071500D02*
X3617850Y9944500D01*
Y9754000D01*
X2792350Y8928500D01*
Y7087000D01*
X1522350Y5817000D01*
X3744850Y10071500D02*
X3871850Y9944500D01*
Y9754000D01*
X3808350Y9690500D01*
X3681350D01*
X2855850Y8865000D01*
Y6642500D01*
X1522350Y5309000D01*
X3998850Y9817500D02*
Y9754000D01*
X3871850Y9627000D01*
X3744850D01*
X2919350Y8801500D01*
Y6452000D01*
X1522350Y5055000D01*
X4062350Y4547000D02*
X4189350D01*
X4265550Y4470800D01*
Y4191400D01*
X6361050Y2095900D01*
Y1638700D01*
X6437250Y1562500D01*
X6665850D01*
X4062350Y5309000D02*
X4100450D01*
X4481450Y4928000D01*
Y4204100D01*
X6297550Y2388000D01*
X6665850D01*
Y2324500D01*
X4062350Y5817000D02*
X4113150D01*
X4633850Y5296300D01*
Y4166000D01*
X5967350Y2832500D01*
X6665850D01*
X4062350Y6071000D02*
X4113150D01*
X4722750Y5461400D01*
Y4191400D01*
X5827650Y3086500D01*
X6665850D01*
X4062350Y6325000D02*
X4113150D01*
X4824350Y5613800D01*
Y4204100D01*
X5687950Y3340500D01*
X6665850D01*
X4062350Y6579000D02*
X4976750Y5664600D01*
Y4166000D01*
X5738750Y3404000D01*
X6310250D01*
X6500750Y3594500D01*
X6665850D01*
X4062350Y7087000D02*
X5129150Y6020200D01*
Y4127900D01*
X5789550Y3467500D01*
X6030850D01*
X6284850Y3721500D01*
X4062350Y7341000D02*
X5230750Y6172600D01*
Y4127900D01*
X5827650Y3531000D01*
X5941950D01*
X6500750Y4089800D01*
Y4191400D01*
X6665850Y4356500D01*
X4062350Y7595000D02*
X5383150Y6274200D01*
Y4077100D01*
X5827650Y3632600D01*
X5941950D01*
X6043550Y3734200D01*
Y3937400D01*
X6500750Y4394600D01*
Y4496200D01*
X6615050Y4610500D01*
X6665850D01*
X4760850Y9119000D02*
X3617850D01*
X3300350Y8801500D01*
Y8611000D01*
X4760850Y9817500D02*
Y9119000D01*
X5268850Y9817500D02*
X5395850Y9944500D01*
X8380350D01*
X9650350Y8674500D01*
X5522850Y9817500D02*
Y9728600D01*
X6005450Y9246000D01*
X8824850D01*
X9396350Y8674500D01*
X5840350Y4039000D02*
X5916550D01*
X6348350Y4470800D01*
Y5651900D01*
X6576950Y5880500D01*
X6843650D01*
X7262750Y5461400D01*
Y2692800D01*
X8240650Y1714900D01*
Y1245000D01*
X8431150Y1054500D01*
X8443850D01*
X5840350Y4547000D02*
X6272150Y4978800D01*
Y5690000D01*
X6538850Y5956700D01*
X6881750D01*
X7338950Y5499500D01*
Y2730900D01*
X8443850Y1626000D01*
Y1562500D01*
X5840350Y4801000D02*
Y4813700D01*
X6195950Y5169300D01*
Y5728100D01*
X6500750Y6032900D01*
X6919850D01*
X7415150Y5537600D01*
Y2870600D01*
X8443850Y1841900D01*
Y1816500D01*
X5840350Y5055000D02*
Y5080400D01*
X6119750Y5359800D01*
Y5766200D01*
X6462650Y6109100D01*
X6957950D01*
X7491350Y5575700D01*
Y3023000D01*
X8443850Y2070500D01*
X5840350Y5309000D02*
X5891150D01*
X6043550Y5461400D01*
Y5804300D01*
X6424550Y6185300D01*
X6996050D01*
X7567550Y5613800D01*
Y3213500D01*
X8443850Y2337200D01*
Y2324500D01*
X5840350Y5817000D02*
X5929250D01*
X6373750Y6261500D01*
X7034150D01*
X7643750Y5651900D01*
Y3632600D01*
X8443850Y2832500D01*
X5840350Y6071000D02*
X4189350Y7722000D01*
X3935350D01*
X3871850Y7658500D01*
Y6642500D01*
X3300350Y6071000D01*
X5840350D02*
X6145150Y6375800D01*
X7034150D01*
X7719950Y5690000D01*
Y3823100D01*
X8443850Y3099200D01*
Y3086500D01*
X5840350Y6325000D02*
X4189350Y7976000D01*
X3998850D01*
X3808350Y7785500D01*
Y6833000D01*
X3300350Y6325000D01*
X5840350D02*
X5967350Y6452000D01*
X7072250D01*
X7796150Y5728100D01*
Y4013600D01*
X8443850Y3327800D01*
Y3340500D01*
X5840350Y6579000D02*
X4189350Y8230000D01*
X3935350D01*
X3744850Y8039500D01*
Y7023500D01*
X3300350Y6579000D01*
X5840350D02*
X5853050D01*
X5903850Y6528200D01*
X7110350D01*
X7872350Y5766200D01*
Y4204100D01*
X8443850Y3632600D01*
Y3594500D01*
X5840350Y7087000D02*
X5776850D01*
X4379850Y8484000D01*
X3871850D01*
X3681350Y8293500D01*
Y7468000D01*
X3300350Y7087000D01*
X5840350D02*
X6665850D01*
X7948550Y5804300D01*
Y4585100D01*
X8443850Y4089800D01*
Y4102500D01*
X5840350Y7341000D02*
X4379850Y8801500D01*
X3808350D01*
X3617850Y8611000D01*
Y7658500D01*
X3300350Y7341000D01*
X5840350D02*
X6526150D01*
X8024750Y5842400D01*
Y4775600D01*
X8443850Y4356500D01*
X5840350Y7595000D02*
X4570350Y8865000D01*
X3744850D01*
X3554350Y8674500D01*
Y7849000D01*
X3300350Y7595000D01*
X5840350D02*
X6386450D01*
X8100950Y5880500D01*
Y4928000D01*
X8405750Y4623200D01*
Y4610500D01*
X8443850D01*
X5840350Y7849000D02*
X4760850Y8928500D01*
X3681350D01*
X3490850Y8738000D01*
Y8039500D01*
X3300350Y7849000D01*
X5840350D02*
X6246750D01*
X8177150Y5918600D01*
Y5156600D01*
X8443850Y4851800D01*
Y4864500D01*
X5840350Y8357000D02*
X5853050D01*
X8253350Y5956700D01*
Y5575700D01*
X8443850Y5385200D01*
Y5372500D01*
X5840350Y8611000D02*
X5332350Y9119000D01*
X4760850D01*
X5840350Y8611000D02*
X5865750D01*
X8443850Y6032900D01*
Y5626500D01*
X6284850Y3721500D02*
X6665850Y4102500D01*
Y2070500D02*
X6500750D01*
X4379850Y4191400D01*
Y4737500D01*
X4062350Y5055000D01*
X6665850Y4610500D02*
X6792850Y4483500D01*
Y2007000D01*
X6729350Y1943500D01*
X6538850D01*
X6475350Y1880000D01*
Y1689500D01*
X6919850Y4356500D02*
X6970650Y4305700D01*
Y2057800D01*
X6983350Y1130700D02*
X7046850Y1194200D01*
Y1905400D01*
X7097650Y1956200D01*
Y2299100D01*
X7046850Y2349900D01*
Y5182000D01*
X6856350Y5372500D01*
X6665850D01*
X7110350Y927500D02*
Y1854600D01*
X7173850Y1918100D01*
Y2413400D01*
X7110350Y2476900D01*
Y5309000D01*
X6792850Y5626500D01*
X6665850D01*
X7300850Y2197500D02*
X7453250Y2045100D01*
X7605650D01*
X7567550Y1816500D02*
X7504050D01*
X7288150Y2032400D01*
X8443850Y800500D02*
X8164450Y1079900D01*
Y1651400D01*
X7186550Y2629300D01*
Y5397900D01*
X6780150Y5804300D01*
X6615050D01*
X6424550Y5613800D01*
Y4432700D01*
X5840350Y3848500D01*
Y3785000D01*
X8443850Y2832500D02*
X8507350D01*
X8634350Y2959500D01*
Y4293000D01*
X8761350Y4420000D01*
X8824850D01*
X8443850Y3086500D02*
X8507350D01*
X8570850Y3150000D01*
Y4547000D01*
X8761350Y4737500D01*
X8824850D01*
X8443850Y5626500D02*
X9840850D01*
X10513950Y4953400D01*
X10806050D01*
X8761350Y4991500D02*
X8824850D01*
X9142350Y5309000D01*
Y5118500D01*
X9840850Y4420000D01*
X9205850Y7277500D02*
Y6896500D01*
X8761350Y6452000D01*
Y6007500D01*
X9586850Y5309000D02*
Y4991500D01*
X9840850Y4737500D01*
X9853550Y2565800D02*
X10056750D01*
X9853550Y2870600D02*
X10056750D01*
X9853550Y3785000D02*
Y3569100D01*
X9637650Y3353200D01*
Y2515000D01*
X9891650Y2261000D01*
X10893350D01*
X11147350Y2007000D01*
X9904350Y8674500D02*
X8507350Y10071500D01*
X7554850D01*
X7364350Y10262000D01*
X5459350D01*
X5268850Y10071500D01*
X9956750Y3480200D02*
X11656950D01*
X12190350Y2946800D01*
Y2541200D01*
X11656150Y2007000D01*
X11605350D01*
X9956750Y3480200D02*
Y3278600D01*
X9853550Y3175400D01*
X9956750Y4089800D02*
Y3888200D01*
X9853550Y3785000D01*
X9967850Y4991500D02*
Y4864500D01*
X9840850Y4737500D01*
X9967850Y6007500D02*
Y6325000D01*
X9777350Y6515500D01*
Y6769500D01*
X9713850Y6833000D01*
Y7277500D01*
X10056750Y2565800D02*
Y2870600D01*
X10158350Y8674500D02*
X8634350Y10198500D01*
X7554850D01*
X7364350Y10389000D01*
X5332350D01*
X5014850Y10071500D01*
X10806050Y4610500D02*
X10729850D01*
X9840850Y5499500D01*
X8824850D01*
X8697850Y5372500D01*
X8443850D01*
X11072750Y2870600D02*
X11376350D01*
X11072750D02*
Y2565800D01*
Y3175400D02*
Y2870600D01*
X11376350Y2007000D02*
Y2870600D01*
X11479150D01*
D02*
D83*
X6284850Y3721500D03*
X6475350Y1689500D03*
X6919850Y4356500D03*
X6970650Y2057800D03*
X6983350Y1130700D03*
X7110350Y927500D03*
X7288150Y2032400D03*
X7300850Y2197500D03*
X7567550Y1816500D03*
X7605650Y2045100D03*
D02*
D84*
X1522350Y3785000D03*
Y4039000D03*
Y4293000D03*
Y4547000D03*
Y4801000D03*
Y5055000D03*
Y5309000D03*
Y5563000D03*
Y5817000D03*
Y6071000D03*
Y6325000D03*
Y6579000D03*
Y6833000D03*
Y7087000D03*
Y7341000D03*
Y7595000D03*
Y7849000D03*
Y8103000D03*
Y8357000D03*
Y8611000D03*
X1966850Y9017400D03*
X3300350Y3785000D03*
Y4039000D03*
Y4293000D03*
Y4547000D03*
Y4801000D03*
Y5055000D03*
Y5309000D03*
Y5563000D03*
Y5817000D03*
Y6071000D03*
Y6325000D03*
Y6579000D03*
Y6833000D03*
Y7087000D03*
Y7341000D03*
Y7595000D03*
Y7849000D03*
Y8103000D03*
Y8357000D03*
Y8611000D03*
X4062350Y3785000D03*
Y4039000D03*
Y4293000D03*
Y4547000D03*
Y4801000D03*
Y5055000D03*
Y5309000D03*
Y5563000D03*
Y5817000D03*
Y6071000D03*
Y6325000D03*
Y6579000D03*
Y6833000D03*
Y7087000D03*
Y7341000D03*
Y7595000D03*
Y7849000D03*
Y8103000D03*
Y8357000D03*
Y8611000D03*
X5840350Y3785000D03*
Y4039000D03*
Y4293000D03*
Y4547000D03*
Y4801000D03*
Y5055000D03*
Y5309000D03*
Y5563000D03*
Y5817000D03*
Y6071000D03*
Y6325000D03*
Y6579000D03*
Y6833000D03*
Y7087000D03*
Y7341000D03*
Y7595000D03*
Y7849000D03*
Y8103000D03*
Y8357000D03*
Y8611000D03*
X6665850Y800500D03*
Y1054500D03*
Y1308500D03*
Y1562500D03*
Y1816500D03*
Y2070500D03*
Y2324500D03*
Y2578500D03*
Y2832500D03*
Y3086500D03*
Y3340500D03*
Y3594500D03*
Y3848500D03*
Y4102500D03*
Y4356500D03*
Y4610500D03*
Y4864500D03*
Y5118500D03*
Y5372500D03*
Y5626500D03*
X8443850Y800500D03*
Y1054500D03*
Y1308500D03*
Y1562500D03*
Y1816500D03*
Y2070500D03*
Y2324500D03*
Y2578500D03*
Y2832500D03*
Y3086500D03*
Y3340500D03*
Y3594500D03*
Y3848500D03*
Y4102500D03*
Y4356500D03*
Y4610500D03*
Y4864500D03*
Y5118500D03*
Y5372500D03*
Y5626500D03*
D02*
D85*
X886350Y9901000D03*
X3636350Y1401000D03*
X9136350D03*
X11886350Y9901000D03*
D02*
D86*
X2220850Y1753000D03*
X2233550Y1499000D03*
X2487550D03*
D02*
D87*
X2144650Y2984900D03*
X2335150Y2794400D03*
Y2984900D03*
X2525650D03*
X3109850D03*
X3300350Y2794400D03*
Y2984900D03*
X3490850D03*
X8443850Y9436500D03*
Y10452500D03*
X8761350Y4991500D03*
Y6007500D03*
X8824850Y4420000D03*
Y4737500D03*
X8837550Y2565800D03*
Y2870600D03*
Y3175400D03*
Y3785000D03*
X8951850Y6325000D03*
Y6642500D03*
X9840850Y4420000D03*
Y4737500D03*
X9853550Y2565800D03*
Y2870600D03*
Y3175400D03*
Y3785000D03*
X9956750Y3480200D03*
Y4089800D03*
X9967850Y4991500D03*
Y6007500D03*
Y6325000D03*
Y6642500D03*
X10056750Y2565800D03*
Y2870600D03*
Y3175400D03*
X11072750Y2565800D03*
Y2870600D03*
Y3175400D03*
D02*
D88*
X10689350Y1499000D03*
Y2007000D03*
X10803850Y1753000D03*
X10918350Y1499000D03*
Y2007000D03*
X11032850Y1753000D03*
X11147350Y1499000D03*
Y2007000D03*
X11261850Y1753000D03*
X11376350Y1499000D03*
Y2007000D03*
X11490850Y1753000D03*
X11605350Y1499000D03*
Y2007000D03*
X11719850Y1753000D03*
D02*
D89*
X9924850D03*
X12423850D03*
D02*
D90*
X849250Y2832500D03*
Y3137300D03*
X1865250Y2832500D03*
Y3137300D03*
X3325750Y2057800D03*
Y2311800D03*
X3897250Y2743600D03*
Y3048400D03*
X4913250Y2743600D03*
Y3048400D03*
X7935850Y10389000D03*
X8062850Y7404500D03*
X8189850Y10389000D03*
X8316850Y7404500D03*
X8901050Y7899800D03*
X9917050D03*
X10806050Y4610500D03*
Y4953400D03*
X11822050Y4610500D03*
Y4953400D03*
D02*
D91*
X823850Y2324500D03*
X2220850Y2184800D03*
X2474850D03*
X8062850Y7899800D03*
X8316850D03*
X9142350Y5309000D03*
Y5817000D03*
X9586850Y5309000D03*
Y5817000D03*
X11479150Y2870600D03*
X11733150D03*
X11987150D03*
D02*
D92*
X1979550Y1499000D03*
D02*
D93*
X2220850Y9817500D03*
Y10071500D03*
X2474850Y9817500D03*
Y10071500D03*
X2728850Y9817500D03*
Y10071500D03*
X2982850Y9817500D03*
Y10071500D03*
X3236850Y9817500D03*
Y10071500D03*
X3490850Y9817500D03*
Y10071500D03*
X3744850Y9817500D03*
Y10071500D03*
X3998850Y9817500D03*
Y10071500D03*
X4252850Y9817500D03*
Y10071500D03*
X4506850Y9817500D03*
Y10071500D03*
X4760850Y9817500D03*
Y10071500D03*
X5014850Y9817500D03*
Y10071500D03*
X5268850Y9817500D03*
Y10071500D03*
X5522850Y9817500D03*
Y10071500D03*
X5776850Y9817500D03*
Y10071500D03*
X6030850Y9817500D03*
Y10071500D03*
X6284850Y9817500D03*
Y10071500D03*
X6538850Y9817500D03*
Y10071500D03*
X6792850Y9817500D03*
Y10071500D03*
X7046850Y9817500D03*
Y10071500D03*
D02*
D94*
X1839850Y2324500D03*
D02*
D95*
X8888350Y2197500D03*
X9142350D03*
X9205850Y7277500D03*
X9396350Y2197500D03*
X9459850Y7277500D03*
X9713850D03*
X10298050Y5461400D03*
X10304050Y3855400D03*
X10552050Y5461400D03*
Y7285400D03*
X10558050Y3855400D03*
X10806050Y5461400D03*
Y7285400D03*
X10812050Y3855400D03*
X11060050Y5461400D03*
Y7285400D03*
X11066050Y3855400D03*
X11314050Y5461400D03*
Y7285400D03*
X11320050Y3855400D03*
X11574050D03*
D02*
D96*
X760350Y1870780D03*
X762890Y1138700D03*
X1136510Y1553000D03*
D02*
D97*
X8888350Y8674500D03*
X9142350D03*
X9396350D03*
X9650350D03*
X9904350D03*
X10158350D03*
X10412350D03*
X10666350D03*
X10920350D03*
D02*
D98*
X4245230Y1097140D03*
X4920870Y1015860D03*
X5596510Y1097140D03*
X8888350Y10452500D03*
X10920350D03*
D02*
D99*
X8786750Y3480200D03*
Y4089800D03*
D02*
D100*
X459600Y8923000D03*
Y9373000D03*
X1109600Y8923000D03*
Y9373000D03*
D02*
D101*
X7415850Y8801500D03*
X7675850D03*
X7935850D03*
D02*
D102*
X823850Y4293000D03*
Y4547000D03*
D02*
D103*
X4583750Y1396320D03*
Y1646320D03*
X4791330Y1396320D03*
X5050410D03*
X5258750D03*
Y1646320D03*
X0Y0D02*
M02*
