G04 DesignSpark PCB Gerber Version 10.0 Build 5299*
%FSLAX35Y35*%
%MOMM*%
%ADD10C,0.12700*%
X0Y0D02*
D02*
D10*
X2181160Y9476190D02*
X2276410D01*
X2212910Y9436500D01*
Y9500000D01*
X2189100Y9571440D02*
X2181160Y9587310D01*
Y9603190D01*
X2189100Y9619060D01*
X2204980Y9627000D01*
X2252600D01*
X2268480Y9619060D01*
X2276410Y9603190D01*
Y9587310D01*
X2268480Y9571440D01*
X2252600Y9563500D01*
X2204980D01*
X2189100Y9571440D01*
X2268480Y9619060D01*
X2189100Y10269940D02*
X2181160Y10285810D01*
Y10301690D01*
X2189100Y10317560D01*
X2204980Y10325500D01*
X2220850Y10317560D01*
X2228790Y10301690D01*
Y10285810D01*
Y10301690D02*
X2236730Y10317560D01*
X2252600Y10325500D01*
X2268480Y10317560D01*
X2276410Y10301690D01*
Y10285810D01*
X2268480Y10269940D01*
X2181160Y10412810D02*
X2189100Y10428690D01*
X2204980Y10444560D01*
X2228790Y10452500D01*
X2252600D01*
X2268480Y10444560D01*
X2276410Y10428690D01*
Y10412810D01*
X2268480Y10396940D01*
X2252600Y10389000D01*
X2236730Y10396940D01*
X2228790Y10412810D01*
Y10428690D01*
X2236730Y10444560D01*
X2252600Y10452500D01*
X2443100Y9444440D02*
X2435160Y9460310D01*
Y9476190D01*
X2443100Y9492060D01*
X2458980Y9500000D01*
X2474850Y9492060D01*
X2482790Y9476190D01*
Y9460310D01*
Y9476190D02*
X2490730Y9492060D01*
X2506600Y9500000D01*
X2522480Y9492060D01*
X2530410Y9476190D01*
Y9460310D01*
X2522480Y9444440D01*
X2482790Y9587310D02*
Y9603190D01*
X2490730Y9619060D01*
X2506600Y9627000D01*
X2522480Y9619060D01*
X2530410Y9603190D01*
Y9587310D01*
X2522480Y9571440D01*
X2506600Y9563500D01*
X2490730Y9571440D01*
X2482790Y9587310D01*
X2474850Y9571440D01*
X2458980Y9563500D01*
X2443100Y9571440D01*
X2435160Y9587310D01*
Y9603190D01*
X2443100Y9619060D01*
X2458980Y9627000D01*
X2474850Y9619060D01*
X2482790Y9603190D01*
X2443100Y10269940D02*
X2435160Y10285810D01*
Y10301690D01*
X2443100Y10317560D01*
X2458980Y10325500D01*
X2474850Y10317560D01*
X2482790Y10301690D01*
Y10285810D01*
Y10301690D02*
X2490730Y10317560D01*
X2506600Y10325500D01*
X2522480Y10317560D01*
X2530410Y10301690D01*
Y10285810D01*
X2522480Y10269940D01*
X2435160Y10389000D02*
X2530410Y10452500D01*
Y10389000D01*
X2697100Y9444440D02*
X2689160Y9460310D01*
Y9476190D01*
X2697100Y9492060D01*
X2712980Y9500000D01*
X2728850Y9492060D01*
X2736790Y9476190D01*
Y9460310D01*
Y9476190D02*
X2744730Y9492060D01*
X2760600Y9500000D01*
X2776480Y9492060D01*
X2784410Y9476190D01*
Y9460310D01*
X2776480Y9444440D01*
X2712980Y9563500D02*
X2728850Y9571440D01*
X2736790Y9587310D01*
Y9603190D01*
X2728850Y9619060D01*
X2712980Y9627000D01*
X2697100Y9619060D01*
X2689160Y9603190D01*
Y9587310D01*
X2697100Y9571440D01*
X2712980Y9563500D01*
X2736790D01*
X2760600Y9571440D01*
X2776480Y9587310D01*
X2784410Y9603190D01*
X2697100Y10269940D02*
X2689160Y10285810D01*
Y10301690D01*
X2697100Y10317560D01*
X2712980Y10325500D01*
X2728850Y10317560D01*
X2736790Y10301690D01*
Y10285810D01*
Y10301690D02*
X2744730Y10317560D01*
X2760600Y10325500D01*
X2776480Y10317560D01*
X2784410Y10301690D01*
Y10285810D01*
X2776480Y10269940D01*
X2697100Y10389000D02*
X2689160Y10404880D01*
Y10428690D01*
X2697100Y10444560D01*
X2712980Y10452500D01*
X2720910D01*
X2736790Y10444560D01*
X2744730Y10428690D01*
Y10389000D01*
X2784410D01*
Y10452500D01*
X2951100Y9444440D02*
X2943160Y9460310D01*
Y9476190D01*
X2951100Y9492060D01*
X2966980Y9500000D01*
X2982850Y9492060D01*
X2990790Y9476190D01*
Y9460310D01*
Y9476190D02*
X2998730Y9492060D01*
X3014600Y9500000D01*
X3030480Y9492060D01*
X3038410Y9476190D01*
Y9460310D01*
X3030480Y9444440D01*
X2943160Y9603190D02*
X3038410D01*
X2974910Y9563500D01*
Y9627000D01*
X2951100Y10269940D02*
X2943160Y10285810D01*
Y10301690D01*
X2951100Y10317560D01*
X2966980Y10325500D01*
X2982850Y10317560D01*
X2990790Y10301690D01*
Y10285810D01*
Y10301690D02*
X2998730Y10317560D01*
X3014600Y10325500D01*
X3030480Y10317560D01*
X3038410Y10301690D01*
Y10285810D01*
X3030480Y10269940D01*
X2951100Y10396940D02*
X2943160Y10412810D01*
Y10428690D01*
X2951100Y10444560D01*
X2966980Y10452500D01*
X2982850Y10444560D01*
X2990790Y10428690D01*
Y10412810D01*
Y10428690D02*
X2998730Y10444560D01*
X3014600Y10452500D01*
X3030480Y10444560D01*
X3038410Y10428690D01*
Y10412810D01*
X3030480Y10396940D01*
X3205100Y9444440D02*
X3197160Y9460310D01*
Y9476190D01*
X3205100Y9492060D01*
X3220980Y9500000D01*
X3236850Y9492060D01*
X3244790Y9476190D01*
Y9460310D01*
Y9476190D02*
X3252730Y9492060D01*
X3268600Y9500000D01*
X3284480Y9492060D01*
X3292410Y9476190D01*
Y9460310D01*
X3284480Y9444440D01*
X3197160Y9627000D02*
Y9563500D01*
X3252730Y9619060D01*
X3268600Y9627000D01*
X3284480Y9619060D01*
X3292410Y9603190D01*
Y9579380D01*
X3284480Y9563500D01*
X3205100Y10269940D02*
X3197160Y10285810D01*
Y10301690D01*
X3205100Y10317560D01*
X3220980Y10325500D01*
X3236850Y10317560D01*
X3244790Y10301690D01*
Y10285810D01*
Y10301690D02*
X3252730Y10317560D01*
X3268600Y10325500D01*
X3284480Y10317560D01*
X3292410Y10301690D01*
Y10285810D01*
X3284480Y10269940D01*
X3197160Y10404880D02*
Y10436630D01*
Y10420750D02*
X3292410D01*
X3276540Y10404880D01*
X3459100Y9444440D02*
X3451160Y9460310D01*
Y9476190D01*
X3459100Y9492060D01*
X3474980Y9500000D01*
X3490850Y9492060D01*
X3498790Y9476190D01*
Y9460310D01*
Y9476190D02*
X3506730Y9492060D01*
X3522600Y9500000D01*
X3538480Y9492060D01*
X3546410Y9476190D01*
Y9460310D01*
X3538480Y9444440D01*
X3459100Y9571440D02*
X3451160Y9587310D01*
Y9603190D01*
X3459100Y9619060D01*
X3474980Y9627000D01*
X3522600D01*
X3538480Y9619060D01*
X3546410Y9603190D01*
Y9587310D01*
X3538480Y9571440D01*
X3522600Y9563500D01*
X3474980D01*
X3459100Y9571440D01*
X3538480Y9619060D01*
X3451160Y10325500D02*
Y10262000D01*
X3506730Y10317560D01*
X3522600Y10325500D01*
X3538480Y10317560D01*
X3546410Y10301690D01*
Y10277880D01*
X3538480Y10262000D01*
X3451160Y10412810D02*
X3459100Y10428690D01*
X3474980Y10444560D01*
X3498790Y10452500D01*
X3522600D01*
X3538480Y10444560D01*
X3546410Y10428690D01*
Y10412810D01*
X3538480Y10396940D01*
X3522600Y10389000D01*
X3506730Y10396940D01*
X3498790Y10412810D01*
Y10428690D01*
X3506730Y10444560D01*
X3522600Y10452500D01*
X3705160Y9500000D02*
Y9436500D01*
X3760730Y9492060D01*
X3776600Y9500000D01*
X3792480Y9492060D01*
X3800410Y9476190D01*
Y9452380D01*
X3792480Y9436500D01*
X3752790Y9587310D02*
Y9603190D01*
X3760730Y9619060D01*
X3776600Y9627000D01*
X3792480Y9619060D01*
X3800410Y9603190D01*
Y9587310D01*
X3792480Y9571440D01*
X3776600Y9563500D01*
X3760730Y9571440D01*
X3752790Y9587310D01*
X3744850Y9571440D01*
X3728980Y9563500D01*
X3713100Y9571440D01*
X3705160Y9587310D01*
Y9603190D01*
X3713100Y9619060D01*
X3728980Y9627000D01*
X3744850Y9619060D01*
X3752790Y9603190D01*
X3705160Y10325500D02*
Y10262000D01*
X3760730Y10317560D01*
X3776600Y10325500D01*
X3792480Y10317560D01*
X3800410Y10301690D01*
Y10277880D01*
X3792480Y10262000D01*
X3705160Y10389000D02*
X3800410Y10452500D01*
Y10389000D01*
X3959160Y9500000D02*
Y9436500D01*
X4014730Y9492060D01*
X4030600Y9500000D01*
X4046480Y9492060D01*
X4054410Y9476190D01*
Y9452380D01*
X4046480Y9436500D01*
X3982980Y9563500D02*
X3998850Y9571440D01*
X4006790Y9587310D01*
Y9603190D01*
X3998850Y9619060D01*
X3982980Y9627000D01*
X3967100Y9619060D01*
X3959160Y9603190D01*
Y9587310D01*
X3967100Y9571440D01*
X3982980Y9563500D01*
X4006790D01*
X4030600Y9571440D01*
X4046480Y9587310D01*
X4054410Y9603190D01*
X3959160Y10325500D02*
Y10262000D01*
X4014730Y10317560D01*
X4030600Y10325500D01*
X4046480Y10317560D01*
X4054410Y10301690D01*
Y10277880D01*
X4046480Y10262000D01*
X3967100Y10389000D02*
X3959160Y10404880D01*
Y10428690D01*
X3967100Y10444560D01*
X3982980Y10452500D01*
X3990910D01*
X4006790Y10444560D01*
X4014730Y10428690D01*
Y10389000D01*
X4054410D01*
Y10452500D01*
X4213160Y9500000D02*
Y9436500D01*
X4268730Y9492060D01*
X4284600Y9500000D01*
X4300480Y9492060D01*
X4308410Y9476190D01*
Y9452380D01*
X4300480Y9436500D01*
X4213160Y9603190D02*
X4308410D01*
X4244910Y9563500D01*
Y9627000D01*
X4213160Y10325500D02*
Y10262000D01*
X4268730Y10317560D01*
X4284600Y10325500D01*
X4300480Y10317560D01*
X4308410Y10301690D01*
Y10277880D01*
X4300480Y10262000D01*
X4221100Y10396940D02*
X4213160Y10412810D01*
Y10428690D01*
X4221100Y10444560D01*
X4236980Y10452500D01*
X4252850Y10444560D01*
X4260790Y10428690D01*
Y10412810D01*
Y10428690D02*
X4268730Y10444560D01*
X4284600Y10452500D01*
X4300480Y10444560D01*
X4308410Y10428690D01*
Y10412810D01*
X4300480Y10396940D01*
X4467160Y9500000D02*
Y9436500D01*
X4522730Y9492060D01*
X4538600Y9500000D01*
X4554480Y9492060D01*
X4562410Y9476190D01*
Y9452380D01*
X4554480Y9436500D01*
X4467160Y9627000D02*
Y9563500D01*
X4522730Y9619060D01*
X4538600Y9627000D01*
X4554480Y9619060D01*
X4562410Y9603190D01*
Y9579380D01*
X4554480Y9563500D01*
X4467160Y10325500D02*
Y10262000D01*
X4522730Y10317560D01*
X4538600Y10325500D01*
X4554480Y10317560D01*
X4562410Y10301690D01*
Y10277880D01*
X4554480Y10262000D01*
X4467160Y10404880D02*
Y10436630D01*
Y10420750D02*
X4562410D01*
X4546540Y10404880D01*
X4721160Y9500000D02*
Y9436500D01*
X4776730Y9492060D01*
X4792600Y9500000D01*
X4808480Y9492060D01*
X4816410Y9476190D01*
Y9452380D01*
X4808480Y9436500D01*
X4729100Y9571440D02*
X4721160Y9587310D01*
Y9603190D01*
X4729100Y9619060D01*
X4744980Y9627000D01*
X4792600D01*
X4808480Y9619060D01*
X4816410Y9603190D01*
Y9587310D01*
X4808480Y9571440D01*
X4792600Y9563500D01*
X4744980D01*
X4729100Y9571440D01*
X4808480Y9619060D01*
X4721160Y10277880D02*
Y10309630D01*
Y10293750D02*
X4816410D01*
X4800540Y10277880D01*
X4721160Y10412810D02*
X4729100Y10428690D01*
X4744980Y10444560D01*
X4768790Y10452500D01*
X4792600D01*
X4808480Y10444560D01*
X4816410Y10428690D01*
Y10412810D01*
X4808480Y10396940D01*
X4792600Y10389000D01*
X4776730Y10396940D01*
X4768790Y10412810D01*
Y10428690D01*
X4776730Y10444560D01*
X4792600Y10452500D01*
X4975160Y9452380D02*
Y9484130D01*
Y9468250D02*
X5070410D01*
X5054540Y9452380D01*
X5022790Y9587310D02*
Y9603190D01*
X5030730Y9619060D01*
X5046600Y9627000D01*
X5062480Y9619060D01*
X5070410Y9603190D01*
Y9587310D01*
X5062480Y9571440D01*
X5046600Y9563500D01*
X5030730Y9571440D01*
X5022790Y9587310D01*
X5014850Y9571440D01*
X4998980Y9563500D01*
X4983100Y9571440D01*
X4975160Y9587310D01*
Y9603190D01*
X4983100Y9619060D01*
X4998980Y9627000D01*
X5014850Y9619060D01*
X5022790Y9603190D01*
X4975160Y10277880D02*
Y10309630D01*
Y10293750D02*
X5070410D01*
X5054540Y10277880D01*
X4975160Y10389000D02*
X5070410Y10452500D01*
Y10389000D01*
X5229160Y9452380D02*
Y9484130D01*
Y9468250D02*
X5324410D01*
X5308540Y9452380D01*
X5252980Y9563500D02*
X5268850Y9571440D01*
X5276790Y9587310D01*
Y9603190D01*
X5268850Y9619060D01*
X5252980Y9627000D01*
X5237100Y9619060D01*
X5229160Y9603190D01*
Y9587310D01*
X5237100Y9571440D01*
X5252980Y9563500D01*
X5276790D01*
X5300600Y9571440D01*
X5316480Y9587310D01*
X5324410Y9603190D01*
X5229160Y10277880D02*
Y10309630D01*
Y10293750D02*
X5324410D01*
X5308540Y10277880D01*
X5237100Y10389000D02*
X5229160Y10404880D01*
Y10428690D01*
X5237100Y10444560D01*
X5252980Y10452500D01*
X5260910D01*
X5276790Y10444560D01*
X5284730Y10428690D01*
Y10389000D01*
X5324410D01*
Y10452500D01*
X5433950Y4786710D02*
Y4850210D01*
Y4842280D02*
X5426010Y4850210D01*
X5410140D01*
X5402200Y4842280D01*
Y4818460D01*
Y4842280D02*
X5394260Y4850210D01*
X5378390D01*
X5370450Y4842280D01*
Y4786710D01*
X5299010Y4794650D02*
X5283140Y4786710D01*
X5267260D01*
X5251390Y4794650D01*
X5243450Y4810530D01*
X5251390Y4826400D01*
X5267260Y4834340D01*
X5283140D01*
X5267260D02*
X5251390Y4842280D01*
X5243450Y4858150D01*
X5251390Y4874030D01*
X5267260Y4881960D01*
X5283140D01*
X5299010Y4874030D01*
X5179950Y4810530D02*
X5172010Y4794650D01*
X5156140Y4786710D01*
X5140260D01*
X5124390Y4794650D01*
X5116450Y4810530D01*
Y4826400D01*
X5124390Y4842280D01*
X5140260Y4850210D01*
X5156140D01*
X5172010Y4842280D01*
X5179950Y4826400D01*
Y4786710D02*
Y4881960D01*
X5052950Y4786710D02*
Y4850210D01*
Y4826400D02*
X5045010Y4842280D01*
X5029140Y4850210D01*
X5013260D01*
X4997390Y4842280D01*
X4925950Y4810530D02*
X4918010Y4794650D01*
X4902140Y4786710D01*
X4886260D01*
X4870390Y4794650D01*
X4862450Y4810530D01*
Y4826400D01*
X4870390Y4842280D01*
X4886260Y4850210D01*
X4902140D01*
X4918010Y4842280D01*
X4925950Y4826400D01*
Y4786710D02*
Y4881960D01*
X5483160Y9452380D02*
Y9484130D01*
Y9468250D02*
X5578410D01*
X5562540Y9452380D01*
X5483160Y9603190D02*
X5578410D01*
X5514910Y9563500D01*
Y9627000D01*
X5483160Y10277880D02*
Y10309630D01*
Y10293750D02*
X5578410D01*
X5562540Y10277880D01*
X5491100Y10396940D02*
X5483160Y10412810D01*
Y10428690D01*
X5491100Y10444560D01*
X5506980Y10452500D01*
X5522850Y10444560D01*
X5530790Y10428690D01*
Y10412810D01*
Y10428690D02*
X5538730Y10444560D01*
X5554600Y10452500D01*
X5570480Y10444560D01*
X5578410Y10428690D01*
Y10412810D01*
X5570480Y10396940D01*
X5737160Y9452380D02*
Y9484130D01*
Y9468250D02*
X5832410D01*
X5816540Y9452380D01*
X5737160Y9627000D02*
Y9563500D01*
X5792730Y9619060D01*
X5808600Y9627000D01*
X5824480Y9619060D01*
X5832410Y9603190D01*
Y9579380D01*
X5824480Y9563500D01*
X5737160Y10277880D02*
Y10309630D01*
Y10293750D02*
X5832410D01*
X5816540Y10277880D01*
X5737160Y10404880D02*
Y10436630D01*
Y10420750D02*
X5832410D01*
X5816540Y10404880D01*
X5991160Y9452380D02*
Y9484130D01*
Y9468250D02*
X6086410D01*
X6070540Y9452380D01*
X5999100Y9571440D02*
X5991160Y9587310D01*
Y9603190D01*
X5999100Y9619060D01*
X6014980Y9627000D01*
X6062600D01*
X6078480Y9619060D01*
X6086410Y9603190D01*
Y9587310D01*
X6078480Y9571440D01*
X6062600Y9563500D01*
X6014980D01*
X5999100Y9571440D01*
X6078480Y9619060D01*
X5991160Y10382330D02*
X5999100Y10398210D01*
X6014980Y10414080D01*
X6038790Y10422020D01*
X6062600D01*
X6078480Y10414080D01*
X6086410Y10398210D01*
Y10382330D01*
X6078480Y10366460D01*
X6062600Y10358520D01*
X6046730Y10366460D01*
X6038790Y10382330D01*
Y10398210D01*
X6046730Y10414080D01*
X6062600Y10422020D01*
X6292790Y9555560D02*
Y9571440D01*
X6300730Y9587310D01*
X6316600Y9595250D01*
X6332480Y9587310D01*
X6340410Y9571440D01*
Y9555560D01*
X6332480Y9539690D01*
X6316600Y9531750D01*
X6300730Y9539690D01*
X6292790Y9555560D01*
X6284850Y9539690D01*
X6268980Y9531750D01*
X6253100Y9539690D01*
X6245160Y9555560D01*
Y9571440D01*
X6253100Y9587310D01*
X6268980Y9595250D01*
X6284850Y9587310D01*
X6292790Y9571440D01*
X6245160Y10357250D02*
X6340410Y10420750D01*
Y10357250D01*
X6522980Y9531750D02*
X6538850Y9539690D01*
X6546790Y9555560D01*
Y9571440D01*
X6538850Y9587310D01*
X6522980Y9595250D01*
X6507100Y9587310D01*
X6499160Y9571440D01*
Y9555560D01*
X6507100Y9539690D01*
X6522980Y9531750D01*
X6546790D01*
X6570600Y9539690D01*
X6586480Y9555560D01*
X6594410Y9571440D01*
X6507100Y10357250D02*
X6499160Y10373130D01*
Y10396940D01*
X6507100Y10412810D01*
X6522980Y10420750D01*
X6530910D01*
X6546790Y10412810D01*
X6554730Y10396940D01*
Y10357250D01*
X6594410D01*
Y10420750D01*
X6753160Y9571440D02*
X6848410D01*
X6784910Y9531750D01*
Y9595250D01*
X6761100Y10365190D02*
X6753160Y10381060D01*
Y10396940D01*
X6761100Y10412810D01*
X6776980Y10420750D01*
X6792850Y10412810D01*
X6800790Y10396940D01*
Y10381060D01*
Y10396940D02*
X6808730Y10412810D01*
X6824600Y10420750D01*
X6840480Y10412810D01*
X6848410Y10396940D01*
Y10381060D01*
X6840480Y10365190D01*
X6975410Y737000D02*
X7007160D01*
X7023040Y744940D01*
X7030980Y752880D01*
X7038910Y768750D01*
Y784630D01*
X7030980Y800500D01*
X7023040Y808440D01*
X7007160Y816380D01*
X6975410D01*
X6959540Y808440D01*
X6951600Y800500D01*
X6943660Y784630D01*
Y768750D01*
X6951600Y752880D01*
X6959540Y744940D01*
X6975410Y737000D01*
X6943660Y864000D02*
X7038910D01*
Y919560D01*
X7030980Y935440D01*
X7015100Y943380D01*
X6999230Y935440D01*
X6991290Y919560D01*
Y864000D01*
X6943660Y1030690D02*
X7038910D01*
Y991000D02*
Y1070380D01*
X6943660Y1141810D02*
Y1173560D01*
Y1157690D02*
X7038910D01*
Y1141810D02*
Y1173560D01*
X6975410Y1245000D02*
X7007160D01*
X7023040Y1252940D01*
X7030980Y1260880D01*
X7038910Y1276750D01*
Y1292630D01*
X7030980Y1308500D01*
X7023040Y1316440D01*
X7007160Y1324380D01*
X6975410D01*
X6959540Y1316440D01*
X6951600Y1308500D01*
X6943660Y1292630D01*
Y1276750D01*
X6951600Y1260880D01*
X6959540Y1252940D01*
X6975410Y1245000D01*
X6943660Y1372000D02*
X7038910D01*
X6943660Y1451380D01*
X7038910D01*
X6943660Y1626000D02*
X7038910Y1665690D01*
X6943660Y1705380D01*
X6983350Y1641880D02*
Y1689500D01*
X7038910Y1753000D02*
X6967480D01*
X6951600Y1760940D01*
X6943660Y1776810D01*
Y1808560D01*
X6951600Y1824440D01*
X6967480Y1832380D01*
X7038910D01*
X6943660Y1880000D02*
X7038910D01*
Y1927630D01*
X7030980Y1943500D01*
X7023040Y1951440D01*
X7007160Y1959380D01*
X6975410D01*
X6959540Y1951440D01*
X6951600Y1943500D01*
X6943660Y1927630D01*
Y1880000D01*
Y2030810D02*
Y2062560D01*
Y2046690D02*
X7038910D01*
Y2030810D02*
Y2062560D01*
X6975410Y2134000D02*
X7007160D01*
X7023040Y2141940D01*
X7030980Y2149880D01*
X7038910Y2165750D01*
Y2181630D01*
X7030980Y2197500D01*
X7023040Y2205440D01*
X7007160Y2213380D01*
X6975410D01*
X6959540Y2205440D01*
X6951600Y2197500D01*
X6943660Y2181630D01*
Y2165750D01*
X6951600Y2149880D01*
X6959540Y2141940D01*
X6975410Y2134000D01*
X6983350Y2443560D02*
Y2467380D01*
X6975410D01*
X6959540Y2459440D01*
X6951600Y2451500D01*
X6943660Y2435630D01*
Y2419750D01*
X6951600Y2403880D01*
X6959540Y2395940D01*
X6975410Y2388000D01*
X7007160D01*
X7023040Y2395940D01*
X7030980Y2403880D01*
X7038910Y2419750D01*
Y2435630D01*
X7030980Y2451500D01*
X7023040Y2459440D01*
X7007160Y2467380D01*
X6943660Y2515000D02*
X7038910D01*
Y2570560D01*
X7030980Y2586440D01*
X7015100Y2594380D01*
X6999230Y2586440D01*
X6991290Y2570560D01*
Y2515000D01*
X6967480Y2642000D02*
X6983350Y2649940D01*
X6991290Y2665810D01*
Y2681690D01*
X6983350Y2697560D01*
X6967480Y2705500D01*
X6951600Y2697560D01*
X6943660Y2681690D01*
Y2665810D01*
X6951600Y2649940D01*
X6967480Y2642000D01*
X6991290D01*
X7015100Y2649940D01*
X7030980Y2665810D01*
X7038910Y2681690D01*
X6943660Y2800750D02*
X6951600Y2808690D01*
X6959540D01*
X6983350Y3078560D02*
Y3102380D01*
X6975410D01*
X6959540Y3094440D01*
X6951600Y3086500D01*
X6943660Y3070630D01*
Y3054750D01*
X6951600Y3038880D01*
X6959540Y3030940D01*
X6975410Y3023000D01*
X7007160D01*
X7023040Y3030940D01*
X7030980Y3038880D01*
X7038910Y3054750D01*
Y3070630D01*
X7030980Y3086500D01*
X7023040Y3094440D01*
X7007160Y3102380D01*
X6943660Y3150000D02*
X7038910D01*
Y3205560D01*
X7030980Y3221440D01*
X7015100Y3229380D01*
X6999230Y3221440D01*
X6991290Y3205560D01*
Y3150000D01*
X6943660Y3277000D02*
X7038910Y3340500D01*
Y3277000D01*
X6943660Y3586560D02*
X6967480Y3570690D01*
X7023040D01*
X7038910Y3586560D01*
X6967480Y3658000D02*
X6951600Y3665940D01*
X6943660Y3681810D01*
Y3697690D01*
X6951600Y3713560D01*
X6967480Y3721500D01*
X6983350D01*
X6999230Y3713560D01*
X7007160Y3697690D01*
Y3681810D01*
X6999230Y3665940D01*
X6983350Y3658000D01*
X6967480D01*
X7007160Y3785000D02*
X6919850D01*
X6967480D02*
X6951600Y3792940D01*
X6943660Y3808810D01*
Y3824690D01*
X6951600Y3840560D01*
X6967480Y3848500D01*
X6983350D01*
X6999230Y3840560D01*
X7007160Y3824690D01*
Y3808810D01*
X6999230Y3792940D01*
X6983350Y3785000D01*
X6967480D01*
X7007160Y3925230D02*
Y3962270D01*
X7023040Y3943750D02*
X6951600D01*
X6943660Y3951690D01*
Y3959630D01*
X6951600Y3967560D01*
X6943660Y4070750D02*
X7007160D01*
X7030980D02*
X6967480Y4166000D02*
X6951600Y4173940D01*
X6943660Y4189810D01*
Y4205690D01*
X6951600Y4221560D01*
X6967480Y4229500D01*
X6983350D01*
X6999230Y4221560D01*
X7007160Y4205690D01*
Y4189810D01*
X6999230Y4173940D01*
X6983350Y4166000D01*
X6967480D01*
X6943660Y4293000D02*
X7007160D01*
X6983350D02*
X6999230Y4300940D01*
X7007160Y4316810D01*
Y4332690D01*
X6999230Y4348560D01*
X6983350Y4356500D01*
X6943660D01*
X6999230Y4420000D02*
X7007160Y4435880D01*
Y4459690D01*
X6999230Y4475560D01*
X6983350Y4483500D01*
X6959540D01*
X6951600Y4475560D01*
X6943660Y4459690D01*
Y4443810D01*
X6951600Y4427940D01*
X6959540Y4420000D01*
X6967480D01*
X6975410Y4427940D01*
X6983350Y4443810D01*
Y4459690D01*
X6975410Y4475560D01*
X6967480Y4483500D01*
X6959540D02*
X6943660D01*
Y4586690D02*
Y4578750D01*
X7038910D01*
X6943660Y4697810D02*
X6967480Y4713690D01*
X7023040D01*
X7038910Y4697810D01*
X7007160Y9595250D02*
Y9531750D01*
X7062730Y9587310D01*
X7078600Y9595250D01*
X7094480Y9587310D01*
X7102410Y9571440D01*
Y9547630D01*
X7094480Y9531750D01*
X7007160Y10373130D02*
Y10404880D01*
Y10389000D02*
X7102410D01*
X7086540Y10373130D01*
X7229410Y737000D02*
X7261160D01*
X7277040Y744940D01*
X7284980Y752880D01*
X7292910Y768750D01*
Y784630D01*
X7284980Y800500D01*
X7277040Y808440D01*
X7261160Y816380D01*
X7229410D01*
X7213540Y808440D01*
X7205600Y800500D01*
X7197660Y784630D01*
Y768750D01*
X7205600Y752880D01*
X7213540Y744940D01*
X7229410Y737000D01*
X7197660Y864000D02*
X7292910D01*
Y919560D01*
X7284980Y935440D01*
X7269100Y943380D01*
X7253230Y935440D01*
X7245290Y919560D01*
Y864000D01*
X7197660Y1030690D02*
X7292910D01*
Y991000D02*
Y1070380D01*
X7197660Y1141810D02*
Y1173560D01*
Y1157690D02*
X7292910D01*
Y1141810D02*
Y1173560D01*
X7229410Y1245000D02*
X7261160D01*
X7277040Y1252940D01*
X7284980Y1260880D01*
X7292910Y1276750D01*
Y1292630D01*
X7284980Y1308500D01*
X7277040Y1316440D01*
X7261160Y1324380D01*
X7229410D01*
X7213540Y1316440D01*
X7205600Y1308500D01*
X7197660Y1292630D01*
Y1276750D01*
X7205600Y1260880D01*
X7213540Y1252940D01*
X7229410Y1245000D01*
X7197660Y1372000D02*
X7292910D01*
X7197660Y1451380D01*
X7292910D01*
X7197660Y1626000D02*
X7292910D01*
Y1681560D01*
X7284980Y1697440D01*
X7269100Y1705380D01*
X7253230Y1697440D01*
X7245290Y1681560D01*
Y1626000D01*
Y1681560D02*
X7197660Y1705380D01*
Y1792690D02*
X7292910D01*
Y1753000D02*
Y1832380D01*
X7213540Y1959380D02*
X7205600Y1951440D01*
X7197660Y1935560D01*
Y1911750D01*
X7205600Y1895880D01*
X7213540Y1887940D01*
X7229410Y1880000D01*
X7261160D01*
X7277040Y1887940D01*
X7284980Y1895880D01*
X7292910Y1911750D01*
Y1935560D01*
X7284980Y1951440D01*
X7277040Y1959380D01*
X7197660Y2134000D02*
X7292910Y2173690D01*
X7197660Y2213380D01*
X7237350Y2149880D02*
Y2197500D01*
X7292910Y2261000D02*
X7221480D01*
X7205600Y2268940D01*
X7197660Y2284810D01*
Y2316560D01*
X7205600Y2332440D01*
X7221480Y2340380D01*
X7292910D01*
X7197660Y2427690D02*
X7292910D01*
Y2388000D02*
Y2467380D01*
X7229410Y2515000D02*
X7261160D01*
X7277040Y2522940D01*
X7284980Y2530880D01*
X7292910Y2546750D01*
Y2562630D01*
X7284980Y2578500D01*
X7277040Y2586440D01*
X7261160Y2594380D01*
X7229410D01*
X7213540Y2586440D01*
X7205600Y2578500D01*
X7197660Y2562630D01*
Y2546750D01*
X7205600Y2530880D01*
X7213540Y2522940D01*
X7229410Y2515000D01*
X7197660Y2824560D02*
X7221480Y2808690D01*
X7277040D01*
X7292910Y2824560D01*
X7221480Y2896000D02*
X7205600Y2903940D01*
X7197660Y2919810D01*
Y2935690D01*
X7205600Y2951560D01*
X7221480Y2959500D01*
X7237350D01*
X7253230Y2951560D01*
X7261160Y2935690D01*
Y2919810D01*
X7253230Y2903940D01*
X7237350Y2896000D01*
X7221480D01*
X7261160Y3023000D02*
X7173850D01*
X7221480D02*
X7205600Y3030940D01*
X7197660Y3046810D01*
Y3062690D01*
X7205600Y3078560D01*
X7221480Y3086500D01*
X7237350D01*
X7253230Y3078560D01*
X7261160Y3062690D01*
Y3046810D01*
X7253230Y3030940D01*
X7237350Y3023000D01*
X7221480D01*
X7261160Y3163230D02*
Y3200270D01*
X7277040Y3181750D02*
X7205600D01*
X7197660Y3189690D01*
Y3197630D01*
X7205600Y3205560D01*
X7197660Y3308750D02*
X7261160D01*
X7284980D02*
X7221480Y3404000D02*
X7205600Y3411940D01*
X7197660Y3427810D01*
Y3443690D01*
X7205600Y3459560D01*
X7221480Y3467500D01*
X7237350D01*
X7253230Y3459560D01*
X7261160Y3443690D01*
Y3427810D01*
X7253230Y3411940D01*
X7237350Y3404000D01*
X7221480D01*
X7197660Y3531000D02*
X7261160D01*
X7237350D02*
X7253230Y3538940D01*
X7261160Y3554810D01*
Y3570690D01*
X7253230Y3586560D01*
X7237350Y3594500D01*
X7197660D01*
X7253230Y3658000D02*
X7261160Y3673880D01*
Y3697690D01*
X7253230Y3713560D01*
X7237350Y3721500D01*
X7213540D01*
X7205600Y3713560D01*
X7197660Y3697690D01*
Y3681810D01*
X7205600Y3665940D01*
X7213540Y3658000D01*
X7221480D01*
X7229410Y3665940D01*
X7237350Y3681810D01*
Y3697690D01*
X7229410Y3713560D01*
X7221480Y3721500D01*
X7213540D02*
X7197660D01*
Y3824690D02*
Y3816750D01*
X7292910D01*
X7197660Y3935810D02*
X7221480Y3951690D01*
X7277040D01*
X7292910Y3935810D01*
X7483410Y737000D02*
X7515160D01*
X7531040Y744940D01*
X7538980Y752880D01*
X7546910Y768750D01*
Y784630D01*
X7538980Y800500D01*
X7531040Y808440D01*
X7515160Y816380D01*
X7483410D01*
X7467540Y808440D01*
X7459600Y800500D01*
X7451660Y784630D01*
Y768750D01*
X7459600Y752880D01*
X7467540Y744940D01*
X7483410Y737000D01*
X7451660Y864000D02*
X7546910D01*
Y919560D01*
X7538980Y935440D01*
X7523100Y943380D01*
X7507230Y935440D01*
X7499290Y919560D01*
Y864000D01*
X7451660Y1030690D02*
X7546910D01*
Y991000D02*
Y1070380D01*
X7451660Y1141810D02*
Y1173560D01*
Y1157690D02*
X7546910D01*
Y1141810D02*
Y1173560D01*
X7483410Y1245000D02*
X7515160D01*
X7531040Y1252940D01*
X7538980Y1260880D01*
X7546910Y1276750D01*
Y1292630D01*
X7538980Y1308500D01*
X7531040Y1316440D01*
X7515160Y1324380D01*
X7483410D01*
X7467540Y1316440D01*
X7459600Y1308500D01*
X7451660Y1292630D01*
Y1276750D01*
X7459600Y1260880D01*
X7467540Y1252940D01*
X7483410Y1245000D01*
X7451660Y1372000D02*
X7546910D01*
X7451660Y1451380D01*
X7546910D01*
X7451660Y1626000D02*
X7546910D01*
X7499290D02*
Y1649810D01*
X7546910Y1705380D01*
X7499290Y1649810D02*
X7451660Y1705380D01*
Y1753000D02*
X7546910D01*
Y1832380D01*
X7499290Y1816500D02*
Y1753000D01*
X7451660D02*
Y1832380D01*
Y1919690D02*
X7499290D01*
X7546910Y1880000D01*
X7499290Y1919690D02*
X7546910Y1959380D01*
X7499290Y2062560D02*
X7491350Y2078440D01*
X7475480Y2086380D01*
X7459600Y2078440D01*
X7451660Y2062560D01*
Y2007000D01*
X7546910D01*
Y2062560D01*
X7538980Y2078440D01*
X7523100Y2086380D01*
X7507230Y2078440D01*
X7499290Y2062560D01*
Y2007000D01*
X7483410Y2134000D02*
X7515160D01*
X7531040Y2141940D01*
X7538980Y2149880D01*
X7546910Y2165750D01*
Y2181630D01*
X7538980Y2197500D01*
X7531040Y2205440D01*
X7515160Y2213380D01*
X7483410D01*
X7467540Y2205440D01*
X7459600Y2197500D01*
X7451660Y2181630D01*
Y2165750D01*
X7459600Y2149880D01*
X7467540Y2141940D01*
X7483410Y2134000D01*
X7451660Y2261000D02*
X7546910Y2300690D01*
X7451660Y2340380D01*
X7491350Y2276880D02*
Y2324500D01*
X7451660Y2388000D02*
X7546910D01*
Y2443560D01*
X7538980Y2459440D01*
X7523100Y2467380D01*
X7507230Y2459440D01*
X7499290Y2443560D01*
Y2388000D01*
Y2443560D02*
X7451660Y2467380D01*
Y2515000D02*
X7546910D01*
Y2562630D01*
X7538980Y2578500D01*
X7531040Y2586440D01*
X7515160Y2594380D01*
X7483410D01*
X7467540Y2586440D01*
X7459600Y2578500D01*
X7451660Y2562630D01*
Y2515000D01*
X7546910Y2769000D02*
X7475480D01*
X7459600Y2776940D01*
X7451660Y2792810D01*
Y2824560D01*
X7459600Y2840440D01*
X7475480Y2848380D01*
X7546910D01*
X7451660Y2896000D02*
X7546910D01*
X7499290D02*
Y2919810D01*
X7546910Y2975380D01*
X7499290Y2919810D02*
X7451660Y2975380D01*
Y3023000D02*
X7546910Y3102380D01*
Y3150000D02*
X7475480D01*
X7459600Y3157940D01*
X7451660Y3173810D01*
Y3205560D01*
X7459600Y3221440D01*
X7475480Y3229380D01*
X7546910D01*
X7475480Y3277000D02*
X7459600Y3284940D01*
X7451660Y3300810D01*
Y3332560D01*
X7459600Y3348440D01*
X7475480Y3356380D01*
X7491350Y3348440D01*
X7499290Y3332560D01*
Y3300810D01*
X7507230Y3284940D01*
X7523100Y3277000D01*
X7538980Y3284940D01*
X7546910Y3300810D01*
Y3332560D01*
X7538980Y3348440D01*
X7523100Y3356380D01*
X7451660Y3404000D02*
X7546910Y3483380D01*
X7499290Y3586560D02*
X7491350Y3602440D01*
X7475480Y3610380D01*
X7459600Y3602440D01*
X7451660Y3586560D01*
Y3531000D01*
X7546910D01*
Y3586560D01*
X7538980Y3602440D01*
X7523100Y3610380D01*
X7507230Y3602440D01*
X7499290Y3586560D01*
Y3531000D01*
X7451660Y3658000D02*
X7546910D01*
Y3737380D01*
X7499290Y3721500D02*
Y3658000D01*
X7451660D02*
Y3737380D01*
Y3785000D02*
X7546910Y3864380D01*
X7451660Y3912000D02*
X7546910D01*
Y3991380D01*
X7499290Y3975500D02*
Y3912000D01*
X7451660D02*
Y3991380D01*
X7475480Y4039000D02*
X7459600Y4046940D01*
X7451660Y4062810D01*
Y4094560D01*
X7459600Y4110440D01*
X7475480Y4118380D01*
X7491350Y4110440D01*
X7499290Y4094560D01*
Y4062810D01*
X7507230Y4046940D01*
X7523100Y4039000D01*
X7538980Y4046940D01*
X7546910Y4062810D01*
Y4094560D01*
X7538980Y4110440D01*
X7523100Y4118380D01*
X7451660Y4166000D02*
X7546910Y4245380D01*
X7451660Y4293000D02*
X7546910D01*
Y4372380D01*
X7499290Y4356500D02*
Y4293000D01*
X7451660Y4420000D02*
X7546910D01*
Y4475560D01*
X7538980Y4491440D01*
X7523100Y4499380D01*
X7507230Y4491440D01*
X7499290Y4475560D01*
Y4420000D01*
Y4475560D02*
X7451660Y4499380D01*
Y4547000D02*
X7546910Y4626380D01*
X7491350Y4729560D02*
Y4753380D01*
X7483410D01*
X7467540Y4745440D01*
X7459600Y4737500D01*
X7451660Y4721630D01*
Y4705750D01*
X7459600Y4689880D01*
X7467540Y4681940D01*
X7483410Y4674000D01*
X7515160D01*
X7531040Y4681940D01*
X7538980Y4689880D01*
X7546910Y4705750D01*
Y4721630D01*
X7538980Y4737500D01*
X7531040Y4745440D01*
X7515160Y4753380D01*
X7451660Y4801000D02*
X7546910D01*
Y4856560D01*
X7538980Y4872440D01*
X7523100Y4880380D01*
X7507230Y4872440D01*
X7499290Y4856560D01*
Y4801000D01*
Y4856560D02*
X7451660Y4880380D01*
Y4928000D02*
X7546910Y5007380D01*
X7451660Y5078810D02*
Y5110560D01*
Y5094690D02*
X7546910D01*
Y5078810D02*
Y5110560D01*
X7451660Y5221690D02*
X7546910D01*
Y5182000D02*
Y5261380D01*
X7737410Y737000D02*
X7769160D01*
X7785040Y744940D01*
X7792980Y752880D01*
X7800910Y768750D01*
Y784630D01*
X7792980Y800500D01*
X7785040Y808440D01*
X7769160Y816380D01*
X7737410D01*
X7721540Y808440D01*
X7713600Y800500D01*
X7705660Y784630D01*
Y768750D01*
X7713600Y752880D01*
X7721540Y744940D01*
X7737410Y737000D01*
X7705660Y864000D02*
X7800910D01*
Y919560D01*
X7792980Y935440D01*
X7777100Y943380D01*
X7761230Y935440D01*
X7753290Y919560D01*
Y864000D01*
X7705660Y1030690D02*
X7800910D01*
Y991000D02*
Y1070380D01*
X7705660Y1141810D02*
Y1173560D01*
Y1157690D02*
X7800910D01*
Y1141810D02*
Y1173560D01*
X7737410Y1245000D02*
X7769160D01*
X7785040Y1252940D01*
X7792980Y1260880D01*
X7800910Y1276750D01*
Y1292630D01*
X7792980Y1308500D01*
X7785040Y1316440D01*
X7769160Y1324380D01*
X7737410D01*
X7721540Y1316440D01*
X7713600Y1308500D01*
X7705660Y1292630D01*
Y1276750D01*
X7713600Y1260880D01*
X7721540Y1252940D01*
X7737410Y1245000D01*
X7705660Y1372000D02*
X7800910D01*
X7705660Y1451380D01*
X7800910D01*
X7729480Y1626000D02*
X7713600Y1633940D01*
X7705660Y1649810D01*
Y1681560D01*
X7713600Y1697440D01*
X7729480Y1705380D01*
X7745350Y1697440D01*
X7753290Y1681560D01*
Y1649810D01*
X7761230Y1633940D01*
X7777100Y1626000D01*
X7792980Y1633940D01*
X7800910Y1649810D01*
Y1681560D01*
X7792980Y1697440D01*
X7777100Y1705380D01*
X7705660Y1753000D02*
X7800910D01*
Y1800630D01*
X7792980Y1816500D01*
X7785040Y1824440D01*
X7769160Y1832380D01*
X7737410D01*
X7721540Y1824440D01*
X7713600Y1816500D01*
X7705660Y1800630D01*
Y1753000D01*
X7721540Y1959380D02*
X7713600Y1951440D01*
X7705660Y1935560D01*
Y1911750D01*
X7713600Y1895880D01*
X7721540Y1887940D01*
X7737410Y1880000D01*
X7769160D01*
X7785040Y1887940D01*
X7792980Y1895880D01*
X7800910Y1911750D01*
Y1935560D01*
X7792980Y1951440D01*
X7785040Y1959380D01*
X7705660Y2007000D02*
X7800910Y2046690D01*
X7705660Y2086380D01*
X7745350Y2022880D02*
Y2070500D01*
X7705660Y2134000D02*
X7800910D01*
Y2189560D01*
X7792980Y2205440D01*
X7777100Y2213380D01*
X7761230Y2205440D01*
X7753290Y2189560D01*
Y2134000D01*
Y2189560D02*
X7705660Y2213380D01*
Y2261000D02*
X7800910D01*
Y2308630D01*
X7792980Y2324500D01*
X7785040Y2332440D01*
X7769160Y2340380D01*
X7737410D01*
X7721540Y2332440D01*
X7713600Y2324500D01*
X7705660Y2308630D01*
Y2261000D01*
X7745350Y2570560D02*
Y2594380D01*
X7737410D01*
X7721540Y2586440D01*
X7713600Y2578500D01*
X7705660Y2562630D01*
Y2546750D01*
X7713600Y2530880D01*
X7721540Y2522940D01*
X7737410Y2515000D01*
X7769160D01*
X7785040Y2522940D01*
X7792980Y2530880D01*
X7800910Y2546750D01*
Y2562630D01*
X7792980Y2578500D01*
X7785040Y2586440D01*
X7769160Y2594380D01*
X7705660Y2642000D02*
X7800910D01*
Y2697560D01*
X7792980Y2713440D01*
X7777100Y2721380D01*
X7761230Y2713440D01*
X7753290Y2697560D01*
Y2642000D01*
X7705660Y2784880D02*
Y2816630D01*
Y2800750D02*
X7800910D01*
X7785040Y2784880D01*
X7713600Y2903940D02*
X7705660Y2919810D01*
Y2935690D01*
X7713600Y2951560D01*
X7729480Y2959500D01*
X7745350Y2951560D01*
X7753290Y2935690D01*
Y2919810D01*
Y2935690D02*
X7761230Y2951560D01*
X7777100Y2959500D01*
X7792980Y2951560D01*
X7800910Y2935690D01*
Y2919810D01*
X7792980Y2903940D01*
X7705660Y3054750D02*
X7713600Y3062690D01*
X7721540D01*
X7745350Y3332560D02*
Y3356380D01*
X7737410D01*
X7721540Y3348440D01*
X7713600Y3340500D01*
X7705660Y3324630D01*
Y3308750D01*
X7713600Y3292880D01*
X7721540Y3284940D01*
X7737410Y3277000D01*
X7769160D01*
X7785040Y3284940D01*
X7792980Y3292880D01*
X7800910Y3308750D01*
Y3324630D01*
X7792980Y3340500D01*
X7785040Y3348440D01*
X7769160Y3356380D01*
X7705660Y3404000D02*
X7800910D01*
Y3459560D01*
X7792980Y3475440D01*
X7777100Y3483380D01*
X7761230Y3475440D01*
X7753290Y3459560D01*
Y3404000D01*
X7705660Y3546880D02*
Y3578630D01*
Y3562750D02*
X7800910D01*
X7785040Y3546880D01*
X7713600Y3665940D02*
X7705660Y3681810D01*
Y3697690D01*
X7713600Y3713560D01*
X7729480Y3721500D01*
X7777100D01*
X7792980Y3713560D01*
X7800910Y3697690D01*
Y3681810D01*
X7792980Y3665940D01*
X7777100Y3658000D01*
X7729480D01*
X7713600Y3665940D01*
X7792980Y3713560D01*
X7705660Y3816750D02*
X7713600Y3824690D01*
X7721540D01*
X7745350Y4094560D02*
Y4118380D01*
X7737410D01*
X7721540Y4110440D01*
X7713600Y4102500D01*
X7705660Y4086630D01*
Y4070750D01*
X7713600Y4054880D01*
X7721540Y4046940D01*
X7737410Y4039000D01*
X7769160D01*
X7785040Y4046940D01*
X7792980Y4054880D01*
X7800910Y4070750D01*
Y4086630D01*
X7792980Y4102500D01*
X7785040Y4110440D01*
X7769160Y4118380D01*
X7705660Y4166000D02*
X7800910D01*
Y4221560D01*
X7792980Y4237440D01*
X7777100Y4245380D01*
X7761230Y4237440D01*
X7753290Y4221560D01*
Y4166000D01*
X7705660Y4308880D02*
Y4340630D01*
Y4324750D02*
X7800910D01*
X7785040Y4308880D01*
X7705660Y4435880D02*
Y4467630D01*
Y4451750D02*
X7800910D01*
X7785040Y4435880D01*
X7705660Y4578750D02*
X7713600Y4586690D01*
X7721540D01*
X7745350Y4856560D02*
Y4880380D01*
X7737410D01*
X7721540Y4872440D01*
X7713600Y4864500D01*
X7705660Y4848630D01*
Y4832750D01*
X7713600Y4816880D01*
X7721540Y4808940D01*
X7737410Y4801000D01*
X7769160D01*
X7785040Y4808940D01*
X7792980Y4816880D01*
X7800910Y4832750D01*
Y4848630D01*
X7792980Y4864500D01*
X7785040Y4872440D01*
X7769160Y4880380D01*
X7705660Y4928000D02*
X7800910D01*
Y4983560D01*
X7792980Y4999440D01*
X7777100Y5007380D01*
X7761230Y4999440D01*
X7753290Y4983560D01*
Y4928000D01*
X7705660Y5070880D02*
Y5102630D01*
Y5086750D02*
X7800910D01*
X7785040Y5070880D01*
X7705660Y5245500D02*
Y5182000D01*
X7761230Y5237560D01*
X7777100Y5245500D01*
X7792980Y5237560D01*
X7800910Y5221690D01*
Y5197880D01*
X7792980Y5182000D01*
X7991410Y737000D02*
X8023160D01*
X8039040Y744940D01*
X8046980Y752880D01*
X8054910Y768750D01*
Y784630D01*
X8046980Y800500D01*
X8039040Y808440D01*
X8023160Y816380D01*
X7991410D01*
X7975540Y808440D01*
X7967600Y800500D01*
X7959660Y784630D01*
Y768750D01*
X7967600Y752880D01*
X7975540Y744940D01*
X7991410Y737000D01*
X7959660Y864000D02*
X8054910D01*
Y919560D01*
X8046980Y935440D01*
X8031100Y943380D01*
X8015230Y935440D01*
X8007290Y919560D01*
Y864000D01*
X7959660Y1030690D02*
X8054910D01*
Y991000D02*
Y1070380D01*
X7959660Y1141810D02*
Y1173560D01*
Y1157690D02*
X8054910D01*
Y1141810D02*
Y1173560D01*
X7991410Y1245000D02*
X8023160D01*
X8039040Y1252940D01*
X8046980Y1260880D01*
X8054910Y1276750D01*
Y1292630D01*
X8046980Y1308500D01*
X8039040Y1316440D01*
X8023160Y1324380D01*
X7991410D01*
X7975540Y1316440D01*
X7967600Y1308500D01*
X7959660Y1292630D01*
Y1276750D01*
X7967600Y1260880D01*
X7975540Y1252940D01*
X7991410Y1245000D01*
X7959660Y1372000D02*
X8054910D01*
X7959660Y1451380D01*
X8054910D01*
X7983480Y1626000D02*
X7967600Y1633940D01*
X7959660Y1649810D01*
Y1681560D01*
X7967600Y1697440D01*
X7983480Y1705380D01*
X7999350Y1697440D01*
X8007290Y1681560D01*
Y1649810D01*
X8015230Y1633940D01*
X8031100Y1626000D01*
X8046980Y1633940D01*
X8054910Y1649810D01*
Y1681560D01*
X8046980Y1697440D01*
X8031100Y1705380D01*
X7959660Y1792690D02*
X8007290D01*
X8054910Y1753000D01*
X8007290Y1792690D02*
X8054910Y1832380D01*
X7983480Y1880000D02*
X7967600Y1887940D01*
X7959660Y1903810D01*
Y1935560D01*
X7967600Y1951440D01*
X7983480Y1959380D01*
X7999350Y1951440D01*
X8007290Y1935560D01*
Y1903810D01*
X8015230Y1887940D01*
X8031100Y1880000D01*
X8046980Y1887940D01*
X8054910Y1903810D01*
Y1935560D01*
X8046980Y1951440D01*
X8031100Y1959380D01*
X7959660Y2046690D02*
X8054910D01*
Y2007000D02*
Y2086380D01*
X7959660Y2134000D02*
X8054910D01*
Y2213380D01*
X8007290Y2197500D02*
Y2134000D01*
X7959660D02*
Y2213380D01*
Y2261000D02*
X8054910D01*
X8007290Y2300690D01*
X8054910Y2340380D01*
X7959660D01*
Y2538810D02*
Y2570560D01*
Y2554690D02*
X8054910D01*
Y2538810D02*
Y2570560D01*
X7959660Y2705500D02*
Y2642000D01*
X8015230Y2697560D01*
X8031100Y2705500D01*
X8046980Y2697560D01*
X8054910Y2681690D01*
Y2657880D01*
X8046980Y2642000D01*
X7975540Y2848380D02*
X7967600Y2840440D01*
X7959660Y2824560D01*
Y2800750D01*
X7967600Y2784880D01*
X7975540Y2776940D01*
X7991410Y2769000D01*
X8023160D01*
X8039040Y2776940D01*
X8046980Y2784880D01*
X8054910Y2800750D01*
Y2824560D01*
X8046980Y2840440D01*
X8039040Y2848380D01*
X7999350Y3078560D02*
Y3102380D01*
X7991410D01*
X7975540Y3094440D01*
X7967600Y3086500D01*
X7959660Y3070630D01*
Y3054750D01*
X7967600Y3038880D01*
X7975540Y3030940D01*
X7991410Y3023000D01*
X8023160D01*
X8039040Y3030940D01*
X8046980Y3038880D01*
X8054910Y3054750D01*
Y3070630D01*
X8046980Y3086500D01*
X8039040Y3094440D01*
X8023160Y3102380D01*
X7959660Y3150000D02*
X8054910D01*
Y3205560D01*
X8046980Y3221440D01*
X8031100Y3229380D01*
X8015230Y3221440D01*
X8007290Y3205560D01*
Y3150000D01*
X7959660Y3292880D02*
Y3324630D01*
Y3308750D02*
X8054910D01*
X8039040Y3292880D01*
X7959660Y3443690D02*
X8054910D01*
X7991410Y3404000D01*
Y3467500D01*
X7959660Y3562750D02*
X7967600Y3570690D01*
X7975540D01*
X7999350Y3713560D02*
Y3737380D01*
X7991410D01*
X7975540Y3729440D01*
X7967600Y3721500D01*
X7959660Y3705630D01*
Y3689750D01*
X7967600Y3673880D01*
X7975540Y3665940D01*
X7991410Y3658000D01*
X8023160D01*
X8039040Y3665940D01*
X8046980Y3673880D01*
X8054910Y3689750D01*
Y3705630D01*
X8046980Y3721500D01*
X8039040Y3729440D01*
X8023160Y3737380D01*
X7959660Y3785000D02*
X8054910D01*
Y3840560D01*
X8046980Y3856440D01*
X8031100Y3864380D01*
X8015230Y3856440D01*
X8007290Y3840560D01*
Y3785000D01*
X7959660Y3927880D02*
Y3959630D01*
Y3943750D02*
X8054910D01*
X8039040Y3927880D01*
X7967600Y4039000D02*
X7959660Y4054880D01*
Y4078690D01*
X7967600Y4094560D01*
X7983480Y4102500D01*
X7991410D01*
X8007290Y4094560D01*
X8015230Y4078690D01*
Y4039000D01*
X8054910D01*
Y4102500D01*
X7959660Y4348560D02*
X7983480Y4332690D01*
X8039040D01*
X8054910Y4348560D01*
X7959660Y4451750D02*
X8023160D01*
X8046980D02*
X7959660Y4578750D02*
X8039040D01*
X8046980Y4586690D01*
Y4594630D01*
X8039040Y4602560D01*
X8015230Y4562880D02*
Y4594630D01*
X7959660Y4801000D02*
X8054910D01*
Y4856560D01*
X8046980Y4872440D01*
X8031100Y4880380D01*
X8015230Y4872440D01*
X8007290Y4856560D01*
Y4801000D01*
Y4856560D02*
X7959660Y4880380D01*
Y4967690D02*
X8054910D01*
Y4928000D02*
Y5007380D01*
X7975540Y5134380D02*
X7967600Y5126440D01*
X7959660Y5110560D01*
Y5086750D01*
X7967600Y5070880D01*
X7975540Y5062940D01*
X7991410Y5055000D01*
X8023160D01*
X8039040Y5062940D01*
X8046980Y5070880D01*
X8054910Y5086750D01*
Y5110560D01*
X8046980Y5126440D01*
X8039040Y5134380D01*
X7959660Y5340750D02*
X8023160D01*
X8046980D02*
X7959660Y5436000D02*
X8023160D01*
X7999350D02*
X8015230Y5443940D01*
X8023160Y5459810D01*
Y5475690D01*
X8015230Y5491560D01*
X7999350Y5499500D01*
X7959660D01*
X7967600Y5563000D02*
X7959660Y5578880D01*
Y5610630D01*
X7967600Y5626500D01*
X7983480D01*
X7991410Y5610630D01*
Y5578880D01*
X7999350Y5563000D01*
X8015230D01*
X8023160Y5578880D01*
Y5610630D01*
X8015230Y5626500D01*
X8023160Y5703230D02*
Y5740270D01*
X8039040Y5721750D02*
X7967600D01*
X7959660Y5729690D01*
Y5737630D01*
X7967600Y5745560D01*
X8015230Y5817000D02*
X8023160Y5832880D01*
Y5856690D01*
X8015230Y5872560D01*
X7999350Y5880500D01*
X7975540D01*
X7967600Y5872560D01*
X7959660Y5856690D01*
Y5840810D01*
X7967600Y5824940D01*
X7975540Y5817000D01*
X7983480D01*
X7991410Y5824940D01*
X7999350Y5840810D01*
Y5856690D01*
X7991410Y5872560D01*
X7983480Y5880500D01*
X7975540D02*
X7959660D01*
Y5983690D02*
Y5975750D01*
X8054910D01*
X7959660Y6110690D02*
Y6102750D01*
X8054910D01*
X7967600Y6261500D02*
X7959660Y6253560D01*
Y6237690D01*
Y6221810D01*
X7967600Y6205940D01*
X7983480Y6198000D01*
X8007290D01*
X8015230Y6205940D01*
X8023160Y6221810D01*
Y6237690D01*
X8015230Y6253560D01*
X8007290Y6261500D01*
X7999350D01*
X7991410Y6253560D01*
X7983480Y6237690D01*
Y6221810D01*
X7991410Y6205940D01*
X7999350Y6198000D01*
Y6388500D02*
X8015230Y6380560D01*
X8023160Y6364690D01*
Y6348810D01*
X8015230Y6332940D01*
X7999350Y6325000D01*
X7983480D01*
X7967600Y6332940D01*
X7959660Y6348810D01*
Y6364690D01*
X7967600Y6380560D01*
X7983480Y6388500D01*
X7959660D02*
X8054910D01*
X7959660Y6475810D02*
X7983480Y6491690D01*
X8039040D01*
X8054910Y6475810D01*
X8229540Y816380D02*
X8221600Y808440D01*
X8213660Y792560D01*
Y768750D01*
X8221600Y752880D01*
X8229540Y744940D01*
X8245410Y737000D01*
X8277160D01*
X8293040Y744940D01*
X8300980Y752880D01*
X8308910Y768750D01*
Y792560D01*
X8300980Y808440D01*
X8293040Y816380D01*
X8237480Y864000D02*
X8221600Y871940D01*
X8213660Y887810D01*
Y903690D01*
X8221600Y919560D01*
X8237480Y927500D01*
X8253350D01*
X8269230Y919560D01*
X8277160Y903690D01*
Y887810D01*
X8269230Y871940D01*
X8253350Y864000D01*
X8237480D01*
X8213660Y991000D02*
X8277160D01*
X8253350D02*
X8269230Y998940D01*
X8277160Y1014810D01*
Y1030690D01*
X8269230Y1046560D01*
X8253350Y1054500D01*
X8213660D01*
Y1149750D02*
X8293040D01*
X8300980Y1157690D01*
Y1165630D01*
X8293040Y1173560D01*
X8269230Y1133880D02*
Y1165630D01*
X8213660Y1276750D02*
X8277160D01*
X8300980D02*
X8253350Y1435500D02*
X8269230Y1427560D01*
X8277160Y1411690D01*
Y1395810D01*
X8269230Y1379940D01*
X8253350Y1372000D01*
X8245410D01*
X8229540Y1379940D01*
X8221600Y1395810D01*
Y1411690D01*
X8229540Y1427560D01*
X8245410Y1435500D01*
X8277160D02*
X8213660D01*
X8197790Y1427560D01*
X8189850Y1411690D01*
Y1387880D01*
X8197790Y1372000D01*
X8277160Y1499000D02*
X8237480D01*
X8221600Y1506940D01*
X8213660Y1522810D01*
Y1538690D01*
X8221600Y1554560D01*
X8237480Y1562500D01*
X8277160D02*
X8213660D01*
Y1626000D02*
X8277160D01*
X8253350D02*
X8269230Y1633940D01*
X8277160Y1649810D01*
Y1665690D01*
X8269230Y1681560D01*
Y1753000D02*
X8277160Y1768880D01*
Y1792690D01*
X8269230Y1808560D01*
X8253350Y1816500D01*
X8229540D01*
X8221600Y1808560D01*
X8213660Y1792690D01*
Y1776810D01*
X8221600Y1760940D01*
X8229540Y1753000D01*
X8237480D01*
X8245410Y1760940D01*
X8253350Y1776810D01*
Y1792690D01*
X8245410Y1808560D01*
X8237480Y1816500D01*
X8229540D02*
X8213660D01*
X8277160Y1893230D02*
Y1930270D01*
X8293040Y1911750D02*
X8221600D01*
X8213660Y1919690D01*
Y1927630D01*
X8221600Y1935560D01*
X8213660Y2038750D02*
X8277160D01*
X8300980D02*
X8237480Y2134000D02*
X8221600Y2141940D01*
X8213660Y2157810D01*
Y2173690D01*
X8221600Y2189560D01*
X8237480Y2197500D01*
X8253350D01*
X8269230Y2189560D01*
X8277160Y2173690D01*
Y2157810D01*
X8269230Y2141940D01*
X8253350Y2134000D01*
X8237480D01*
X8213660Y2261000D02*
X8277160D01*
X8253350D02*
X8269230Y2268940D01*
X8277160Y2284810D01*
Y2300690D01*
X8269230Y2316560D01*
X8253350Y2324500D01*
X8213660D01*
Y2427690D02*
X8221600Y2435630D01*
X8229540Y2427690D01*
X8221600Y2419750D01*
X8213660Y2427690D01*
X8253350D02*
X8261290Y2435630D01*
X8269230Y2427690D01*
X8261290Y2419750D01*
X8253350Y2427690D01*
X0Y0D02*
M02*
