G75*
%MOIN*%
%OFA0B0*%
%FSLAX25Y25*%
%IPPOS*%
%LPD*%
%AMOC8*
5,1,8,0,0,1.08239X$1,22.5*
%
%ADD10C,0.00000*%
%ADD11C,0.05600*%
%ADD12C,0.07400*%
%ADD13R,0.04331X0.07874*%
%ADD14R,0.07874X0.03937*%
%ADD15R,0.07874X0.07874*%
%ADD16C,0.08661*%
%ADD17C,0.04800*%
%ADD18C,0.05943*%
%ADD19C,0.12661*%
%ADD20C,0.20000*%
%ADD21C,0.08000*%
%ADD22C,0.01600*%
%ADD23C,0.06900*%
%ADD24C,0.01000*%
%ADD25C,0.07100*%
D10*
X0008500Y0010500D02*
X0023500Y0010500D01*
X0023500Y0003000D01*
X0468500Y0003000D01*
X0468500Y0010500D01*
X0483500Y0010500D01*
X0483500Y0025500D01*
X0491000Y0025500D01*
X0491000Y0250500D01*
X0483500Y0250500D01*
X0483500Y0265500D01*
X0468500Y0265500D01*
X0468500Y0273000D01*
X0023500Y0273000D01*
X0023500Y0265500D01*
X0008500Y0265500D01*
X0008500Y0250500D01*
X0001000Y0250500D01*
X0001000Y0025500D01*
X0008500Y0025500D01*
X0008500Y0010500D01*
X0011925Y0035500D02*
X0011927Y0035648D01*
X0011933Y0035796D01*
X0011943Y0035944D01*
X0011957Y0036091D01*
X0011975Y0036238D01*
X0011996Y0036384D01*
X0012022Y0036530D01*
X0012052Y0036675D01*
X0012085Y0036819D01*
X0012123Y0036962D01*
X0012164Y0037104D01*
X0012209Y0037245D01*
X0012257Y0037385D01*
X0012310Y0037524D01*
X0012366Y0037661D01*
X0012426Y0037796D01*
X0012489Y0037930D01*
X0012556Y0038062D01*
X0012627Y0038192D01*
X0012701Y0038320D01*
X0012778Y0038446D01*
X0012859Y0038570D01*
X0012943Y0038692D01*
X0013030Y0038811D01*
X0013121Y0038928D01*
X0013215Y0039043D01*
X0013311Y0039155D01*
X0013411Y0039265D01*
X0013513Y0039371D01*
X0013619Y0039475D01*
X0013727Y0039576D01*
X0013838Y0039674D01*
X0013951Y0039770D01*
X0014067Y0039862D01*
X0014185Y0039951D01*
X0014306Y0040036D01*
X0014429Y0040119D01*
X0014554Y0040198D01*
X0014681Y0040274D01*
X0014810Y0040346D01*
X0014941Y0040415D01*
X0015074Y0040480D01*
X0015209Y0040541D01*
X0015345Y0040599D01*
X0015482Y0040654D01*
X0015621Y0040704D01*
X0015762Y0040751D01*
X0015903Y0040794D01*
X0016046Y0040834D01*
X0016190Y0040869D01*
X0016334Y0040901D01*
X0016480Y0040928D01*
X0016626Y0040952D01*
X0016773Y0040972D01*
X0016920Y0040988D01*
X0017067Y0041000D01*
X0017215Y0041008D01*
X0017363Y0041012D01*
X0017511Y0041012D01*
X0017659Y0041008D01*
X0017807Y0041000D01*
X0017954Y0040988D01*
X0018101Y0040972D01*
X0018248Y0040952D01*
X0018394Y0040928D01*
X0018540Y0040901D01*
X0018684Y0040869D01*
X0018828Y0040834D01*
X0018971Y0040794D01*
X0019112Y0040751D01*
X0019253Y0040704D01*
X0019392Y0040654D01*
X0019529Y0040599D01*
X0019665Y0040541D01*
X0019800Y0040480D01*
X0019933Y0040415D01*
X0020064Y0040346D01*
X0020193Y0040274D01*
X0020320Y0040198D01*
X0020445Y0040119D01*
X0020568Y0040036D01*
X0020689Y0039951D01*
X0020807Y0039862D01*
X0020923Y0039770D01*
X0021036Y0039674D01*
X0021147Y0039576D01*
X0021255Y0039475D01*
X0021361Y0039371D01*
X0021463Y0039265D01*
X0021563Y0039155D01*
X0021659Y0039043D01*
X0021753Y0038928D01*
X0021844Y0038811D01*
X0021931Y0038692D01*
X0022015Y0038570D01*
X0022096Y0038446D01*
X0022173Y0038320D01*
X0022247Y0038192D01*
X0022318Y0038062D01*
X0022385Y0037930D01*
X0022448Y0037796D01*
X0022508Y0037661D01*
X0022564Y0037524D01*
X0022617Y0037385D01*
X0022665Y0037245D01*
X0022710Y0037104D01*
X0022751Y0036962D01*
X0022789Y0036819D01*
X0022822Y0036675D01*
X0022852Y0036530D01*
X0022878Y0036384D01*
X0022899Y0036238D01*
X0022917Y0036091D01*
X0022931Y0035944D01*
X0022941Y0035796D01*
X0022947Y0035648D01*
X0022949Y0035500D01*
X0022947Y0035352D01*
X0022941Y0035204D01*
X0022931Y0035056D01*
X0022917Y0034909D01*
X0022899Y0034762D01*
X0022878Y0034616D01*
X0022852Y0034470D01*
X0022822Y0034325D01*
X0022789Y0034181D01*
X0022751Y0034038D01*
X0022710Y0033896D01*
X0022665Y0033755D01*
X0022617Y0033615D01*
X0022564Y0033476D01*
X0022508Y0033339D01*
X0022448Y0033204D01*
X0022385Y0033070D01*
X0022318Y0032938D01*
X0022247Y0032808D01*
X0022173Y0032680D01*
X0022096Y0032554D01*
X0022015Y0032430D01*
X0021931Y0032308D01*
X0021844Y0032189D01*
X0021753Y0032072D01*
X0021659Y0031957D01*
X0021563Y0031845D01*
X0021463Y0031735D01*
X0021361Y0031629D01*
X0021255Y0031525D01*
X0021147Y0031424D01*
X0021036Y0031326D01*
X0020923Y0031230D01*
X0020807Y0031138D01*
X0020689Y0031049D01*
X0020568Y0030964D01*
X0020445Y0030881D01*
X0020320Y0030802D01*
X0020193Y0030726D01*
X0020064Y0030654D01*
X0019933Y0030585D01*
X0019800Y0030520D01*
X0019665Y0030459D01*
X0019529Y0030401D01*
X0019392Y0030346D01*
X0019253Y0030296D01*
X0019112Y0030249D01*
X0018971Y0030206D01*
X0018828Y0030166D01*
X0018684Y0030131D01*
X0018540Y0030099D01*
X0018394Y0030072D01*
X0018248Y0030048D01*
X0018101Y0030028D01*
X0017954Y0030012D01*
X0017807Y0030000D01*
X0017659Y0029992D01*
X0017511Y0029988D01*
X0017363Y0029988D01*
X0017215Y0029992D01*
X0017067Y0030000D01*
X0016920Y0030012D01*
X0016773Y0030028D01*
X0016626Y0030048D01*
X0016480Y0030072D01*
X0016334Y0030099D01*
X0016190Y0030131D01*
X0016046Y0030166D01*
X0015903Y0030206D01*
X0015762Y0030249D01*
X0015621Y0030296D01*
X0015482Y0030346D01*
X0015345Y0030401D01*
X0015209Y0030459D01*
X0015074Y0030520D01*
X0014941Y0030585D01*
X0014810Y0030654D01*
X0014681Y0030726D01*
X0014554Y0030802D01*
X0014429Y0030881D01*
X0014306Y0030964D01*
X0014185Y0031049D01*
X0014067Y0031138D01*
X0013951Y0031230D01*
X0013838Y0031326D01*
X0013727Y0031424D01*
X0013619Y0031525D01*
X0013513Y0031629D01*
X0013411Y0031735D01*
X0013311Y0031845D01*
X0013215Y0031957D01*
X0013121Y0032072D01*
X0013030Y0032189D01*
X0012943Y0032308D01*
X0012859Y0032430D01*
X0012778Y0032554D01*
X0012701Y0032680D01*
X0012627Y0032808D01*
X0012556Y0032938D01*
X0012489Y0033070D01*
X0012426Y0033204D01*
X0012366Y0033339D01*
X0012310Y0033476D01*
X0012257Y0033615D01*
X0012209Y0033755D01*
X0012164Y0033896D01*
X0012123Y0034038D01*
X0012085Y0034181D01*
X0012052Y0034325D01*
X0012022Y0034470D01*
X0011996Y0034616D01*
X0011975Y0034762D01*
X0011957Y0034909D01*
X0011943Y0035056D01*
X0011933Y0035204D01*
X0011927Y0035352D01*
X0011925Y0035500D01*
X0011925Y0240500D02*
X0011927Y0240648D01*
X0011933Y0240796D01*
X0011943Y0240944D01*
X0011957Y0241091D01*
X0011975Y0241238D01*
X0011996Y0241384D01*
X0012022Y0241530D01*
X0012052Y0241675D01*
X0012085Y0241819D01*
X0012123Y0241962D01*
X0012164Y0242104D01*
X0012209Y0242245D01*
X0012257Y0242385D01*
X0012310Y0242524D01*
X0012366Y0242661D01*
X0012426Y0242796D01*
X0012489Y0242930D01*
X0012556Y0243062D01*
X0012627Y0243192D01*
X0012701Y0243320D01*
X0012778Y0243446D01*
X0012859Y0243570D01*
X0012943Y0243692D01*
X0013030Y0243811D01*
X0013121Y0243928D01*
X0013215Y0244043D01*
X0013311Y0244155D01*
X0013411Y0244265D01*
X0013513Y0244371D01*
X0013619Y0244475D01*
X0013727Y0244576D01*
X0013838Y0244674D01*
X0013951Y0244770D01*
X0014067Y0244862D01*
X0014185Y0244951D01*
X0014306Y0245036D01*
X0014429Y0245119D01*
X0014554Y0245198D01*
X0014681Y0245274D01*
X0014810Y0245346D01*
X0014941Y0245415D01*
X0015074Y0245480D01*
X0015209Y0245541D01*
X0015345Y0245599D01*
X0015482Y0245654D01*
X0015621Y0245704D01*
X0015762Y0245751D01*
X0015903Y0245794D01*
X0016046Y0245834D01*
X0016190Y0245869D01*
X0016334Y0245901D01*
X0016480Y0245928D01*
X0016626Y0245952D01*
X0016773Y0245972D01*
X0016920Y0245988D01*
X0017067Y0246000D01*
X0017215Y0246008D01*
X0017363Y0246012D01*
X0017511Y0246012D01*
X0017659Y0246008D01*
X0017807Y0246000D01*
X0017954Y0245988D01*
X0018101Y0245972D01*
X0018248Y0245952D01*
X0018394Y0245928D01*
X0018540Y0245901D01*
X0018684Y0245869D01*
X0018828Y0245834D01*
X0018971Y0245794D01*
X0019112Y0245751D01*
X0019253Y0245704D01*
X0019392Y0245654D01*
X0019529Y0245599D01*
X0019665Y0245541D01*
X0019800Y0245480D01*
X0019933Y0245415D01*
X0020064Y0245346D01*
X0020193Y0245274D01*
X0020320Y0245198D01*
X0020445Y0245119D01*
X0020568Y0245036D01*
X0020689Y0244951D01*
X0020807Y0244862D01*
X0020923Y0244770D01*
X0021036Y0244674D01*
X0021147Y0244576D01*
X0021255Y0244475D01*
X0021361Y0244371D01*
X0021463Y0244265D01*
X0021563Y0244155D01*
X0021659Y0244043D01*
X0021753Y0243928D01*
X0021844Y0243811D01*
X0021931Y0243692D01*
X0022015Y0243570D01*
X0022096Y0243446D01*
X0022173Y0243320D01*
X0022247Y0243192D01*
X0022318Y0243062D01*
X0022385Y0242930D01*
X0022448Y0242796D01*
X0022508Y0242661D01*
X0022564Y0242524D01*
X0022617Y0242385D01*
X0022665Y0242245D01*
X0022710Y0242104D01*
X0022751Y0241962D01*
X0022789Y0241819D01*
X0022822Y0241675D01*
X0022852Y0241530D01*
X0022878Y0241384D01*
X0022899Y0241238D01*
X0022917Y0241091D01*
X0022931Y0240944D01*
X0022941Y0240796D01*
X0022947Y0240648D01*
X0022949Y0240500D01*
X0022947Y0240352D01*
X0022941Y0240204D01*
X0022931Y0240056D01*
X0022917Y0239909D01*
X0022899Y0239762D01*
X0022878Y0239616D01*
X0022852Y0239470D01*
X0022822Y0239325D01*
X0022789Y0239181D01*
X0022751Y0239038D01*
X0022710Y0238896D01*
X0022665Y0238755D01*
X0022617Y0238615D01*
X0022564Y0238476D01*
X0022508Y0238339D01*
X0022448Y0238204D01*
X0022385Y0238070D01*
X0022318Y0237938D01*
X0022247Y0237808D01*
X0022173Y0237680D01*
X0022096Y0237554D01*
X0022015Y0237430D01*
X0021931Y0237308D01*
X0021844Y0237189D01*
X0021753Y0237072D01*
X0021659Y0236957D01*
X0021563Y0236845D01*
X0021463Y0236735D01*
X0021361Y0236629D01*
X0021255Y0236525D01*
X0021147Y0236424D01*
X0021036Y0236326D01*
X0020923Y0236230D01*
X0020807Y0236138D01*
X0020689Y0236049D01*
X0020568Y0235964D01*
X0020445Y0235881D01*
X0020320Y0235802D01*
X0020193Y0235726D01*
X0020064Y0235654D01*
X0019933Y0235585D01*
X0019800Y0235520D01*
X0019665Y0235459D01*
X0019529Y0235401D01*
X0019392Y0235346D01*
X0019253Y0235296D01*
X0019112Y0235249D01*
X0018971Y0235206D01*
X0018828Y0235166D01*
X0018684Y0235131D01*
X0018540Y0235099D01*
X0018394Y0235072D01*
X0018248Y0235048D01*
X0018101Y0235028D01*
X0017954Y0235012D01*
X0017807Y0235000D01*
X0017659Y0234992D01*
X0017511Y0234988D01*
X0017363Y0234988D01*
X0017215Y0234992D01*
X0017067Y0235000D01*
X0016920Y0235012D01*
X0016773Y0235028D01*
X0016626Y0235048D01*
X0016480Y0235072D01*
X0016334Y0235099D01*
X0016190Y0235131D01*
X0016046Y0235166D01*
X0015903Y0235206D01*
X0015762Y0235249D01*
X0015621Y0235296D01*
X0015482Y0235346D01*
X0015345Y0235401D01*
X0015209Y0235459D01*
X0015074Y0235520D01*
X0014941Y0235585D01*
X0014810Y0235654D01*
X0014681Y0235726D01*
X0014554Y0235802D01*
X0014429Y0235881D01*
X0014306Y0235964D01*
X0014185Y0236049D01*
X0014067Y0236138D01*
X0013951Y0236230D01*
X0013838Y0236326D01*
X0013727Y0236424D01*
X0013619Y0236525D01*
X0013513Y0236629D01*
X0013411Y0236735D01*
X0013311Y0236845D01*
X0013215Y0236957D01*
X0013121Y0237072D01*
X0013030Y0237189D01*
X0012943Y0237308D01*
X0012859Y0237430D01*
X0012778Y0237554D01*
X0012701Y0237680D01*
X0012627Y0237808D01*
X0012556Y0237938D01*
X0012489Y0238070D01*
X0012426Y0238204D01*
X0012366Y0238339D01*
X0012310Y0238476D01*
X0012257Y0238615D01*
X0012209Y0238755D01*
X0012164Y0238896D01*
X0012123Y0239038D01*
X0012085Y0239181D01*
X0012052Y0239325D01*
X0012022Y0239470D01*
X0011996Y0239616D01*
X0011975Y0239762D01*
X0011957Y0239909D01*
X0011943Y0240056D01*
X0011933Y0240204D01*
X0011927Y0240352D01*
X0011925Y0240500D01*
X0468657Y0240500D02*
X0468659Y0240648D01*
X0468665Y0240796D01*
X0468675Y0240944D01*
X0468689Y0241091D01*
X0468707Y0241238D01*
X0468728Y0241384D01*
X0468754Y0241530D01*
X0468784Y0241675D01*
X0468817Y0241819D01*
X0468855Y0241962D01*
X0468896Y0242104D01*
X0468941Y0242245D01*
X0468989Y0242385D01*
X0469042Y0242524D01*
X0469098Y0242661D01*
X0469158Y0242796D01*
X0469221Y0242930D01*
X0469288Y0243062D01*
X0469359Y0243192D01*
X0469433Y0243320D01*
X0469510Y0243446D01*
X0469591Y0243570D01*
X0469675Y0243692D01*
X0469762Y0243811D01*
X0469853Y0243928D01*
X0469947Y0244043D01*
X0470043Y0244155D01*
X0470143Y0244265D01*
X0470245Y0244371D01*
X0470351Y0244475D01*
X0470459Y0244576D01*
X0470570Y0244674D01*
X0470683Y0244770D01*
X0470799Y0244862D01*
X0470917Y0244951D01*
X0471038Y0245036D01*
X0471161Y0245119D01*
X0471286Y0245198D01*
X0471413Y0245274D01*
X0471542Y0245346D01*
X0471673Y0245415D01*
X0471806Y0245480D01*
X0471941Y0245541D01*
X0472077Y0245599D01*
X0472214Y0245654D01*
X0472353Y0245704D01*
X0472494Y0245751D01*
X0472635Y0245794D01*
X0472778Y0245834D01*
X0472922Y0245869D01*
X0473066Y0245901D01*
X0473212Y0245928D01*
X0473358Y0245952D01*
X0473505Y0245972D01*
X0473652Y0245988D01*
X0473799Y0246000D01*
X0473947Y0246008D01*
X0474095Y0246012D01*
X0474243Y0246012D01*
X0474391Y0246008D01*
X0474539Y0246000D01*
X0474686Y0245988D01*
X0474833Y0245972D01*
X0474980Y0245952D01*
X0475126Y0245928D01*
X0475272Y0245901D01*
X0475416Y0245869D01*
X0475560Y0245834D01*
X0475703Y0245794D01*
X0475844Y0245751D01*
X0475985Y0245704D01*
X0476124Y0245654D01*
X0476261Y0245599D01*
X0476397Y0245541D01*
X0476532Y0245480D01*
X0476665Y0245415D01*
X0476796Y0245346D01*
X0476925Y0245274D01*
X0477052Y0245198D01*
X0477177Y0245119D01*
X0477300Y0245036D01*
X0477421Y0244951D01*
X0477539Y0244862D01*
X0477655Y0244770D01*
X0477768Y0244674D01*
X0477879Y0244576D01*
X0477987Y0244475D01*
X0478093Y0244371D01*
X0478195Y0244265D01*
X0478295Y0244155D01*
X0478391Y0244043D01*
X0478485Y0243928D01*
X0478576Y0243811D01*
X0478663Y0243692D01*
X0478747Y0243570D01*
X0478828Y0243446D01*
X0478905Y0243320D01*
X0478979Y0243192D01*
X0479050Y0243062D01*
X0479117Y0242930D01*
X0479180Y0242796D01*
X0479240Y0242661D01*
X0479296Y0242524D01*
X0479349Y0242385D01*
X0479397Y0242245D01*
X0479442Y0242104D01*
X0479483Y0241962D01*
X0479521Y0241819D01*
X0479554Y0241675D01*
X0479584Y0241530D01*
X0479610Y0241384D01*
X0479631Y0241238D01*
X0479649Y0241091D01*
X0479663Y0240944D01*
X0479673Y0240796D01*
X0479679Y0240648D01*
X0479681Y0240500D01*
X0479679Y0240352D01*
X0479673Y0240204D01*
X0479663Y0240056D01*
X0479649Y0239909D01*
X0479631Y0239762D01*
X0479610Y0239616D01*
X0479584Y0239470D01*
X0479554Y0239325D01*
X0479521Y0239181D01*
X0479483Y0239038D01*
X0479442Y0238896D01*
X0479397Y0238755D01*
X0479349Y0238615D01*
X0479296Y0238476D01*
X0479240Y0238339D01*
X0479180Y0238204D01*
X0479117Y0238070D01*
X0479050Y0237938D01*
X0478979Y0237808D01*
X0478905Y0237680D01*
X0478828Y0237554D01*
X0478747Y0237430D01*
X0478663Y0237308D01*
X0478576Y0237189D01*
X0478485Y0237072D01*
X0478391Y0236957D01*
X0478295Y0236845D01*
X0478195Y0236735D01*
X0478093Y0236629D01*
X0477987Y0236525D01*
X0477879Y0236424D01*
X0477768Y0236326D01*
X0477655Y0236230D01*
X0477539Y0236138D01*
X0477421Y0236049D01*
X0477300Y0235964D01*
X0477177Y0235881D01*
X0477052Y0235802D01*
X0476925Y0235726D01*
X0476796Y0235654D01*
X0476665Y0235585D01*
X0476532Y0235520D01*
X0476397Y0235459D01*
X0476261Y0235401D01*
X0476124Y0235346D01*
X0475985Y0235296D01*
X0475844Y0235249D01*
X0475703Y0235206D01*
X0475560Y0235166D01*
X0475416Y0235131D01*
X0475272Y0235099D01*
X0475126Y0235072D01*
X0474980Y0235048D01*
X0474833Y0235028D01*
X0474686Y0235012D01*
X0474539Y0235000D01*
X0474391Y0234992D01*
X0474243Y0234988D01*
X0474095Y0234988D01*
X0473947Y0234992D01*
X0473799Y0235000D01*
X0473652Y0235012D01*
X0473505Y0235028D01*
X0473358Y0235048D01*
X0473212Y0235072D01*
X0473066Y0235099D01*
X0472922Y0235131D01*
X0472778Y0235166D01*
X0472635Y0235206D01*
X0472494Y0235249D01*
X0472353Y0235296D01*
X0472214Y0235346D01*
X0472077Y0235401D01*
X0471941Y0235459D01*
X0471806Y0235520D01*
X0471673Y0235585D01*
X0471542Y0235654D01*
X0471413Y0235726D01*
X0471286Y0235802D01*
X0471161Y0235881D01*
X0471038Y0235964D01*
X0470917Y0236049D01*
X0470799Y0236138D01*
X0470683Y0236230D01*
X0470570Y0236326D01*
X0470459Y0236424D01*
X0470351Y0236525D01*
X0470245Y0236629D01*
X0470143Y0236735D01*
X0470043Y0236845D01*
X0469947Y0236957D01*
X0469853Y0237072D01*
X0469762Y0237189D01*
X0469675Y0237308D01*
X0469591Y0237430D01*
X0469510Y0237554D01*
X0469433Y0237680D01*
X0469359Y0237808D01*
X0469288Y0237938D01*
X0469221Y0238070D01*
X0469158Y0238204D01*
X0469098Y0238339D01*
X0469042Y0238476D01*
X0468989Y0238615D01*
X0468941Y0238755D01*
X0468896Y0238896D01*
X0468855Y0239038D01*
X0468817Y0239181D01*
X0468784Y0239325D01*
X0468754Y0239470D01*
X0468728Y0239616D01*
X0468707Y0239762D01*
X0468689Y0239909D01*
X0468675Y0240056D01*
X0468665Y0240204D01*
X0468659Y0240352D01*
X0468657Y0240500D01*
X0468657Y0035500D02*
X0468659Y0035648D01*
X0468665Y0035796D01*
X0468675Y0035944D01*
X0468689Y0036091D01*
X0468707Y0036238D01*
X0468728Y0036384D01*
X0468754Y0036530D01*
X0468784Y0036675D01*
X0468817Y0036819D01*
X0468855Y0036962D01*
X0468896Y0037104D01*
X0468941Y0037245D01*
X0468989Y0037385D01*
X0469042Y0037524D01*
X0469098Y0037661D01*
X0469158Y0037796D01*
X0469221Y0037930D01*
X0469288Y0038062D01*
X0469359Y0038192D01*
X0469433Y0038320D01*
X0469510Y0038446D01*
X0469591Y0038570D01*
X0469675Y0038692D01*
X0469762Y0038811D01*
X0469853Y0038928D01*
X0469947Y0039043D01*
X0470043Y0039155D01*
X0470143Y0039265D01*
X0470245Y0039371D01*
X0470351Y0039475D01*
X0470459Y0039576D01*
X0470570Y0039674D01*
X0470683Y0039770D01*
X0470799Y0039862D01*
X0470917Y0039951D01*
X0471038Y0040036D01*
X0471161Y0040119D01*
X0471286Y0040198D01*
X0471413Y0040274D01*
X0471542Y0040346D01*
X0471673Y0040415D01*
X0471806Y0040480D01*
X0471941Y0040541D01*
X0472077Y0040599D01*
X0472214Y0040654D01*
X0472353Y0040704D01*
X0472494Y0040751D01*
X0472635Y0040794D01*
X0472778Y0040834D01*
X0472922Y0040869D01*
X0473066Y0040901D01*
X0473212Y0040928D01*
X0473358Y0040952D01*
X0473505Y0040972D01*
X0473652Y0040988D01*
X0473799Y0041000D01*
X0473947Y0041008D01*
X0474095Y0041012D01*
X0474243Y0041012D01*
X0474391Y0041008D01*
X0474539Y0041000D01*
X0474686Y0040988D01*
X0474833Y0040972D01*
X0474980Y0040952D01*
X0475126Y0040928D01*
X0475272Y0040901D01*
X0475416Y0040869D01*
X0475560Y0040834D01*
X0475703Y0040794D01*
X0475844Y0040751D01*
X0475985Y0040704D01*
X0476124Y0040654D01*
X0476261Y0040599D01*
X0476397Y0040541D01*
X0476532Y0040480D01*
X0476665Y0040415D01*
X0476796Y0040346D01*
X0476925Y0040274D01*
X0477052Y0040198D01*
X0477177Y0040119D01*
X0477300Y0040036D01*
X0477421Y0039951D01*
X0477539Y0039862D01*
X0477655Y0039770D01*
X0477768Y0039674D01*
X0477879Y0039576D01*
X0477987Y0039475D01*
X0478093Y0039371D01*
X0478195Y0039265D01*
X0478295Y0039155D01*
X0478391Y0039043D01*
X0478485Y0038928D01*
X0478576Y0038811D01*
X0478663Y0038692D01*
X0478747Y0038570D01*
X0478828Y0038446D01*
X0478905Y0038320D01*
X0478979Y0038192D01*
X0479050Y0038062D01*
X0479117Y0037930D01*
X0479180Y0037796D01*
X0479240Y0037661D01*
X0479296Y0037524D01*
X0479349Y0037385D01*
X0479397Y0037245D01*
X0479442Y0037104D01*
X0479483Y0036962D01*
X0479521Y0036819D01*
X0479554Y0036675D01*
X0479584Y0036530D01*
X0479610Y0036384D01*
X0479631Y0036238D01*
X0479649Y0036091D01*
X0479663Y0035944D01*
X0479673Y0035796D01*
X0479679Y0035648D01*
X0479681Y0035500D01*
X0479679Y0035352D01*
X0479673Y0035204D01*
X0479663Y0035056D01*
X0479649Y0034909D01*
X0479631Y0034762D01*
X0479610Y0034616D01*
X0479584Y0034470D01*
X0479554Y0034325D01*
X0479521Y0034181D01*
X0479483Y0034038D01*
X0479442Y0033896D01*
X0479397Y0033755D01*
X0479349Y0033615D01*
X0479296Y0033476D01*
X0479240Y0033339D01*
X0479180Y0033204D01*
X0479117Y0033070D01*
X0479050Y0032938D01*
X0478979Y0032808D01*
X0478905Y0032680D01*
X0478828Y0032554D01*
X0478747Y0032430D01*
X0478663Y0032308D01*
X0478576Y0032189D01*
X0478485Y0032072D01*
X0478391Y0031957D01*
X0478295Y0031845D01*
X0478195Y0031735D01*
X0478093Y0031629D01*
X0477987Y0031525D01*
X0477879Y0031424D01*
X0477768Y0031326D01*
X0477655Y0031230D01*
X0477539Y0031138D01*
X0477421Y0031049D01*
X0477300Y0030964D01*
X0477177Y0030881D01*
X0477052Y0030802D01*
X0476925Y0030726D01*
X0476796Y0030654D01*
X0476665Y0030585D01*
X0476532Y0030520D01*
X0476397Y0030459D01*
X0476261Y0030401D01*
X0476124Y0030346D01*
X0475985Y0030296D01*
X0475844Y0030249D01*
X0475703Y0030206D01*
X0475560Y0030166D01*
X0475416Y0030131D01*
X0475272Y0030099D01*
X0475126Y0030072D01*
X0474980Y0030048D01*
X0474833Y0030028D01*
X0474686Y0030012D01*
X0474539Y0030000D01*
X0474391Y0029992D01*
X0474243Y0029988D01*
X0474095Y0029988D01*
X0473947Y0029992D01*
X0473799Y0030000D01*
X0473652Y0030012D01*
X0473505Y0030028D01*
X0473358Y0030048D01*
X0473212Y0030072D01*
X0473066Y0030099D01*
X0472922Y0030131D01*
X0472778Y0030166D01*
X0472635Y0030206D01*
X0472494Y0030249D01*
X0472353Y0030296D01*
X0472214Y0030346D01*
X0472077Y0030401D01*
X0471941Y0030459D01*
X0471806Y0030520D01*
X0471673Y0030585D01*
X0471542Y0030654D01*
X0471413Y0030726D01*
X0471286Y0030802D01*
X0471161Y0030881D01*
X0471038Y0030964D01*
X0470917Y0031049D01*
X0470799Y0031138D01*
X0470683Y0031230D01*
X0470570Y0031326D01*
X0470459Y0031424D01*
X0470351Y0031525D01*
X0470245Y0031629D01*
X0470143Y0031735D01*
X0470043Y0031845D01*
X0469947Y0031957D01*
X0469853Y0032072D01*
X0469762Y0032189D01*
X0469675Y0032308D01*
X0469591Y0032430D01*
X0469510Y0032554D01*
X0469433Y0032680D01*
X0469359Y0032808D01*
X0469288Y0032938D01*
X0469221Y0033070D01*
X0469158Y0033204D01*
X0469098Y0033339D01*
X0469042Y0033476D01*
X0468989Y0033615D01*
X0468941Y0033755D01*
X0468896Y0033896D01*
X0468855Y0034038D01*
X0468817Y0034181D01*
X0468784Y0034325D01*
X0468754Y0034470D01*
X0468728Y0034616D01*
X0468707Y0034762D01*
X0468689Y0034909D01*
X0468675Y0035056D01*
X0468665Y0035204D01*
X0468659Y0035352D01*
X0468657Y0035500D01*
D11*
X0456000Y0160200D02*
X0456000Y0165800D01*
X0431000Y0165800D02*
X0431000Y0160200D01*
X0371000Y0160200D02*
X0371000Y0165800D01*
X0346000Y0165800D02*
X0346000Y0160200D01*
X0346000Y0200200D02*
X0346000Y0205800D01*
X0371000Y0205800D02*
X0371000Y0200200D01*
X0431000Y0200200D02*
X0431000Y0205800D01*
X0456000Y0205800D02*
X0456000Y0200200D01*
X0138500Y0180800D02*
X0138500Y0175200D01*
X0113500Y0182700D02*
X0113500Y0188300D01*
X0088500Y0188300D02*
X0088500Y0182700D01*
X0063500Y0180800D02*
X0063500Y0175200D01*
X0038500Y0182700D02*
X0038500Y0188300D01*
X0063500Y0150800D02*
X0063500Y0145200D01*
X0038500Y0142700D02*
X0038500Y0148300D01*
X0088500Y0148300D02*
X0088500Y0142700D01*
X0113500Y0142700D02*
X0113500Y0148300D01*
X0138500Y0150800D02*
X0138500Y0145200D01*
X0138500Y0115800D02*
X0138500Y0110200D01*
X0113500Y0110200D02*
X0113500Y0115800D01*
X0088500Y0115800D02*
X0088500Y0110200D01*
X0063500Y0110200D02*
X0063500Y0115800D01*
X0063500Y0075800D02*
X0063500Y0070200D01*
X0088500Y0070200D02*
X0088500Y0075800D01*
X0113500Y0075800D02*
X0113500Y0070200D01*
X0138500Y0070200D02*
X0138500Y0075800D01*
D12*
X0208500Y0078000D03*
X0208500Y0088000D03*
X0208500Y0098000D03*
X0208500Y0108000D03*
X0208500Y0118000D03*
X0208500Y0128000D03*
X0208500Y0138000D03*
X0208500Y0148000D03*
X0208500Y0158000D03*
X0208500Y0168000D03*
X0208500Y0178000D03*
X0208500Y0188000D03*
X0208500Y0198000D03*
X0278500Y0198000D03*
X0278500Y0188000D03*
X0278500Y0178000D03*
X0278500Y0168000D03*
X0278500Y0158000D03*
X0278500Y0148000D03*
X0278500Y0138000D03*
X0278500Y0128000D03*
X0278500Y0118000D03*
X0278500Y0108000D03*
X0278500Y0098000D03*
X0278500Y0088000D03*
X0278500Y0078000D03*
X0278500Y0068000D03*
X0278500Y0058000D03*
X0278500Y0048000D03*
X0278500Y0038000D03*
X0278500Y0028000D03*
X0278500Y0018000D03*
X0278500Y0008000D03*
X0208500Y0008000D03*
X0208500Y0018000D03*
X0208500Y0028000D03*
X0208500Y0038000D03*
X0208500Y0048000D03*
X0208500Y0058000D03*
X0208500Y0068000D03*
X0112622Y0025868D03*
X0087022Y0025868D03*
X0087022Y0008068D03*
X0112622Y0008068D03*
X0396000Y0163000D03*
X0406000Y0163000D03*
X0401000Y0170500D03*
X0396000Y0195500D03*
X0401000Y0203000D03*
X0406000Y0195500D03*
X0376000Y0250500D03*
X0366000Y0250500D03*
X0356000Y0250500D03*
X0346000Y0250500D03*
X0336000Y0250500D03*
X0326000Y0250500D03*
X0316000Y0250500D03*
X0306000Y0250500D03*
X0296000Y0250500D03*
X0286000Y0250500D03*
X0276000Y0250500D03*
X0266000Y0250500D03*
X0256000Y0250500D03*
X0246000Y0250500D03*
X0236000Y0250500D03*
X0226000Y0250500D03*
X0216000Y0250500D03*
X0206000Y0250500D03*
X0196000Y0250500D03*
X0186000Y0250500D03*
X0186000Y0260500D03*
X0196000Y0260500D03*
X0206000Y0260500D03*
X0216000Y0260500D03*
X0226000Y0260500D03*
X0236000Y0260500D03*
X0246000Y0260500D03*
X0256000Y0260500D03*
X0266000Y0260500D03*
X0276000Y0260500D03*
X0286000Y0260500D03*
X0296000Y0260500D03*
X0306000Y0260500D03*
X0316000Y0260500D03*
X0326000Y0260500D03*
X0336000Y0260500D03*
X0346000Y0260500D03*
X0356000Y0260500D03*
X0366000Y0260500D03*
X0376000Y0260500D03*
X0112555Y0238000D03*
X0103539Y0238000D03*
X0094524Y0238000D03*
X0085508Y0238000D03*
X0076492Y0238000D03*
X0072004Y0228000D03*
X0081020Y0228000D03*
X0090035Y0228000D03*
X0099051Y0228000D03*
X0108067Y0228000D03*
X0112555Y0218000D03*
X0103539Y0218000D03*
X0094524Y0218000D03*
X0085508Y0218000D03*
X0076492Y0218000D03*
D13*
X0346315Y0124161D03*
X0353008Y0124161D03*
X0362555Y0124161D03*
X0372398Y0124161D03*
X0382240Y0124161D03*
X0392083Y0124161D03*
X0401925Y0124161D03*
X0411768Y0124161D03*
X0421610Y0124161D03*
D14*
X0332339Y0079280D03*
X0332339Y0044043D03*
X0332339Y0033807D03*
D15*
X0330764Y0024161D03*
X0444937Y0024161D03*
X0444937Y0097587D03*
X0330764Y0097587D03*
D16*
X0341000Y0115500D03*
X0429189Y0115500D03*
D17*
X0031012Y0104953D03*
X0031012Y0094953D03*
X0031012Y0084953D03*
D18*
X0420114Y0229693D03*
X0420114Y0239535D03*
X0428382Y0239535D03*
X0438618Y0239535D03*
X0446886Y0239535D03*
X0446886Y0229693D03*
D19*
X0433500Y0254496D03*
D20*
X0142713Y0228000D03*
X0044287Y0228000D03*
D21*
X0383000Y0138000D03*
X0394000Y0138000D03*
D22*
X0393500Y0138500D01*
X0393500Y0143000D01*
X0391000Y0145500D01*
X0368500Y0145500D01*
X0362555Y0139555D01*
X0362555Y0124161D01*
X0367300Y0128000D02*
X0367300Y0128900D01*
X0369400Y0131000D01*
X0375400Y0131000D01*
X0377100Y0129300D01*
X0377100Y0120300D01*
X0379600Y0117800D01*
X0400300Y0117800D01*
X0402200Y0119700D01*
X0402200Y0123887D01*
X0401800Y0124287D01*
X0401925Y0124161D01*
X0401900Y0124187D01*
X0411700Y0124229D02*
X0411768Y0124161D01*
X0412200Y0124594D01*
X0412200Y0133800D01*
X0395500Y0150500D01*
X0341000Y0150500D01*
X0323500Y0168000D01*
X0288535Y0168000D01*
X0293500Y0158000D02*
X0278500Y0158000D01*
X0278500Y0148000D02*
X0293500Y0148000D01*
X0333400Y0108100D01*
X0357900Y0108100D01*
X0367300Y0117500D01*
X0367300Y0128000D01*
X0367300Y0128800D01*
X0372398Y0124161D02*
X0372500Y0124059D01*
X0372500Y0115700D01*
X0362300Y0105500D01*
X0326000Y0105500D01*
X0293500Y0138000D01*
X0278500Y0138000D01*
X0288500Y0138000D02*
X0291000Y0138000D01*
X0293500Y0158000D02*
X0321000Y0130500D01*
X0351100Y0130500D01*
X0352700Y0128900D01*
X0352700Y0124469D01*
X0353008Y0124161D01*
X0372398Y0124161D02*
X0372900Y0123659D01*
X0372600Y0123959D02*
X0372398Y0124161D01*
X0382200Y0124202D02*
X0382200Y0130900D01*
X0383000Y0131700D01*
X0383000Y0138000D01*
X0392083Y0136083D02*
X0394000Y0138000D01*
X0392083Y0136083D02*
X0392083Y0124161D01*
X0389500Y0097600D02*
X0389500Y0025900D01*
X0443500Y0025500D02*
X0331000Y0025500D01*
X0306100Y0077800D02*
X0277300Y0077800D01*
X0277100Y0078000D01*
X0306100Y0077800D02*
X0326200Y0097900D01*
X0330200Y0097900D01*
X0331000Y0098000D02*
X0446000Y0098000D01*
X0391000Y0155500D02*
X0353500Y0155500D01*
X0346000Y0163000D01*
X0386000Y0178000D02*
X0386000Y0202465D01*
X0386535Y0203000D01*
X0401000Y0203000D01*
X0386535Y0203000D02*
X0385846Y0203000D01*
X0386000Y0202846D01*
X0385846Y0203000D02*
X0346000Y0203000D01*
X0386000Y0178000D02*
X0393500Y0170500D01*
X0401000Y0170500D01*
X0396000Y0163000D02*
X0396000Y0160500D01*
X0391000Y0155500D01*
X0431000Y0203000D02*
X0456000Y0203000D01*
X0456000Y0203943D01*
X0455057Y0203000D01*
X0456000Y0203943D02*
X0456000Y0230592D01*
X0446886Y0239707D01*
X0446886Y0259614D01*
X0438500Y0268000D01*
X0198500Y0268000D01*
X0196000Y0265500D01*
X0196000Y0260500D01*
X0141000Y0250500D02*
X0193500Y0198000D01*
X0208500Y0198000D01*
X0196000Y0198000D01*
X0196000Y0188000D02*
X0208500Y0188000D01*
X0161000Y0188000D01*
X0126000Y0223000D01*
X0126000Y0235500D01*
X0116000Y0245500D01*
X0106000Y0245500D01*
X0103500Y0243000D01*
X0103500Y0238000D01*
X0094524Y0238000D02*
X0094524Y0241524D01*
X0103500Y0250500D01*
X0141000Y0250500D01*
X0094524Y0218000D02*
X0094524Y0204476D01*
X0113500Y0185500D01*
X0131000Y0185500D01*
X0138500Y0178000D01*
X0136000Y0168000D02*
X0113500Y0145500D01*
X0093500Y0145500D02*
X0133400Y0105600D01*
X0151100Y0105600D01*
X0193500Y0148000D01*
X0208500Y0148000D01*
X0208500Y0138000D02*
X0193500Y0138000D01*
X0158500Y0103000D01*
X0086000Y0103000D01*
X0043500Y0145500D01*
X0038500Y0145500D01*
X0081000Y0128000D02*
X0081000Y0168000D01*
X0088500Y0175500D01*
X0088500Y0186009D01*
X0088500Y0185500D01*
X0088500Y0186009D02*
X0088500Y0190500D01*
X0085508Y0193492D01*
X0085508Y0218000D01*
X0076492Y0218000D02*
X0076000Y0217508D01*
X0076000Y0210500D01*
X0056224Y0190724D01*
X0063500Y0183448D01*
X0063500Y0178000D01*
X0063500Y0183000D01*
X0056224Y0190724D02*
X0051000Y0185500D01*
X0038500Y0185500D01*
X0088500Y0145500D02*
X0093500Y0145500D01*
X0081000Y0128000D02*
X0088500Y0120500D01*
X0088500Y0113000D01*
X0113500Y0113000D01*
X0138500Y0113000D02*
X0148500Y0113000D01*
X0193500Y0158000D01*
X0198500Y0158000D01*
X0198500Y0168000D02*
X0136000Y0168000D01*
X0193500Y0128000D02*
X0163500Y0098000D01*
X0145953Y0098000D01*
X0146000Y0097953D01*
X0146000Y0068000D01*
X0112622Y0034622D01*
X0112622Y0033808D01*
X0112657Y0033843D01*
X0112657Y0026466D01*
X0112060Y0025868D01*
X0112622Y0025868D01*
X0113868Y0025868D01*
X0112060Y0025868D02*
X0087022Y0025868D01*
X0087022Y0008068D02*
X0112466Y0008068D01*
X0113500Y0009102D01*
X0113500Y0008946D02*
X0112622Y0008068D01*
X0113568Y0008068D01*
X0113500Y0008946D02*
X0113500Y0013000D01*
X0121000Y0020500D01*
X0121000Y0035500D01*
X0193500Y0108000D01*
X0198500Y0108000D01*
X0203500Y0108000D02*
X0208500Y0108000D01*
X0208500Y0128000D02*
X0193500Y0128000D01*
X0196000Y0128000D02*
X0208035Y0128000D01*
X0145953Y0098000D02*
X0063497Y0098000D01*
X0063500Y0098003D01*
X0063500Y0113000D01*
X0063497Y0098000D02*
X0041000Y0098000D01*
X0037953Y0094953D01*
X0031012Y0094953D01*
X0063500Y0073000D02*
X0088500Y0073000D01*
X0113500Y0073000D01*
X0138500Y0073000D01*
X0112622Y0008068D02*
X0112466Y0008068D01*
X0446886Y0239535D02*
X0446886Y0239707D01*
D23*
X0288500Y0198000D02*
X0278500Y0198000D01*
X0278500Y0188000D02*
X0288500Y0188000D01*
X0288500Y0178000D02*
X0278500Y0178000D01*
X0278500Y0168000D02*
X0288535Y0168000D01*
X0288500Y0158000D02*
X0278500Y0158000D01*
X0278500Y0148000D02*
X0286000Y0148000D01*
X0288500Y0138000D02*
X0278500Y0138000D01*
X0278500Y0128000D02*
X0288500Y0128000D01*
X0288500Y0118000D02*
X0278500Y0118000D01*
X0278500Y0108000D02*
X0288500Y0108000D01*
X0288500Y0098000D02*
X0278500Y0098000D01*
X0278500Y0088000D02*
X0288500Y0088000D01*
X0288500Y0078000D02*
X0278500Y0078000D01*
X0278500Y0068000D02*
X0288500Y0068000D01*
X0288500Y0058000D02*
X0278500Y0058000D01*
X0278500Y0048000D02*
X0288500Y0048000D01*
X0288500Y0038000D02*
X0278500Y0038000D01*
X0278500Y0028000D02*
X0288500Y0028000D01*
X0288500Y0008000D02*
X0278500Y0008000D01*
X0208500Y0008000D02*
X0198500Y0008000D01*
X0198500Y0018000D02*
X0208500Y0018000D01*
X0208500Y0028000D02*
X0198500Y0028000D01*
X0198500Y0038000D02*
X0208500Y0038000D01*
X0208500Y0048000D02*
X0198500Y0048000D01*
X0198500Y0058000D02*
X0208500Y0058000D01*
X0208500Y0068000D02*
X0198500Y0068000D01*
X0198500Y0078000D02*
X0208500Y0078000D01*
X0208500Y0088000D02*
X0198500Y0088000D01*
X0198500Y0098000D02*
X0208500Y0098000D01*
X0208500Y0108000D02*
X0198500Y0108000D01*
X0198500Y0118000D02*
X0208500Y0118000D01*
X0208500Y0128000D02*
X0208035Y0128000D01*
X0198500Y0128000D01*
X0198500Y0138000D02*
X0208500Y0138000D01*
X0208500Y0148000D02*
X0198500Y0148000D01*
X0198500Y0158000D02*
X0208500Y0158000D01*
X0208500Y0168000D02*
X0198500Y0168000D01*
X0198500Y0178000D02*
X0208500Y0178000D01*
X0208500Y0188000D02*
X0198500Y0188000D01*
X0198500Y0198000D02*
X0208500Y0198000D01*
D24*
X0226000Y0205500D02*
X0186000Y0245500D01*
X0186000Y0250500D01*
X0196000Y0250500D02*
X0196000Y0245500D01*
X0228500Y0213000D01*
X0228500Y0063000D01*
X0273500Y0018000D01*
X0278500Y0018000D01*
X0278500Y0028000D02*
X0273500Y0028000D01*
X0231000Y0070500D01*
X0231000Y0220500D01*
X0206000Y0245500D01*
X0206000Y0250500D01*
X0216000Y0250500D02*
X0216000Y0245500D01*
X0233500Y0228000D01*
X0233500Y0078000D01*
X0273500Y0038000D01*
X0278500Y0038000D01*
X0278500Y0048000D02*
X0273500Y0048000D01*
X0236000Y0085500D01*
X0236000Y0235500D01*
X0226000Y0245500D01*
X0226000Y0250500D01*
X0236000Y0250500D02*
X0236000Y0245500D01*
X0238500Y0243000D01*
X0238500Y0093000D01*
X0273500Y0058000D01*
X0278500Y0058000D01*
X0278500Y0068000D02*
X0273500Y0068000D01*
X0241000Y0100500D01*
X0241000Y0240500D01*
X0246000Y0245500D01*
X0246000Y0250500D01*
X0256000Y0250500D02*
X0256000Y0245500D01*
X0243500Y0233000D01*
X0243500Y0108000D01*
X0273500Y0078000D01*
X0277100Y0078000D01*
X0278500Y0078000D01*
X0278500Y0088000D02*
X0273500Y0088000D01*
X0246000Y0115500D01*
X0246000Y0225500D01*
X0266000Y0245500D01*
X0266000Y0250500D01*
X0276000Y0250500D02*
X0276000Y0245500D01*
X0248500Y0218000D01*
X0248500Y0123000D01*
X0273500Y0098000D01*
X0278500Y0098000D01*
X0278500Y0108000D02*
X0273500Y0108000D01*
X0251000Y0130500D01*
X0251000Y0210500D01*
X0286000Y0245500D01*
X0286000Y0250500D01*
X0296000Y0250500D02*
X0296000Y0245500D01*
X0253500Y0203000D01*
X0253500Y0138000D01*
X0273500Y0118000D01*
X0278500Y0118000D01*
X0278500Y0128000D02*
X0273500Y0128000D01*
X0256000Y0145500D01*
X0256000Y0202471D01*
X0271029Y0217500D01*
X0278000Y0217500D01*
X0306000Y0245500D01*
X0306000Y0250500D01*
X0316000Y0250500D02*
X0316000Y0245500D01*
X0294800Y0224300D01*
X0294215Y0224300D01*
X0285415Y0215500D01*
X0271858Y0215500D01*
X0258500Y0202142D01*
X0258500Y0153000D01*
X0273500Y0138000D01*
X0278500Y0138000D01*
X0278500Y0148000D02*
X0273500Y0148000D01*
X0261000Y0160500D01*
X0261000Y0201814D01*
X0272686Y0213500D01*
X0286243Y0213500D01*
X0295043Y0222300D01*
X0302800Y0222300D01*
X0326000Y0245500D01*
X0326000Y0250500D01*
X0336000Y0250500D02*
X0336000Y0245500D01*
X0310800Y0220300D01*
X0296100Y0220300D01*
X0295800Y0220000D01*
X0295572Y0220000D01*
X0287072Y0211500D01*
X0273515Y0211500D01*
X0263300Y0201285D01*
X0263300Y0168000D01*
X0273300Y0158000D01*
X0278500Y0158000D01*
X0278500Y0168000D02*
X0271000Y0168000D01*
X0266000Y0173000D01*
X0266000Y0201157D01*
X0274343Y0209500D01*
X0287900Y0209500D01*
X0295200Y0216800D01*
X0295300Y0216800D01*
X0296500Y0218000D01*
X0318500Y0218000D01*
X0346000Y0245500D01*
X0346000Y0250500D01*
X0356000Y0250500D02*
X0356000Y0245500D01*
X0326300Y0215800D01*
X0297600Y0215800D01*
X0289300Y0207500D01*
X0275172Y0207500D01*
X0269000Y0201328D01*
X0269000Y0180400D01*
X0271400Y0178000D01*
X0278500Y0178000D01*
X0278500Y0188000D02*
X0273500Y0188000D01*
X0271000Y0190500D01*
X0271000Y0200500D01*
X0276000Y0205500D01*
X0291000Y0205500D01*
X0298500Y0213000D01*
X0333500Y0213000D01*
X0366000Y0245500D01*
X0366000Y0250500D01*
X0376000Y0250500D02*
X0376000Y0245500D01*
X0341000Y0210500D01*
X0301000Y0210500D01*
X0288500Y0198000D01*
X0226000Y0205500D02*
X0226000Y0055500D01*
X0273500Y0008000D01*
X0278500Y0008000D01*
D25*
X0278500Y0018000D02*
X0288500Y0018000D01*
X0288500Y0148000D02*
X0278500Y0148000D01*
M02*
