%
M48
M72
T01C0.02400
T02C0.03200
T03C0.03543
T04C0.04000
T05C0.05512
T06C0.08661
T07C0.11024
T08C0.13000
%
T01
X31012Y84953
X31012Y94953
X31012Y104953
T02
X63500Y113000
X88500Y113000
X113500Y113000
X138500Y113000
X113500Y145500
X138500Y148000
X138500Y178000
X113500Y185500
X88500Y185500
X63500Y178000
X38500Y185500
X63500Y148000
X38500Y145500
X88500Y145500
X88500Y73000
X63500Y73000
X113500Y73000
X138500Y73000
X346000Y163000
X371000Y163000
X396000Y163000
X406000Y163000
X401000Y170500
X431000Y163000
X456000Y163000
X406000Y195500
X401000Y203000
X396000Y195500
X371000Y203000
X346000Y203000
X431000Y203000
X456000Y203000
T03
X446886Y229693
X446886Y239535
X438618Y239535
X428382Y239535
X420114Y239535
X420114Y229693
T04
X376000Y250500
X366000Y250500
X356000Y250500
X346000Y250500
X336000Y250500
X326000Y250500
X316000Y250500
X306000Y250500
X296000Y250500
X286000Y250500
X276000Y250500
X266000Y250500
X256000Y250500
X246000Y250500
X236000Y250500
X226000Y250500
X216000Y250500
X206000Y250500
X196000Y250500
X186000Y250500
X186000Y260500
X196000Y260500
X206000Y260500
X216000Y260500
X226000Y260500
X236000Y260500
X246000Y260500
X256000Y260500
X266000Y260500
X276000Y260500
X286000Y260500
X296000Y260500
X306000Y260500
X316000Y260500
X326000Y260500
X336000Y260500
X346000Y260500
X356000Y260500
X366000Y260500
X376000Y260500
X278500Y198000
X278500Y188000
X278500Y178000
X278500Y168000
X278500Y158000
X278500Y148000
X278500Y138000
X278500Y128000
X278500Y118000
X278500Y108000
X278500Y98000
X278500Y88000
X278500Y78000
X278500Y68000
X278500Y58000
X278500Y48000
X278500Y38000
X278500Y28000
X278500Y18000
X278500Y8000
X208500Y8000
X208500Y18000
X208500Y28000
X208500Y38000
X208500Y48000
X208500Y58000
X208500Y68000
X208500Y78000
X208500Y88000
X208500Y98000
X208500Y108000
X208500Y118000
X208500Y128000
X208500Y138000
X208500Y148000
X208500Y158000
X208500Y168000
X208500Y178000
X208500Y188000
X208500Y198000
X112555Y218000
X103539Y218000
X94524Y218000
X85508Y218000
X76492Y218000
X72004Y228000
X81020Y228000
X90035Y228000
X99051Y228000
X108067Y228000
X112555Y238000
X103539Y238000
X94524Y238000
X85508Y238000
X76492Y238000
X383000Y138000
X394000Y138000
X112622Y25868
X87022Y25868
X87022Y8068
X112622Y8068
T05
X341000Y115500
X429189Y115500
T06
X433500Y254496
T07
X17437Y35500
X17437Y240500
X474169Y240500
X474169Y35500
T08
X142713Y228000
X44287Y228000
M30
