G75*
%MOIN*%
%OFA0B0*%
%FSLAX25Y25*%
%IPPOS*%
%LPD*%
%AMOC8*
5,1,8,0,0,1.08239X$1,22.5*
%
%ADD10C,0.11824*%
%ADD11C,0.07900*%
%ADD12C,0.06400*%
%ADD13C,0.08200*%
%ADD14R,0.05131X0.08674*%
%ADD15R,0.08674X0.04737*%
%ADD16R,0.08674X0.08674*%
%ADD17C,0.09461*%
%ADD18C,0.05600*%
%ADD19C,0.06743*%
%ADD20C,0.13461*%
%ADD21C,0.20800*%
%ADD22C,0.00500*%
D10*
X0017437Y0035500D03*
X0017437Y0240500D03*
X0474169Y0240500D03*
X0474169Y0035500D03*
D11*
X0288500Y0038000D02*
X0278500Y0038000D01*
X0278500Y0028000D02*
X0288500Y0028000D01*
X0288500Y0018000D02*
X0278500Y0018000D01*
X0278500Y0008000D02*
X0288500Y0008000D01*
X0288500Y0048000D02*
X0278500Y0048000D01*
X0278500Y0058000D02*
X0288500Y0058000D01*
X0288500Y0068000D02*
X0278500Y0068000D01*
X0278500Y0078000D02*
X0288500Y0078000D01*
X0288500Y0088000D02*
X0278500Y0088000D01*
X0278500Y0098000D02*
X0288500Y0098000D01*
X0288500Y0108000D02*
X0278500Y0108000D01*
X0278500Y0118000D02*
X0288500Y0118000D01*
X0288500Y0128000D02*
X0278500Y0128000D01*
X0278500Y0138000D02*
X0288500Y0138000D01*
X0288500Y0148000D02*
X0278500Y0148000D01*
X0278500Y0158000D02*
X0288500Y0158000D01*
X0288500Y0168000D02*
X0278500Y0168000D01*
X0278500Y0178000D02*
X0288500Y0178000D01*
X0288500Y0188000D02*
X0278500Y0188000D01*
X0278500Y0198000D02*
X0288500Y0198000D01*
X0208500Y0198000D02*
X0198500Y0198000D01*
X0198500Y0188000D02*
X0208500Y0188000D01*
X0208500Y0178000D02*
X0198500Y0178000D01*
X0198500Y0168000D02*
X0208500Y0168000D01*
X0208500Y0158000D02*
X0198500Y0158000D01*
X0198500Y0148000D02*
X0208500Y0148000D01*
X0208500Y0138000D02*
X0198500Y0138000D01*
X0198500Y0128000D02*
X0208500Y0128000D01*
X0208500Y0118000D02*
X0198500Y0118000D01*
X0198500Y0108000D02*
X0208500Y0108000D01*
X0208500Y0098000D02*
X0198500Y0098000D01*
X0198500Y0088000D02*
X0208500Y0088000D01*
X0208500Y0078000D02*
X0198500Y0078000D01*
X0198500Y0068000D02*
X0208500Y0068000D01*
X0208500Y0058000D02*
X0198500Y0058000D01*
X0198500Y0048000D02*
X0208500Y0048000D01*
X0208500Y0038000D02*
X0198500Y0038000D01*
X0198500Y0028000D02*
X0208500Y0028000D01*
X0208500Y0018000D02*
X0198500Y0018000D01*
X0198500Y0008000D02*
X0208500Y0008000D01*
D12*
X0138500Y0070200D02*
X0138500Y0075800D01*
X0113500Y0075800D02*
X0113500Y0070200D01*
X0088500Y0070200D02*
X0088500Y0075800D01*
X0063500Y0075800D02*
X0063500Y0070200D01*
X0063500Y0110200D02*
X0063500Y0115800D01*
X0088500Y0115800D02*
X0088500Y0110200D01*
X0113500Y0110200D02*
X0113500Y0115800D01*
X0138500Y0115800D02*
X0138500Y0110200D01*
X0113500Y0142700D02*
X0113500Y0148300D01*
X0138500Y0150800D02*
X0138500Y0145200D01*
X0138500Y0175200D02*
X0138500Y0180800D01*
X0113500Y0182700D02*
X0113500Y0188300D01*
X0088500Y0188300D02*
X0088500Y0182700D01*
X0063500Y0180800D02*
X0063500Y0175200D01*
X0038500Y0182700D02*
X0038500Y0188300D01*
X0063500Y0150800D02*
X0063500Y0145200D01*
X0038500Y0142700D02*
X0038500Y0148300D01*
X0088500Y0148300D02*
X0088500Y0142700D01*
X0346000Y0160200D02*
X0346000Y0165800D01*
X0371000Y0165800D02*
X0371000Y0160200D01*
X0431000Y0160200D02*
X0431000Y0165800D01*
X0456000Y0165800D02*
X0456000Y0160200D01*
X0456000Y0200200D02*
X0456000Y0205800D01*
X0431000Y0205800D02*
X0431000Y0200200D01*
X0371000Y0200200D02*
X0371000Y0205800D01*
X0346000Y0205800D02*
X0346000Y0200200D01*
D13*
X0396000Y0195500D03*
X0401000Y0203000D03*
X0406000Y0195500D03*
X0401000Y0170500D03*
X0396000Y0163000D03*
X0406000Y0163000D03*
X0278500Y0158000D03*
X0278500Y0148000D03*
X0278500Y0138000D03*
X0278500Y0128000D03*
X0278500Y0118000D03*
X0278500Y0108000D03*
X0278500Y0098000D03*
X0278500Y0088000D03*
X0278500Y0078000D03*
X0278500Y0068000D03*
X0278500Y0058000D03*
X0278500Y0048000D03*
X0278500Y0038000D03*
X0278500Y0028000D03*
X0278500Y0018000D03*
X0278500Y0008000D03*
X0208500Y0008000D03*
X0208500Y0018000D03*
X0208500Y0028000D03*
X0208500Y0038000D03*
X0208500Y0048000D03*
X0208500Y0058000D03*
X0208500Y0068000D03*
X0208500Y0078000D03*
X0208500Y0088000D03*
X0208500Y0098000D03*
X0208500Y0108000D03*
X0208500Y0118000D03*
X0208500Y0128000D03*
X0208500Y0138000D03*
X0208500Y0148000D03*
X0208500Y0158000D03*
X0208500Y0168000D03*
X0208500Y0178000D03*
X0208500Y0188000D03*
X0208500Y0198000D03*
X0278500Y0198000D03*
X0278500Y0188000D03*
X0278500Y0178000D03*
X0278500Y0168000D03*
X0276000Y0250500D03*
X0266000Y0250500D03*
X0256000Y0250500D03*
X0246000Y0250500D03*
X0236000Y0250500D03*
X0226000Y0250500D03*
X0216000Y0250500D03*
X0206000Y0250500D03*
X0196000Y0250500D03*
X0186000Y0250500D03*
X0186000Y0260500D03*
X0196000Y0260500D03*
X0206000Y0260500D03*
X0216000Y0260500D03*
X0226000Y0260500D03*
X0236000Y0260500D03*
X0246000Y0260500D03*
X0256000Y0260500D03*
X0266000Y0260500D03*
X0276000Y0260500D03*
X0286000Y0260500D03*
X0296000Y0260500D03*
X0306000Y0260500D03*
X0316000Y0260500D03*
X0326000Y0260500D03*
X0336000Y0260500D03*
X0346000Y0260500D03*
X0356000Y0260500D03*
X0366000Y0260500D03*
X0376000Y0260500D03*
X0376000Y0250500D03*
X0366000Y0250500D03*
X0356000Y0250500D03*
X0346000Y0250500D03*
X0336000Y0250500D03*
X0326000Y0250500D03*
X0316000Y0250500D03*
X0306000Y0250500D03*
X0296000Y0250500D03*
X0286000Y0250500D03*
X0112555Y0238000D03*
X0103539Y0238000D03*
X0094524Y0238000D03*
X0085508Y0238000D03*
X0076492Y0238000D03*
X0072004Y0228000D03*
X0081020Y0228000D03*
X0090035Y0228000D03*
X0099051Y0228000D03*
X0108067Y0228000D03*
X0112555Y0218000D03*
X0103539Y0218000D03*
X0094524Y0218000D03*
X0085508Y0218000D03*
X0076492Y0218000D03*
X0087022Y0025868D03*
X0112622Y0025868D03*
X0112622Y0008068D03*
X0087022Y0008068D03*
D14*
X0346315Y0124161D03*
X0353008Y0124161D03*
X0362555Y0124161D03*
X0372398Y0124161D03*
X0382240Y0124161D03*
X0392083Y0124161D03*
X0401925Y0124161D03*
X0411768Y0124161D03*
X0421610Y0124161D03*
D15*
X0332339Y0079280D03*
X0332339Y0044043D03*
X0332339Y0033807D03*
D16*
X0330764Y0024161D03*
X0444937Y0024161D03*
X0444937Y0097587D03*
X0330764Y0097587D03*
D17*
X0341000Y0115500D03*
X0429189Y0115500D03*
D18*
X0031012Y0104953D03*
X0031012Y0094953D03*
X0031012Y0084953D03*
D19*
X0420114Y0229693D03*
X0420114Y0239535D03*
X0428382Y0239535D03*
X0438618Y0239535D03*
X0446886Y0239535D03*
X0446886Y0229693D03*
D20*
X0433500Y0254496D03*
D21*
X0142713Y0228000D03*
X0044287Y0228000D03*
D22*
X0381255Y0138340D02*
X0381378Y0138723D01*
X0381584Y0139069D01*
X0381861Y0139360D01*
X0382196Y0139582D01*
X0382572Y0139725D01*
X0382970Y0139780D01*
X0383363Y0139728D01*
X0383735Y0139591D01*
X0384067Y0139375D01*
X0384342Y0139090D01*
X0384548Y0138751D01*
X0384672Y0138374D01*
X0384710Y0137980D01*
X0384663Y0137596D01*
X0384533Y0137233D01*
X0384324Y0136908D01*
X0384049Y0136637D01*
X0383720Y0136434D01*
X0383354Y0136310D01*
X0382970Y0136270D01*
X0382589Y0136304D01*
X0382224Y0136422D01*
X0381895Y0136618D01*
X0381618Y0136882D01*
X0381407Y0137202D01*
X0381272Y0137560D01*
X0381220Y0137940D01*
X0381255Y0138340D01*
X0381233Y0138089D02*
X0384699Y0138089D01*
X0384661Y0137591D02*
X0381268Y0137591D01*
X0381479Y0137092D02*
X0384443Y0137092D01*
X0383979Y0136594D02*
X0381936Y0136594D01*
X0381335Y0138588D02*
X0384602Y0138588D01*
X0384345Y0139086D02*
X0381600Y0139086D01*
X0382202Y0139585D02*
X0383745Y0139585D01*
X0392275Y0138340D02*
X0392398Y0138723D01*
X0392604Y0139069D01*
X0392881Y0139360D01*
X0393216Y0139582D01*
X0393592Y0139725D01*
X0393990Y0139780D01*
X0394383Y0139728D01*
X0394755Y0139591D01*
X0395087Y0139375D01*
X0395362Y0139090D01*
X0395568Y0138751D01*
X0395692Y0138374D01*
X0395730Y0137980D01*
X0395683Y0137596D01*
X0395553Y0137233D01*
X0395344Y0136908D01*
X0395069Y0136637D01*
X0394740Y0136434D01*
X0394374Y0136310D01*
X0393990Y0136270D01*
X0393609Y0136304D01*
X0393244Y0136422D01*
X0392915Y0136618D01*
X0392638Y0136882D01*
X0392427Y0137202D01*
X0392292Y0137560D01*
X0392240Y0137940D01*
X0392275Y0138340D01*
X0392253Y0138089D02*
X0395719Y0138089D01*
X0395681Y0137591D02*
X0392288Y0137591D01*
X0392499Y0137092D02*
X0395463Y0137092D01*
X0394999Y0136594D02*
X0392956Y0136594D01*
X0392355Y0138588D02*
X0395622Y0138588D01*
X0395365Y0139086D02*
X0392620Y0139086D01*
X0393222Y0139585D02*
X0394765Y0139585D01*
M02*
