G75*
%MOIN*%
%OFA0B0*%
%FSLAX25Y25*%
%IPPOS*%
%LPD*%
%AMOC8*
5,1,8,0,0,1.08239X$1,22.5*
%
%ADD10C,0.00600*%
%ADD11C,0.00800*%
%ADD12C,0.00500*%
%ADD13C,0.00400*%
%ADD14C,0.01600*%
%ADD15R,0.02000X0.07500*%
%ADD16C,0.00787*%
%ADD17C,0.01575*%
%ADD18C,0.01000*%
%ADD19R,0.01575X0.08268*%
%ADD20R,0.08000X0.02000*%
%ADD21R,0.02000X0.02500*%
%ADD22C,0.00100*%
D10*
X0085989Y0037580D02*
X0085989Y0043985D01*
X0089192Y0043985D01*
X0090259Y0042917D01*
X0090259Y0040782D01*
X0089192Y0039715D01*
X0085989Y0039715D01*
X0088124Y0039715D02*
X0090259Y0037580D01*
X0092434Y0037580D02*
X0096705Y0037580D01*
X0098880Y0038647D02*
X0099947Y0037580D01*
X0102083Y0037580D01*
X0103150Y0038647D01*
X0103150Y0039715D01*
X0102083Y0040782D01*
X0099947Y0040782D01*
X0098880Y0041850D01*
X0098880Y0042917D01*
X0099947Y0043985D01*
X0102083Y0043985D01*
X0103150Y0042917D01*
X0105325Y0043985D02*
X0105325Y0037580D01*
X0109596Y0037580D01*
X0107460Y0040782D02*
X0105325Y0040782D01*
X0105325Y0043985D02*
X0109596Y0043985D01*
X0111771Y0043985D02*
X0116041Y0043985D01*
X0113906Y0043985D02*
X0113906Y0037580D01*
X0096705Y0043985D02*
X0092434Y0043985D01*
X0092434Y0037580D01*
X0092434Y0040782D02*
X0094569Y0040782D01*
X0033964Y0081961D02*
X0033966Y0082092D01*
X0033972Y0082224D01*
X0033982Y0082355D01*
X0033996Y0082486D01*
X0034014Y0082616D01*
X0034036Y0082745D01*
X0034061Y0082874D01*
X0034091Y0083002D01*
X0034125Y0083129D01*
X0034162Y0083256D01*
X0034203Y0083380D01*
X0034248Y0083504D01*
X0034297Y0083626D01*
X0034349Y0083747D01*
X0034405Y0083865D01*
X0034465Y0083983D01*
X0034528Y0084098D01*
X0034595Y0084211D01*
X0034665Y0084323D01*
X0034738Y0084432D01*
X0034814Y0084538D01*
X0034894Y0084643D01*
X0034977Y0084745D01*
X0035063Y0084844D01*
X0035152Y0084941D01*
X0035244Y0085035D01*
X0035339Y0085126D01*
X0035436Y0085215D01*
X0035536Y0085300D01*
X0035639Y0085382D01*
X0035744Y0085461D01*
X0035851Y0085537D01*
X0035961Y0085609D01*
X0036073Y0085678D01*
X0036187Y0085744D01*
X0036302Y0085806D01*
X0036420Y0085865D01*
X0036539Y0085920D01*
X0036660Y0085972D01*
X0036783Y0086019D01*
X0036907Y0086063D01*
X0037032Y0086104D01*
X0037158Y0086140D01*
X0037286Y0086173D01*
X0037414Y0086201D01*
X0037543Y0086226D01*
X0037673Y0086247D01*
X0037803Y0086264D01*
X0037934Y0086277D01*
X0038065Y0086286D01*
X0038196Y0086291D01*
X0038328Y0086292D01*
X0038459Y0086289D01*
X0038591Y0086282D01*
X0038722Y0086271D01*
X0038852Y0086256D01*
X0038982Y0086237D01*
X0039112Y0086214D01*
X0039240Y0086188D01*
X0039368Y0086157D01*
X0039495Y0086122D01*
X0039621Y0086084D01*
X0039745Y0086042D01*
X0039869Y0085996D01*
X0039990Y0085946D01*
X0040110Y0085893D01*
X0040229Y0085836D01*
X0040346Y0085776D01*
X0040460Y0085712D01*
X0040573Y0085644D01*
X0040684Y0085573D01*
X0040793Y0085499D01*
X0040899Y0085422D01*
X0041003Y0085341D01*
X0041104Y0085258D01*
X0041203Y0085171D01*
X0041299Y0085081D01*
X0041392Y0084988D01*
X0041483Y0084893D01*
X0041570Y0084795D01*
X0041655Y0084694D01*
X0041736Y0084591D01*
X0041814Y0084485D01*
X0041889Y0084377D01*
X0041961Y0084267D01*
X0042029Y0084155D01*
X0042094Y0084041D01*
X0042155Y0083924D01*
X0042213Y0083806D01*
X0042267Y0083686D01*
X0042318Y0083565D01*
X0042365Y0083442D01*
X0042408Y0083318D01*
X0042447Y0083193D01*
X0042483Y0083066D01*
X0042514Y0082938D01*
X0042542Y0082810D01*
X0042566Y0082681D01*
X0042586Y0082551D01*
X0042602Y0082420D01*
X0042614Y0082289D01*
X0042622Y0082158D01*
X0042626Y0082027D01*
X0042626Y0081895D01*
X0042622Y0081764D01*
X0042614Y0081633D01*
X0042602Y0081502D01*
X0042586Y0081371D01*
X0042566Y0081241D01*
X0042542Y0081112D01*
X0042514Y0080984D01*
X0042483Y0080856D01*
X0042447Y0080729D01*
X0042408Y0080604D01*
X0042365Y0080480D01*
X0042318Y0080357D01*
X0042267Y0080236D01*
X0042213Y0080116D01*
X0042155Y0079998D01*
X0042094Y0079881D01*
X0042029Y0079767D01*
X0041961Y0079655D01*
X0041889Y0079545D01*
X0041814Y0079437D01*
X0041736Y0079331D01*
X0041655Y0079228D01*
X0041570Y0079127D01*
X0041483Y0079029D01*
X0041392Y0078934D01*
X0041299Y0078841D01*
X0041203Y0078751D01*
X0041104Y0078664D01*
X0041003Y0078581D01*
X0040899Y0078500D01*
X0040793Y0078423D01*
X0040684Y0078349D01*
X0040573Y0078278D01*
X0040461Y0078210D01*
X0040346Y0078146D01*
X0040229Y0078086D01*
X0040110Y0078029D01*
X0039990Y0077976D01*
X0039869Y0077926D01*
X0039745Y0077880D01*
X0039621Y0077838D01*
X0039495Y0077800D01*
X0039368Y0077765D01*
X0039240Y0077734D01*
X0039112Y0077708D01*
X0038982Y0077685D01*
X0038852Y0077666D01*
X0038722Y0077651D01*
X0038591Y0077640D01*
X0038459Y0077633D01*
X0038328Y0077630D01*
X0038196Y0077631D01*
X0038065Y0077636D01*
X0037934Y0077645D01*
X0037803Y0077658D01*
X0037673Y0077675D01*
X0037543Y0077696D01*
X0037414Y0077721D01*
X0037286Y0077749D01*
X0037158Y0077782D01*
X0037032Y0077818D01*
X0036907Y0077859D01*
X0036783Y0077903D01*
X0036660Y0077950D01*
X0036539Y0078002D01*
X0036420Y0078057D01*
X0036302Y0078116D01*
X0036187Y0078178D01*
X0036073Y0078244D01*
X0035961Y0078313D01*
X0035851Y0078385D01*
X0035744Y0078461D01*
X0035639Y0078540D01*
X0035536Y0078622D01*
X0035436Y0078707D01*
X0035339Y0078796D01*
X0035244Y0078887D01*
X0035152Y0078981D01*
X0035063Y0079078D01*
X0034977Y0079177D01*
X0034894Y0079279D01*
X0034814Y0079384D01*
X0034738Y0079490D01*
X0034665Y0079599D01*
X0034595Y0079711D01*
X0034528Y0079824D01*
X0034465Y0079939D01*
X0034405Y0080057D01*
X0034349Y0080175D01*
X0034297Y0080296D01*
X0034248Y0080418D01*
X0034203Y0080542D01*
X0034162Y0080666D01*
X0034125Y0080793D01*
X0034091Y0080920D01*
X0034061Y0081048D01*
X0034036Y0081177D01*
X0034014Y0081306D01*
X0033996Y0081436D01*
X0033982Y0081567D01*
X0033972Y0081698D01*
X0033966Y0081830D01*
X0033964Y0081961D01*
X0059500Y0085000D02*
X0059500Y0101000D01*
X0059502Y0101060D01*
X0059507Y0101121D01*
X0059516Y0101180D01*
X0059529Y0101239D01*
X0059545Y0101298D01*
X0059565Y0101355D01*
X0059588Y0101410D01*
X0059615Y0101465D01*
X0059644Y0101517D01*
X0059677Y0101568D01*
X0059713Y0101617D01*
X0059751Y0101663D01*
X0059793Y0101707D01*
X0059837Y0101749D01*
X0059883Y0101787D01*
X0059932Y0101823D01*
X0059983Y0101856D01*
X0060035Y0101885D01*
X0060090Y0101912D01*
X0060145Y0101935D01*
X0060202Y0101955D01*
X0060261Y0101971D01*
X0060320Y0101984D01*
X0060379Y0101993D01*
X0060440Y0101998D01*
X0060500Y0102000D01*
X0066500Y0102000D01*
X0066560Y0101998D01*
X0066621Y0101993D01*
X0066680Y0101984D01*
X0066739Y0101971D01*
X0066798Y0101955D01*
X0066855Y0101935D01*
X0066910Y0101912D01*
X0066965Y0101885D01*
X0067017Y0101856D01*
X0067068Y0101823D01*
X0067117Y0101787D01*
X0067163Y0101749D01*
X0067207Y0101707D01*
X0067249Y0101663D01*
X0067287Y0101617D01*
X0067323Y0101568D01*
X0067356Y0101517D01*
X0067385Y0101465D01*
X0067412Y0101410D01*
X0067435Y0101355D01*
X0067455Y0101298D01*
X0067471Y0101239D01*
X0067484Y0101180D01*
X0067493Y0101121D01*
X0067498Y0101060D01*
X0067500Y0101000D01*
X0067500Y0085000D01*
X0067498Y0084940D01*
X0067493Y0084879D01*
X0067484Y0084820D01*
X0067471Y0084761D01*
X0067455Y0084702D01*
X0067435Y0084645D01*
X0067412Y0084590D01*
X0067385Y0084535D01*
X0067356Y0084483D01*
X0067323Y0084432D01*
X0067287Y0084383D01*
X0067249Y0084337D01*
X0067207Y0084293D01*
X0067163Y0084251D01*
X0067117Y0084213D01*
X0067068Y0084177D01*
X0067017Y0084144D01*
X0066965Y0084115D01*
X0066910Y0084088D01*
X0066855Y0084065D01*
X0066798Y0084045D01*
X0066739Y0084029D01*
X0066680Y0084016D01*
X0066621Y0084007D01*
X0066560Y0084002D01*
X0066500Y0084000D01*
X0060500Y0084000D01*
X0060440Y0084002D01*
X0060379Y0084007D01*
X0060320Y0084016D01*
X0060261Y0084029D01*
X0060202Y0084045D01*
X0060145Y0084065D01*
X0060090Y0084088D01*
X0060035Y0084115D01*
X0059983Y0084144D01*
X0059932Y0084177D01*
X0059883Y0084213D01*
X0059837Y0084251D01*
X0059793Y0084293D01*
X0059751Y0084337D01*
X0059713Y0084383D01*
X0059677Y0084432D01*
X0059644Y0084483D01*
X0059615Y0084535D01*
X0059588Y0084590D01*
X0059565Y0084645D01*
X0059545Y0084702D01*
X0059529Y0084761D01*
X0059516Y0084820D01*
X0059507Y0084879D01*
X0059502Y0084940D01*
X0059500Y0085000D01*
X0084500Y0085000D02*
X0084500Y0101000D01*
X0084502Y0101060D01*
X0084507Y0101121D01*
X0084516Y0101180D01*
X0084529Y0101239D01*
X0084545Y0101298D01*
X0084565Y0101355D01*
X0084588Y0101410D01*
X0084615Y0101465D01*
X0084644Y0101517D01*
X0084677Y0101568D01*
X0084713Y0101617D01*
X0084751Y0101663D01*
X0084793Y0101707D01*
X0084837Y0101749D01*
X0084883Y0101787D01*
X0084932Y0101823D01*
X0084983Y0101856D01*
X0085035Y0101885D01*
X0085090Y0101912D01*
X0085145Y0101935D01*
X0085202Y0101955D01*
X0085261Y0101971D01*
X0085320Y0101984D01*
X0085379Y0101993D01*
X0085440Y0101998D01*
X0085500Y0102000D01*
X0091500Y0102000D01*
X0091560Y0101998D01*
X0091621Y0101993D01*
X0091680Y0101984D01*
X0091739Y0101971D01*
X0091798Y0101955D01*
X0091855Y0101935D01*
X0091910Y0101912D01*
X0091965Y0101885D01*
X0092017Y0101856D01*
X0092068Y0101823D01*
X0092117Y0101787D01*
X0092163Y0101749D01*
X0092207Y0101707D01*
X0092249Y0101663D01*
X0092287Y0101617D01*
X0092323Y0101568D01*
X0092356Y0101517D01*
X0092385Y0101465D01*
X0092412Y0101410D01*
X0092435Y0101355D01*
X0092455Y0101298D01*
X0092471Y0101239D01*
X0092484Y0101180D01*
X0092493Y0101121D01*
X0092498Y0101060D01*
X0092500Y0101000D01*
X0092500Y0085000D01*
X0092498Y0084940D01*
X0092493Y0084879D01*
X0092484Y0084820D01*
X0092471Y0084761D01*
X0092455Y0084702D01*
X0092435Y0084645D01*
X0092412Y0084590D01*
X0092385Y0084535D01*
X0092356Y0084483D01*
X0092323Y0084432D01*
X0092287Y0084383D01*
X0092249Y0084337D01*
X0092207Y0084293D01*
X0092163Y0084251D01*
X0092117Y0084213D01*
X0092068Y0084177D01*
X0092017Y0084144D01*
X0091965Y0084115D01*
X0091910Y0084088D01*
X0091855Y0084065D01*
X0091798Y0084045D01*
X0091739Y0084029D01*
X0091680Y0084016D01*
X0091621Y0084007D01*
X0091560Y0084002D01*
X0091500Y0084000D01*
X0085500Y0084000D01*
X0085440Y0084002D01*
X0085379Y0084007D01*
X0085320Y0084016D01*
X0085261Y0084029D01*
X0085202Y0084045D01*
X0085145Y0084065D01*
X0085090Y0084088D01*
X0085035Y0084115D01*
X0084983Y0084144D01*
X0084932Y0084177D01*
X0084883Y0084213D01*
X0084837Y0084251D01*
X0084793Y0084293D01*
X0084751Y0084337D01*
X0084713Y0084383D01*
X0084677Y0084432D01*
X0084644Y0084483D01*
X0084615Y0084535D01*
X0084588Y0084590D01*
X0084565Y0084645D01*
X0084545Y0084702D01*
X0084529Y0084761D01*
X0084516Y0084820D01*
X0084507Y0084879D01*
X0084502Y0084940D01*
X0084500Y0085000D01*
X0109500Y0085000D02*
X0109500Y0101000D01*
X0109502Y0101060D01*
X0109507Y0101121D01*
X0109516Y0101180D01*
X0109529Y0101239D01*
X0109545Y0101298D01*
X0109565Y0101355D01*
X0109588Y0101410D01*
X0109615Y0101465D01*
X0109644Y0101517D01*
X0109677Y0101568D01*
X0109713Y0101617D01*
X0109751Y0101663D01*
X0109793Y0101707D01*
X0109837Y0101749D01*
X0109883Y0101787D01*
X0109932Y0101823D01*
X0109983Y0101856D01*
X0110035Y0101885D01*
X0110090Y0101912D01*
X0110145Y0101935D01*
X0110202Y0101955D01*
X0110261Y0101971D01*
X0110320Y0101984D01*
X0110379Y0101993D01*
X0110440Y0101998D01*
X0110500Y0102000D01*
X0116500Y0102000D01*
X0116560Y0101998D01*
X0116621Y0101993D01*
X0116680Y0101984D01*
X0116739Y0101971D01*
X0116798Y0101955D01*
X0116855Y0101935D01*
X0116910Y0101912D01*
X0116965Y0101885D01*
X0117017Y0101856D01*
X0117068Y0101823D01*
X0117117Y0101787D01*
X0117163Y0101749D01*
X0117207Y0101707D01*
X0117249Y0101663D01*
X0117287Y0101617D01*
X0117323Y0101568D01*
X0117356Y0101517D01*
X0117385Y0101465D01*
X0117412Y0101410D01*
X0117435Y0101355D01*
X0117455Y0101298D01*
X0117471Y0101239D01*
X0117484Y0101180D01*
X0117493Y0101121D01*
X0117498Y0101060D01*
X0117500Y0101000D01*
X0117500Y0085000D01*
X0117498Y0084940D01*
X0117493Y0084879D01*
X0117484Y0084820D01*
X0117471Y0084761D01*
X0117455Y0084702D01*
X0117435Y0084645D01*
X0117412Y0084590D01*
X0117385Y0084535D01*
X0117356Y0084483D01*
X0117323Y0084432D01*
X0117287Y0084383D01*
X0117249Y0084337D01*
X0117207Y0084293D01*
X0117163Y0084251D01*
X0117117Y0084213D01*
X0117068Y0084177D01*
X0117017Y0084144D01*
X0116965Y0084115D01*
X0116910Y0084088D01*
X0116855Y0084065D01*
X0116798Y0084045D01*
X0116739Y0084029D01*
X0116680Y0084016D01*
X0116621Y0084007D01*
X0116560Y0084002D01*
X0116500Y0084000D01*
X0110500Y0084000D01*
X0110440Y0084002D01*
X0110379Y0084007D01*
X0110320Y0084016D01*
X0110261Y0084029D01*
X0110202Y0084045D01*
X0110145Y0084065D01*
X0110090Y0084088D01*
X0110035Y0084115D01*
X0109983Y0084144D01*
X0109932Y0084177D01*
X0109883Y0084213D01*
X0109837Y0084251D01*
X0109793Y0084293D01*
X0109751Y0084337D01*
X0109713Y0084383D01*
X0109677Y0084432D01*
X0109644Y0084483D01*
X0109615Y0084535D01*
X0109588Y0084590D01*
X0109565Y0084645D01*
X0109545Y0084702D01*
X0109529Y0084761D01*
X0109516Y0084820D01*
X0109507Y0084879D01*
X0109502Y0084940D01*
X0109500Y0085000D01*
X0134500Y0085000D02*
X0134500Y0101000D01*
X0134502Y0101060D01*
X0134507Y0101121D01*
X0134516Y0101180D01*
X0134529Y0101239D01*
X0134545Y0101298D01*
X0134565Y0101355D01*
X0134588Y0101410D01*
X0134615Y0101465D01*
X0134644Y0101517D01*
X0134677Y0101568D01*
X0134713Y0101617D01*
X0134751Y0101663D01*
X0134793Y0101707D01*
X0134837Y0101749D01*
X0134883Y0101787D01*
X0134932Y0101823D01*
X0134983Y0101856D01*
X0135035Y0101885D01*
X0135090Y0101912D01*
X0135145Y0101935D01*
X0135202Y0101955D01*
X0135261Y0101971D01*
X0135320Y0101984D01*
X0135379Y0101993D01*
X0135440Y0101998D01*
X0135500Y0102000D01*
X0141500Y0102000D01*
X0141560Y0101998D01*
X0141621Y0101993D01*
X0141680Y0101984D01*
X0141739Y0101971D01*
X0141798Y0101955D01*
X0141855Y0101935D01*
X0141910Y0101912D01*
X0141965Y0101885D01*
X0142017Y0101856D01*
X0142068Y0101823D01*
X0142117Y0101787D01*
X0142163Y0101749D01*
X0142207Y0101707D01*
X0142249Y0101663D01*
X0142287Y0101617D01*
X0142323Y0101568D01*
X0142356Y0101517D01*
X0142385Y0101465D01*
X0142412Y0101410D01*
X0142435Y0101355D01*
X0142455Y0101298D01*
X0142471Y0101239D01*
X0142484Y0101180D01*
X0142493Y0101121D01*
X0142498Y0101060D01*
X0142500Y0101000D01*
X0142500Y0085000D01*
X0142498Y0084940D01*
X0142493Y0084879D01*
X0142484Y0084820D01*
X0142471Y0084761D01*
X0142455Y0084702D01*
X0142435Y0084645D01*
X0142412Y0084590D01*
X0142385Y0084535D01*
X0142356Y0084483D01*
X0142323Y0084432D01*
X0142287Y0084383D01*
X0142249Y0084337D01*
X0142207Y0084293D01*
X0142163Y0084251D01*
X0142117Y0084213D01*
X0142068Y0084177D01*
X0142017Y0084144D01*
X0141965Y0084115D01*
X0141910Y0084088D01*
X0141855Y0084065D01*
X0141798Y0084045D01*
X0141739Y0084029D01*
X0141680Y0084016D01*
X0141621Y0084007D01*
X0141560Y0084002D01*
X0141500Y0084000D01*
X0135500Y0084000D01*
X0135440Y0084002D01*
X0135379Y0084007D01*
X0135320Y0084016D01*
X0135261Y0084029D01*
X0135202Y0084045D01*
X0135145Y0084065D01*
X0135090Y0084088D01*
X0135035Y0084115D01*
X0134983Y0084144D01*
X0134932Y0084177D01*
X0134883Y0084213D01*
X0134837Y0084251D01*
X0134793Y0084293D01*
X0134751Y0084337D01*
X0134713Y0084383D01*
X0134677Y0084432D01*
X0134644Y0084483D01*
X0134615Y0084535D01*
X0134588Y0084590D01*
X0134565Y0084645D01*
X0134545Y0084702D01*
X0134529Y0084761D01*
X0134516Y0084820D01*
X0134507Y0084879D01*
X0134502Y0084940D01*
X0134500Y0085000D01*
X0135500Y0154000D02*
X0141500Y0154000D01*
X0141560Y0154002D01*
X0141621Y0154007D01*
X0141680Y0154016D01*
X0141739Y0154029D01*
X0141798Y0154045D01*
X0141855Y0154065D01*
X0141910Y0154088D01*
X0141965Y0154115D01*
X0142017Y0154144D01*
X0142068Y0154177D01*
X0142117Y0154213D01*
X0142163Y0154251D01*
X0142207Y0154293D01*
X0142249Y0154337D01*
X0142287Y0154383D01*
X0142323Y0154432D01*
X0142356Y0154483D01*
X0142385Y0154535D01*
X0142412Y0154590D01*
X0142435Y0154645D01*
X0142455Y0154702D01*
X0142471Y0154761D01*
X0142484Y0154820D01*
X0142493Y0154879D01*
X0142498Y0154940D01*
X0142500Y0155000D01*
X0142500Y0171000D01*
X0142498Y0171060D01*
X0142493Y0171121D01*
X0142484Y0171180D01*
X0142471Y0171239D01*
X0142455Y0171298D01*
X0142435Y0171355D01*
X0142412Y0171410D01*
X0142385Y0171465D01*
X0142356Y0171517D01*
X0142323Y0171568D01*
X0142287Y0171617D01*
X0142249Y0171663D01*
X0142207Y0171707D01*
X0142163Y0171749D01*
X0142117Y0171787D01*
X0142068Y0171823D01*
X0142017Y0171856D01*
X0141965Y0171885D01*
X0141910Y0171912D01*
X0141855Y0171935D01*
X0141798Y0171955D01*
X0141739Y0171971D01*
X0141680Y0171984D01*
X0141621Y0171993D01*
X0141560Y0171998D01*
X0141500Y0172000D01*
X0135500Y0172000D01*
X0135440Y0171998D01*
X0135379Y0171993D01*
X0135320Y0171984D01*
X0135261Y0171971D01*
X0135202Y0171955D01*
X0135145Y0171935D01*
X0135090Y0171912D01*
X0135035Y0171885D01*
X0134983Y0171856D01*
X0134932Y0171823D01*
X0134883Y0171787D01*
X0134837Y0171749D01*
X0134793Y0171707D01*
X0134751Y0171663D01*
X0134713Y0171617D01*
X0134677Y0171568D01*
X0134644Y0171517D01*
X0134615Y0171465D01*
X0134588Y0171410D01*
X0134565Y0171355D01*
X0134545Y0171298D01*
X0134529Y0171239D01*
X0134516Y0171180D01*
X0134507Y0171121D01*
X0134502Y0171060D01*
X0134500Y0171000D01*
X0134500Y0155000D01*
X0134502Y0154940D01*
X0134507Y0154879D01*
X0134516Y0154820D01*
X0134529Y0154761D01*
X0134545Y0154702D01*
X0134565Y0154645D01*
X0134588Y0154590D01*
X0134615Y0154535D01*
X0134644Y0154483D01*
X0134677Y0154432D01*
X0134713Y0154383D01*
X0134751Y0154337D01*
X0134793Y0154293D01*
X0134837Y0154251D01*
X0134883Y0154213D01*
X0134932Y0154177D01*
X0134983Y0154144D01*
X0135035Y0154115D01*
X0135090Y0154088D01*
X0135145Y0154065D01*
X0135202Y0154045D01*
X0135261Y0154029D01*
X0135320Y0154016D01*
X0135379Y0154007D01*
X0135440Y0154002D01*
X0135500Y0154000D01*
X0138500Y0160500D02*
X0138500Y0163000D01*
X0141000Y0163000D01*
X0138500Y0163000D02*
X0136000Y0163000D01*
X0138500Y0163000D02*
X0136000Y0167000D01*
X0141000Y0167000D01*
X0138500Y0163000D01*
X0138500Y0169000D01*
X0117500Y0173500D02*
X0117500Y0157500D01*
X0117498Y0157440D01*
X0117493Y0157379D01*
X0117484Y0157320D01*
X0117471Y0157261D01*
X0117455Y0157202D01*
X0117435Y0157145D01*
X0117412Y0157090D01*
X0117385Y0157035D01*
X0117356Y0156983D01*
X0117323Y0156932D01*
X0117287Y0156883D01*
X0117249Y0156837D01*
X0117207Y0156793D01*
X0117163Y0156751D01*
X0117117Y0156713D01*
X0117068Y0156677D01*
X0117017Y0156644D01*
X0116965Y0156615D01*
X0116910Y0156588D01*
X0116855Y0156565D01*
X0116798Y0156545D01*
X0116739Y0156529D01*
X0116680Y0156516D01*
X0116621Y0156507D01*
X0116560Y0156502D01*
X0116500Y0156500D01*
X0110500Y0156500D01*
X0110440Y0156502D01*
X0110379Y0156507D01*
X0110320Y0156516D01*
X0110261Y0156529D01*
X0110202Y0156545D01*
X0110145Y0156565D01*
X0110090Y0156588D01*
X0110035Y0156615D01*
X0109983Y0156644D01*
X0109932Y0156677D01*
X0109883Y0156713D01*
X0109837Y0156751D01*
X0109793Y0156793D01*
X0109751Y0156837D01*
X0109713Y0156883D01*
X0109677Y0156932D01*
X0109644Y0156983D01*
X0109615Y0157035D01*
X0109588Y0157090D01*
X0109565Y0157145D01*
X0109545Y0157202D01*
X0109529Y0157261D01*
X0109516Y0157320D01*
X0109507Y0157379D01*
X0109502Y0157440D01*
X0109500Y0157500D01*
X0109500Y0173500D01*
X0109502Y0173560D01*
X0109507Y0173621D01*
X0109516Y0173680D01*
X0109529Y0173739D01*
X0109545Y0173798D01*
X0109565Y0173855D01*
X0109588Y0173910D01*
X0109615Y0173965D01*
X0109644Y0174017D01*
X0109677Y0174068D01*
X0109713Y0174117D01*
X0109751Y0174163D01*
X0109793Y0174207D01*
X0109837Y0174249D01*
X0109883Y0174287D01*
X0109932Y0174323D01*
X0109983Y0174356D01*
X0110035Y0174385D01*
X0110090Y0174412D01*
X0110145Y0174435D01*
X0110202Y0174455D01*
X0110261Y0174471D01*
X0110320Y0174484D01*
X0110379Y0174493D01*
X0110440Y0174498D01*
X0110500Y0174500D01*
X0116500Y0174500D01*
X0116560Y0174498D01*
X0116621Y0174493D01*
X0116680Y0174484D01*
X0116739Y0174471D01*
X0116798Y0174455D01*
X0116855Y0174435D01*
X0116910Y0174412D01*
X0116965Y0174385D01*
X0117017Y0174356D01*
X0117068Y0174323D01*
X0117117Y0174287D01*
X0117163Y0174249D01*
X0117207Y0174207D01*
X0117249Y0174163D01*
X0117287Y0174117D01*
X0117323Y0174068D01*
X0117356Y0174017D01*
X0117385Y0173965D01*
X0117412Y0173910D01*
X0117435Y0173855D01*
X0117455Y0173798D01*
X0117471Y0173739D01*
X0117484Y0173680D01*
X0117493Y0173621D01*
X0117498Y0173560D01*
X0117500Y0173500D01*
X0092500Y0173500D02*
X0092500Y0157500D01*
X0092498Y0157440D01*
X0092493Y0157379D01*
X0092484Y0157320D01*
X0092471Y0157261D01*
X0092455Y0157202D01*
X0092435Y0157145D01*
X0092412Y0157090D01*
X0092385Y0157035D01*
X0092356Y0156983D01*
X0092323Y0156932D01*
X0092287Y0156883D01*
X0092249Y0156837D01*
X0092207Y0156793D01*
X0092163Y0156751D01*
X0092117Y0156713D01*
X0092068Y0156677D01*
X0092017Y0156644D01*
X0091965Y0156615D01*
X0091910Y0156588D01*
X0091855Y0156565D01*
X0091798Y0156545D01*
X0091739Y0156529D01*
X0091680Y0156516D01*
X0091621Y0156507D01*
X0091560Y0156502D01*
X0091500Y0156500D01*
X0085500Y0156500D01*
X0085440Y0156502D01*
X0085379Y0156507D01*
X0085320Y0156516D01*
X0085261Y0156529D01*
X0085202Y0156545D01*
X0085145Y0156565D01*
X0085090Y0156588D01*
X0085035Y0156615D01*
X0084983Y0156644D01*
X0084932Y0156677D01*
X0084883Y0156713D01*
X0084837Y0156751D01*
X0084793Y0156793D01*
X0084751Y0156837D01*
X0084713Y0156883D01*
X0084677Y0156932D01*
X0084644Y0156983D01*
X0084615Y0157035D01*
X0084588Y0157090D01*
X0084565Y0157145D01*
X0084545Y0157202D01*
X0084529Y0157261D01*
X0084516Y0157320D01*
X0084507Y0157379D01*
X0084502Y0157440D01*
X0084500Y0157500D01*
X0084500Y0173500D01*
X0084502Y0173560D01*
X0084507Y0173621D01*
X0084516Y0173680D01*
X0084529Y0173739D01*
X0084545Y0173798D01*
X0084565Y0173855D01*
X0084588Y0173910D01*
X0084615Y0173965D01*
X0084644Y0174017D01*
X0084677Y0174068D01*
X0084713Y0174117D01*
X0084751Y0174163D01*
X0084793Y0174207D01*
X0084837Y0174249D01*
X0084883Y0174287D01*
X0084932Y0174323D01*
X0084983Y0174356D01*
X0085035Y0174385D01*
X0085090Y0174412D01*
X0085145Y0174435D01*
X0085202Y0174455D01*
X0085261Y0174471D01*
X0085320Y0174484D01*
X0085379Y0174493D01*
X0085440Y0174498D01*
X0085500Y0174500D01*
X0091500Y0174500D01*
X0091560Y0174498D01*
X0091621Y0174493D01*
X0091680Y0174484D01*
X0091739Y0174471D01*
X0091798Y0174455D01*
X0091855Y0174435D01*
X0091910Y0174412D01*
X0091965Y0174385D01*
X0092017Y0174356D01*
X0092068Y0174323D01*
X0092117Y0174287D01*
X0092163Y0174249D01*
X0092207Y0174207D01*
X0092249Y0174163D01*
X0092287Y0174117D01*
X0092323Y0174068D01*
X0092356Y0174017D01*
X0092385Y0173965D01*
X0092412Y0173910D01*
X0092435Y0173855D01*
X0092455Y0173798D01*
X0092471Y0173739D01*
X0092484Y0173680D01*
X0092493Y0173621D01*
X0092498Y0173560D01*
X0092500Y0173500D01*
X0067500Y0171000D02*
X0067500Y0155000D01*
X0067498Y0154940D01*
X0067493Y0154879D01*
X0067484Y0154820D01*
X0067471Y0154761D01*
X0067455Y0154702D01*
X0067435Y0154645D01*
X0067412Y0154590D01*
X0067385Y0154535D01*
X0067356Y0154483D01*
X0067323Y0154432D01*
X0067287Y0154383D01*
X0067249Y0154337D01*
X0067207Y0154293D01*
X0067163Y0154251D01*
X0067117Y0154213D01*
X0067068Y0154177D01*
X0067017Y0154144D01*
X0066965Y0154115D01*
X0066910Y0154088D01*
X0066855Y0154065D01*
X0066798Y0154045D01*
X0066739Y0154029D01*
X0066680Y0154016D01*
X0066621Y0154007D01*
X0066560Y0154002D01*
X0066500Y0154000D01*
X0060500Y0154000D01*
X0060440Y0154002D01*
X0060379Y0154007D01*
X0060320Y0154016D01*
X0060261Y0154029D01*
X0060202Y0154045D01*
X0060145Y0154065D01*
X0060090Y0154088D01*
X0060035Y0154115D01*
X0059983Y0154144D01*
X0059932Y0154177D01*
X0059883Y0154213D01*
X0059837Y0154251D01*
X0059793Y0154293D01*
X0059751Y0154337D01*
X0059713Y0154383D01*
X0059677Y0154432D01*
X0059644Y0154483D01*
X0059615Y0154535D01*
X0059588Y0154590D01*
X0059565Y0154645D01*
X0059545Y0154702D01*
X0059529Y0154761D01*
X0059516Y0154820D01*
X0059507Y0154879D01*
X0059502Y0154940D01*
X0059500Y0155000D01*
X0059500Y0171000D01*
X0059502Y0171060D01*
X0059507Y0171121D01*
X0059516Y0171180D01*
X0059529Y0171239D01*
X0059545Y0171298D01*
X0059565Y0171355D01*
X0059588Y0171410D01*
X0059615Y0171465D01*
X0059644Y0171517D01*
X0059677Y0171568D01*
X0059713Y0171617D01*
X0059751Y0171663D01*
X0059793Y0171707D01*
X0059837Y0171749D01*
X0059883Y0171787D01*
X0059932Y0171823D01*
X0059983Y0171856D01*
X0060035Y0171885D01*
X0060090Y0171912D01*
X0060145Y0171935D01*
X0060202Y0171955D01*
X0060261Y0171971D01*
X0060320Y0171984D01*
X0060379Y0171993D01*
X0060440Y0171998D01*
X0060500Y0172000D01*
X0066500Y0172000D01*
X0066560Y0171998D01*
X0066621Y0171993D01*
X0066680Y0171984D01*
X0066739Y0171971D01*
X0066798Y0171955D01*
X0066855Y0171935D01*
X0066910Y0171912D01*
X0066965Y0171885D01*
X0067017Y0171856D01*
X0067068Y0171823D01*
X0067117Y0171787D01*
X0067163Y0171749D01*
X0067207Y0171707D01*
X0067249Y0171663D01*
X0067287Y0171617D01*
X0067323Y0171568D01*
X0067356Y0171517D01*
X0067385Y0171465D01*
X0067412Y0171410D01*
X0067435Y0171355D01*
X0067455Y0171298D01*
X0067471Y0171239D01*
X0067484Y0171180D01*
X0067493Y0171121D01*
X0067498Y0171060D01*
X0067500Y0171000D01*
X0063500Y0169000D02*
X0063500Y0163000D01*
X0066000Y0163000D01*
X0063500Y0163000D02*
X0063500Y0160500D01*
X0063500Y0163000D02*
X0061000Y0163000D01*
X0063500Y0163000D02*
X0061000Y0167000D01*
X0066000Y0167000D01*
X0063500Y0163000D01*
X0042500Y0157500D02*
X0042500Y0173500D01*
X0042498Y0173560D01*
X0042493Y0173621D01*
X0042484Y0173680D01*
X0042471Y0173739D01*
X0042455Y0173798D01*
X0042435Y0173855D01*
X0042412Y0173910D01*
X0042385Y0173965D01*
X0042356Y0174017D01*
X0042323Y0174068D01*
X0042287Y0174117D01*
X0042249Y0174163D01*
X0042207Y0174207D01*
X0042163Y0174249D01*
X0042117Y0174287D01*
X0042068Y0174323D01*
X0042017Y0174356D01*
X0041965Y0174385D01*
X0041910Y0174412D01*
X0041855Y0174435D01*
X0041798Y0174455D01*
X0041739Y0174471D01*
X0041680Y0174484D01*
X0041621Y0174493D01*
X0041560Y0174498D01*
X0041500Y0174500D01*
X0035500Y0174500D01*
X0035440Y0174498D01*
X0035379Y0174493D01*
X0035320Y0174484D01*
X0035261Y0174471D01*
X0035202Y0174455D01*
X0035145Y0174435D01*
X0035090Y0174412D01*
X0035035Y0174385D01*
X0034983Y0174356D01*
X0034932Y0174323D01*
X0034883Y0174287D01*
X0034837Y0174249D01*
X0034793Y0174207D01*
X0034751Y0174163D01*
X0034713Y0174117D01*
X0034677Y0174068D01*
X0034644Y0174017D01*
X0034615Y0173965D01*
X0034588Y0173910D01*
X0034565Y0173855D01*
X0034545Y0173798D01*
X0034529Y0173739D01*
X0034516Y0173680D01*
X0034507Y0173621D01*
X0034502Y0173560D01*
X0034500Y0173500D01*
X0034500Y0157500D01*
X0034502Y0157440D01*
X0034507Y0157379D01*
X0034516Y0157320D01*
X0034529Y0157261D01*
X0034545Y0157202D01*
X0034565Y0157145D01*
X0034588Y0157090D01*
X0034615Y0157035D01*
X0034644Y0156983D01*
X0034677Y0156932D01*
X0034713Y0156883D01*
X0034751Y0156837D01*
X0034793Y0156793D01*
X0034837Y0156751D01*
X0034883Y0156713D01*
X0034932Y0156677D01*
X0034983Y0156644D01*
X0035035Y0156615D01*
X0035090Y0156588D01*
X0035145Y0156565D01*
X0035202Y0156545D01*
X0035261Y0156529D01*
X0035320Y0156516D01*
X0035379Y0156507D01*
X0035440Y0156502D01*
X0035500Y0156500D01*
X0041500Y0156500D01*
X0041560Y0156502D01*
X0041621Y0156507D01*
X0041680Y0156516D01*
X0041739Y0156529D01*
X0041798Y0156545D01*
X0041855Y0156565D01*
X0041910Y0156588D01*
X0041965Y0156615D01*
X0042017Y0156644D01*
X0042068Y0156677D01*
X0042117Y0156713D01*
X0042163Y0156751D01*
X0042207Y0156793D01*
X0042249Y0156837D01*
X0042287Y0156883D01*
X0042323Y0156932D01*
X0042356Y0156983D01*
X0042385Y0157035D01*
X0042412Y0157090D01*
X0042435Y0157145D01*
X0042455Y0157202D01*
X0042471Y0157261D01*
X0042484Y0157320D01*
X0042493Y0157379D01*
X0042498Y0157440D01*
X0042500Y0157500D01*
X0236300Y0014705D02*
X0236300Y0009368D01*
X0237368Y0008300D01*
X0239503Y0008300D01*
X0240570Y0009368D01*
X0240570Y0014705D01*
X0242745Y0013638D02*
X0242745Y0012570D01*
X0243813Y0011503D01*
X0245948Y0011503D01*
X0247016Y0010435D01*
X0247016Y0009368D01*
X0245948Y0008300D01*
X0243813Y0008300D01*
X0242745Y0009368D01*
X0242745Y0013638D02*
X0243813Y0014705D01*
X0245948Y0014705D01*
X0247016Y0013638D01*
X0249191Y0014705D02*
X0252394Y0014705D01*
X0253461Y0013638D01*
X0253461Y0012570D01*
X0252394Y0011503D01*
X0249191Y0011503D01*
X0249191Y0014705D02*
X0249191Y0008300D01*
X0252394Y0008300D01*
X0253461Y0009368D01*
X0253461Y0010435D01*
X0252394Y0011503D01*
X0346300Y0133300D02*
X0350570Y0133300D01*
X0348435Y0133300D02*
X0348435Y0139705D01*
X0346300Y0137570D01*
X0352745Y0138638D02*
X0353813Y0139705D01*
X0355948Y0139705D01*
X0357016Y0138638D01*
X0352745Y0134368D01*
X0353813Y0133300D01*
X0355948Y0133300D01*
X0357016Y0134368D01*
X0357016Y0138638D01*
X0359191Y0138638D02*
X0360259Y0139705D01*
X0362394Y0139705D01*
X0363461Y0138638D01*
X0359191Y0134368D01*
X0360259Y0133300D01*
X0362394Y0133300D01*
X0363461Y0134368D01*
X0363461Y0138638D01*
X0365636Y0137570D02*
X0368839Y0137570D01*
X0369907Y0136503D01*
X0369907Y0133300D01*
X0372082Y0133300D02*
X0372082Y0139705D01*
X0376352Y0139705D01*
X0374217Y0136503D02*
X0372082Y0136503D01*
X0365636Y0137570D02*
X0365636Y0133300D01*
X0359191Y0134368D02*
X0359191Y0138638D01*
X0352745Y0138638D02*
X0352745Y0134368D01*
X0383056Y0147362D02*
X0387327Y0151632D01*
X0387327Y0152700D01*
X0386259Y0153767D01*
X0384124Y0153767D01*
X0383056Y0152700D01*
X0384402Y0158152D02*
X0383334Y0159219D01*
X0384402Y0158152D02*
X0386537Y0158152D01*
X0387605Y0159219D01*
X0387605Y0160287D01*
X0386537Y0161354D01*
X0384402Y0161354D01*
X0383334Y0162422D01*
X0383334Y0163490D01*
X0384402Y0164557D01*
X0386537Y0164557D01*
X0387605Y0163490D01*
X0389502Y0153767D02*
X0393772Y0147362D01*
X0393772Y0153767D01*
X0395947Y0153767D02*
X0400218Y0153767D01*
X0400218Y0152700D01*
X0395947Y0148429D01*
X0395947Y0147362D01*
X0389502Y0147362D02*
X0389502Y0153767D01*
X0387327Y0147362D02*
X0383056Y0147362D01*
X0402393Y0148429D02*
X0406663Y0152700D01*
X0406663Y0148429D01*
X0405595Y0147362D01*
X0403460Y0147362D01*
X0402393Y0148429D01*
X0402393Y0152700D01*
X0403460Y0153767D01*
X0405595Y0153767D01*
X0406663Y0152700D01*
X0408838Y0152700D02*
X0409906Y0153767D01*
X0412041Y0153767D01*
X0413109Y0152700D01*
X0408838Y0148429D01*
X0409906Y0147362D01*
X0412041Y0147362D01*
X0413109Y0148429D01*
X0413109Y0152700D01*
X0415284Y0152700D02*
X0416351Y0153767D01*
X0418486Y0153767D01*
X0419554Y0152700D01*
X0415284Y0148429D01*
X0416351Y0147362D01*
X0418486Y0147362D01*
X0419554Y0148429D01*
X0419554Y0152700D01*
X0415284Y0152700D02*
X0415284Y0148429D01*
X0408838Y0148429D02*
X0408838Y0152700D01*
X0414013Y0157569D02*
X0417216Y0157569D01*
X0418284Y0158637D01*
X0418284Y0162907D01*
X0417216Y0163975D01*
X0414013Y0163975D01*
X0414013Y0157569D01*
X0428000Y0174000D02*
X0434000Y0174000D01*
X0434060Y0174002D01*
X0434121Y0174007D01*
X0434180Y0174016D01*
X0434239Y0174029D01*
X0434298Y0174045D01*
X0434355Y0174065D01*
X0434410Y0174088D01*
X0434465Y0174115D01*
X0434517Y0174144D01*
X0434568Y0174177D01*
X0434617Y0174213D01*
X0434663Y0174251D01*
X0434707Y0174293D01*
X0434749Y0174337D01*
X0434787Y0174383D01*
X0434823Y0174432D01*
X0434856Y0174483D01*
X0434885Y0174535D01*
X0434912Y0174590D01*
X0434935Y0174645D01*
X0434955Y0174702D01*
X0434971Y0174761D01*
X0434984Y0174820D01*
X0434993Y0174879D01*
X0434998Y0174940D01*
X0435000Y0175000D01*
X0435000Y0191000D01*
X0434998Y0191060D01*
X0434993Y0191121D01*
X0434984Y0191180D01*
X0434971Y0191239D01*
X0434955Y0191298D01*
X0434935Y0191355D01*
X0434912Y0191410D01*
X0434885Y0191465D01*
X0434856Y0191517D01*
X0434823Y0191568D01*
X0434787Y0191617D01*
X0434749Y0191663D01*
X0434707Y0191707D01*
X0434663Y0191749D01*
X0434617Y0191787D01*
X0434568Y0191823D01*
X0434517Y0191856D01*
X0434465Y0191885D01*
X0434410Y0191912D01*
X0434355Y0191935D01*
X0434298Y0191955D01*
X0434239Y0191971D01*
X0434180Y0191984D01*
X0434121Y0191993D01*
X0434060Y0191998D01*
X0434000Y0192000D01*
X0428000Y0192000D01*
X0427940Y0191998D01*
X0427879Y0191993D01*
X0427820Y0191984D01*
X0427761Y0191971D01*
X0427702Y0191955D01*
X0427645Y0191935D01*
X0427590Y0191912D01*
X0427535Y0191885D01*
X0427483Y0191856D01*
X0427432Y0191823D01*
X0427383Y0191787D01*
X0427337Y0191749D01*
X0427293Y0191707D01*
X0427251Y0191663D01*
X0427213Y0191617D01*
X0427177Y0191568D01*
X0427144Y0191517D01*
X0427115Y0191465D01*
X0427088Y0191410D01*
X0427065Y0191355D01*
X0427045Y0191298D01*
X0427029Y0191239D01*
X0427016Y0191180D01*
X0427007Y0191121D01*
X0427002Y0191060D01*
X0427000Y0191000D01*
X0427000Y0175000D01*
X0427002Y0174940D01*
X0427007Y0174879D01*
X0427016Y0174820D01*
X0427029Y0174761D01*
X0427045Y0174702D01*
X0427065Y0174645D01*
X0427088Y0174590D01*
X0427115Y0174535D01*
X0427144Y0174483D01*
X0427177Y0174432D01*
X0427213Y0174383D01*
X0427251Y0174337D01*
X0427293Y0174293D01*
X0427337Y0174251D01*
X0427383Y0174213D01*
X0427432Y0174177D01*
X0427483Y0174144D01*
X0427535Y0174115D01*
X0427590Y0174088D01*
X0427645Y0174065D01*
X0427702Y0174045D01*
X0427761Y0174029D01*
X0427820Y0174016D01*
X0427879Y0174007D01*
X0427940Y0174002D01*
X0428000Y0174000D01*
X0419180Y0180932D02*
X0418112Y0179865D01*
X0415977Y0179865D01*
X0414909Y0180932D01*
X0419180Y0185203D01*
X0419180Y0180932D01*
X0419180Y0185203D02*
X0418112Y0186270D01*
X0415977Y0186270D01*
X0414909Y0185203D01*
X0414909Y0180932D01*
X0412734Y0180932D02*
X0412734Y0185203D01*
X0408464Y0180932D01*
X0409531Y0179865D01*
X0411667Y0179865D01*
X0412734Y0180932D01*
X0408464Y0180932D02*
X0408464Y0185203D01*
X0409531Y0186270D01*
X0411667Y0186270D01*
X0412734Y0185203D01*
X0406289Y0185203D02*
X0406289Y0180932D01*
X0405221Y0179865D01*
X0403086Y0179865D01*
X0402018Y0180932D01*
X0406289Y0185203D01*
X0405221Y0186270D01*
X0403086Y0186270D01*
X0402018Y0185203D01*
X0402018Y0180932D01*
X0399843Y0185203D02*
X0395573Y0180932D01*
X0395573Y0179865D01*
X0393398Y0179865D02*
X0393398Y0186270D01*
X0395573Y0186270D02*
X0399843Y0186270D01*
X0399843Y0185203D01*
X0393398Y0179865D02*
X0389127Y0186270D01*
X0389127Y0179865D01*
X0386952Y0179865D02*
X0382682Y0179865D01*
X0386952Y0184135D01*
X0386952Y0185203D01*
X0385885Y0186270D01*
X0383749Y0186270D01*
X0382682Y0185203D01*
X0384941Y0189769D02*
X0383874Y0190836D01*
X0384941Y0189769D02*
X0387076Y0189769D01*
X0388144Y0190836D01*
X0388144Y0191904D01*
X0387076Y0192972D01*
X0384941Y0192972D01*
X0383874Y0194039D01*
X0383874Y0195107D01*
X0384941Y0196174D01*
X0387076Y0196174D01*
X0388144Y0195107D01*
X0375000Y0191000D02*
X0375000Y0175000D01*
X0374998Y0174940D01*
X0374993Y0174879D01*
X0374984Y0174820D01*
X0374971Y0174761D01*
X0374955Y0174702D01*
X0374935Y0174645D01*
X0374912Y0174590D01*
X0374885Y0174535D01*
X0374856Y0174483D01*
X0374823Y0174432D01*
X0374787Y0174383D01*
X0374749Y0174337D01*
X0374707Y0174293D01*
X0374663Y0174251D01*
X0374617Y0174213D01*
X0374568Y0174177D01*
X0374517Y0174144D01*
X0374465Y0174115D01*
X0374410Y0174088D01*
X0374355Y0174065D01*
X0374298Y0174045D01*
X0374239Y0174029D01*
X0374180Y0174016D01*
X0374121Y0174007D01*
X0374060Y0174002D01*
X0374000Y0174000D01*
X0368000Y0174000D01*
X0367940Y0174002D01*
X0367879Y0174007D01*
X0367820Y0174016D01*
X0367761Y0174029D01*
X0367702Y0174045D01*
X0367645Y0174065D01*
X0367590Y0174088D01*
X0367535Y0174115D01*
X0367483Y0174144D01*
X0367432Y0174177D01*
X0367383Y0174213D01*
X0367337Y0174251D01*
X0367293Y0174293D01*
X0367251Y0174337D01*
X0367213Y0174383D01*
X0367177Y0174432D01*
X0367144Y0174483D01*
X0367115Y0174535D01*
X0367088Y0174590D01*
X0367065Y0174645D01*
X0367045Y0174702D01*
X0367029Y0174761D01*
X0367016Y0174820D01*
X0367007Y0174879D01*
X0367002Y0174940D01*
X0367000Y0175000D01*
X0367000Y0191000D01*
X0367002Y0191060D01*
X0367007Y0191121D01*
X0367016Y0191180D01*
X0367029Y0191239D01*
X0367045Y0191298D01*
X0367065Y0191355D01*
X0367088Y0191410D01*
X0367115Y0191465D01*
X0367144Y0191517D01*
X0367177Y0191568D01*
X0367213Y0191617D01*
X0367251Y0191663D01*
X0367293Y0191707D01*
X0367337Y0191749D01*
X0367383Y0191787D01*
X0367432Y0191823D01*
X0367483Y0191856D01*
X0367535Y0191885D01*
X0367590Y0191912D01*
X0367645Y0191935D01*
X0367702Y0191955D01*
X0367761Y0191971D01*
X0367820Y0191984D01*
X0367879Y0191993D01*
X0367940Y0191998D01*
X0368000Y0192000D01*
X0374000Y0192000D01*
X0374060Y0191998D01*
X0374121Y0191993D01*
X0374180Y0191984D01*
X0374239Y0191971D01*
X0374298Y0191955D01*
X0374355Y0191935D01*
X0374410Y0191912D01*
X0374465Y0191885D01*
X0374517Y0191856D01*
X0374568Y0191823D01*
X0374617Y0191787D01*
X0374663Y0191749D01*
X0374707Y0191707D01*
X0374749Y0191663D01*
X0374787Y0191617D01*
X0374823Y0191568D01*
X0374856Y0191517D01*
X0374885Y0191465D01*
X0374912Y0191410D01*
X0374935Y0191355D01*
X0374955Y0191298D01*
X0374971Y0191239D01*
X0374984Y0191180D01*
X0374993Y0191121D01*
X0374998Y0191060D01*
X0375000Y0191000D01*
X0350000Y0191000D02*
X0350000Y0175000D01*
X0349998Y0174940D01*
X0349993Y0174879D01*
X0349984Y0174820D01*
X0349971Y0174761D01*
X0349955Y0174702D01*
X0349935Y0174645D01*
X0349912Y0174590D01*
X0349885Y0174535D01*
X0349856Y0174483D01*
X0349823Y0174432D01*
X0349787Y0174383D01*
X0349749Y0174337D01*
X0349707Y0174293D01*
X0349663Y0174251D01*
X0349617Y0174213D01*
X0349568Y0174177D01*
X0349517Y0174144D01*
X0349465Y0174115D01*
X0349410Y0174088D01*
X0349355Y0174065D01*
X0349298Y0174045D01*
X0349239Y0174029D01*
X0349180Y0174016D01*
X0349121Y0174007D01*
X0349060Y0174002D01*
X0349000Y0174000D01*
X0343000Y0174000D01*
X0342940Y0174002D01*
X0342879Y0174007D01*
X0342820Y0174016D01*
X0342761Y0174029D01*
X0342702Y0174045D01*
X0342645Y0174065D01*
X0342590Y0174088D01*
X0342535Y0174115D01*
X0342483Y0174144D01*
X0342432Y0174177D01*
X0342383Y0174213D01*
X0342337Y0174251D01*
X0342293Y0174293D01*
X0342251Y0174337D01*
X0342213Y0174383D01*
X0342177Y0174432D01*
X0342144Y0174483D01*
X0342115Y0174535D01*
X0342088Y0174590D01*
X0342065Y0174645D01*
X0342045Y0174702D01*
X0342029Y0174761D01*
X0342016Y0174820D01*
X0342007Y0174879D01*
X0342002Y0174940D01*
X0342000Y0175000D01*
X0342000Y0191000D01*
X0342002Y0191060D01*
X0342007Y0191121D01*
X0342016Y0191180D01*
X0342029Y0191239D01*
X0342045Y0191298D01*
X0342065Y0191355D01*
X0342088Y0191410D01*
X0342115Y0191465D01*
X0342144Y0191517D01*
X0342177Y0191568D01*
X0342213Y0191617D01*
X0342251Y0191663D01*
X0342293Y0191707D01*
X0342337Y0191749D01*
X0342383Y0191787D01*
X0342432Y0191823D01*
X0342483Y0191856D01*
X0342535Y0191885D01*
X0342590Y0191912D01*
X0342645Y0191935D01*
X0342702Y0191955D01*
X0342761Y0191971D01*
X0342820Y0191984D01*
X0342879Y0191993D01*
X0342940Y0191998D01*
X0343000Y0192000D01*
X0349000Y0192000D01*
X0349060Y0191998D01*
X0349121Y0191993D01*
X0349180Y0191984D01*
X0349239Y0191971D01*
X0349298Y0191955D01*
X0349355Y0191935D01*
X0349410Y0191912D01*
X0349465Y0191885D01*
X0349517Y0191856D01*
X0349568Y0191823D01*
X0349617Y0191787D01*
X0349663Y0191749D01*
X0349707Y0191707D01*
X0349749Y0191663D01*
X0349787Y0191617D01*
X0349823Y0191568D01*
X0349856Y0191517D01*
X0349885Y0191465D01*
X0349912Y0191410D01*
X0349935Y0191355D01*
X0349955Y0191298D01*
X0349971Y0191239D01*
X0349984Y0191180D01*
X0349993Y0191121D01*
X0349998Y0191060D01*
X0350000Y0191000D01*
X0398464Y0209770D02*
X0399531Y0208703D01*
X0401666Y0208703D01*
X0402734Y0209770D01*
X0402734Y0211905D01*
X0400599Y0211905D01*
X0398464Y0209770D02*
X0398464Y0214041D01*
X0399531Y0215108D01*
X0401666Y0215108D01*
X0402734Y0214041D01*
X0414508Y0197378D02*
X0417711Y0197378D01*
X0418778Y0196310D01*
X0418778Y0192040D01*
X0417711Y0190972D01*
X0414508Y0190972D01*
X0414508Y0197378D01*
X0452000Y0191000D02*
X0452000Y0175000D01*
X0452002Y0174940D01*
X0452007Y0174879D01*
X0452016Y0174820D01*
X0452029Y0174761D01*
X0452045Y0174702D01*
X0452065Y0174645D01*
X0452088Y0174590D01*
X0452115Y0174535D01*
X0452144Y0174483D01*
X0452177Y0174432D01*
X0452213Y0174383D01*
X0452251Y0174337D01*
X0452293Y0174293D01*
X0452337Y0174251D01*
X0452383Y0174213D01*
X0452432Y0174177D01*
X0452483Y0174144D01*
X0452535Y0174115D01*
X0452590Y0174088D01*
X0452645Y0174065D01*
X0452702Y0174045D01*
X0452761Y0174029D01*
X0452820Y0174016D01*
X0452879Y0174007D01*
X0452940Y0174002D01*
X0453000Y0174000D01*
X0459000Y0174000D01*
X0459060Y0174002D01*
X0459121Y0174007D01*
X0459180Y0174016D01*
X0459239Y0174029D01*
X0459298Y0174045D01*
X0459355Y0174065D01*
X0459410Y0174088D01*
X0459465Y0174115D01*
X0459517Y0174144D01*
X0459568Y0174177D01*
X0459617Y0174213D01*
X0459663Y0174251D01*
X0459707Y0174293D01*
X0459749Y0174337D01*
X0459787Y0174383D01*
X0459823Y0174432D01*
X0459856Y0174483D01*
X0459885Y0174535D01*
X0459912Y0174590D01*
X0459935Y0174645D01*
X0459955Y0174702D01*
X0459971Y0174761D01*
X0459984Y0174820D01*
X0459993Y0174879D01*
X0459998Y0174940D01*
X0460000Y0175000D01*
X0460000Y0191000D01*
X0459998Y0191060D01*
X0459993Y0191121D01*
X0459984Y0191180D01*
X0459971Y0191239D01*
X0459955Y0191298D01*
X0459935Y0191355D01*
X0459912Y0191410D01*
X0459885Y0191465D01*
X0459856Y0191517D01*
X0459823Y0191568D01*
X0459787Y0191617D01*
X0459749Y0191663D01*
X0459707Y0191707D01*
X0459663Y0191749D01*
X0459617Y0191787D01*
X0459568Y0191823D01*
X0459517Y0191856D01*
X0459465Y0191885D01*
X0459410Y0191912D01*
X0459355Y0191935D01*
X0459298Y0191955D01*
X0459239Y0191971D01*
X0459180Y0191984D01*
X0459121Y0191993D01*
X0459060Y0191998D01*
X0459000Y0192000D01*
X0453000Y0192000D01*
X0452940Y0191998D01*
X0452879Y0191993D01*
X0452820Y0191984D01*
X0452761Y0191971D01*
X0452702Y0191955D01*
X0452645Y0191935D01*
X0452590Y0191912D01*
X0452535Y0191885D01*
X0452483Y0191856D01*
X0452432Y0191823D01*
X0452383Y0191787D01*
X0452337Y0191749D01*
X0452293Y0191707D01*
X0452251Y0191663D01*
X0452213Y0191617D01*
X0452177Y0191568D01*
X0452144Y0191517D01*
X0452115Y0191465D01*
X0452088Y0191410D01*
X0452065Y0191355D01*
X0452045Y0191298D01*
X0452029Y0191239D01*
X0452016Y0191180D01*
X0452007Y0191121D01*
X0452002Y0191060D01*
X0452000Y0191000D01*
D11*
X0087822Y0020968D02*
X0087822Y0013039D01*
X0091322Y0004968D02*
X0108322Y0004968D01*
X0111822Y0012921D02*
X0111822Y0020968D01*
X0108322Y0028968D02*
X0091322Y0028968D01*
X0092822Y0016968D02*
X0092824Y0017140D01*
X0092830Y0017311D01*
X0092841Y0017483D01*
X0092856Y0017654D01*
X0092875Y0017825D01*
X0092898Y0017995D01*
X0092925Y0018165D01*
X0092957Y0018334D01*
X0092992Y0018502D01*
X0093032Y0018669D01*
X0093076Y0018835D01*
X0093123Y0019000D01*
X0093175Y0019164D01*
X0093231Y0019326D01*
X0093291Y0019487D01*
X0093355Y0019647D01*
X0093423Y0019805D01*
X0093494Y0019961D01*
X0093569Y0020115D01*
X0093649Y0020268D01*
X0093731Y0020418D01*
X0093818Y0020567D01*
X0093908Y0020713D01*
X0094002Y0020857D01*
X0094099Y0020999D01*
X0094200Y0021138D01*
X0094304Y0021275D01*
X0094411Y0021409D01*
X0094522Y0021540D01*
X0094635Y0021669D01*
X0094752Y0021795D01*
X0094872Y0021918D01*
X0094995Y0022038D01*
X0095121Y0022155D01*
X0095250Y0022268D01*
X0095381Y0022379D01*
X0095515Y0022486D01*
X0095652Y0022590D01*
X0095791Y0022691D01*
X0095933Y0022788D01*
X0096077Y0022882D01*
X0096223Y0022972D01*
X0096372Y0023059D01*
X0096522Y0023141D01*
X0096675Y0023221D01*
X0096829Y0023296D01*
X0096985Y0023367D01*
X0097143Y0023435D01*
X0097303Y0023499D01*
X0097464Y0023559D01*
X0097626Y0023615D01*
X0097790Y0023667D01*
X0097955Y0023714D01*
X0098121Y0023758D01*
X0098288Y0023798D01*
X0098456Y0023833D01*
X0098625Y0023865D01*
X0098795Y0023892D01*
X0098965Y0023915D01*
X0099136Y0023934D01*
X0099307Y0023949D01*
X0099479Y0023960D01*
X0099650Y0023966D01*
X0099822Y0023968D01*
X0099994Y0023966D01*
X0100165Y0023960D01*
X0100337Y0023949D01*
X0100508Y0023934D01*
X0100679Y0023915D01*
X0100849Y0023892D01*
X0101019Y0023865D01*
X0101188Y0023833D01*
X0101356Y0023798D01*
X0101523Y0023758D01*
X0101689Y0023714D01*
X0101854Y0023667D01*
X0102018Y0023615D01*
X0102180Y0023559D01*
X0102341Y0023499D01*
X0102501Y0023435D01*
X0102659Y0023367D01*
X0102815Y0023296D01*
X0102969Y0023221D01*
X0103122Y0023141D01*
X0103272Y0023059D01*
X0103421Y0022972D01*
X0103567Y0022882D01*
X0103711Y0022788D01*
X0103853Y0022691D01*
X0103992Y0022590D01*
X0104129Y0022486D01*
X0104263Y0022379D01*
X0104394Y0022268D01*
X0104523Y0022155D01*
X0104649Y0022038D01*
X0104772Y0021918D01*
X0104892Y0021795D01*
X0105009Y0021669D01*
X0105122Y0021540D01*
X0105233Y0021409D01*
X0105340Y0021275D01*
X0105444Y0021138D01*
X0105545Y0020999D01*
X0105642Y0020857D01*
X0105736Y0020713D01*
X0105826Y0020567D01*
X0105913Y0020418D01*
X0105995Y0020268D01*
X0106075Y0020115D01*
X0106150Y0019961D01*
X0106221Y0019805D01*
X0106289Y0019647D01*
X0106353Y0019487D01*
X0106413Y0019326D01*
X0106469Y0019164D01*
X0106521Y0019000D01*
X0106568Y0018835D01*
X0106612Y0018669D01*
X0106652Y0018502D01*
X0106687Y0018334D01*
X0106719Y0018165D01*
X0106746Y0017995D01*
X0106769Y0017825D01*
X0106788Y0017654D01*
X0106803Y0017483D01*
X0106814Y0017311D01*
X0106820Y0017140D01*
X0106822Y0016968D01*
X0106820Y0016796D01*
X0106814Y0016625D01*
X0106803Y0016453D01*
X0106788Y0016282D01*
X0106769Y0016111D01*
X0106746Y0015941D01*
X0106719Y0015771D01*
X0106687Y0015602D01*
X0106652Y0015434D01*
X0106612Y0015267D01*
X0106568Y0015101D01*
X0106521Y0014936D01*
X0106469Y0014772D01*
X0106413Y0014610D01*
X0106353Y0014449D01*
X0106289Y0014289D01*
X0106221Y0014131D01*
X0106150Y0013975D01*
X0106075Y0013821D01*
X0105995Y0013668D01*
X0105913Y0013518D01*
X0105826Y0013369D01*
X0105736Y0013223D01*
X0105642Y0013079D01*
X0105545Y0012937D01*
X0105444Y0012798D01*
X0105340Y0012661D01*
X0105233Y0012527D01*
X0105122Y0012396D01*
X0105009Y0012267D01*
X0104892Y0012141D01*
X0104772Y0012018D01*
X0104649Y0011898D01*
X0104523Y0011781D01*
X0104394Y0011668D01*
X0104263Y0011557D01*
X0104129Y0011450D01*
X0103992Y0011346D01*
X0103853Y0011245D01*
X0103711Y0011148D01*
X0103567Y0011054D01*
X0103421Y0010964D01*
X0103272Y0010877D01*
X0103122Y0010795D01*
X0102969Y0010715D01*
X0102815Y0010640D01*
X0102659Y0010569D01*
X0102501Y0010501D01*
X0102341Y0010437D01*
X0102180Y0010377D01*
X0102018Y0010321D01*
X0101854Y0010269D01*
X0101689Y0010222D01*
X0101523Y0010178D01*
X0101356Y0010138D01*
X0101188Y0010103D01*
X0101019Y0010071D01*
X0100849Y0010044D01*
X0100679Y0010021D01*
X0100508Y0010002D01*
X0100337Y0009987D01*
X0100165Y0009976D01*
X0099994Y0009970D01*
X0099822Y0009968D01*
X0099650Y0009970D01*
X0099479Y0009976D01*
X0099307Y0009987D01*
X0099136Y0010002D01*
X0098965Y0010021D01*
X0098795Y0010044D01*
X0098625Y0010071D01*
X0098456Y0010103D01*
X0098288Y0010138D01*
X0098121Y0010178D01*
X0097955Y0010222D01*
X0097790Y0010269D01*
X0097626Y0010321D01*
X0097464Y0010377D01*
X0097303Y0010437D01*
X0097143Y0010501D01*
X0096985Y0010569D01*
X0096829Y0010640D01*
X0096675Y0010715D01*
X0096522Y0010795D01*
X0096372Y0010877D01*
X0096223Y0010964D01*
X0096077Y0011054D01*
X0095933Y0011148D01*
X0095791Y0011245D01*
X0095652Y0011346D01*
X0095515Y0011450D01*
X0095381Y0011557D01*
X0095250Y0011668D01*
X0095121Y0011781D01*
X0094995Y0011898D01*
X0094872Y0012018D01*
X0094752Y0012141D01*
X0094635Y0012267D01*
X0094522Y0012396D01*
X0094411Y0012527D01*
X0094304Y0012661D01*
X0094200Y0012798D01*
X0094099Y0012937D01*
X0094002Y0013079D01*
X0093908Y0013223D01*
X0093818Y0013369D01*
X0093731Y0013518D01*
X0093649Y0013668D01*
X0093569Y0013821D01*
X0093494Y0013975D01*
X0093423Y0014131D01*
X0093355Y0014289D01*
X0093291Y0014449D01*
X0093231Y0014610D01*
X0093175Y0014772D01*
X0093123Y0014936D01*
X0093076Y0015101D01*
X0093032Y0015267D01*
X0092992Y0015434D01*
X0092957Y0015602D01*
X0092925Y0015771D01*
X0092898Y0015941D01*
X0092875Y0016111D01*
X0092856Y0016282D01*
X0092841Y0016453D01*
X0092830Y0016625D01*
X0092824Y0016796D01*
X0092822Y0016968D01*
X0203500Y0015500D02*
X0206000Y0013000D01*
X0203500Y0010500D01*
X0203500Y0005500D01*
X0206000Y0003000D01*
X0211000Y0003000D01*
X0213500Y0005500D01*
X0213500Y0010500D01*
X0211000Y0013000D01*
X0213500Y0015500D01*
X0213500Y0020500D01*
X0211000Y0023000D01*
X0213500Y0025500D01*
X0213500Y0030500D01*
X0211000Y0033000D01*
X0213500Y0035500D01*
X0213500Y0040500D01*
X0211000Y0043000D01*
X0213500Y0045500D01*
X0213500Y0050500D01*
X0211000Y0053000D01*
X0213500Y0055500D01*
X0213500Y0060500D01*
X0211000Y0063000D01*
X0213500Y0065500D01*
X0213500Y0070500D01*
X0211000Y0073000D01*
X0213500Y0075500D01*
X0213500Y0080500D01*
X0211000Y0083000D01*
X0213500Y0085500D01*
X0213500Y0090500D01*
X0211000Y0093000D01*
X0213500Y0095500D01*
X0213500Y0100500D01*
X0211000Y0103000D01*
X0213500Y0105500D01*
X0213500Y0110500D01*
X0211000Y0113000D01*
X0213500Y0115500D01*
X0213500Y0120500D01*
X0211000Y0123000D01*
X0213500Y0125500D01*
X0213500Y0130500D01*
X0211000Y0133000D01*
X0213500Y0135500D01*
X0213500Y0140500D01*
X0211000Y0143000D01*
X0213500Y0145500D01*
X0213500Y0150500D01*
X0211000Y0153000D01*
X0213500Y0155500D01*
X0213500Y0160500D01*
X0211000Y0163000D01*
X0213500Y0165500D01*
X0213500Y0170500D01*
X0211000Y0173000D01*
X0213500Y0175500D01*
X0213500Y0180500D01*
X0211000Y0183000D01*
X0213500Y0185500D01*
X0213500Y0190500D01*
X0211000Y0193000D01*
X0213500Y0195500D01*
X0213500Y0200500D01*
X0211000Y0203000D01*
X0206000Y0203000D01*
X0203500Y0200500D01*
X0203500Y0195500D01*
X0206000Y0193000D01*
X0203500Y0190500D01*
X0203500Y0185500D01*
X0206000Y0183000D01*
X0203500Y0180500D01*
X0203500Y0175500D01*
X0206000Y0173000D01*
X0203500Y0170500D01*
X0203500Y0165500D01*
X0206000Y0163000D01*
X0203500Y0160500D01*
X0203500Y0155500D01*
X0206000Y0153000D01*
X0203500Y0150500D01*
X0203500Y0145500D01*
X0206000Y0143000D01*
X0203500Y0140500D01*
X0203500Y0135500D01*
X0206000Y0133000D01*
X0203500Y0130500D01*
X0203500Y0125500D01*
X0206000Y0123000D01*
X0203500Y0120500D01*
X0203500Y0115500D01*
X0206000Y0113000D01*
X0203500Y0110500D01*
X0203500Y0105500D01*
X0206000Y0103000D01*
X0203500Y0100500D01*
X0203500Y0095500D01*
X0206000Y0093000D01*
X0203500Y0090500D01*
X0203500Y0085500D01*
X0206000Y0083000D01*
X0203500Y0080500D01*
X0203500Y0075500D01*
X0206000Y0073000D01*
X0203500Y0070500D01*
X0203500Y0065500D01*
X0206000Y0063000D01*
X0203500Y0060500D01*
X0203500Y0055500D01*
X0206000Y0053000D01*
X0203500Y0050500D01*
X0203500Y0045500D01*
X0206000Y0043000D01*
X0203500Y0040500D01*
X0203500Y0035500D01*
X0206000Y0033000D01*
X0203500Y0030500D01*
X0203500Y0025500D01*
X0206000Y0023000D01*
X0203500Y0020500D01*
X0203500Y0015500D01*
X0273500Y0015500D02*
X0273500Y0020500D01*
X0276000Y0023000D01*
X0273500Y0025500D01*
X0273500Y0030500D01*
X0276000Y0033000D01*
X0273500Y0035500D01*
X0273500Y0040500D01*
X0276000Y0043000D01*
X0273500Y0045500D01*
X0273500Y0050500D01*
X0276000Y0053000D01*
X0273500Y0055500D01*
X0273500Y0060500D01*
X0276000Y0063000D01*
X0273500Y0065500D01*
X0273500Y0070500D01*
X0276000Y0073000D01*
X0273500Y0075500D01*
X0273500Y0080500D01*
X0276000Y0083000D01*
X0273500Y0085500D01*
X0273500Y0090500D01*
X0276000Y0093000D01*
X0273500Y0095500D01*
X0273500Y0100500D01*
X0276000Y0103000D01*
X0273500Y0105500D01*
X0273500Y0110500D01*
X0276000Y0113000D01*
X0273500Y0115500D01*
X0273500Y0120500D01*
X0276000Y0123000D01*
X0273500Y0125500D01*
X0273500Y0130500D01*
X0276000Y0133000D01*
X0273500Y0135500D01*
X0273500Y0140500D01*
X0276000Y0143000D01*
X0273500Y0145500D01*
X0273500Y0150500D01*
X0276000Y0153000D01*
X0273500Y0155500D01*
X0273500Y0160500D01*
X0276000Y0163000D01*
X0273500Y0165500D01*
X0273500Y0170500D01*
X0276000Y0173000D01*
X0273500Y0175500D01*
X0273500Y0180500D01*
X0276000Y0183000D01*
X0273500Y0185500D01*
X0273500Y0190500D01*
X0276000Y0193000D01*
X0273500Y0195500D01*
X0273500Y0200500D01*
X0276000Y0203000D01*
X0281000Y0203000D01*
X0283500Y0200500D01*
X0283500Y0195500D01*
X0281000Y0193000D01*
X0283500Y0190500D01*
X0283500Y0185500D01*
X0281000Y0183000D01*
X0283500Y0180500D01*
X0283500Y0175500D01*
X0281000Y0173000D01*
X0283500Y0170500D01*
X0283500Y0165500D01*
X0281000Y0163000D01*
X0283500Y0160500D01*
X0283500Y0155500D01*
X0281000Y0153000D01*
X0283500Y0150500D01*
X0283500Y0145500D01*
X0281000Y0143000D01*
X0283500Y0140500D01*
X0283500Y0135500D01*
X0281000Y0133000D01*
X0283500Y0130500D01*
X0283500Y0125500D01*
X0281000Y0123000D01*
X0283500Y0120500D01*
X0283500Y0115500D01*
X0281000Y0113000D01*
X0283500Y0110500D01*
X0283500Y0105500D01*
X0281000Y0103000D01*
X0283500Y0100500D01*
X0283500Y0095500D01*
X0281000Y0093000D01*
X0283500Y0090500D01*
X0283500Y0085500D01*
X0281000Y0083000D01*
X0283500Y0080500D01*
X0283500Y0075500D01*
X0281000Y0073000D01*
X0283500Y0070500D01*
X0283500Y0065500D01*
X0281000Y0063000D01*
X0283500Y0060500D01*
X0283500Y0055500D01*
X0281000Y0053000D01*
X0283500Y0050500D01*
X0283500Y0045500D01*
X0281000Y0043000D01*
X0283500Y0040500D01*
X0283500Y0035500D01*
X0281000Y0033000D01*
X0283500Y0030500D01*
X0283500Y0025500D01*
X0281000Y0023000D01*
X0283500Y0020500D01*
X0283500Y0015500D01*
X0281000Y0013000D01*
X0283500Y0010500D01*
X0283500Y0005500D01*
X0281000Y0003000D01*
X0276000Y0003000D01*
X0273500Y0005500D01*
X0273500Y0010500D01*
X0276000Y0013000D01*
X0273500Y0015500D01*
X0301294Y0015498D02*
X0301294Y0018901D01*
X0302428Y0020035D01*
X0306966Y0020035D01*
X0308100Y0018901D01*
X0308100Y0015498D01*
X0301294Y0015498D01*
X0302428Y0013037D02*
X0301294Y0011903D01*
X0301294Y0009634D01*
X0302428Y0008500D01*
X0303563Y0008500D01*
X0304697Y0009634D01*
X0304697Y0011903D01*
X0305831Y0013037D01*
X0306966Y0013037D01*
X0308100Y0011903D01*
X0308100Y0009634D01*
X0306966Y0008500D01*
X0312694Y0009634D02*
X0313828Y0008500D01*
X0318366Y0008500D01*
X0319500Y0009634D01*
X0319500Y0011903D01*
X0318366Y0013037D01*
X0313828Y0013037D01*
X0312694Y0011903D01*
X0312694Y0009634D01*
X0312694Y0015498D02*
X0312694Y0018901D01*
X0313828Y0020035D01*
X0316097Y0020035D01*
X0317231Y0018901D01*
X0317231Y0015498D01*
X0319500Y0015498D02*
X0312694Y0015498D01*
X0312694Y0022496D02*
X0312694Y0027033D01*
X0312694Y0024765D02*
X0319500Y0024765D01*
X0319500Y0029494D02*
X0319500Y0031763D01*
X0319500Y0030628D02*
X0312694Y0030628D01*
X0312694Y0029494D02*
X0312694Y0031763D01*
X0313828Y0034159D02*
X0318366Y0034159D01*
X0319500Y0035294D01*
X0319500Y0037562D01*
X0318366Y0038696D01*
X0313828Y0038696D01*
X0312694Y0037562D01*
X0312694Y0035294D01*
X0313828Y0034159D01*
X0308100Y0032897D02*
X0308100Y0030628D01*
X0306966Y0029494D01*
X0302428Y0029494D01*
X0301294Y0030628D01*
X0301294Y0032897D01*
X0302428Y0034031D01*
X0303563Y0037626D02*
X0303563Y0039895D01*
X0304697Y0041029D01*
X0308100Y0041029D01*
X0308100Y0037626D01*
X0306966Y0036492D01*
X0305831Y0037626D01*
X0305831Y0041029D01*
X0305831Y0043490D02*
X0303563Y0045758D01*
X0303563Y0046893D01*
X0304697Y0049321D02*
X0303563Y0050456D01*
X0303563Y0053859D01*
X0301294Y0053859D02*
X0308100Y0053859D01*
X0308100Y0050456D01*
X0306966Y0049321D01*
X0304697Y0049321D01*
X0303563Y0043490D02*
X0308100Y0043490D01*
X0312694Y0045694D02*
X0319500Y0045694D01*
X0312694Y0041157D01*
X0319500Y0041157D01*
X0308100Y0032897D02*
X0306966Y0034031D01*
X0313828Y0055153D02*
X0314963Y0055153D01*
X0316097Y0056287D01*
X0316097Y0058556D01*
X0317231Y0059690D01*
X0318366Y0059690D01*
X0319500Y0058556D01*
X0319500Y0056287D01*
X0318366Y0055153D01*
X0313828Y0055153D02*
X0312694Y0056287D01*
X0312694Y0058556D01*
X0313828Y0059690D01*
X0312694Y0062151D02*
X0312694Y0065554D01*
X0313828Y0066688D01*
X0318366Y0066688D01*
X0319500Y0065554D01*
X0319500Y0062151D01*
X0312694Y0062151D01*
X0308100Y0064452D02*
X0308100Y0066720D01*
X0306966Y0067855D01*
X0306966Y0070315D02*
X0304697Y0070315D01*
X0303563Y0071450D01*
X0303563Y0073718D01*
X0304697Y0074853D01*
X0306966Y0074853D01*
X0308100Y0073718D01*
X0308100Y0071450D01*
X0306966Y0070315D01*
X0302428Y0067855D02*
X0301294Y0066720D01*
X0301294Y0064452D01*
X0302428Y0063317D01*
X0306966Y0063317D01*
X0308100Y0064452D01*
X0313828Y0069149D02*
X0318366Y0069149D01*
X0319500Y0070283D01*
X0319500Y0072552D01*
X0318366Y0073686D01*
X0319500Y0076147D02*
X0314963Y0076147D01*
X0312694Y0078416D01*
X0314963Y0080684D01*
X0319500Y0080684D01*
X0319500Y0083145D02*
X0312694Y0083145D01*
X0312694Y0086548D01*
X0313828Y0087682D01*
X0316097Y0087682D01*
X0317231Y0086548D01*
X0317231Y0083145D01*
X0317231Y0085414D02*
X0319500Y0087682D01*
X0319500Y0090143D02*
X0312694Y0090143D01*
X0312694Y0093546D01*
X0313828Y0094680D01*
X0318366Y0094680D01*
X0319500Y0093546D01*
X0319500Y0090143D01*
X0310369Y0095911D02*
X0310369Y0097045D01*
X0309234Y0098179D01*
X0303563Y0098179D01*
X0303563Y0094776D01*
X0304697Y0093642D01*
X0306966Y0093642D01*
X0308100Y0094776D01*
X0308100Y0098179D01*
X0308100Y0100640D02*
X0306966Y0100640D01*
X0306966Y0101774D01*
X0308100Y0101774D01*
X0308100Y0100640D01*
X0304697Y0100640D02*
X0304697Y0101774D01*
X0303563Y0101774D01*
X0303563Y0100640D01*
X0304697Y0100640D01*
X0312694Y0105273D02*
X0313828Y0104139D01*
X0318366Y0104139D01*
X0319500Y0105273D01*
X0319500Y0107542D01*
X0318366Y0108676D01*
X0316097Y0108676D01*
X0316097Y0106408D01*
X0313828Y0108676D02*
X0312694Y0107542D01*
X0312694Y0105273D01*
X0312694Y0111137D02*
X0312694Y0114540D01*
X0313828Y0115674D01*
X0316097Y0115674D01*
X0317231Y0114540D01*
X0317231Y0111137D01*
X0319500Y0111137D02*
X0312694Y0111137D01*
X0314963Y0118135D02*
X0312694Y0120403D01*
X0319500Y0120403D01*
X0319500Y0118135D02*
X0319500Y0122672D01*
X0318366Y0125133D02*
X0319500Y0126267D01*
X0319500Y0128536D01*
X0318366Y0129670D01*
X0317231Y0129670D01*
X0316097Y0128536D01*
X0316097Y0127401D01*
X0316097Y0128536D02*
X0314963Y0129670D01*
X0313828Y0129670D01*
X0312694Y0128536D01*
X0312694Y0126267D01*
X0313828Y0125133D01*
X0318366Y0133265D02*
X0319500Y0133265D01*
X0319500Y0134399D01*
X0318366Y0134399D01*
X0318366Y0133265D01*
X0319500Y0134399D02*
X0321769Y0132131D01*
X0318366Y0136796D02*
X0319500Y0137930D01*
X0319500Y0140199D01*
X0318366Y0141333D01*
X0316097Y0141333D01*
X0316097Y0139065D01*
X0313828Y0141333D02*
X0312694Y0140199D01*
X0312694Y0137930D01*
X0313828Y0136796D01*
X0318366Y0136796D01*
X0319500Y0143794D02*
X0312694Y0143794D01*
X0312694Y0147197D01*
X0313828Y0148331D01*
X0316097Y0148331D01*
X0317231Y0147197D01*
X0317231Y0143794D01*
X0314963Y0150792D02*
X0312694Y0153061D01*
X0319500Y0153061D01*
X0319500Y0155329D02*
X0319500Y0150792D01*
X0318366Y0157790D02*
X0313828Y0157790D01*
X0312694Y0158924D01*
X0312694Y0161193D01*
X0313828Y0162327D01*
X0318366Y0157790D01*
X0319500Y0158924D01*
X0319500Y0161193D01*
X0318366Y0162327D01*
X0313828Y0162327D01*
X0318366Y0165922D02*
X0319500Y0165922D01*
X0319500Y0167057D01*
X0318366Y0167057D01*
X0318366Y0165922D01*
X0319500Y0167057D02*
X0321769Y0164788D01*
X0318366Y0169453D02*
X0319500Y0170588D01*
X0319500Y0172856D01*
X0318366Y0173991D01*
X0316097Y0173991D01*
X0316097Y0171722D01*
X0313828Y0173991D02*
X0312694Y0172856D01*
X0312694Y0170588D01*
X0313828Y0169453D01*
X0318366Y0169453D01*
X0319500Y0176451D02*
X0312694Y0176451D01*
X0312694Y0179854D01*
X0313828Y0180988D01*
X0316097Y0180988D01*
X0317231Y0179854D01*
X0317231Y0176451D01*
X0314963Y0183449D02*
X0312694Y0185718D01*
X0319500Y0185718D01*
X0319500Y0187986D02*
X0319500Y0183449D01*
X0319500Y0190447D02*
X0319500Y0194984D01*
X0319500Y0192716D02*
X0312694Y0192716D01*
X0314963Y0190447D01*
X0318366Y0198580D02*
X0319500Y0198580D01*
X0319500Y0199714D01*
X0318366Y0199714D01*
X0318366Y0198580D01*
X0319500Y0199714D02*
X0321769Y0197445D01*
X0318366Y0202111D02*
X0319500Y0203245D01*
X0319500Y0205513D01*
X0318366Y0206648D01*
X0316097Y0206648D01*
X0316097Y0204379D01*
X0313828Y0202111D02*
X0318366Y0202111D01*
X0313828Y0202111D02*
X0312694Y0203245D01*
X0312694Y0205513D01*
X0313828Y0206648D01*
X0312694Y0209108D02*
X0312694Y0212511D01*
X0313828Y0213646D01*
X0316097Y0213646D01*
X0317231Y0212511D01*
X0317231Y0209108D01*
X0319500Y0209108D02*
X0312694Y0209108D01*
X0314963Y0216106D02*
X0312694Y0218375D01*
X0319500Y0218375D01*
X0319500Y0216106D02*
X0319500Y0220644D01*
X0319500Y0223104D02*
X0314963Y0227642D01*
X0313828Y0227642D01*
X0312694Y0226507D01*
X0312694Y0224239D01*
X0313828Y0223104D01*
X0319500Y0223104D02*
X0319500Y0227642D01*
X0318500Y0245500D02*
X0313500Y0245500D01*
X0311000Y0248000D01*
X0311000Y0263000D01*
X0313500Y0265500D01*
X0318500Y0265500D01*
X0321000Y0263000D01*
X0321000Y0248000D01*
X0323500Y0245500D01*
X0328500Y0245500D01*
X0331000Y0248000D01*
X0333500Y0245500D01*
X0338500Y0245500D01*
X0341000Y0248000D01*
X0343500Y0245500D01*
X0348500Y0245500D01*
X0351000Y0248000D01*
X0353500Y0245500D01*
X0358500Y0245500D01*
X0361000Y0248000D01*
X0363500Y0245500D01*
X0368500Y0245500D01*
X0371000Y0248000D01*
X0373500Y0245500D01*
X0378500Y0245500D01*
X0381000Y0248000D01*
X0381000Y0253000D01*
X0378500Y0255500D01*
X0381000Y0258000D01*
X0381000Y0263000D01*
X0378500Y0265500D01*
X0373500Y0265500D01*
X0371000Y0263000D01*
X0371000Y0248000D01*
X0361000Y0248000D02*
X0361000Y0263000D01*
X0363500Y0265500D01*
X0368500Y0265500D01*
X0371000Y0263000D01*
X0361000Y0263000D02*
X0358500Y0265500D01*
X0353500Y0265500D01*
X0351000Y0263000D01*
X0351000Y0248000D01*
X0341000Y0248000D02*
X0341000Y0263000D01*
X0338500Y0265500D01*
X0333500Y0265500D01*
X0331000Y0263000D01*
X0331000Y0248000D01*
X0321000Y0248000D02*
X0318500Y0245500D01*
X0311000Y0248000D02*
X0308500Y0245500D01*
X0303500Y0245500D01*
X0301000Y0248000D01*
X0301000Y0263000D01*
X0298500Y0265500D01*
X0293500Y0265500D01*
X0291000Y0263000D01*
X0291000Y0248000D01*
X0293500Y0245500D01*
X0298500Y0245500D01*
X0301000Y0248000D01*
X0291000Y0248000D02*
X0288500Y0245500D01*
X0283500Y0245500D01*
X0281000Y0248000D01*
X0281000Y0263000D01*
X0283500Y0265500D01*
X0288500Y0265500D01*
X0291000Y0263000D01*
X0281000Y0263000D02*
X0278500Y0265500D01*
X0273500Y0265500D01*
X0271000Y0263000D01*
X0271000Y0248000D01*
X0268500Y0245500D01*
X0263500Y0245500D01*
X0261000Y0248000D01*
X0261000Y0263000D01*
X0263500Y0265500D01*
X0268500Y0265500D01*
X0271000Y0263000D01*
X0261000Y0263000D02*
X0258500Y0265500D01*
X0253500Y0265500D01*
X0251000Y0263000D01*
X0251000Y0248000D01*
X0253500Y0245500D01*
X0258500Y0245500D01*
X0261000Y0248000D01*
X0251000Y0248000D02*
X0248500Y0245500D01*
X0243500Y0245500D01*
X0241000Y0248000D01*
X0241000Y0263000D01*
X0243500Y0265500D01*
X0248500Y0265500D01*
X0251000Y0263000D01*
X0241000Y0263000D02*
X0238500Y0265500D01*
X0233500Y0265500D01*
X0231000Y0263000D01*
X0231000Y0248000D01*
X0228500Y0245500D01*
X0223500Y0245500D01*
X0221000Y0248000D01*
X0221000Y0263000D01*
X0223500Y0265500D01*
X0228500Y0265500D01*
X0231000Y0263000D01*
X0221000Y0263000D02*
X0218500Y0265500D01*
X0213500Y0265500D01*
X0211000Y0263000D01*
X0211000Y0248000D01*
X0213500Y0245500D01*
X0218500Y0245500D01*
X0221000Y0248000D01*
X0211000Y0248000D02*
X0208500Y0245500D01*
X0203500Y0245500D01*
X0201000Y0248000D01*
X0201000Y0263000D01*
X0198500Y0265500D01*
X0193500Y0265500D01*
X0191000Y0263000D01*
X0191000Y0248000D01*
X0193500Y0245500D01*
X0198500Y0245500D01*
X0201000Y0248000D01*
X0191000Y0248000D02*
X0188500Y0245500D01*
X0183500Y0245500D01*
X0181000Y0248000D01*
X0181000Y0253000D01*
X0183500Y0255500D01*
X0181000Y0258000D01*
X0181000Y0263000D01*
X0183500Y0265500D01*
X0188500Y0265500D01*
X0191000Y0263000D01*
X0201000Y0263000D02*
X0203500Y0265500D01*
X0208500Y0265500D01*
X0211000Y0263000D01*
X0231000Y0248000D02*
X0233500Y0245500D01*
X0238500Y0245500D01*
X0241000Y0248000D01*
X0271000Y0248000D02*
X0273500Y0245500D01*
X0278500Y0245500D01*
X0281000Y0248000D01*
X0301000Y0263000D02*
X0303500Y0265500D01*
X0308500Y0265500D01*
X0311000Y0263000D01*
X0321000Y0263000D02*
X0323500Y0265500D01*
X0328500Y0265500D01*
X0331000Y0263000D01*
X0341000Y0263000D02*
X0343500Y0265500D01*
X0348500Y0265500D01*
X0351000Y0263000D01*
X0405941Y0273000D02*
X0461059Y0273000D01*
X0461059Y0224181D01*
X0405941Y0224181D01*
X0405941Y0273000D01*
X0397904Y0205533D02*
X0397662Y0205455D01*
X0397422Y0205372D01*
X0397184Y0205282D01*
X0396948Y0205187D01*
X0396714Y0205085D01*
X0396483Y0204979D01*
X0396255Y0204867D01*
X0396029Y0204749D01*
X0395806Y0204626D01*
X0395587Y0204497D01*
X0395370Y0204363D01*
X0395157Y0204224D01*
X0394947Y0204080D01*
X0394741Y0203931D01*
X0394539Y0203777D01*
X0394340Y0203618D01*
X0394145Y0203454D01*
X0393955Y0203285D01*
X0393768Y0203112D01*
X0393586Y0202935D01*
X0393408Y0202753D01*
X0393234Y0202567D01*
X0393065Y0202376D01*
X0392901Y0202182D01*
X0392741Y0201984D01*
X0392586Y0201782D01*
X0392437Y0201576D01*
X0392292Y0201367D01*
X0392152Y0201154D01*
X0392018Y0200938D01*
X0391889Y0200719D01*
X0391765Y0200496D01*
X0391647Y0200271D01*
X0391534Y0200043D01*
X0391426Y0199812D01*
X0391325Y0199579D01*
X0391229Y0199343D01*
X0391138Y0199105D01*
X0391054Y0198865D01*
X0390975Y0198623D01*
X0390902Y0198379D01*
X0390836Y0198134D01*
X0390775Y0197887D01*
X0390720Y0197638D01*
X0390671Y0197388D01*
X0390628Y0197137D01*
X0390592Y0196886D01*
X0390561Y0196633D01*
X0390537Y0196380D01*
X0390519Y0196126D01*
X0390507Y0195872D01*
X0390501Y0195617D01*
X0390501Y0195363D01*
X0390507Y0195108D01*
X0390520Y0194854D01*
X0390539Y0194600D01*
X0390564Y0194347D01*
X0390595Y0194094D01*
X0390632Y0193843D01*
X0390675Y0193592D01*
X0390724Y0193342D01*
X0390779Y0193094D01*
X0390841Y0192847D01*
X0390908Y0192601D01*
X0390981Y0192358D01*
X0391060Y0192116D01*
X0391145Y0191876D01*
X0391236Y0191638D01*
X0391333Y0191402D01*
X0391435Y0191169D01*
X0391542Y0190939D01*
X0391656Y0190711D01*
X0391775Y0190486D01*
X0391899Y0190264D01*
X0392028Y0190045D01*
X0392163Y0189829D01*
X0392303Y0189616D01*
X0392448Y0189407D01*
X0392599Y0189202D01*
X0392754Y0189000D01*
X0409246Y0189000D01*
X0409873Y0194500D02*
X0411452Y0194500D01*
X0402127Y0194500D02*
X0399873Y0194500D01*
X0409246Y0189000D02*
X0409401Y0189202D01*
X0409551Y0189407D01*
X0409697Y0189616D01*
X0409837Y0189829D01*
X0409972Y0190045D01*
X0410101Y0190264D01*
X0410225Y0190486D01*
X0410344Y0190711D01*
X0410457Y0190939D01*
X0410565Y0191169D01*
X0410667Y0191402D01*
X0410764Y0191638D01*
X0410855Y0191876D01*
X0410940Y0192115D01*
X0411019Y0192357D01*
X0411092Y0192601D01*
X0411159Y0192846D01*
X0411221Y0193093D01*
X0411276Y0193342D01*
X0411325Y0193592D01*
X0411368Y0193842D01*
X0411405Y0194094D01*
X0411436Y0194347D01*
X0411461Y0194600D01*
X0411480Y0194854D01*
X0411493Y0195108D01*
X0411499Y0195362D01*
X0411499Y0195617D01*
X0411493Y0195871D01*
X0411481Y0196126D01*
X0411463Y0196379D01*
X0411439Y0196633D01*
X0411408Y0196885D01*
X0411372Y0197137D01*
X0411329Y0197388D01*
X0411280Y0197638D01*
X0411225Y0197886D01*
X0411164Y0198133D01*
X0411098Y0198379D01*
X0411025Y0198623D01*
X0410946Y0198865D01*
X0410862Y0199105D01*
X0410771Y0199343D01*
X0410675Y0199579D01*
X0410574Y0199812D01*
X0410466Y0200043D01*
X0410354Y0200271D01*
X0410235Y0200496D01*
X0410111Y0200718D01*
X0409982Y0200938D01*
X0409848Y0201154D01*
X0409708Y0201367D01*
X0409563Y0201576D01*
X0409414Y0201782D01*
X0409259Y0201984D01*
X0409099Y0202182D01*
X0408935Y0202376D01*
X0408766Y0202567D01*
X0408593Y0202753D01*
X0408415Y0202935D01*
X0408232Y0203112D01*
X0408046Y0203285D01*
X0407855Y0203454D01*
X0407660Y0203618D01*
X0407461Y0203777D01*
X0407259Y0203931D01*
X0407053Y0204080D01*
X0406843Y0204224D01*
X0406630Y0204363D01*
X0406413Y0204497D01*
X0406194Y0204626D01*
X0405971Y0204749D01*
X0405745Y0204866D01*
X0405517Y0204979D01*
X0405286Y0205085D01*
X0405052Y0205186D01*
X0404816Y0205282D01*
X0404578Y0205371D01*
X0404338Y0205455D01*
X0404096Y0205533D01*
X0392127Y0194500D02*
X0390548Y0194500D01*
X0390548Y0162000D02*
X0392127Y0162000D01*
X0392754Y0156500D02*
X0409246Y0156500D01*
X0409873Y0162000D02*
X0411452Y0162000D01*
X0402127Y0162000D02*
X0399873Y0162000D01*
X0409246Y0156500D02*
X0409401Y0156702D01*
X0409551Y0156907D01*
X0409697Y0157116D01*
X0409837Y0157329D01*
X0409972Y0157545D01*
X0410101Y0157764D01*
X0410225Y0157986D01*
X0410344Y0158211D01*
X0410457Y0158439D01*
X0410565Y0158669D01*
X0410667Y0158902D01*
X0410764Y0159138D01*
X0410855Y0159376D01*
X0410940Y0159615D01*
X0411019Y0159857D01*
X0411092Y0160101D01*
X0411159Y0160346D01*
X0411221Y0160593D01*
X0411276Y0160842D01*
X0411325Y0161092D01*
X0411368Y0161342D01*
X0411405Y0161594D01*
X0411436Y0161847D01*
X0411461Y0162100D01*
X0411480Y0162354D01*
X0411493Y0162608D01*
X0411499Y0162862D01*
X0411499Y0163117D01*
X0411493Y0163371D01*
X0411481Y0163626D01*
X0411463Y0163879D01*
X0411439Y0164133D01*
X0411408Y0164385D01*
X0411372Y0164637D01*
X0411329Y0164888D01*
X0411280Y0165138D01*
X0411225Y0165386D01*
X0411164Y0165633D01*
X0411098Y0165879D01*
X0411025Y0166123D01*
X0410946Y0166365D01*
X0410862Y0166605D01*
X0410771Y0166843D01*
X0410675Y0167079D01*
X0410574Y0167312D01*
X0410466Y0167543D01*
X0410354Y0167771D01*
X0410235Y0167996D01*
X0410111Y0168218D01*
X0409982Y0168438D01*
X0409848Y0168654D01*
X0409708Y0168867D01*
X0409563Y0169076D01*
X0409414Y0169282D01*
X0409259Y0169484D01*
X0409099Y0169682D01*
X0408935Y0169876D01*
X0408766Y0170067D01*
X0408593Y0170253D01*
X0408415Y0170435D01*
X0408232Y0170612D01*
X0408046Y0170785D01*
X0407855Y0170954D01*
X0407660Y0171118D01*
X0407461Y0171277D01*
X0407259Y0171431D01*
X0407053Y0171580D01*
X0406843Y0171724D01*
X0406630Y0171863D01*
X0406413Y0171997D01*
X0406194Y0172126D01*
X0405971Y0172249D01*
X0405745Y0172366D01*
X0405517Y0172479D01*
X0405286Y0172585D01*
X0405052Y0172686D01*
X0404816Y0172782D01*
X0404578Y0172871D01*
X0404338Y0172955D01*
X0404096Y0173033D01*
X0397904Y0173033D02*
X0397662Y0172955D01*
X0397422Y0172872D01*
X0397184Y0172782D01*
X0396948Y0172687D01*
X0396714Y0172585D01*
X0396483Y0172479D01*
X0396255Y0172367D01*
X0396029Y0172249D01*
X0395806Y0172126D01*
X0395587Y0171997D01*
X0395370Y0171863D01*
X0395157Y0171724D01*
X0394947Y0171580D01*
X0394741Y0171431D01*
X0394539Y0171277D01*
X0394340Y0171118D01*
X0394145Y0170954D01*
X0393955Y0170785D01*
X0393768Y0170612D01*
X0393586Y0170435D01*
X0393408Y0170253D01*
X0393234Y0170067D01*
X0393065Y0169876D01*
X0392901Y0169682D01*
X0392741Y0169484D01*
X0392586Y0169282D01*
X0392437Y0169076D01*
X0392292Y0168867D01*
X0392152Y0168654D01*
X0392018Y0168438D01*
X0391889Y0168219D01*
X0391765Y0167996D01*
X0391647Y0167771D01*
X0391534Y0167543D01*
X0391426Y0167312D01*
X0391325Y0167079D01*
X0391229Y0166843D01*
X0391138Y0166605D01*
X0391054Y0166365D01*
X0390975Y0166123D01*
X0390902Y0165879D01*
X0390836Y0165634D01*
X0390775Y0165387D01*
X0390720Y0165138D01*
X0390671Y0164888D01*
X0390628Y0164637D01*
X0390592Y0164386D01*
X0390561Y0164133D01*
X0390537Y0163880D01*
X0390519Y0163626D01*
X0390507Y0163372D01*
X0390501Y0163117D01*
X0390501Y0162863D01*
X0390507Y0162608D01*
X0390520Y0162354D01*
X0390539Y0162100D01*
X0390564Y0161847D01*
X0390595Y0161594D01*
X0390632Y0161343D01*
X0390675Y0161092D01*
X0390724Y0160842D01*
X0390779Y0160594D01*
X0390841Y0160347D01*
X0390908Y0160101D01*
X0390981Y0159858D01*
X0391060Y0159616D01*
X0391145Y0159376D01*
X0391236Y0159138D01*
X0391333Y0158902D01*
X0391435Y0158669D01*
X0391542Y0158439D01*
X0391656Y0158211D01*
X0391775Y0157986D01*
X0391899Y0157764D01*
X0392028Y0157545D01*
X0392163Y0157329D01*
X0392303Y0157116D01*
X0392448Y0156907D01*
X0392599Y0156702D01*
X0392754Y0156500D01*
X0308100Y0091245D02*
X0308100Y0088977D01*
X0308100Y0090111D02*
X0303563Y0090111D01*
X0303563Y0088977D01*
X0301294Y0090111D02*
X0300160Y0090111D01*
X0301294Y0086580D02*
X0302428Y0085446D01*
X0308100Y0085446D01*
X0304697Y0086580D02*
X0304697Y0084311D01*
X0304697Y0081851D02*
X0308100Y0081851D01*
X0304697Y0081851D02*
X0303563Y0080716D01*
X0303563Y0077313D01*
X0308100Y0077313D01*
X0312694Y0072552D02*
X0312694Y0070283D01*
X0313828Y0069149D01*
X0312694Y0072552D02*
X0313828Y0073686D01*
X0316097Y0076147D02*
X0316097Y0080684D01*
X0154130Y0210008D02*
X0032870Y0210008D01*
X0032870Y0257370D01*
X0154130Y0257370D02*
X0154130Y0210008D01*
X0182500Y0244000D02*
X0189000Y0244000D01*
D12*
X0174920Y0243150D02*
X0170850Y0243150D01*
X0172885Y0243150D02*
X0172885Y0249255D01*
X0170850Y0247220D01*
X0170503Y0261850D02*
X0170503Y0267955D01*
X0167450Y0264903D01*
X0171520Y0264903D01*
X0173527Y0262868D02*
X0173527Y0266938D01*
X0174545Y0267955D01*
X0176580Y0267955D01*
X0177597Y0266938D01*
X0173527Y0262868D01*
X0174545Y0261850D01*
X0176580Y0261850D01*
X0177597Y0262868D01*
X0177597Y0266938D01*
X0096647Y0253152D02*
X0095380Y0253152D01*
X0095380Y0252201D01*
X0096014Y0252518D01*
X0096330Y0252518D01*
X0096647Y0252201D01*
X0096647Y0251567D01*
X0096330Y0251250D01*
X0095697Y0251250D01*
X0095380Y0251567D01*
X0094437Y0251250D02*
X0093170Y0251250D01*
X0093804Y0251250D02*
X0093804Y0253152D01*
X0093170Y0252518D01*
X0092228Y0252518D02*
X0091911Y0252201D01*
X0090960Y0252201D01*
X0090960Y0253152D02*
X0091911Y0253152D01*
X0092228Y0252835D01*
X0092228Y0252518D01*
X0091911Y0252201D02*
X0092228Y0251884D01*
X0092228Y0251567D01*
X0091911Y0251250D01*
X0090960Y0251250D01*
X0090960Y0253152D01*
X0090018Y0252835D02*
X0089701Y0253152D01*
X0088750Y0253152D01*
X0088750Y0251250D01*
X0089701Y0251250D01*
X0090018Y0251567D01*
X0090018Y0252835D01*
X0089701Y0255250D02*
X0090018Y0255567D01*
X0090018Y0257152D01*
X0090960Y0256835D02*
X0091277Y0257152D01*
X0091911Y0257152D01*
X0092228Y0256835D01*
X0091911Y0256201D02*
X0091277Y0256201D01*
X0090960Y0256518D01*
X0090960Y0256835D01*
X0091594Y0257469D02*
X0091594Y0254933D01*
X0091911Y0255250D02*
X0092228Y0255567D01*
X0092228Y0255884D01*
X0091911Y0256201D01*
X0091911Y0255250D02*
X0091277Y0255250D01*
X0090960Y0255567D01*
X0089701Y0255250D02*
X0089067Y0255250D01*
X0088750Y0255567D01*
X0088750Y0257152D01*
X0093170Y0256835D02*
X0093487Y0257152D01*
X0094121Y0257152D01*
X0094437Y0256835D01*
X0094437Y0256518D01*
X0093170Y0255250D01*
X0094437Y0255250D01*
X0214248Y0201991D02*
X0214248Y0201357D01*
X0214565Y0201040D01*
X0214248Y0200098D02*
X0214248Y0199464D01*
X0214248Y0199781D02*
X0215833Y0199781D01*
X0216150Y0199464D01*
X0216150Y0199147D01*
X0215833Y0198830D01*
X0216150Y0201040D02*
X0214882Y0202308D01*
X0214565Y0202308D01*
X0214248Y0201991D01*
X0216150Y0202308D02*
X0216150Y0201040D01*
X0219550Y0200638D02*
X0220568Y0201655D01*
X0222603Y0201655D01*
X0223620Y0200638D01*
X0223620Y0199620D01*
X0219550Y0195550D01*
X0223620Y0195550D01*
X0225627Y0195550D02*
X0229697Y0195550D01*
X0227662Y0195550D02*
X0227662Y0201655D01*
X0225627Y0199620D01*
X0257650Y0200938D02*
X0258668Y0201955D01*
X0260703Y0201955D01*
X0261720Y0200938D01*
X0261720Y0199920D01*
X0257650Y0195850D01*
X0261720Y0195850D01*
X0263727Y0196868D02*
X0267797Y0200938D01*
X0267797Y0196868D01*
X0266780Y0195850D01*
X0264745Y0195850D01*
X0263727Y0196868D01*
X0263727Y0200938D01*
X0264745Y0201955D01*
X0266780Y0201955D01*
X0267797Y0200938D01*
X0343607Y0187228D02*
X0346610Y0184225D01*
X0345859Y0184976D02*
X0348111Y0187228D01*
X0348111Y0184225D02*
X0343607Y0184225D01*
X0344358Y0182624D02*
X0347361Y0179622D01*
X0348111Y0180372D01*
X0348111Y0181873D01*
X0347361Y0182624D01*
X0344358Y0182624D01*
X0343607Y0181873D01*
X0343607Y0180372D01*
X0344358Y0179622D01*
X0347361Y0179622D01*
X0348111Y0178020D02*
X0348111Y0175018D01*
X0348111Y0176519D02*
X0343607Y0176519D01*
X0345109Y0175018D01*
X0368594Y0177545D02*
X0373098Y0177545D01*
X0373098Y0179046D02*
X0373098Y0176043D01*
X0370095Y0176043D02*
X0368594Y0177545D01*
X0369345Y0180647D02*
X0368594Y0181398D01*
X0368594Y0182899D01*
X0369345Y0183650D01*
X0372347Y0180647D01*
X0373098Y0181398D01*
X0373098Y0182899D01*
X0372347Y0183650D01*
X0369345Y0183650D01*
X0368594Y0185251D02*
X0373098Y0185251D01*
X0371597Y0185251D02*
X0368594Y0188254D01*
X0370846Y0186002D02*
X0373098Y0188254D01*
X0372347Y0180647D02*
X0369345Y0180647D01*
X0428865Y0182120D02*
X0428865Y0183621D01*
X0429615Y0184372D01*
X0432618Y0181369D01*
X0433369Y0182120D01*
X0433369Y0183621D01*
X0432618Y0184372D01*
X0429615Y0184372D01*
X0428865Y0185973D02*
X0433369Y0185973D01*
X0431867Y0185973D02*
X0428865Y0188976D01*
X0431117Y0186724D02*
X0433369Y0188976D01*
X0432618Y0181369D02*
X0429615Y0181369D01*
X0428865Y0182120D01*
X0428865Y0178266D02*
X0433369Y0178266D01*
X0433369Y0176765D02*
X0433369Y0179768D01*
X0430366Y0176765D02*
X0428865Y0178266D01*
X0453775Y0177815D02*
X0455276Y0176314D01*
X0453775Y0177815D02*
X0458278Y0177815D01*
X0458278Y0176314D02*
X0458278Y0179317D01*
X0457528Y0180918D02*
X0454525Y0183920D01*
X0457528Y0183920D01*
X0458278Y0183170D01*
X0458278Y0181669D01*
X0457528Y0180918D01*
X0454525Y0180918D01*
X0453775Y0181669D01*
X0453775Y0183170D01*
X0454525Y0183920D01*
X0453775Y0185522D02*
X0458278Y0185522D01*
X0456777Y0185522D02*
X0453775Y0188524D01*
X0456026Y0186272D02*
X0458278Y0188524D01*
X0395297Y0244368D02*
X0394280Y0243350D01*
X0392245Y0243350D01*
X0391227Y0244368D01*
X0395297Y0248438D01*
X0395297Y0244368D01*
X0391227Y0244368D02*
X0391227Y0248438D01*
X0392245Y0249455D01*
X0394280Y0249455D01*
X0395297Y0248438D01*
X0389220Y0248438D02*
X0389220Y0247420D01*
X0385150Y0243350D01*
X0389220Y0243350D01*
X0389220Y0248438D02*
X0388203Y0249455D01*
X0386168Y0249455D01*
X0385150Y0248438D01*
X0384850Y0261750D02*
X0388920Y0265820D01*
X0388920Y0266838D01*
X0387903Y0267855D01*
X0385868Y0267855D01*
X0384850Y0266838D01*
X0390927Y0265820D02*
X0392962Y0267855D01*
X0392962Y0261750D01*
X0390927Y0261750D02*
X0394997Y0261750D01*
X0388920Y0261750D02*
X0384850Y0261750D01*
X0148750Y0174522D02*
X0148750Y0173020D01*
X0147999Y0172270D01*
X0147249Y0172270D01*
X0146498Y0173020D01*
X0146498Y0174522D01*
X0147249Y0175272D01*
X0147999Y0175272D01*
X0148750Y0174522D01*
X0146498Y0174522D02*
X0145747Y0175272D01*
X0144997Y0175272D01*
X0144246Y0174522D01*
X0144246Y0173020D01*
X0144997Y0172270D01*
X0145747Y0172270D01*
X0146498Y0173020D01*
X0146498Y0170668D02*
X0146498Y0167666D01*
X0144246Y0169918D01*
X0148750Y0169918D01*
X0148750Y0166064D02*
X0148750Y0163062D01*
X0148750Y0164563D02*
X0144246Y0164563D01*
X0145747Y0163062D01*
X0146498Y0161460D02*
X0146498Y0158458D01*
X0144246Y0160710D01*
X0148750Y0160710D01*
X0148750Y0156856D02*
X0144246Y0156856D01*
X0144246Y0153854D02*
X0148750Y0156856D01*
X0148750Y0153854D02*
X0144246Y0153854D01*
X0144246Y0150751D02*
X0148750Y0150751D01*
X0148750Y0149250D02*
X0148750Y0152253D01*
X0145747Y0149250D02*
X0144246Y0150751D01*
X0116172Y0159127D02*
X0113170Y0162130D01*
X0112419Y0162130D01*
X0111668Y0161379D01*
X0111668Y0159878D01*
X0112419Y0159127D01*
X0116172Y0159127D02*
X0116172Y0162130D01*
X0116172Y0163731D02*
X0113170Y0166734D01*
X0112419Y0166734D01*
X0111668Y0165983D01*
X0111668Y0164482D01*
X0112419Y0163731D01*
X0116172Y0163731D02*
X0116172Y0166734D01*
X0115422Y0168335D02*
X0112419Y0168335D01*
X0111668Y0169086D01*
X0111668Y0170587D01*
X0112419Y0171338D01*
X0115422Y0168335D01*
X0116172Y0169086D01*
X0116172Y0170587D01*
X0115422Y0171338D01*
X0112419Y0171338D01*
X0090424Y0169838D02*
X0090424Y0168337D01*
X0089673Y0167586D01*
X0086670Y0170589D01*
X0089673Y0170589D01*
X0090424Y0169838D01*
X0089673Y0167586D02*
X0086670Y0167586D01*
X0085920Y0168337D01*
X0085920Y0169838D01*
X0086670Y0170589D01*
X0086670Y0165985D02*
X0085920Y0165234D01*
X0085920Y0163733D01*
X0086670Y0162982D01*
X0086670Y0161381D02*
X0085920Y0160630D01*
X0085920Y0159129D01*
X0086670Y0158379D01*
X0086670Y0161381D02*
X0087421Y0161381D01*
X0090424Y0158379D01*
X0090424Y0161381D01*
X0090424Y0162982D02*
X0087421Y0165985D01*
X0086670Y0165985D01*
X0090424Y0165985D02*
X0090424Y0162982D01*
X0073750Y0163062D02*
X0073750Y0166064D01*
X0073750Y0164563D02*
X0069246Y0164563D01*
X0070747Y0163062D01*
X0071498Y0161460D02*
X0071498Y0158458D01*
X0069246Y0160710D01*
X0073750Y0160710D01*
X0073750Y0156856D02*
X0069246Y0156856D01*
X0069246Y0153854D02*
X0073750Y0156856D01*
X0073750Y0153854D02*
X0069246Y0153854D01*
X0069246Y0150751D02*
X0073750Y0150751D01*
X0073750Y0149250D02*
X0073750Y0152253D01*
X0070747Y0149250D02*
X0069246Y0150751D01*
X0071498Y0167666D02*
X0071498Y0170668D01*
X0070747Y0172270D02*
X0069997Y0172270D01*
X0069246Y0173020D01*
X0069246Y0174522D01*
X0069997Y0175272D01*
X0070747Y0175272D01*
X0071498Y0174522D01*
X0071498Y0173020D01*
X0070747Y0172270D01*
X0071498Y0173020D02*
X0072249Y0172270D01*
X0072999Y0172270D01*
X0073750Y0173020D01*
X0073750Y0174522D01*
X0072999Y0175272D01*
X0072249Y0175272D01*
X0071498Y0174522D01*
X0069246Y0169918D02*
X0071498Y0167666D01*
X0073750Y0169918D02*
X0069246Y0169918D01*
X0040985Y0169273D02*
X0040234Y0168523D01*
X0037232Y0171525D01*
X0040234Y0171525D01*
X0040985Y0170775D01*
X0040985Y0169273D01*
X0040234Y0168523D02*
X0037232Y0168523D01*
X0036481Y0169273D01*
X0036481Y0170775D01*
X0037232Y0171525D01*
X0037232Y0166921D02*
X0036481Y0166171D01*
X0036481Y0164669D01*
X0037232Y0163919D01*
X0037232Y0162317D02*
X0036481Y0161567D01*
X0036481Y0160065D01*
X0037232Y0159315D01*
X0037232Y0162317D02*
X0037983Y0162317D01*
X0040985Y0159315D01*
X0040985Y0162317D01*
X0040985Y0163919D02*
X0037983Y0166921D01*
X0037232Y0166921D01*
X0040985Y0166921D02*
X0040985Y0163919D01*
X0086949Y0099020D02*
X0089951Y0096018D01*
X0090702Y0096768D01*
X0090702Y0098269D01*
X0089951Y0099020D01*
X0086949Y0099020D01*
X0086198Y0098269D01*
X0086198Y0096768D01*
X0086949Y0096018D01*
X0089951Y0096018D01*
X0090702Y0094416D02*
X0090702Y0091414D01*
X0087700Y0094416D01*
X0086949Y0094416D01*
X0086198Y0093666D01*
X0086198Y0092164D01*
X0086949Y0091414D01*
X0086949Y0089812D02*
X0086198Y0089062D01*
X0086198Y0087560D01*
X0086949Y0086810D01*
X0086949Y0089812D02*
X0087700Y0089812D01*
X0090702Y0086810D01*
X0090702Y0089812D01*
X0111011Y0088874D02*
X0111011Y0087373D01*
X0111762Y0086622D01*
X0111011Y0088874D02*
X0111762Y0089625D01*
X0112512Y0089625D01*
X0115515Y0086622D01*
X0115515Y0089625D01*
X0115515Y0091226D02*
X0112512Y0094229D01*
X0111762Y0094229D01*
X0111011Y0093478D01*
X0111011Y0091977D01*
X0111762Y0091226D01*
X0115515Y0091226D02*
X0115515Y0094229D01*
X0114764Y0095830D02*
X0111762Y0095830D01*
X0111011Y0096581D01*
X0111011Y0098082D01*
X0111762Y0098833D01*
X0114764Y0095830D01*
X0115515Y0096581D01*
X0115515Y0098082D01*
X0114764Y0098833D01*
X0111762Y0098833D01*
X0136385Y0098457D02*
X0137136Y0099207D01*
X0140139Y0096205D01*
X0140889Y0096955D01*
X0140889Y0098457D01*
X0140139Y0099207D01*
X0137136Y0099207D01*
X0136385Y0098457D02*
X0136385Y0096955D01*
X0137136Y0096205D01*
X0140139Y0096205D01*
X0140889Y0094603D02*
X0140889Y0091601D01*
X0137887Y0094603D01*
X0137136Y0094603D01*
X0136385Y0093853D01*
X0136385Y0092352D01*
X0137136Y0091601D01*
X0137136Y0090000D02*
X0136385Y0089249D01*
X0136385Y0087748D01*
X0137136Y0086997D01*
X0137136Y0090000D02*
X0137887Y0090000D01*
X0140889Y0086997D01*
X0140889Y0090000D01*
X0065798Y0090670D02*
X0062795Y0093672D01*
X0062045Y0093672D01*
X0061294Y0092922D01*
X0061294Y0091420D01*
X0062045Y0090670D01*
X0062045Y0089068D02*
X0061294Y0088318D01*
X0061294Y0086816D01*
X0062045Y0086066D01*
X0062045Y0089068D02*
X0062795Y0089068D01*
X0065798Y0086066D01*
X0065798Y0089068D01*
X0065798Y0090670D02*
X0065798Y0093672D01*
X0065047Y0095274D02*
X0062045Y0098276D01*
X0065047Y0098276D01*
X0065798Y0097526D01*
X0065798Y0096024D01*
X0065047Y0095274D01*
X0062045Y0095274D01*
X0061294Y0096024D01*
X0061294Y0097526D01*
X0062045Y0098276D01*
X0215850Y0007903D02*
X0219920Y0007903D01*
X0221927Y0005868D02*
X0221927Y0009938D01*
X0222945Y0010955D01*
X0224980Y0010955D01*
X0225997Y0009938D01*
X0221927Y0005868D01*
X0222945Y0004850D01*
X0224980Y0004850D01*
X0225997Y0005868D01*
X0225997Y0009938D01*
X0218903Y0010955D02*
X0215850Y0007903D01*
X0218903Y0010955D02*
X0218903Y0004850D01*
X0265850Y0005650D02*
X0269920Y0005650D01*
X0270848Y0006094D02*
X0272750Y0006094D01*
X0272750Y0005460D02*
X0272750Y0006728D01*
X0271482Y0005460D02*
X0270848Y0006094D01*
X0270848Y0004518D02*
X0270848Y0003884D01*
X0270848Y0004201D02*
X0272433Y0004201D01*
X0272750Y0003884D01*
X0272750Y0003567D01*
X0272433Y0003250D01*
X0267885Y0005650D02*
X0267885Y0011755D01*
X0265850Y0009720D01*
D13*
X0348971Y0066464D02*
X0351273Y0066464D01*
X0352040Y0067231D01*
X0352040Y0070300D01*
X0351273Y0071068D01*
X0348971Y0071068D01*
X0348971Y0066464D01*
X0353575Y0066464D02*
X0353575Y0071068D01*
X0355109Y0069533D01*
X0356644Y0071068D01*
X0356644Y0066464D01*
X0358179Y0066464D02*
X0361248Y0066464D01*
X0359713Y0066464D02*
X0359713Y0071068D01*
X0358179Y0069533D01*
X0362783Y0069533D02*
X0362783Y0066464D01*
X0362783Y0068766D02*
X0365852Y0068766D01*
X0365852Y0069533D02*
X0365852Y0066464D01*
X0367387Y0066464D02*
X0367387Y0069533D01*
X0368921Y0071068D01*
X0370456Y0069533D01*
X0370456Y0066464D01*
X0370456Y0068766D02*
X0367387Y0068766D01*
X0365852Y0069533D02*
X0364317Y0071068D01*
X0362783Y0069533D01*
X0371991Y0068766D02*
X0375060Y0068766D01*
X0376594Y0069533D02*
X0377362Y0068766D01*
X0378896Y0068766D01*
X0379664Y0067998D01*
X0379664Y0067231D01*
X0378896Y0066464D01*
X0377362Y0066464D01*
X0376594Y0067231D01*
X0376594Y0069533D02*
X0376594Y0070300D01*
X0377362Y0071068D01*
X0378896Y0071068D01*
X0379664Y0070300D01*
X0381198Y0071068D02*
X0384268Y0071068D01*
X0385802Y0068766D02*
X0388872Y0068766D01*
X0390406Y0067998D02*
X0392708Y0067998D01*
X0393475Y0068766D01*
X0393475Y0070300D01*
X0392708Y0071068D01*
X0390406Y0071068D01*
X0390406Y0066464D01*
X0395010Y0066464D02*
X0395010Y0071068D01*
X0398079Y0071068D01*
X0396545Y0068766D02*
X0395010Y0068766D01*
X0395010Y0066464D02*
X0398079Y0066464D01*
X0399614Y0067231D02*
X0400381Y0066464D01*
X0401149Y0066464D01*
X0401916Y0067231D01*
X0401916Y0071068D01*
X0401149Y0071068D02*
X0402683Y0071068D01*
X0404218Y0065696D02*
X0407287Y0065696D01*
X0408822Y0067231D02*
X0408822Y0067998D01*
X0409589Y0068766D01*
X0411124Y0068766D01*
X0411891Y0067998D01*
X0411891Y0067231D01*
X0411124Y0066464D01*
X0409589Y0066464D01*
X0408822Y0067231D01*
X0409589Y0068766D02*
X0408822Y0069533D01*
X0408822Y0070300D01*
X0409589Y0071068D01*
X0411124Y0071068D01*
X0411891Y0070300D01*
X0411891Y0069533D01*
X0411124Y0068766D01*
X0413426Y0070300D02*
X0414193Y0071068D01*
X0415728Y0071068D01*
X0416495Y0070300D01*
X0416495Y0069533D01*
X0413426Y0066464D01*
X0416495Y0066464D01*
X0418030Y0065696D02*
X0421099Y0065696D01*
X0382733Y0068766D02*
X0381198Y0068766D01*
X0381198Y0066464D02*
X0381198Y0071068D01*
X0279006Y0239200D02*
X0277471Y0239200D01*
X0276704Y0239967D01*
X0279773Y0243037D01*
X0279773Y0239967D01*
X0279006Y0239200D01*
X0276704Y0239967D02*
X0276704Y0243037D01*
X0277471Y0243804D01*
X0279006Y0243804D01*
X0279773Y0243037D01*
X0275169Y0239200D02*
X0272100Y0239200D01*
X0273635Y0239200D02*
X0273635Y0243804D01*
X0272100Y0242269D01*
X0282867Y0266900D02*
X0282000Y0267767D01*
X0282867Y0266900D02*
X0284602Y0266900D01*
X0285470Y0267767D01*
X0285470Y0268635D01*
X0284602Y0269502D01*
X0283735Y0269502D01*
X0284602Y0269502D02*
X0285470Y0270370D01*
X0285470Y0271237D01*
X0284602Y0272104D01*
X0282867Y0272104D01*
X0282000Y0271237D01*
X0287156Y0271237D02*
X0287156Y0267767D01*
X0290626Y0271237D01*
X0290626Y0267767D01*
X0289759Y0266900D01*
X0288024Y0266900D01*
X0287156Y0267767D01*
X0287156Y0271237D02*
X0288024Y0272104D01*
X0289759Y0272104D01*
X0290626Y0271237D01*
X0041707Y0102702D02*
X0041707Y0101168D01*
X0040940Y0100400D01*
X0037871Y0103470D01*
X0040940Y0103470D01*
X0041707Y0102702D01*
X0040940Y0100400D02*
X0037871Y0100400D01*
X0037103Y0101168D01*
X0037103Y0102702D01*
X0037871Y0103470D01*
X0037871Y0098866D02*
X0040940Y0095796D01*
X0041707Y0096564D01*
X0041707Y0098098D01*
X0040940Y0098866D01*
X0037871Y0098866D01*
X0037103Y0098098D01*
X0037103Y0096564D01*
X0037871Y0095796D01*
X0040940Y0095796D01*
X0041707Y0094262D02*
X0041707Y0091192D01*
X0038638Y0094262D01*
X0037871Y0094262D01*
X0037103Y0093494D01*
X0037103Y0091960D01*
X0037871Y0091192D01*
D14*
X0231000Y0023000D02*
X0231000Y0003000D01*
X0231000Y0023000D02*
X0258500Y0023000D01*
X0258500Y0003000D01*
D15*
X0138500Y0080250D03*
X0113500Y0080250D03*
X0088500Y0080250D03*
X0063500Y0080250D03*
X0063500Y0105750D03*
X0088500Y0105750D03*
X0113500Y0105750D03*
X0138500Y0105750D03*
X0113500Y0152750D03*
X0088500Y0152750D03*
X0088500Y0178250D03*
X0113500Y0178250D03*
X0038500Y0178250D03*
X0038500Y0152750D03*
X0346000Y0170250D03*
X0371000Y0170250D03*
X0371000Y0195750D03*
X0346000Y0195750D03*
X0431000Y0195750D03*
X0456000Y0195750D03*
X0456000Y0170250D03*
X0431000Y0170250D03*
D16*
X0425909Y0124161D02*
X0442969Y0124161D01*
X0442969Y0102614D01*
X0442969Y0092272D02*
X0442969Y0029673D01*
X0442969Y0004083D02*
X0332732Y0004083D01*
X0332732Y0102614D02*
X0332732Y0124161D01*
X0342256Y0124161D01*
D17*
X0411193Y0131512D02*
X0411195Y0131563D01*
X0411201Y0131613D01*
X0411211Y0131663D01*
X0411225Y0131712D01*
X0411242Y0131759D01*
X0411263Y0131805D01*
X0411288Y0131850D01*
X0411316Y0131892D01*
X0411348Y0131932D01*
X0411382Y0131969D01*
X0411419Y0132003D01*
X0411459Y0132035D01*
X0411501Y0132063D01*
X0411546Y0132088D01*
X0411592Y0132109D01*
X0411639Y0132126D01*
X0411688Y0132140D01*
X0411738Y0132150D01*
X0411788Y0132156D01*
X0411839Y0132158D01*
X0411890Y0132156D01*
X0411940Y0132150D01*
X0411990Y0132140D01*
X0412039Y0132126D01*
X0412086Y0132109D01*
X0412132Y0132088D01*
X0412177Y0132063D01*
X0412219Y0132035D01*
X0412259Y0132003D01*
X0412296Y0131969D01*
X0412330Y0131932D01*
X0412362Y0131892D01*
X0412390Y0131850D01*
X0412415Y0131805D01*
X0412436Y0131759D01*
X0412453Y0131712D01*
X0412467Y0131663D01*
X0412477Y0131613D01*
X0412483Y0131563D01*
X0412485Y0131512D01*
X0412483Y0131461D01*
X0412477Y0131411D01*
X0412467Y0131361D01*
X0412453Y0131312D01*
X0412436Y0131265D01*
X0412415Y0131219D01*
X0412390Y0131174D01*
X0412362Y0131132D01*
X0412330Y0131092D01*
X0412296Y0131055D01*
X0412259Y0131021D01*
X0412219Y0130989D01*
X0412177Y0130961D01*
X0412132Y0130936D01*
X0412086Y0130915D01*
X0412039Y0130898D01*
X0411990Y0130884D01*
X0411940Y0130874D01*
X0411890Y0130868D01*
X0411839Y0130866D01*
X0411788Y0130868D01*
X0411738Y0130874D01*
X0411688Y0130884D01*
X0411639Y0130898D01*
X0411592Y0130915D01*
X0411546Y0130936D01*
X0411501Y0130961D01*
X0411459Y0130989D01*
X0411419Y0131021D01*
X0411382Y0131055D01*
X0411348Y0131092D01*
X0411316Y0131132D01*
X0411288Y0131174D01*
X0411263Y0131219D01*
X0411242Y0131265D01*
X0411225Y0131312D01*
X0411211Y0131361D01*
X0411201Y0131411D01*
X0411195Y0131461D01*
X0411193Y0131512D01*
D18*
X0399000Y0133000D02*
X0378000Y0133000D01*
X0378000Y0143000D01*
X0399000Y0143000D01*
X0399000Y0133000D01*
X0388500Y0135500D02*
X0388500Y0140500D01*
X0044004Y0113850D02*
X0044004Y0076055D01*
X0026090Y0076055D01*
X0026090Y0082354D01*
X0027075Y0082354D01*
X0027075Y0107551D01*
X0026090Y0107551D01*
X0026090Y0113850D01*
X0044004Y0113850D01*
D19*
X0038295Y0081961D03*
D20*
X0063500Y0156500D03*
X0138500Y0156500D03*
D21*
X0138500Y0152750D03*
X0138500Y0173250D03*
X0063500Y0173250D03*
X0063500Y0152750D03*
D22*
X0413550Y0248050D02*
X0413550Y0249551D01*
X0414050Y0249051D01*
X0414551Y0249551D01*
X0414551Y0248050D01*
X0415023Y0248050D02*
X0415524Y0248050D01*
X0415273Y0248050D02*
X0415273Y0249551D01*
X0415023Y0249551D02*
X0415524Y0249551D01*
X0416005Y0249551D02*
X0417006Y0248050D01*
X0417006Y0249551D01*
X0417479Y0249551D02*
X0417979Y0249551D01*
X0417729Y0249551D02*
X0417729Y0248050D01*
X0417479Y0248050D02*
X0417979Y0248050D01*
X0418461Y0248801D02*
X0419462Y0248801D01*
X0419934Y0249551D02*
X0420685Y0249551D01*
X0420935Y0249301D01*
X0420935Y0248300D01*
X0420685Y0248050D01*
X0419934Y0248050D01*
X0419934Y0249551D01*
X0421407Y0249551D02*
X0421908Y0249551D01*
X0421658Y0249551D02*
X0421658Y0248050D01*
X0421908Y0248050D02*
X0421407Y0248050D01*
X0422390Y0248050D02*
X0422390Y0249551D01*
X0423390Y0248050D01*
X0423390Y0249551D01*
X0423863Y0248801D02*
X0424613Y0248801D01*
X0424864Y0248550D01*
X0424864Y0248300D01*
X0424613Y0248050D01*
X0424113Y0248050D01*
X0423863Y0248300D01*
X0423863Y0248801D01*
X0424363Y0249301D01*
X0424864Y0249551D01*
X0425336Y0249551D02*
X0426087Y0249551D01*
X0426337Y0249301D01*
X0426337Y0248801D01*
X0426087Y0248550D01*
X0425336Y0248550D01*
X0425336Y0248050D02*
X0425336Y0249551D01*
X0426809Y0249551D02*
X0427810Y0249551D01*
X0428283Y0249551D02*
X0428283Y0248050D01*
X0428283Y0248801D02*
X0429283Y0248801D01*
X0429283Y0249551D02*
X0429283Y0248050D01*
X0427310Y0248050D02*
X0427310Y0249551D01*
X0417497Y0253050D02*
X0416497Y0253050D01*
X0416997Y0253050D02*
X0416997Y0254551D01*
X0416497Y0254051D01*
X0416024Y0254301D02*
X0415774Y0254551D01*
X0415273Y0254551D01*
X0415023Y0254301D01*
X0415023Y0254051D01*
X0415273Y0253801D01*
X0415774Y0253801D01*
X0416024Y0253550D01*
X0416024Y0253300D01*
X0415774Y0253050D01*
X0415273Y0253050D01*
X0415023Y0253300D01*
X0414551Y0253300D02*
X0414551Y0254551D01*
X0413550Y0254551D02*
X0413550Y0253300D01*
X0413800Y0253050D01*
X0414301Y0253050D01*
X0414551Y0253300D01*
X0415524Y0252800D02*
X0415524Y0254801D01*
X0416005Y0249551D02*
X0416005Y0248050D01*
M02*
